%TF.GenerationSoftware,KiCad,Pcbnew,10.0.1*%
%TF.CreationDate,2026-05-02T22:20:29+05:30*%
%TF.ProjectId,solenoid,736f6c65-6e6f-4696-942e-6b696361645f,rev?*%
%TF.SameCoordinates,Original*%
%TF.FileFunction,Soldermask,Top*%
%TF.FilePolarity,Negative*%
%FSLAX46Y46*%
G04 Gerber Fmt 4.6, Leading zero omitted, Abs format (unit mm)*
G04 Created by KiCad (PCBNEW 10.0.1) date 2026-05-02 22:20:29*
%MOMM*%
%LPD*%
G01*
G04 APERTURE LIST*
G04 Aperture macros list*
%AMRoundRect*
0 Rectangle with rounded corners*
0 $1 Rounding radius*
0 $2 $3 $4 $5 $6 $7 $8 $9 X,Y pos of 4 corners*
0 Add a 4 corners polygon primitive as box body*
4,1,4,$2,$3,$4,$5,$6,$7,$8,$9,$2,$3,0*
0 Add four circle primitives for the rounded corners*
1,1,$1+$1,$2,$3*
1,1,$1+$1,$4,$5*
1,1,$1+$1,$6,$7*
1,1,$1+$1,$8,$9*
0 Add four rect primitives between the rounded corners*
20,1,$1+$1,$2,$3,$4,$5,0*
20,1,$1+$1,$4,$5,$6,$7,0*
20,1,$1+$1,$6,$7,$8,$9,0*
20,1,$1+$1,$8,$9,$2,$3,0*%
G04 Aperture macros list end*
%ADD10C,2.400000*%
%ADD11RoundRect,0.250001X0.949999X-0.949999X0.949999X0.949999X-0.949999X0.949999X-0.949999X-0.949999X0*%
%ADD12RoundRect,0.250001X0.949999X0.949999X-0.949999X0.949999X-0.949999X-0.949999X0.949999X-0.949999X0*%
%ADD13RoundRect,0.102000X-1.000000X-1.000000X1.000000X-1.000000X1.000000X1.000000X-1.000000X1.000000X0*%
%ADD14C,2.204000*%
%ADD15C,3.000000*%
%ADD16C,1.700000*%
%ADD17R,1.700000X1.700000*%
G04 APERTURE END LIST*
D10*
%TO.C,J19*%
X169500000Y-145000000D03*
D11*
X169500000Y-148500000D03*
%TD*%
D10*
%TO.C,J24*%
X169500000Y-99400000D03*
D11*
X169500000Y-102900000D03*
%TD*%
D12*
%TO.C,J16*%
X157500000Y-72500000D03*
D10*
X154000000Y-72500000D03*
%TD*%
D13*
%TO.C,U1*%
X94100000Y-98000000D03*
D14*
X94100000Y-100540000D03*
X94100000Y-103080000D03*
X94100000Y-105620000D03*
X94100000Y-108160000D03*
X94100000Y-110700000D03*
X94100000Y-113240000D03*
X94100000Y-115780000D03*
X94100000Y-118320000D03*
X94100000Y-120860000D03*
X94100000Y-123400000D03*
X94100000Y-125940000D03*
X94100000Y-128480000D03*
X94100000Y-131020000D03*
X94100000Y-133560000D03*
X119500000Y-98000000D03*
X119500000Y-100540000D03*
X119500000Y-103080000D03*
X119500000Y-105620000D03*
X119500000Y-108160000D03*
X119500000Y-110700000D03*
X119500000Y-113240000D03*
X119500000Y-115780000D03*
X119500000Y-118320000D03*
X119500000Y-120860000D03*
X119500000Y-123400000D03*
X119500000Y-125940000D03*
X119500000Y-128480000D03*
X119500000Y-131020000D03*
X119500000Y-133560000D03*
D15*
X94520000Y-136990000D03*
X119030000Y-136990000D03*
X119030000Y-90040000D03*
X94520000Y-90040000D03*
%TD*%
D10*
%TO.C,J27*%
X169500000Y-72400000D03*
D11*
X169500000Y-75900000D03*
%TD*%
D10*
%TO.C,J20*%
X169500000Y-135600000D03*
D11*
X169500000Y-139100000D03*
%TD*%
D10*
%TO.C,J22*%
X169500000Y-117500000D03*
D11*
X169500000Y-121000000D03*
%TD*%
D16*
%TO.C,J5*%
X114910000Y-150265000D03*
D17*
X114910000Y-147725000D03*
%TD*%
D10*
%TO.C,J26*%
X169500000Y-81450000D03*
D11*
X169500000Y-84950000D03*
%TD*%
D16*
%TO.C,J9*%
X133320000Y-150490000D03*
D17*
X133320000Y-147950000D03*
%TD*%
D12*
%TO.C,J1*%
X108500000Y-73500000D03*
D10*
X105000000Y-73500000D03*
%TD*%
D16*
%TO.C,J10*%
X137910000Y-150490000D03*
D17*
X137910000Y-147950000D03*
%TD*%
D16*
%TO.C,J11*%
X142500000Y-150490000D03*
D17*
X142500000Y-147950000D03*
%TD*%
D16*
%TO.C,J12*%
X147090000Y-150490000D03*
D17*
X147090000Y-147950000D03*
%TD*%
D16*
%TO.C,J4*%
X110320000Y-150265000D03*
D17*
X110320000Y-147725000D03*
%TD*%
D16*
%TO.C,J14*%
X156000000Y-150765000D03*
D17*
X156000000Y-148225000D03*
%TD*%
D16*
%TO.C,J13*%
X151410000Y-150765000D03*
D17*
X151410000Y-148225000D03*
%TD*%
D10*
%TO.C,J25*%
X169500000Y-90500000D03*
D11*
X169500000Y-94000000D03*
%TD*%
D16*
%TO.C,J15*%
X86000000Y-95540000D03*
D17*
X86000000Y-93000000D03*
%TD*%
D16*
%TO.C,J6*%
X119500000Y-150265000D03*
D17*
X119500000Y-147725000D03*
%TD*%
D16*
%TO.C,J7*%
X124090000Y-150265000D03*
D17*
X124090000Y-147725000D03*
%TD*%
D16*
%TO.C,J3*%
X105730000Y-150265000D03*
D17*
X105730000Y-147725000D03*
%TD*%
D12*
%TO.C,J2*%
X97000000Y-73500000D03*
D10*
X93500000Y-73500000D03*
%TD*%
D16*
%TO.C,J8*%
X128730000Y-150490000D03*
D17*
X128730000Y-147950000D03*
%TD*%
D12*
%TO.C,J18*%
X139400000Y-72500000D03*
D10*
X135900000Y-72500000D03*
%TD*%
%TO.C,J23*%
X169500000Y-108450000D03*
D11*
X169500000Y-111950000D03*
%TD*%
D12*
%TO.C,J17*%
X148450000Y-72500000D03*
D10*
X144950000Y-72500000D03*
%TD*%
%TO.C,J21*%
X169500000Y-126550000D03*
D11*
X169500000Y-130050000D03*
%TD*%
M02*
