%TF.GenerationSoftware,KiCad,Pcbnew,10.0.1*%
%TF.CreationDate,2026-05-02T22:20:29+05:30*%
%TF.ProjectId,solenoid,736f6c65-6e6f-4696-942e-6b696361645f,rev?*%
%TF.SameCoordinates,Original*%
%TF.FileFunction,Copper,L1,Top*%
%TF.FilePolarity,Positive*%
%FSLAX46Y46*%
G04 Gerber Fmt 4.6, Leading zero omitted, Abs format (unit mm)*
G04 Created by KiCad (PCBNEW 10.0.1) date 2026-05-02 22:20:29*
%MOMM*%
%LPD*%
G01*
G04 APERTURE LIST*
G04 Aperture macros list*
%AMRoundRect*
0 Rectangle with rounded corners*
0 $1 Rounding radius*
0 $2 $3 $4 $5 $6 $7 $8 $9 X,Y pos of 4 corners*
0 Add a 4 corners polygon primitive as box body*
4,1,4,$2,$3,$4,$5,$6,$7,$8,$9,$2,$3,0*
0 Add four circle primitives for the rounded corners*
1,1,$1+$1,$2,$3*
1,1,$1+$1,$4,$5*
1,1,$1+$1,$6,$7*
1,1,$1+$1,$8,$9*
0 Add four rect primitives between the rounded corners*
20,1,$1+$1,$2,$3,$4,$5,0*
20,1,$1+$1,$4,$5,$6,$7,0*
20,1,$1+$1,$6,$7,$8,$9,0*
20,1,$1+$1,$8,$9,$2,$3,0*%
G04 Aperture macros list end*
%TA.AperFunction,ComponentPad*%
%ADD10C,2.400000*%
%TD*%
%TA.AperFunction,ComponentPad*%
%ADD11RoundRect,0.250001X0.949999X-0.949999X0.949999X0.949999X-0.949999X0.949999X-0.949999X-0.949999X0*%
%TD*%
%TA.AperFunction,ComponentPad*%
%ADD12RoundRect,0.250001X0.949999X0.949999X-0.949999X0.949999X-0.949999X-0.949999X0.949999X-0.949999X0*%
%TD*%
%TA.AperFunction,ComponentPad*%
%ADD13R,2.000000X2.000000*%
%TD*%
%TA.AperFunction,ComponentPad*%
%ADD14C,2.000000*%
%TD*%
%TA.AperFunction,ComponentPad*%
%ADD15C,1.700000*%
%TD*%
%TA.AperFunction,ComponentPad*%
%ADD16R,1.700000X1.700000*%
%TD*%
%TA.AperFunction,ViaPad*%
%ADD17C,0.600000*%
%TD*%
%TA.AperFunction,Conductor*%
%ADD18C,0.300000*%
%TD*%
%TA.AperFunction,Conductor*%
%ADD19C,1.000000*%
%TD*%
G04 APERTURE END LIST*
D10*
%TO.P,J19,2,Pin_2_2*%
%TO.N,GND*%
X169500000Y-145000000D03*
D11*
%TO.P,J19,1,Pin_1_1*%
%TO.N,+12V*%
X169500000Y-148500000D03*
%TD*%
D10*
%TO.P,J24,2,Pin_2_2*%
%TO.N,GND*%
X169500000Y-99400000D03*
D11*
%TO.P,J24,1,Pin_1_1*%
%TO.N,+12V*%
X169500000Y-102900000D03*
%TD*%
D12*
%TO.P,J16,1,Pin_1_1*%
%TO.N,+12V*%
X157500000Y-72500000D03*
D10*
%TO.P,J16,2,Pin_2_2*%
%TO.N,GND*%
X154000000Y-72500000D03*
%TD*%
D13*
%TO.P,U1,1,3V3_1*%
%TO.N,unconnected-(U1-3V3-Pad1)*%
X94100000Y-98000000D03*
D14*
%TO.P,U1,2,GND_2*%
%TO.N,GND*%
X94100000Y-100540000D03*
%TO.P,U1,3,D15_3*%
%TO.N,unconnected-(U1-D15-Pad3)*%
X94100000Y-103080000D03*
%TO.P,U1,4,D2_4*%
%TO.N,unconnected-(U1-D2-Pad4)*%
X94100000Y-105620000D03*
%TO.P,U1,5,D4_5*%
%TO.N,unconnected-(U1-D4-Pad5)*%
X94100000Y-108160000D03*
%TO.P,U1,6,RX2_6*%
%TO.N,/GP16*%
X94100000Y-110700000D03*
%TO.P,U1,7,TX2_7*%
%TO.N,/GP17*%
X94100000Y-113240000D03*
%TO.P,U1,8,D5_8*%
%TO.N,unconnected-(U1-D5-Pad8)*%
X94100000Y-115780000D03*
%TO.P,U1,9,D18_9*%
%TO.N,/GP18*%
X94100000Y-118320000D03*
%TO.P,U1,10,D19_10*%
%TO.N,/GP19*%
X94100000Y-120860000D03*
%TO.P,U1,11,D21_11*%
%TO.N,/GP21*%
X94100000Y-123400000D03*
%TO.P,U1,12,RX0_12*%
%TO.N,Net-(J15-Pin_1)*%
X94100000Y-125940000D03*
%TO.P,U1,13,TX0_13*%
%TO.N,Net-(J15-Pin_2)*%
X94100000Y-128480000D03*
%TO.P,U1,14,D22_14*%
%TO.N,/GP22*%
X94100000Y-131020000D03*
%TO.P,U1,15,D23_15*%
%TO.N,/GP23*%
X94100000Y-133560000D03*
%TO.P,U1,30,VIN_30*%
%TO.N,+5V*%
X119500000Y-98000000D03*
%TO.P,U1,29,GND_29*%
%TO.N,GND*%
X119500000Y-100540000D03*
%TO.P,U1,28,D13_28*%
%TO.N,/GP13*%
X119500000Y-103080000D03*
%TO.P,U1,27,D12_27*%
%TO.N,unconnected-(U1-D12-Pad27)*%
X119500000Y-105620000D03*
%TO.P,U1,26,D14_26*%
%TO.N,/GP14*%
X119500000Y-108160000D03*
%TO.P,U1,25,D27_25*%
%TO.N,/GP27*%
X119500000Y-110700000D03*
%TO.P,U1,24,D26_24*%
%TO.N,/GP26*%
X119500000Y-113240000D03*
%TO.P,U1,23,D25_23*%
%TO.N,/GP25*%
X119500000Y-115780000D03*
%TO.P,U1,22,D33_22*%
%TO.N,unconnected-(U1-D33-Pad22)*%
X119500000Y-118320000D03*
%TO.P,U1,21,D32_21*%
%TO.N,unconnected-(U1-D32-Pad21)*%
X119500000Y-120860000D03*
%TO.P,U1,20,D35_20*%
%TO.N,unconnected-(U1-D35-Pad20)*%
X119500000Y-123400000D03*
%TO.P,U1,19,D34_19*%
%TO.N,unconnected-(U1-D34-Pad19)*%
X119500000Y-125940000D03*
%TO.P,U1,18,VN_18*%
%TO.N,unconnected-(U1-VN-Pad18)*%
X119500000Y-128480000D03*
%TO.P,U1,17,VP_17*%
%TO.N,unconnected-(U1-VP-Pad17)*%
X119500000Y-131020000D03*
%TO.P,U1,16,EN_16*%
%TO.N,unconnected-(U1-EN-Pad16)*%
X119500000Y-133560000D03*
%TD*%
D10*
%TO.P,J27,2,Pin_2_2*%
%TO.N,GND*%
X169500000Y-72400000D03*
D11*
%TO.P,J27,1,Pin_1_1*%
%TO.N,+12V*%
X169500000Y-75900000D03*
%TD*%
D10*
%TO.P,J20,2,Pin_2_2*%
%TO.N,GND*%
X169500000Y-135600000D03*
D11*
%TO.P,J20,1,Pin_1_1*%
%TO.N,+12V*%
X169500000Y-139100000D03*
%TD*%
D10*
%TO.P,J22,2,Pin_2_2*%
%TO.N,GND*%
X169500000Y-117500000D03*
D11*
%TO.P,J22,1,Pin_1_1*%
%TO.N,+12V*%
X169500000Y-121000000D03*
%TD*%
D15*
%TO.P,J5,2,Pin_2_2*%
%TO.N,GND*%
X114910000Y-150265000D03*
D16*
%TO.P,J5,1,Pin_1_1*%
%TO.N,/GP16*%
X114910000Y-147725000D03*
%TD*%
D10*
%TO.P,J26,2,Pin_2_2*%
%TO.N,GND*%
X169500000Y-81450000D03*
D11*
%TO.P,J26,1,Pin_1_1*%
%TO.N,+12V*%
X169500000Y-84950000D03*
%TD*%
D15*
%TO.P,J9,2,Pin_2_2*%
%TO.N,GND*%
X133320000Y-150490000D03*
D16*
%TO.P,J9,1,Pin_1_1*%
%TO.N,/GP21*%
X133320000Y-147950000D03*
%TD*%
D12*
%TO.P,J1,1,Pin_1_1*%
%TO.N,+12V*%
X108500000Y-73500000D03*
D10*
%TO.P,J1,2,Pin_2_2*%
%TO.N,GND*%
X105000000Y-73500000D03*
%TD*%
D15*
%TO.P,J10,2,Pin_2_2*%
%TO.N,GND*%
X137910000Y-150490000D03*
D16*
%TO.P,J10,1,Pin_1_1*%
%TO.N,/GP22*%
X137910000Y-147950000D03*
%TD*%
D15*
%TO.P,J11,2,Pin_2_2*%
%TO.N,GND*%
X142500000Y-150490000D03*
D16*
%TO.P,J11,1,Pin_1_1*%
%TO.N,/GP23*%
X142500000Y-147950000D03*
%TD*%
D15*
%TO.P,J12,2,Pin_2_2*%
%TO.N,GND*%
X147090000Y-150490000D03*
D16*
%TO.P,J12,1,Pin_1_1*%
%TO.N,/GP25*%
X147090000Y-147950000D03*
%TD*%
D15*
%TO.P,J4,2,Pin_2_2*%
%TO.N,GND*%
X110320000Y-150265000D03*
D16*
%TO.P,J4,1,Pin_1_1*%
%TO.N,/GP14*%
X110320000Y-147725000D03*
%TD*%
D15*
%TO.P,J14,2,Pin_2_2*%
%TO.N,GND*%
X156000000Y-150765000D03*
D16*
%TO.P,J14,1,Pin_1_1*%
%TO.N,/GP27*%
X156000000Y-148225000D03*
%TD*%
D15*
%TO.P,J13,2,Pin_2_2*%
%TO.N,GND*%
X151410000Y-150765000D03*
D16*
%TO.P,J13,1,Pin_1_1*%
%TO.N,/GP26*%
X151410000Y-148225000D03*
%TD*%
D10*
%TO.P,J25,2,Pin_2_2*%
%TO.N,GND*%
X169500000Y-90500000D03*
D11*
%TO.P,J25,1,Pin_1_1*%
%TO.N,+12V*%
X169500000Y-94000000D03*
%TD*%
D15*
%TO.P,J15,2,Pin_2_2*%
%TO.N,Net-(J15-Pin_2)*%
X86000000Y-95540000D03*
D16*
%TO.P,J15,1,Pin_1_1*%
%TO.N,Net-(J15-Pin_1)*%
X86000000Y-93000000D03*
%TD*%
D15*
%TO.P,J6,2,Pin_2_2*%
%TO.N,GND*%
X119500000Y-150265000D03*
D16*
%TO.P,J6,1,Pin_1_1*%
%TO.N,/GP17*%
X119500000Y-147725000D03*
%TD*%
D15*
%TO.P,J7,2,Pin_2_2*%
%TO.N,GND*%
X124090000Y-150265000D03*
D16*
%TO.P,J7,1,Pin_1_1*%
%TO.N,/GP18*%
X124090000Y-147725000D03*
%TD*%
D15*
%TO.P,J3,2,Pin_2_2*%
%TO.N,GND*%
X105730000Y-150265000D03*
D16*
%TO.P,J3,1,Pin_1_1*%
%TO.N,/GP13*%
X105730000Y-147725000D03*
%TD*%
D12*
%TO.P,J2,1,Pin_1_1*%
%TO.N,+5V*%
X97000000Y-73500000D03*
D10*
%TO.P,J2,2,Pin_2_2*%
%TO.N,GND*%
X93500000Y-73500000D03*
%TD*%
D15*
%TO.P,J8,2,Pin_2_2*%
%TO.N,GND*%
X128730000Y-150490000D03*
D16*
%TO.P,J8,1,Pin_1_1*%
%TO.N,/GP19*%
X128730000Y-147950000D03*
%TD*%
D12*
%TO.P,J18,1,Pin_1_1*%
%TO.N,+12V*%
X139400000Y-72500000D03*
D10*
%TO.P,J18,2,Pin_2_2*%
%TO.N,GND*%
X135900000Y-72500000D03*
%TD*%
%TO.P,J23,2,Pin_2_2*%
%TO.N,GND*%
X169500000Y-108450000D03*
D11*
%TO.P,J23,1,Pin_1_1*%
%TO.N,+12V*%
X169500000Y-111950000D03*
%TD*%
D12*
%TO.P,J17,1,Pin_1_1*%
%TO.N,+12V*%
X148450000Y-72500000D03*
D10*
%TO.P,J17,2,Pin_2_2*%
%TO.N,GND*%
X144950000Y-72500000D03*
%TD*%
%TO.P,J21,2,Pin_2_2*%
%TO.N,GND*%
X169500000Y-126550000D03*
D11*
%TO.P,J21,1,Pin_1_1*%
%TO.N,+12V*%
X169500000Y-130050000D03*
%TD*%
D17*
%TO.N,/GP17*%
X118738800Y-139655700D03*
%TD*%
%TO.N,/GP23*%
D18*
X142500000Y-147950000D02*
X141298300Y-147950000D01*
X97256900Y-136716900D02*
X94100000Y-133560000D01*
X97256900Y-138906900D02*
X97256900Y-136716900D01*
X99071400Y-140721400D02*
X97256900Y-138906900D01*
X134069700Y-140721400D02*
X99071400Y-140721400D01*
X141298300Y-147950000D02*
X134069700Y-140721400D01*
%TO.N,/GP22*%
X92369200Y-132750800D02*
X94100000Y-131020000D01*
X92369200Y-137843400D02*
X92369200Y-132750800D01*
X94838900Y-140313100D02*
X92369200Y-137843400D01*
X95755900Y-140313100D02*
X94838900Y-140313100D01*
X96665900Y-141223100D02*
X95755900Y-140313100D01*
X129981400Y-141223100D02*
X96665900Y-141223100D01*
X136708300Y-147950000D02*
X129981400Y-141223100D01*
X137910000Y-147950000D02*
X136708300Y-147950000D01*
%TO.N,/GP21*%
X133320000Y-147950000D02*
X132118300Y-147950000D01*
X128995000Y-144826700D02*
X132118300Y-147950000D01*
X99352500Y-144826700D02*
X128995000Y-144826700D01*
X95402600Y-140876800D02*
X99352500Y-144826700D01*
X94693200Y-140876800D02*
X95402600Y-140876800D01*
X91867500Y-138051100D02*
X94693200Y-140876800D01*
X91867500Y-125632500D02*
X91867500Y-138051100D01*
X94100000Y-123400000D02*
X91867500Y-125632500D01*
%TO.N,/GP19*%
X128730000Y-147950000D02*
X127528300Y-147950000D01*
X124906700Y-145328400D02*
X127528300Y-147950000D01*
X98435400Y-145328400D02*
X124906700Y-145328400D01*
X91365800Y-138258800D02*
X98435400Y-145328400D01*
X91365800Y-123594200D02*
X91365800Y-138258800D01*
X94100000Y-120860000D02*
X91365800Y-123594200D01*
%TO.N,/GP17*%
X118663700Y-139655700D02*
X118738800Y-139655700D01*
X116253100Y-137245100D02*
X118663700Y-139655700D01*
X116253100Y-132667200D02*
X116253100Y-137245100D01*
X96825900Y-113240000D02*
X116253100Y-132667200D01*
X94100000Y-113240000D02*
X96825900Y-113240000D01*
%TO.N,GND*%
D19*
X128730000Y-150490000D02*
X133320000Y-150490000D01*
X105730000Y-150265000D02*
X110320000Y-150265000D01*
X124090000Y-150265000D02*
X119500000Y-150265000D01*
X119500000Y-150265000D02*
X114910000Y-150265000D01*
X151410000Y-150765000D02*
X156000000Y-150765000D01*
X147365000Y-150765000D02*
X147090000Y-150490000D01*
X151410000Y-150765000D02*
X147365000Y-150765000D01*
X110320000Y-150265000D02*
X114910000Y-150265000D01*
X147090000Y-150490000D02*
X142500000Y-150490000D01*
X142500000Y-150490000D02*
X137910000Y-150490000D01*
X137910000Y-150490000D02*
X133320000Y-150490000D01*
X124315000Y-150490000D02*
X124090000Y-150265000D01*
X128730000Y-150490000D02*
X124315000Y-150490000D01*
X163735000Y-150765000D02*
X169500000Y-145000000D01*
X156000000Y-150765000D02*
X163735000Y-150765000D01*
X119500000Y-100540000D02*
X94100000Y-100540000D01*
X144950000Y-72500000D02*
X144950000Y-70567700D01*
X137832300Y-70567700D02*
X144950000Y-70567700D01*
X135900000Y-72500000D02*
X137832300Y-70567700D01*
X152067700Y-70567700D02*
X154000000Y-72500000D01*
X144950000Y-70567700D02*
X152067700Y-70567700D01*
X105000000Y-71574200D02*
X105000000Y-73500000D01*
X95425800Y-71574200D02*
X105000000Y-71574200D01*
X93500000Y-73500000D02*
X95425800Y-71574200D01*
X134974200Y-71574200D02*
X135900000Y-72500000D01*
X105000000Y-71574200D02*
X134974200Y-71574200D01*
X167481100Y-79431100D02*
X167481100Y-74418900D01*
X169500000Y-81450000D02*
X167481100Y-79431100D01*
X155918900Y-74418900D02*
X167481100Y-74418900D01*
X154000000Y-72500000D02*
X155918900Y-74418900D01*
X167481100Y-74418900D02*
X169500000Y-72400000D01*
%TO.N,+12V*%
X137492600Y-74407400D02*
X139400000Y-72500000D01*
X109407400Y-74407400D02*
X137492600Y-74407400D01*
X108500000Y-73500000D02*
X109407400Y-74407400D01*
X167598300Y-104801700D02*
X169500000Y-102900000D01*
X167598300Y-110048300D02*
X167598300Y-104801700D01*
X169500000Y-111950000D02*
X167598300Y-110048300D01*
%TD*%
M02*
