M48
; DRILL file KiCad 10.0.1 date 2026-05-02T22:20:55
; FORMAT={-:-/ absolute / metric / decimal}
; #@! TF.CreationDate,2026-05-02T22:20:55+05:30
; #@! TF.GenerationSoftware,Kicad,Pcbnew,10.0.1
; #@! TF.FileFunction,Plated,1,2,PTH
FMAT,2
METRIC
; #@! TA.AperFunction,Plated,PTH,ViaDrill
T1C0.300
; #@! TA.AperFunction,Plated,PTH,ComponentDrill
T2C1.000
; #@! TA.AperFunction,Plated,PTH,ComponentDrill
T3C1.020
; #@! TA.AperFunction,Plated,PTH,ComponentDrill
T4C1.200
%
G90
G05
T1
X118.739Y-139.656
T2
X86.0Y-93.0
X86.0Y-95.54
X105.73Y-147.725
X105.73Y-150.265
X110.32Y-147.725
X110.32Y-150.265
X114.91Y-147.725
X114.91Y-150.265
X119.5Y-147.725
X119.5Y-150.265
X124.09Y-147.725
X124.09Y-150.265
X128.73Y-147.95
X128.73Y-150.49
X133.32Y-147.95
X133.32Y-150.49
X137.91Y-147.95
X137.91Y-150.49
X142.5Y-147.95
X142.5Y-150.49
X147.09Y-147.95
X147.09Y-150.49
X151.41Y-148.225
X151.41Y-150.765
X156.0Y-148.225
X156.0Y-150.765
T3
X94.1Y-98.0
X94.1Y-100.54
X94.1Y-103.08
X94.1Y-105.62
X94.1Y-108.16
X94.1Y-110.7
X94.1Y-113.24
X94.1Y-115.78
X94.1Y-118.32
X94.1Y-120.86
X94.1Y-123.4
X94.1Y-125.94
X94.1Y-128.48
X94.1Y-131.02
X94.1Y-133.56
X119.5Y-98.0
X119.5Y-100.54
X119.5Y-103.08
X119.5Y-105.62
X119.5Y-108.16
X119.5Y-110.7
X119.5Y-113.24
X119.5Y-115.78
X119.5Y-118.32
X119.5Y-120.86
X119.5Y-123.4
X119.5Y-125.94
X119.5Y-128.48
X119.5Y-131.02
X119.5Y-133.56
T4
X93.5Y-73.5
X97.0Y-73.5
X105.0Y-73.5
X108.5Y-73.5
X135.9Y-72.5
X139.4Y-72.5
X144.95Y-72.5
X148.45Y-72.5
X154.0Y-72.5
X157.5Y-72.5
X169.5Y-72.4
X169.5Y-75.9
X169.5Y-81.45
X169.5Y-84.95
X169.5Y-90.5
X169.5Y-94.0
X169.5Y-99.4
X169.5Y-102.9
X169.5Y-108.45
X169.5Y-111.95
X169.5Y-117.5
X169.5Y-121.0
X169.5Y-126.55
X169.5Y-130.05
X169.5Y-135.6
X169.5Y-139.1
X169.5Y-145.0
X169.5Y-148.5
M30
