M48
; DRILL file KiCad 10.0.1 date 2026-05-05T18:53:50
; FORMAT={-:-/ absolute / metric / decimal}
; #@! TF.CreationDate,2026-05-05T18:53:50+05:30
; #@! TF.GenerationSoftware,Kicad,Pcbnew,10.0.1
; #@! TF.FileFunction,Plated,1,2,PTH
FMAT,2
METRIC
; #@! TA.AperFunction,Plated,PTH,ViaDrill
T1C0.300
; #@! TA.AperFunction,Plated,PTH,ComponentDrill
T2C0.800
; #@! TA.AperFunction,Plated,PTH,ComponentDrill
T3C1.000
; #@! TA.AperFunction,Plated,PTH,ComponentDrill
T4C1.020
; #@! TA.AperFunction,Plated,PTH,ComponentDrill
T5C1.200
%
G90
G05
T1
X79.0Y-100.5
X92.508Y-97.008
X94.301Y-98.054
X105.0Y-100.5
X112.5Y-83.0
X121.5Y-151.0
X135.0Y-125.0
X140.0Y-125.0
X146.5Y-151.0
X151.5Y-117.5
X155.0Y-120.0
X160.25Y-116.75
X163.0Y-152.0
X165.0Y-88.5
T2
X147.22Y-91.0
X147.22Y-103.7
X147.22Y-136.0
X147.22Y-148.7
X149.76Y-91.0
X149.76Y-103.7
X149.76Y-136.0
X149.76Y-148.7
X152.3Y-91.0
X152.3Y-103.7
X152.3Y-136.0
X152.3Y-148.7
X154.84Y-91.0
X154.84Y-103.7
X154.84Y-136.0
X154.84Y-148.7
X157.153Y-157.5
X157.38Y-91.0
X157.38Y-103.7
X157.38Y-136.0
X157.38Y-148.7
X159.92Y-91.0
X159.92Y-103.7
X159.92Y-136.0
X159.92Y-148.7
X160.653Y-157.5
X162.0Y-112.5
X162.46Y-91.0
X162.46Y-103.7
X162.46Y-136.0
X162.46Y-148.7
X165.0Y-91.0
X165.0Y-103.7
X165.0Y-136.0
X165.0Y-148.7
X165.5Y-112.5
T3
X80.96Y-80.0
X81.23Y-151.42
X81.23Y-153.96
X81.23Y-156.5
X83.5Y-80.0
X85.82Y-151.42
X85.82Y-153.96
X85.82Y-156.5
X86.04Y-80.0
X88.58Y-80.0
X90.41Y-151.42
X90.41Y-153.96
X90.41Y-156.5
X95.0Y-151.42
X95.0Y-153.96
X95.0Y-156.5
X142.19Y-157.5
X144.73Y-157.5
X147.27Y-157.5
X147.5Y-113.0
X149.81Y-157.5
X150.04Y-113.0
X150.84Y-78.5
X150.88Y-83.59
X152.58Y-113.0
X153.38Y-78.5
X153.38Y-129.41
X153.42Y-83.59
X153.42Y-124.0
X155.12Y-113.0
X155.92Y-78.5
X155.92Y-129.41
X155.96Y-83.59
X155.96Y-124.0
X158.46Y-129.41
X158.5Y-124.0
T4
X77.07Y-96.96
X77.07Y-99.5
X77.07Y-102.04
X77.07Y-104.58
X77.07Y-107.12
X77.07Y-109.66
X77.07Y-112.2
X77.07Y-114.74
X77.07Y-117.28
X77.07Y-119.82
X77.07Y-122.36
X77.07Y-124.9
X77.07Y-127.44
X77.07Y-129.98
X77.07Y-132.52
X102.47Y-96.96
X102.47Y-99.5
X102.47Y-102.04
X102.47Y-104.58
X102.47Y-107.12
X102.47Y-109.66
X102.47Y-112.2
X102.47Y-114.74
X102.47Y-117.28
X102.47Y-119.82
X102.47Y-122.36
X102.47Y-124.9
X102.47Y-127.44
X102.47Y-129.98
X102.47Y-132.52
T5
X116.0Y-82.0
X116.0Y-156.0
X119.5Y-82.0
X119.5Y-156.0
M30
