%TF.GenerationSoftware,KiCad,Pcbnew,10.0.1*%
%TF.CreationDate,2026-05-05T18:53:45+05:30*%
%TF.ProjectId,step,73746570-2e6b-4696-9361-645f70636258,rev?*%
%TF.SameCoordinates,Original*%
%TF.FileFunction,Soldermask,Top*%
%TF.FilePolarity,Negative*%
%FSLAX46Y46*%
G04 Gerber Fmt 4.6, Leading zero omitted, Abs format (unit mm)*
G04 Created by KiCad (PCBNEW 10.0.1) date 2026-05-05 18:53:45*
%MOMM*%
%LPD*%
G01*
G04 APERTURE LIST*
G04 Aperture macros list*
%AMRoundRect*
0 Rectangle with rounded corners*
0 $1 Rounding radius*
0 $2 $3 $4 $5 $6 $7 $8 $9 X,Y pos of 4 corners*
0 Add a 4 corners polygon primitive as box body*
4,1,4,$2,$3,$4,$5,$6,$7,$8,$9,$2,$3,0*
0 Add four circle primitives for the rounded corners*
1,1,$1+$1,$2,$3*
1,1,$1+$1,$4,$5*
1,1,$1+$1,$6,$7*
1,1,$1+$1,$8,$9*
0 Add four rect primitives between the rounded corners*
20,1,$1+$1,$2,$3,$4,$5,0*
20,1,$1+$1,$4,$5,$6,$7,0*
20,1,$1+$1,$6,$7,$8,$9,0*
20,1,$1+$1,$8,$9,$2,$3,0*%
G04 Aperture macros list end*
%ADD10R,1.700000X1.700000*%
%ADD11C,1.700000*%
%ADD12C,3.000000*%
%ADD13RoundRect,0.102000X-1.000000X-1.000000X1.000000X-1.000000X1.000000X1.000000X-1.000000X1.000000X0*%
%ADD14C,2.204000*%
%ADD15RoundRect,0.250001X-0.949999X-0.949999X0.949999X-0.949999X0.949999X0.949999X-0.949999X0.949999X0*%
%ADD16C,2.400000*%
%ADD17RoundRect,0.250001X0.949999X0.949999X-0.949999X0.949999X-0.949999X-0.949999X0.949999X-0.949999X0*%
%ADD18R,1.600000X1.600000*%
%ADD19O,1.600000X1.600000*%
%ADD20RoundRect,0.250000X0.550000X0.550000X-0.550000X0.550000X-0.550000X-0.550000X0.550000X-0.550000X0*%
%ADD21C,1.600000*%
G04 APERTURE END LIST*
D10*
%TO.C,J10*%
X153420000Y-124000000D03*
D11*
X155960000Y-124000000D03*
X158500000Y-124000000D03*
%TD*%
D10*
%TO.C,J3*%
X90410000Y-151420000D03*
D11*
X90410000Y-153960000D03*
X90410000Y-156500000D03*
%TD*%
D10*
%TO.C,J8*%
X150880000Y-83590000D03*
D11*
X153420000Y-83590000D03*
X155960000Y-83590000D03*
%TD*%
D12*
%TO.C,U1*%
X77490000Y-89000000D03*
X77490000Y-135950000D03*
X102000000Y-89000000D03*
X102000000Y-135950000D03*
D13*
X77070000Y-96960000D03*
D14*
X77070000Y-99500000D03*
X77070000Y-102040000D03*
X77070000Y-104580000D03*
X77070000Y-107120000D03*
X77070000Y-109660000D03*
X77070000Y-112200000D03*
X77070000Y-114740000D03*
X77070000Y-117280000D03*
X77070000Y-119820000D03*
X77070000Y-122360000D03*
X77070000Y-124900000D03*
X77070000Y-127440000D03*
X77070000Y-129980000D03*
X77070000Y-132520000D03*
X102470000Y-132520000D03*
X102470000Y-129980000D03*
X102470000Y-127440000D03*
X102470000Y-124900000D03*
X102470000Y-122360000D03*
X102470000Y-119820000D03*
X102470000Y-117280000D03*
X102470000Y-114740000D03*
X102470000Y-112200000D03*
X102470000Y-109660000D03*
X102470000Y-107120000D03*
X102470000Y-104580000D03*
X102470000Y-102040000D03*
X102470000Y-99500000D03*
X102470000Y-96960000D03*
%TD*%
D10*
%TO.C,J11*%
X150840000Y-78500000D03*
D11*
X153380000Y-78500000D03*
X155920000Y-78500000D03*
%TD*%
D15*
%TO.C,J5*%
X116000000Y-156000000D03*
D16*
X119500000Y-156000000D03*
%TD*%
D17*
%TO.C,J13*%
X119500000Y-82000000D03*
D16*
X116000000Y-82000000D03*
%TD*%
D18*
%TO.C,A1*%
X147220000Y-103700000D03*
D19*
X149760000Y-103700000D03*
X152300000Y-103700000D03*
X154840000Y-103700000D03*
X157380000Y-103700000D03*
X159920000Y-103700000D03*
X162460000Y-103700000D03*
X165000000Y-103700000D03*
X165000000Y-91000000D03*
X162460000Y-91000000D03*
X159920000Y-91000000D03*
X157380000Y-91000000D03*
X154840000Y-91000000D03*
X152300000Y-91000000D03*
X149760000Y-91000000D03*
X147220000Y-91000000D03*
%TD*%
D10*
%TO.C,J7*%
X142190000Y-157500000D03*
D11*
X144730000Y-157500000D03*
X147270000Y-157500000D03*
X149810000Y-157500000D03*
%TD*%
D20*
%TO.C,C1*%
X165500000Y-112500000D03*
D21*
X162000000Y-112500000D03*
%TD*%
D10*
%TO.C,J9*%
X153380000Y-129410000D03*
D11*
X155920000Y-129410000D03*
X158460000Y-129410000D03*
%TD*%
D10*
%TO.C,J1*%
X81230000Y-151420000D03*
D11*
X81230000Y-153960000D03*
X81230000Y-156500000D03*
%TD*%
D18*
%TO.C,A2*%
X147220000Y-148700000D03*
D19*
X149760000Y-148700000D03*
X152300000Y-148700000D03*
X154840000Y-148700000D03*
X157380000Y-148700000D03*
X159920000Y-148700000D03*
X162460000Y-148700000D03*
X165000000Y-148700000D03*
X165000000Y-136000000D03*
X162460000Y-136000000D03*
X159920000Y-136000000D03*
X157380000Y-136000000D03*
X154840000Y-136000000D03*
X152300000Y-136000000D03*
X149760000Y-136000000D03*
X147220000Y-136000000D03*
%TD*%
D10*
%TO.C,J6*%
X155120000Y-113000000D03*
D11*
X152580000Y-113000000D03*
X150040000Y-113000000D03*
X147500000Y-113000000D03*
%TD*%
D10*
%TO.C,J4*%
X95000000Y-151420000D03*
D11*
X95000000Y-153960000D03*
X95000000Y-156500000D03*
%TD*%
D10*
%TO.C,J12*%
X80960000Y-80000000D03*
D11*
X83500000Y-80000000D03*
X86040000Y-80000000D03*
X88580000Y-80000000D03*
%TD*%
D20*
%TO.C,C2*%
X160652700Y-157500000D03*
D21*
X157152700Y-157500000D03*
%TD*%
D10*
%TO.C,J2*%
X85820000Y-151420000D03*
D11*
X85820000Y-153960000D03*
X85820000Y-156500000D03*
%TD*%
M02*
