%TF.GenerationSoftware,KiCad,Pcbnew,10.0.1*%
%TF.CreationDate,2026-05-05T18:53:45+05:30*%
%TF.ProjectId,step,73746570-2e6b-4696-9361-645f70636258,rev?*%
%TF.SameCoordinates,Original*%
%TF.FileFunction,Legend,Top*%
%TF.FilePolarity,Positive*%
%FSLAX46Y46*%
G04 Gerber Fmt 4.6, Leading zero omitted, Abs format (unit mm)*
G04 Created by KiCad (PCBNEW 10.0.1) date 2026-05-05 18:53:45*
%MOMM*%
%LPD*%
G01*
G04 APERTURE LIST*
%ADD10C,0.100000*%
%ADD11C,0.150000*%
%ADD12C,0.120000*%
%ADD13C,0.127000*%
%ADD14C,0.200000*%
G04 APERTURE END LIST*
D10*
X116327693Y-150372419D02*
X115756265Y-150372419D01*
X116041979Y-150372419D02*
X116041979Y-149372419D01*
X116041979Y-149372419D02*
X115946741Y-149515276D01*
X115946741Y-149515276D02*
X115851503Y-149610514D01*
X115851503Y-149610514D02*
X115756265Y-149658133D01*
X116708646Y-149467657D02*
X116756265Y-149420038D01*
X116756265Y-149420038D02*
X116851503Y-149372419D01*
X116851503Y-149372419D02*
X117089598Y-149372419D01*
X117089598Y-149372419D02*
X117184836Y-149420038D01*
X117184836Y-149420038D02*
X117232455Y-149467657D01*
X117232455Y-149467657D02*
X117280074Y-149562895D01*
X117280074Y-149562895D02*
X117280074Y-149658133D01*
X117280074Y-149658133D02*
X117232455Y-149800990D01*
X117232455Y-149800990D02*
X116661027Y-150372419D01*
X116661027Y-150372419D02*
X117280074Y-150372419D01*
X117565789Y-149372419D02*
X117899122Y-150372419D01*
X117899122Y-150372419D02*
X118232455Y-149372419D01*
X119327694Y-150372419D02*
X119327694Y-149372419D01*
X119803884Y-150372419D02*
X119803884Y-149372419D01*
X119803884Y-149372419D02*
X120375312Y-150372419D01*
X120375312Y-150372419D02*
X120375312Y-149372419D01*
X78256265Y-151824800D02*
X78399122Y-151872419D01*
X78399122Y-151872419D02*
X78637217Y-151872419D01*
X78637217Y-151872419D02*
X78732455Y-151824800D01*
X78732455Y-151824800D02*
X78780074Y-151777180D01*
X78780074Y-151777180D02*
X78827693Y-151681942D01*
X78827693Y-151681942D02*
X78827693Y-151586704D01*
X78827693Y-151586704D02*
X78780074Y-151491466D01*
X78780074Y-151491466D02*
X78732455Y-151443847D01*
X78732455Y-151443847D02*
X78637217Y-151396228D01*
X78637217Y-151396228D02*
X78446741Y-151348609D01*
X78446741Y-151348609D02*
X78351503Y-151300990D01*
X78351503Y-151300990D02*
X78303884Y-151253371D01*
X78303884Y-151253371D02*
X78256265Y-151158133D01*
X78256265Y-151158133D02*
X78256265Y-151062895D01*
X78256265Y-151062895D02*
X78303884Y-150967657D01*
X78303884Y-150967657D02*
X78351503Y-150920038D01*
X78351503Y-150920038D02*
X78446741Y-150872419D01*
X78446741Y-150872419D02*
X78684836Y-150872419D01*
X78684836Y-150872419D02*
X78827693Y-150920038D01*
X78827693Y-153920038D02*
X78732455Y-153872419D01*
X78732455Y-153872419D02*
X78589598Y-153872419D01*
X78589598Y-153872419D02*
X78446741Y-153920038D01*
X78446741Y-153920038D02*
X78351503Y-154015276D01*
X78351503Y-154015276D02*
X78303884Y-154110514D01*
X78303884Y-154110514D02*
X78256265Y-154300990D01*
X78256265Y-154300990D02*
X78256265Y-154443847D01*
X78256265Y-154443847D02*
X78303884Y-154634323D01*
X78303884Y-154634323D02*
X78351503Y-154729561D01*
X78351503Y-154729561D02*
X78446741Y-154824800D01*
X78446741Y-154824800D02*
X78589598Y-154872419D01*
X78589598Y-154872419D02*
X78684836Y-154872419D01*
X78684836Y-154872419D02*
X78827693Y-154824800D01*
X78827693Y-154824800D02*
X78875312Y-154777180D01*
X78875312Y-154777180D02*
X78875312Y-154443847D01*
X78875312Y-154443847D02*
X78684836Y-154443847D01*
X78161027Y-156372419D02*
X78494360Y-157372419D01*
X78494360Y-157372419D02*
X78827693Y-156372419D01*
X80256265Y-76824800D02*
X80399122Y-76872419D01*
X80399122Y-76872419D02*
X80637217Y-76872419D01*
X80637217Y-76872419D02*
X80732455Y-76824800D01*
X80732455Y-76824800D02*
X80780074Y-76777180D01*
X80780074Y-76777180D02*
X80827693Y-76681942D01*
X80827693Y-76681942D02*
X80827693Y-76586704D01*
X80827693Y-76586704D02*
X80780074Y-76491466D01*
X80780074Y-76491466D02*
X80732455Y-76443847D01*
X80732455Y-76443847D02*
X80637217Y-76396228D01*
X80637217Y-76396228D02*
X80446741Y-76348609D01*
X80446741Y-76348609D02*
X80351503Y-76300990D01*
X80351503Y-76300990D02*
X80303884Y-76253371D01*
X80303884Y-76253371D02*
X80256265Y-76158133D01*
X80256265Y-76158133D02*
X80256265Y-76062895D01*
X80256265Y-76062895D02*
X80303884Y-75967657D01*
X80303884Y-75967657D02*
X80351503Y-75920038D01*
X80351503Y-75920038D02*
X80446741Y-75872419D01*
X80446741Y-75872419D02*
X80684836Y-75872419D01*
X80684836Y-75872419D02*
X80827693Y-75920038D01*
X81637217Y-76824800D02*
X81541979Y-76872419D01*
X81541979Y-76872419D02*
X81351503Y-76872419D01*
X81351503Y-76872419D02*
X81256265Y-76824800D01*
X81256265Y-76824800D02*
X81208646Y-76729561D01*
X81208646Y-76729561D02*
X81208646Y-76348609D01*
X81208646Y-76348609D02*
X81256265Y-76253371D01*
X81256265Y-76253371D02*
X81351503Y-76205752D01*
X81351503Y-76205752D02*
X81541979Y-76205752D01*
X81541979Y-76205752D02*
X81637217Y-76253371D01*
X81637217Y-76253371D02*
X81684836Y-76348609D01*
X81684836Y-76348609D02*
X81684836Y-76443847D01*
X81684836Y-76443847D02*
X81208646Y-76539085D01*
X82113408Y-76872419D02*
X82113408Y-76205752D01*
X82113408Y-76396228D02*
X82161027Y-76300990D01*
X82161027Y-76300990D02*
X82208646Y-76253371D01*
X82208646Y-76253371D02*
X82303884Y-76205752D01*
X82303884Y-76205752D02*
X82399122Y-76205752D01*
X82732456Y-76872419D02*
X82732456Y-76205752D01*
X82732456Y-75872419D02*
X82684837Y-75920038D01*
X82684837Y-75920038D02*
X82732456Y-75967657D01*
X82732456Y-75967657D02*
X82780075Y-75920038D01*
X82780075Y-75920038D02*
X82732456Y-75872419D01*
X82732456Y-75872419D02*
X82732456Y-75967657D01*
X83637217Y-76872419D02*
X83637217Y-76348609D01*
X83637217Y-76348609D02*
X83589598Y-76253371D01*
X83589598Y-76253371D02*
X83494360Y-76205752D01*
X83494360Y-76205752D02*
X83303884Y-76205752D01*
X83303884Y-76205752D02*
X83208646Y-76253371D01*
X83637217Y-76824800D02*
X83541979Y-76872419D01*
X83541979Y-76872419D02*
X83303884Y-76872419D01*
X83303884Y-76872419D02*
X83208646Y-76824800D01*
X83208646Y-76824800D02*
X83161027Y-76729561D01*
X83161027Y-76729561D02*
X83161027Y-76634323D01*
X83161027Y-76634323D02*
X83208646Y-76539085D01*
X83208646Y-76539085D02*
X83303884Y-76491466D01*
X83303884Y-76491466D02*
X83541979Y-76491466D01*
X83541979Y-76491466D02*
X83637217Y-76443847D01*
X84256265Y-76872419D02*
X84161027Y-76824800D01*
X84161027Y-76824800D02*
X84113408Y-76729561D01*
X84113408Y-76729561D02*
X84113408Y-75872419D01*
X115137217Y-74848609D02*
X115280074Y-74896228D01*
X115280074Y-74896228D02*
X115327693Y-74943847D01*
X115327693Y-74943847D02*
X115375312Y-75039085D01*
X115375312Y-75039085D02*
X115375312Y-75181942D01*
X115375312Y-75181942D02*
X115327693Y-75277180D01*
X115327693Y-75277180D02*
X115280074Y-75324800D01*
X115280074Y-75324800D02*
X115184836Y-75372419D01*
X115184836Y-75372419D02*
X114803884Y-75372419D01*
X114803884Y-75372419D02*
X114803884Y-74372419D01*
X114803884Y-74372419D02*
X115137217Y-74372419D01*
X115137217Y-74372419D02*
X115232455Y-74420038D01*
X115232455Y-74420038D02*
X115280074Y-74467657D01*
X115280074Y-74467657D02*
X115327693Y-74562895D01*
X115327693Y-74562895D02*
X115327693Y-74658133D01*
X115327693Y-74658133D02*
X115280074Y-74753371D01*
X115280074Y-74753371D02*
X115232455Y-74800990D01*
X115232455Y-74800990D02*
X115137217Y-74848609D01*
X115137217Y-74848609D02*
X114803884Y-74848609D01*
X116232455Y-74705752D02*
X116232455Y-75372419D01*
X115803884Y-74705752D02*
X115803884Y-75229561D01*
X115803884Y-75229561D02*
X115851503Y-75324800D01*
X115851503Y-75324800D02*
X115946741Y-75372419D01*
X115946741Y-75372419D02*
X116089598Y-75372419D01*
X116089598Y-75372419D02*
X116184836Y-75324800D01*
X116184836Y-75324800D02*
X116232455Y-75277180D01*
X117137217Y-75324800D02*
X117041979Y-75372419D01*
X117041979Y-75372419D02*
X116851503Y-75372419D01*
X116851503Y-75372419D02*
X116756265Y-75324800D01*
X116756265Y-75324800D02*
X116708646Y-75277180D01*
X116708646Y-75277180D02*
X116661027Y-75181942D01*
X116661027Y-75181942D02*
X116661027Y-74896228D01*
X116661027Y-74896228D02*
X116708646Y-74800990D01*
X116708646Y-74800990D02*
X116756265Y-74753371D01*
X116756265Y-74753371D02*
X116851503Y-74705752D01*
X116851503Y-74705752D02*
X117041979Y-74705752D01*
X117041979Y-74705752D02*
X117137217Y-74753371D01*
X117565789Y-75372419D02*
X117565789Y-74372419D01*
X117661027Y-74991466D02*
X117946741Y-75372419D01*
X117946741Y-74705752D02*
X117565789Y-75086704D01*
X119137218Y-75372419D02*
X119137218Y-74372419D01*
X119613408Y-75372419D02*
X119613408Y-74372419D01*
X119613408Y-74372419D02*
X120184836Y-75372419D01*
X120184836Y-75372419D02*
X120184836Y-74372419D01*
X136803884Y-81372419D02*
X136803884Y-80372419D01*
X136803884Y-80372419D02*
X137137217Y-81086704D01*
X137137217Y-81086704D02*
X137470550Y-80372419D01*
X137470550Y-80372419D02*
X137470550Y-81372419D01*
X137946741Y-81372419D02*
X137946741Y-80705752D01*
X137946741Y-80372419D02*
X137899122Y-80420038D01*
X137899122Y-80420038D02*
X137946741Y-80467657D01*
X137946741Y-80467657D02*
X137994360Y-80420038D01*
X137994360Y-80420038D02*
X137946741Y-80372419D01*
X137946741Y-80372419D02*
X137946741Y-80467657D01*
X138851502Y-81324800D02*
X138756264Y-81372419D01*
X138756264Y-81372419D02*
X138565788Y-81372419D01*
X138565788Y-81372419D02*
X138470550Y-81324800D01*
X138470550Y-81324800D02*
X138422931Y-81277180D01*
X138422931Y-81277180D02*
X138375312Y-81181942D01*
X138375312Y-81181942D02*
X138375312Y-80896228D01*
X138375312Y-80896228D02*
X138422931Y-80800990D01*
X138422931Y-80800990D02*
X138470550Y-80753371D01*
X138470550Y-80753371D02*
X138565788Y-80705752D01*
X138565788Y-80705752D02*
X138756264Y-80705752D01*
X138756264Y-80705752D02*
X138851502Y-80753371D01*
X139280074Y-81372419D02*
X139280074Y-80705752D01*
X139280074Y-80896228D02*
X139327693Y-80800990D01*
X139327693Y-80800990D02*
X139375312Y-80753371D01*
X139375312Y-80753371D02*
X139470550Y-80705752D01*
X139470550Y-80705752D02*
X139565788Y-80705752D01*
X140041979Y-81372419D02*
X139946741Y-81324800D01*
X139946741Y-81324800D02*
X139899122Y-81277180D01*
X139899122Y-81277180D02*
X139851503Y-81181942D01*
X139851503Y-81181942D02*
X139851503Y-80896228D01*
X139851503Y-80896228D02*
X139899122Y-80800990D01*
X139899122Y-80800990D02*
X139946741Y-80753371D01*
X139946741Y-80753371D02*
X140041979Y-80705752D01*
X140041979Y-80705752D02*
X140184836Y-80705752D01*
X140184836Y-80705752D02*
X140280074Y-80753371D01*
X140280074Y-80753371D02*
X140327693Y-80800990D01*
X140327693Y-80800990D02*
X140375312Y-80896228D01*
X140375312Y-80896228D02*
X140375312Y-81181942D01*
X140375312Y-81181942D02*
X140327693Y-81277180D01*
X140327693Y-81277180D02*
X140280074Y-81324800D01*
X140280074Y-81324800D02*
X140184836Y-81372419D01*
X140184836Y-81372419D02*
X140041979Y-81372419D01*
X140756265Y-81324800D02*
X140851503Y-81372419D01*
X140851503Y-81372419D02*
X141041979Y-81372419D01*
X141041979Y-81372419D02*
X141137217Y-81324800D01*
X141137217Y-81324800D02*
X141184836Y-81229561D01*
X141184836Y-81229561D02*
X141184836Y-81181942D01*
X141184836Y-81181942D02*
X141137217Y-81086704D01*
X141137217Y-81086704D02*
X141041979Y-81039085D01*
X141041979Y-81039085D02*
X140899122Y-81039085D01*
X140899122Y-81039085D02*
X140803884Y-80991466D01*
X140803884Y-80991466D02*
X140756265Y-80896228D01*
X140756265Y-80896228D02*
X140756265Y-80848609D01*
X140756265Y-80848609D02*
X140803884Y-80753371D01*
X140803884Y-80753371D02*
X140899122Y-80705752D01*
X140899122Y-80705752D02*
X141041979Y-80705752D01*
X141041979Y-80705752D02*
X141137217Y-80753371D01*
X141470551Y-80705752D02*
X141851503Y-80705752D01*
X141613408Y-80372419D02*
X141613408Y-81229561D01*
X141613408Y-81229561D02*
X141661027Y-81324800D01*
X141661027Y-81324800D02*
X141756265Y-81372419D01*
X141756265Y-81372419D02*
X141851503Y-81372419D01*
X142565789Y-81324800D02*
X142470551Y-81372419D01*
X142470551Y-81372419D02*
X142280075Y-81372419D01*
X142280075Y-81372419D02*
X142184837Y-81324800D01*
X142184837Y-81324800D02*
X142137218Y-81229561D01*
X142137218Y-81229561D02*
X142137218Y-80848609D01*
X142137218Y-80848609D02*
X142184837Y-80753371D01*
X142184837Y-80753371D02*
X142280075Y-80705752D01*
X142280075Y-80705752D02*
X142470551Y-80705752D01*
X142470551Y-80705752D02*
X142565789Y-80753371D01*
X142565789Y-80753371D02*
X142613408Y-80848609D01*
X142613408Y-80848609D02*
X142613408Y-80943847D01*
X142613408Y-80943847D02*
X142137218Y-81039085D01*
X143041980Y-80705752D02*
X143041980Y-81705752D01*
X143041980Y-80753371D02*
X143137218Y-80705752D01*
X143137218Y-80705752D02*
X143327694Y-80705752D01*
X143327694Y-80705752D02*
X143422932Y-80753371D01*
X143422932Y-80753371D02*
X143470551Y-80800990D01*
X143470551Y-80800990D02*
X143518170Y-80896228D01*
X143518170Y-80896228D02*
X143518170Y-81181942D01*
X143518170Y-81181942D02*
X143470551Y-81277180D01*
X143470551Y-81277180D02*
X143422932Y-81324800D01*
X143422932Y-81324800D02*
X143327694Y-81372419D01*
X143327694Y-81372419D02*
X143137218Y-81372419D01*
X143137218Y-81372419D02*
X143041980Y-81324800D01*
X143946742Y-80705752D02*
X143946742Y-81705752D01*
X143946742Y-80753371D02*
X144041980Y-80705752D01*
X144041980Y-80705752D02*
X144232456Y-80705752D01*
X144232456Y-80705752D02*
X144327694Y-80753371D01*
X144327694Y-80753371D02*
X144375313Y-80800990D01*
X144375313Y-80800990D02*
X144422932Y-80896228D01*
X144422932Y-80896228D02*
X144422932Y-81181942D01*
X144422932Y-81181942D02*
X144375313Y-81277180D01*
X144375313Y-81277180D02*
X144327694Y-81324800D01*
X144327694Y-81324800D02*
X144232456Y-81372419D01*
X144232456Y-81372419D02*
X144041980Y-81372419D01*
X144041980Y-81372419D02*
X143946742Y-81324800D01*
X144851504Y-81372419D02*
X144851504Y-80705752D01*
X144851504Y-80372419D02*
X144803885Y-80420038D01*
X144803885Y-80420038D02*
X144851504Y-80467657D01*
X144851504Y-80467657D02*
X144899123Y-80420038D01*
X144899123Y-80420038D02*
X144851504Y-80372419D01*
X144851504Y-80372419D02*
X144851504Y-80467657D01*
X145327694Y-80705752D02*
X145327694Y-81372419D01*
X145327694Y-80800990D02*
X145375313Y-80753371D01*
X145375313Y-80753371D02*
X145470551Y-80705752D01*
X145470551Y-80705752D02*
X145613408Y-80705752D01*
X145613408Y-80705752D02*
X145708646Y-80753371D01*
X145708646Y-80753371D02*
X145756265Y-80848609D01*
X145756265Y-80848609D02*
X145756265Y-81372419D01*
X146661027Y-80705752D02*
X146661027Y-81515276D01*
X146661027Y-81515276D02*
X146613408Y-81610514D01*
X146613408Y-81610514D02*
X146565789Y-81658133D01*
X146565789Y-81658133D02*
X146470551Y-81705752D01*
X146470551Y-81705752D02*
X146327694Y-81705752D01*
X146327694Y-81705752D02*
X146232456Y-81658133D01*
X146661027Y-81324800D02*
X146565789Y-81372419D01*
X146565789Y-81372419D02*
X146375313Y-81372419D01*
X146375313Y-81372419D02*
X146280075Y-81324800D01*
X146280075Y-81324800D02*
X146232456Y-81277180D01*
X146232456Y-81277180D02*
X146184837Y-81181942D01*
X146184837Y-81181942D02*
X146184837Y-80896228D01*
X146184837Y-80896228D02*
X146232456Y-80800990D01*
X146232456Y-80800990D02*
X146280075Y-80753371D01*
X146280075Y-80753371D02*
X146375313Y-80705752D01*
X146375313Y-80705752D02*
X146565789Y-80705752D01*
X146565789Y-80705752D02*
X146661027Y-80753371D01*
X148422932Y-81372419D02*
X147851504Y-81372419D01*
X148137218Y-81372419D02*
X148137218Y-80372419D01*
X148137218Y-80372419D02*
X148041980Y-80515276D01*
X148041980Y-80515276D02*
X147946742Y-80610514D01*
X147946742Y-80610514D02*
X147851504Y-80658133D01*
X139803884Y-126872419D02*
X139803884Y-125872419D01*
X139803884Y-125872419D02*
X140137217Y-126586704D01*
X140137217Y-126586704D02*
X140470550Y-125872419D01*
X140470550Y-125872419D02*
X140470550Y-126872419D01*
X140946741Y-126872419D02*
X140946741Y-126205752D01*
X140946741Y-125872419D02*
X140899122Y-125920038D01*
X140899122Y-125920038D02*
X140946741Y-125967657D01*
X140946741Y-125967657D02*
X140994360Y-125920038D01*
X140994360Y-125920038D02*
X140946741Y-125872419D01*
X140946741Y-125872419D02*
X140946741Y-125967657D01*
X141851502Y-126824800D02*
X141756264Y-126872419D01*
X141756264Y-126872419D02*
X141565788Y-126872419D01*
X141565788Y-126872419D02*
X141470550Y-126824800D01*
X141470550Y-126824800D02*
X141422931Y-126777180D01*
X141422931Y-126777180D02*
X141375312Y-126681942D01*
X141375312Y-126681942D02*
X141375312Y-126396228D01*
X141375312Y-126396228D02*
X141422931Y-126300990D01*
X141422931Y-126300990D02*
X141470550Y-126253371D01*
X141470550Y-126253371D02*
X141565788Y-126205752D01*
X141565788Y-126205752D02*
X141756264Y-126205752D01*
X141756264Y-126205752D02*
X141851502Y-126253371D01*
X142280074Y-126872419D02*
X142280074Y-126205752D01*
X142280074Y-126396228D02*
X142327693Y-126300990D01*
X142327693Y-126300990D02*
X142375312Y-126253371D01*
X142375312Y-126253371D02*
X142470550Y-126205752D01*
X142470550Y-126205752D02*
X142565788Y-126205752D01*
X143041979Y-126872419D02*
X142946741Y-126824800D01*
X142946741Y-126824800D02*
X142899122Y-126777180D01*
X142899122Y-126777180D02*
X142851503Y-126681942D01*
X142851503Y-126681942D02*
X142851503Y-126396228D01*
X142851503Y-126396228D02*
X142899122Y-126300990D01*
X142899122Y-126300990D02*
X142946741Y-126253371D01*
X142946741Y-126253371D02*
X143041979Y-126205752D01*
X143041979Y-126205752D02*
X143184836Y-126205752D01*
X143184836Y-126205752D02*
X143280074Y-126253371D01*
X143280074Y-126253371D02*
X143327693Y-126300990D01*
X143327693Y-126300990D02*
X143375312Y-126396228D01*
X143375312Y-126396228D02*
X143375312Y-126681942D01*
X143375312Y-126681942D02*
X143327693Y-126777180D01*
X143327693Y-126777180D02*
X143280074Y-126824800D01*
X143280074Y-126824800D02*
X143184836Y-126872419D01*
X143184836Y-126872419D02*
X143041979Y-126872419D01*
X143756265Y-126824800D02*
X143851503Y-126872419D01*
X143851503Y-126872419D02*
X144041979Y-126872419D01*
X144041979Y-126872419D02*
X144137217Y-126824800D01*
X144137217Y-126824800D02*
X144184836Y-126729561D01*
X144184836Y-126729561D02*
X144184836Y-126681942D01*
X144184836Y-126681942D02*
X144137217Y-126586704D01*
X144137217Y-126586704D02*
X144041979Y-126539085D01*
X144041979Y-126539085D02*
X143899122Y-126539085D01*
X143899122Y-126539085D02*
X143803884Y-126491466D01*
X143803884Y-126491466D02*
X143756265Y-126396228D01*
X143756265Y-126396228D02*
X143756265Y-126348609D01*
X143756265Y-126348609D02*
X143803884Y-126253371D01*
X143803884Y-126253371D02*
X143899122Y-126205752D01*
X143899122Y-126205752D02*
X144041979Y-126205752D01*
X144041979Y-126205752D02*
X144137217Y-126253371D01*
X144470551Y-126205752D02*
X144851503Y-126205752D01*
X144613408Y-125872419D02*
X144613408Y-126729561D01*
X144613408Y-126729561D02*
X144661027Y-126824800D01*
X144661027Y-126824800D02*
X144756265Y-126872419D01*
X144756265Y-126872419D02*
X144851503Y-126872419D01*
X145565789Y-126824800D02*
X145470551Y-126872419D01*
X145470551Y-126872419D02*
X145280075Y-126872419D01*
X145280075Y-126872419D02*
X145184837Y-126824800D01*
X145184837Y-126824800D02*
X145137218Y-126729561D01*
X145137218Y-126729561D02*
X145137218Y-126348609D01*
X145137218Y-126348609D02*
X145184837Y-126253371D01*
X145184837Y-126253371D02*
X145280075Y-126205752D01*
X145280075Y-126205752D02*
X145470551Y-126205752D01*
X145470551Y-126205752D02*
X145565789Y-126253371D01*
X145565789Y-126253371D02*
X145613408Y-126348609D01*
X145613408Y-126348609D02*
X145613408Y-126443847D01*
X145613408Y-126443847D02*
X145137218Y-126539085D01*
X146041980Y-126205752D02*
X146041980Y-127205752D01*
X146041980Y-126253371D02*
X146137218Y-126205752D01*
X146137218Y-126205752D02*
X146327694Y-126205752D01*
X146327694Y-126205752D02*
X146422932Y-126253371D01*
X146422932Y-126253371D02*
X146470551Y-126300990D01*
X146470551Y-126300990D02*
X146518170Y-126396228D01*
X146518170Y-126396228D02*
X146518170Y-126681942D01*
X146518170Y-126681942D02*
X146470551Y-126777180D01*
X146470551Y-126777180D02*
X146422932Y-126824800D01*
X146422932Y-126824800D02*
X146327694Y-126872419D01*
X146327694Y-126872419D02*
X146137218Y-126872419D01*
X146137218Y-126872419D02*
X146041980Y-126824800D01*
X146946742Y-126205752D02*
X146946742Y-127205752D01*
X146946742Y-126253371D02*
X147041980Y-126205752D01*
X147041980Y-126205752D02*
X147232456Y-126205752D01*
X147232456Y-126205752D02*
X147327694Y-126253371D01*
X147327694Y-126253371D02*
X147375313Y-126300990D01*
X147375313Y-126300990D02*
X147422932Y-126396228D01*
X147422932Y-126396228D02*
X147422932Y-126681942D01*
X147422932Y-126681942D02*
X147375313Y-126777180D01*
X147375313Y-126777180D02*
X147327694Y-126824800D01*
X147327694Y-126824800D02*
X147232456Y-126872419D01*
X147232456Y-126872419D02*
X147041980Y-126872419D01*
X147041980Y-126872419D02*
X146946742Y-126824800D01*
X147851504Y-126872419D02*
X147851504Y-126205752D01*
X147851504Y-125872419D02*
X147803885Y-125920038D01*
X147803885Y-125920038D02*
X147851504Y-125967657D01*
X147851504Y-125967657D02*
X147899123Y-125920038D01*
X147899123Y-125920038D02*
X147851504Y-125872419D01*
X147851504Y-125872419D02*
X147851504Y-125967657D01*
X148327694Y-126205752D02*
X148327694Y-126872419D01*
X148327694Y-126300990D02*
X148375313Y-126253371D01*
X148375313Y-126253371D02*
X148470551Y-126205752D01*
X148470551Y-126205752D02*
X148613408Y-126205752D01*
X148613408Y-126205752D02*
X148708646Y-126253371D01*
X148708646Y-126253371D02*
X148756265Y-126348609D01*
X148756265Y-126348609D02*
X148756265Y-126872419D01*
X149661027Y-126205752D02*
X149661027Y-127015276D01*
X149661027Y-127015276D02*
X149613408Y-127110514D01*
X149613408Y-127110514D02*
X149565789Y-127158133D01*
X149565789Y-127158133D02*
X149470551Y-127205752D01*
X149470551Y-127205752D02*
X149327694Y-127205752D01*
X149327694Y-127205752D02*
X149232456Y-127158133D01*
X149661027Y-126824800D02*
X149565789Y-126872419D01*
X149565789Y-126872419D02*
X149375313Y-126872419D01*
X149375313Y-126872419D02*
X149280075Y-126824800D01*
X149280075Y-126824800D02*
X149232456Y-126777180D01*
X149232456Y-126777180D02*
X149184837Y-126681942D01*
X149184837Y-126681942D02*
X149184837Y-126396228D01*
X149184837Y-126396228D02*
X149232456Y-126300990D01*
X149232456Y-126300990D02*
X149280075Y-126253371D01*
X149280075Y-126253371D02*
X149375313Y-126205752D01*
X149375313Y-126205752D02*
X149565789Y-126205752D01*
X149565789Y-126205752D02*
X149661027Y-126253371D01*
X150851504Y-125967657D02*
X150899123Y-125920038D01*
X150899123Y-125920038D02*
X150994361Y-125872419D01*
X150994361Y-125872419D02*
X151232456Y-125872419D01*
X151232456Y-125872419D02*
X151327694Y-125920038D01*
X151327694Y-125920038D02*
X151375313Y-125967657D01*
X151375313Y-125967657D02*
X151422932Y-126062895D01*
X151422932Y-126062895D02*
X151422932Y-126158133D01*
X151422932Y-126158133D02*
X151375313Y-126300990D01*
X151375313Y-126300990D02*
X150803885Y-126872419D01*
X150803885Y-126872419D02*
X151422932Y-126872419D01*
D11*
X141336779Y-160869819D02*
X141336779Y-159869819D01*
X141336779Y-159869819D02*
X141670112Y-160584104D01*
X141670112Y-160584104D02*
X142003445Y-159869819D01*
X142003445Y-159869819D02*
X142003445Y-160869819D01*
X142622493Y-160869819D02*
X142527255Y-160822200D01*
X142527255Y-160822200D02*
X142479636Y-160774580D01*
X142479636Y-160774580D02*
X142432017Y-160679342D01*
X142432017Y-160679342D02*
X142432017Y-160393628D01*
X142432017Y-160393628D02*
X142479636Y-160298390D01*
X142479636Y-160298390D02*
X142527255Y-160250771D01*
X142527255Y-160250771D02*
X142622493Y-160203152D01*
X142622493Y-160203152D02*
X142765350Y-160203152D01*
X142765350Y-160203152D02*
X142860588Y-160250771D01*
X142860588Y-160250771D02*
X142908207Y-160298390D01*
X142908207Y-160298390D02*
X142955826Y-160393628D01*
X142955826Y-160393628D02*
X142955826Y-160679342D01*
X142955826Y-160679342D02*
X142908207Y-160774580D01*
X142908207Y-160774580D02*
X142860588Y-160822200D01*
X142860588Y-160822200D02*
X142765350Y-160869819D01*
X142765350Y-160869819D02*
X142622493Y-160869819D01*
X143241541Y-160203152D02*
X143622493Y-160203152D01*
X143384398Y-159869819D02*
X143384398Y-160726961D01*
X143384398Y-160726961D02*
X143432017Y-160822200D01*
X143432017Y-160822200D02*
X143527255Y-160869819D01*
X143527255Y-160869819D02*
X143622493Y-160869819D01*
X144098684Y-160869819D02*
X144003446Y-160822200D01*
X144003446Y-160822200D02*
X143955827Y-160774580D01*
X143955827Y-160774580D02*
X143908208Y-160679342D01*
X143908208Y-160679342D02*
X143908208Y-160393628D01*
X143908208Y-160393628D02*
X143955827Y-160298390D01*
X143955827Y-160298390D02*
X144003446Y-160250771D01*
X144003446Y-160250771D02*
X144098684Y-160203152D01*
X144098684Y-160203152D02*
X144241541Y-160203152D01*
X144241541Y-160203152D02*
X144336779Y-160250771D01*
X144336779Y-160250771D02*
X144384398Y-160298390D01*
X144384398Y-160298390D02*
X144432017Y-160393628D01*
X144432017Y-160393628D02*
X144432017Y-160679342D01*
X144432017Y-160679342D02*
X144384398Y-160774580D01*
X144384398Y-160774580D02*
X144336779Y-160822200D01*
X144336779Y-160822200D02*
X144241541Y-160869819D01*
X144241541Y-160869819D02*
X144098684Y-160869819D01*
X144860589Y-160869819D02*
X144860589Y-160203152D01*
X144860589Y-160393628D02*
X144908208Y-160298390D01*
X144908208Y-160298390D02*
X144955827Y-160250771D01*
X144955827Y-160250771D02*
X145051065Y-160203152D01*
X145051065Y-160203152D02*
X145146303Y-160203152D01*
X146193923Y-159965057D02*
X146241542Y-159917438D01*
X146241542Y-159917438D02*
X146336780Y-159869819D01*
X146336780Y-159869819D02*
X146574875Y-159869819D01*
X146574875Y-159869819D02*
X146670113Y-159917438D01*
X146670113Y-159917438D02*
X146717732Y-159965057D01*
X146717732Y-159965057D02*
X146765351Y-160060295D01*
X146765351Y-160060295D02*
X146765351Y-160155533D01*
X146765351Y-160155533D02*
X146717732Y-160298390D01*
X146717732Y-160298390D02*
X146146304Y-160869819D01*
X146146304Y-160869819D02*
X146765351Y-160869819D01*
X148146304Y-159869819D02*
X148336780Y-159869819D01*
X148336780Y-159869819D02*
X148432018Y-159917438D01*
X148432018Y-159917438D02*
X148527256Y-160012676D01*
X148527256Y-160012676D02*
X148574875Y-160203152D01*
X148574875Y-160203152D02*
X148574875Y-160536485D01*
X148574875Y-160536485D02*
X148527256Y-160726961D01*
X148527256Y-160726961D02*
X148432018Y-160822200D01*
X148432018Y-160822200D02*
X148336780Y-160869819D01*
X148336780Y-160869819D02*
X148146304Y-160869819D01*
X148146304Y-160869819D02*
X148051066Y-160822200D01*
X148051066Y-160822200D02*
X147955828Y-160726961D01*
X147955828Y-160726961D02*
X147908209Y-160536485D01*
X147908209Y-160536485D02*
X147908209Y-160203152D01*
X147908209Y-160203152D02*
X147955828Y-160012676D01*
X147955828Y-160012676D02*
X148051066Y-159917438D01*
X148051066Y-159917438D02*
X148146304Y-159869819D01*
X149003447Y-159869819D02*
X149003447Y-160679342D01*
X149003447Y-160679342D02*
X149051066Y-160774580D01*
X149051066Y-160774580D02*
X149098685Y-160822200D01*
X149098685Y-160822200D02*
X149193923Y-160869819D01*
X149193923Y-160869819D02*
X149384399Y-160869819D01*
X149384399Y-160869819D02*
X149479637Y-160822200D01*
X149479637Y-160822200D02*
X149527256Y-160774580D01*
X149527256Y-160774580D02*
X149574875Y-160679342D01*
X149574875Y-160679342D02*
X149574875Y-159869819D01*
X149908209Y-159869819D02*
X150479637Y-159869819D01*
X150193923Y-160869819D02*
X150193923Y-159869819D01*
X146836779Y-116369819D02*
X146836779Y-115369819D01*
X146836779Y-115369819D02*
X147170112Y-116084104D01*
X147170112Y-116084104D02*
X147503445Y-115369819D01*
X147503445Y-115369819D02*
X147503445Y-116369819D01*
X148122493Y-116369819D02*
X148027255Y-116322200D01*
X148027255Y-116322200D02*
X147979636Y-116274580D01*
X147979636Y-116274580D02*
X147932017Y-116179342D01*
X147932017Y-116179342D02*
X147932017Y-115893628D01*
X147932017Y-115893628D02*
X147979636Y-115798390D01*
X147979636Y-115798390D02*
X148027255Y-115750771D01*
X148027255Y-115750771D02*
X148122493Y-115703152D01*
X148122493Y-115703152D02*
X148265350Y-115703152D01*
X148265350Y-115703152D02*
X148360588Y-115750771D01*
X148360588Y-115750771D02*
X148408207Y-115798390D01*
X148408207Y-115798390D02*
X148455826Y-115893628D01*
X148455826Y-115893628D02*
X148455826Y-116179342D01*
X148455826Y-116179342D02*
X148408207Y-116274580D01*
X148408207Y-116274580D02*
X148360588Y-116322200D01*
X148360588Y-116322200D02*
X148265350Y-116369819D01*
X148265350Y-116369819D02*
X148122493Y-116369819D01*
X148741541Y-115703152D02*
X149122493Y-115703152D01*
X148884398Y-115369819D02*
X148884398Y-116226961D01*
X148884398Y-116226961D02*
X148932017Y-116322200D01*
X148932017Y-116322200D02*
X149027255Y-116369819D01*
X149027255Y-116369819D02*
X149122493Y-116369819D01*
X149598684Y-116369819D02*
X149503446Y-116322200D01*
X149503446Y-116322200D02*
X149455827Y-116274580D01*
X149455827Y-116274580D02*
X149408208Y-116179342D01*
X149408208Y-116179342D02*
X149408208Y-115893628D01*
X149408208Y-115893628D02*
X149455827Y-115798390D01*
X149455827Y-115798390D02*
X149503446Y-115750771D01*
X149503446Y-115750771D02*
X149598684Y-115703152D01*
X149598684Y-115703152D02*
X149741541Y-115703152D01*
X149741541Y-115703152D02*
X149836779Y-115750771D01*
X149836779Y-115750771D02*
X149884398Y-115798390D01*
X149884398Y-115798390D02*
X149932017Y-115893628D01*
X149932017Y-115893628D02*
X149932017Y-116179342D01*
X149932017Y-116179342D02*
X149884398Y-116274580D01*
X149884398Y-116274580D02*
X149836779Y-116322200D01*
X149836779Y-116322200D02*
X149741541Y-116369819D01*
X149741541Y-116369819D02*
X149598684Y-116369819D01*
X150360589Y-116369819D02*
X150360589Y-115703152D01*
X150360589Y-115893628D02*
X150408208Y-115798390D01*
X150408208Y-115798390D02*
X150455827Y-115750771D01*
X150455827Y-115750771D02*
X150551065Y-115703152D01*
X150551065Y-115703152D02*
X150646303Y-115703152D01*
X152265351Y-116369819D02*
X151693923Y-116369819D01*
X151979637Y-116369819D02*
X151979637Y-115369819D01*
X151979637Y-115369819D02*
X151884399Y-115512676D01*
X151884399Y-115512676D02*
X151789161Y-115607914D01*
X151789161Y-115607914D02*
X151693923Y-115655533D01*
X153646304Y-115369819D02*
X153836780Y-115369819D01*
X153836780Y-115369819D02*
X153932018Y-115417438D01*
X153932018Y-115417438D02*
X154027256Y-115512676D01*
X154027256Y-115512676D02*
X154074875Y-115703152D01*
X154074875Y-115703152D02*
X154074875Y-116036485D01*
X154074875Y-116036485D02*
X154027256Y-116226961D01*
X154027256Y-116226961D02*
X153932018Y-116322200D01*
X153932018Y-116322200D02*
X153836780Y-116369819D01*
X153836780Y-116369819D02*
X153646304Y-116369819D01*
X153646304Y-116369819D02*
X153551066Y-116322200D01*
X153551066Y-116322200D02*
X153455828Y-116226961D01*
X153455828Y-116226961D02*
X153408209Y-116036485D01*
X153408209Y-116036485D02*
X153408209Y-115703152D01*
X153408209Y-115703152D02*
X153455828Y-115512676D01*
X153455828Y-115512676D02*
X153551066Y-115417438D01*
X153551066Y-115417438D02*
X153646304Y-115369819D01*
X154503447Y-115369819D02*
X154503447Y-116179342D01*
X154503447Y-116179342D02*
X154551066Y-116274580D01*
X154551066Y-116274580D02*
X154598685Y-116322200D01*
X154598685Y-116322200D02*
X154693923Y-116369819D01*
X154693923Y-116369819D02*
X154884399Y-116369819D01*
X154884399Y-116369819D02*
X154979637Y-116322200D01*
X154979637Y-116322200D02*
X155027256Y-116274580D01*
X155027256Y-116274580D02*
X155074875Y-116179342D01*
X155074875Y-116179342D02*
X155074875Y-115369819D01*
X155408209Y-115369819D02*
X155979637Y-115369819D01*
X155693923Y-116369819D02*
X155693923Y-115369819D01*
X81369819Y-146687030D02*
X81369819Y-147163220D01*
X81369819Y-147163220D02*
X80369819Y-147163220D01*
X81369819Y-146353696D02*
X80703152Y-146353696D01*
X80369819Y-146353696D02*
X80417438Y-146401315D01*
X80417438Y-146401315D02*
X80465057Y-146353696D01*
X80465057Y-146353696D02*
X80417438Y-146306077D01*
X80417438Y-146306077D02*
X80369819Y-146353696D01*
X80369819Y-146353696D02*
X80465057Y-146353696D01*
X81369819Y-145877506D02*
X80703152Y-145877506D01*
X80798390Y-145877506D02*
X80750771Y-145829887D01*
X80750771Y-145829887D02*
X80703152Y-145734649D01*
X80703152Y-145734649D02*
X80703152Y-145591792D01*
X80703152Y-145591792D02*
X80750771Y-145496554D01*
X80750771Y-145496554D02*
X80846009Y-145448935D01*
X80846009Y-145448935D02*
X81369819Y-145448935D01*
X80846009Y-145448935D02*
X80750771Y-145401316D01*
X80750771Y-145401316D02*
X80703152Y-145306078D01*
X80703152Y-145306078D02*
X80703152Y-145163221D01*
X80703152Y-145163221D02*
X80750771Y-145067982D01*
X80750771Y-145067982D02*
X80846009Y-145020363D01*
X80846009Y-145020363D02*
X81369819Y-145020363D01*
X81369819Y-144544173D02*
X80703152Y-144544173D01*
X80369819Y-144544173D02*
X80417438Y-144591792D01*
X80417438Y-144591792D02*
X80465057Y-144544173D01*
X80465057Y-144544173D02*
X80417438Y-144496554D01*
X80417438Y-144496554D02*
X80369819Y-144544173D01*
X80369819Y-144544173D02*
X80465057Y-144544173D01*
X80703152Y-144210840D02*
X80703152Y-143829888D01*
X80369819Y-144067983D02*
X81226961Y-144067983D01*
X81226961Y-144067983D02*
X81322200Y-144020364D01*
X81322200Y-144020364D02*
X81369819Y-143925126D01*
X81369819Y-143925126D02*
X81369819Y-143829888D01*
X81369819Y-142210840D02*
X81369819Y-142782268D01*
X81369819Y-142496554D02*
X80369819Y-142496554D01*
X80369819Y-142496554D02*
X80512676Y-142591792D01*
X80512676Y-142591792D02*
X80607914Y-142687030D01*
X80607914Y-142687030D02*
X80655533Y-142782268D01*
X86369819Y-146687030D02*
X86369819Y-147163220D01*
X86369819Y-147163220D02*
X85369819Y-147163220D01*
X86369819Y-146353696D02*
X85703152Y-146353696D01*
X85369819Y-146353696D02*
X85417438Y-146401315D01*
X85417438Y-146401315D02*
X85465057Y-146353696D01*
X85465057Y-146353696D02*
X85417438Y-146306077D01*
X85417438Y-146306077D02*
X85369819Y-146353696D01*
X85369819Y-146353696D02*
X85465057Y-146353696D01*
X86369819Y-145877506D02*
X85703152Y-145877506D01*
X85798390Y-145877506D02*
X85750771Y-145829887D01*
X85750771Y-145829887D02*
X85703152Y-145734649D01*
X85703152Y-145734649D02*
X85703152Y-145591792D01*
X85703152Y-145591792D02*
X85750771Y-145496554D01*
X85750771Y-145496554D02*
X85846009Y-145448935D01*
X85846009Y-145448935D02*
X86369819Y-145448935D01*
X85846009Y-145448935D02*
X85750771Y-145401316D01*
X85750771Y-145401316D02*
X85703152Y-145306078D01*
X85703152Y-145306078D02*
X85703152Y-145163221D01*
X85703152Y-145163221D02*
X85750771Y-145067982D01*
X85750771Y-145067982D02*
X85846009Y-145020363D01*
X85846009Y-145020363D02*
X86369819Y-145020363D01*
X86369819Y-144544173D02*
X85703152Y-144544173D01*
X85369819Y-144544173D02*
X85417438Y-144591792D01*
X85417438Y-144591792D02*
X85465057Y-144544173D01*
X85465057Y-144544173D02*
X85417438Y-144496554D01*
X85417438Y-144496554D02*
X85369819Y-144544173D01*
X85369819Y-144544173D02*
X85465057Y-144544173D01*
X85703152Y-144210840D02*
X85703152Y-143829888D01*
X85369819Y-144067983D02*
X86226961Y-144067983D01*
X86226961Y-144067983D02*
X86322200Y-144020364D01*
X86322200Y-144020364D02*
X86369819Y-143925126D01*
X86369819Y-143925126D02*
X86369819Y-143829888D01*
X85465057Y-142782268D02*
X85417438Y-142734649D01*
X85417438Y-142734649D02*
X85369819Y-142639411D01*
X85369819Y-142639411D02*
X85369819Y-142401316D01*
X85369819Y-142401316D02*
X85417438Y-142306078D01*
X85417438Y-142306078D02*
X85465057Y-142258459D01*
X85465057Y-142258459D02*
X85560295Y-142210840D01*
X85560295Y-142210840D02*
X85655533Y-142210840D01*
X85655533Y-142210840D02*
X85798390Y-142258459D01*
X85798390Y-142258459D02*
X86369819Y-142829887D01*
X86369819Y-142829887D02*
X86369819Y-142210840D01*
X90869819Y-146687030D02*
X90869819Y-147163220D01*
X90869819Y-147163220D02*
X89869819Y-147163220D01*
X90869819Y-146353696D02*
X90203152Y-146353696D01*
X89869819Y-146353696D02*
X89917438Y-146401315D01*
X89917438Y-146401315D02*
X89965057Y-146353696D01*
X89965057Y-146353696D02*
X89917438Y-146306077D01*
X89917438Y-146306077D02*
X89869819Y-146353696D01*
X89869819Y-146353696D02*
X89965057Y-146353696D01*
X90869819Y-145877506D02*
X90203152Y-145877506D01*
X90298390Y-145877506D02*
X90250771Y-145829887D01*
X90250771Y-145829887D02*
X90203152Y-145734649D01*
X90203152Y-145734649D02*
X90203152Y-145591792D01*
X90203152Y-145591792D02*
X90250771Y-145496554D01*
X90250771Y-145496554D02*
X90346009Y-145448935D01*
X90346009Y-145448935D02*
X90869819Y-145448935D01*
X90346009Y-145448935D02*
X90250771Y-145401316D01*
X90250771Y-145401316D02*
X90203152Y-145306078D01*
X90203152Y-145306078D02*
X90203152Y-145163221D01*
X90203152Y-145163221D02*
X90250771Y-145067982D01*
X90250771Y-145067982D02*
X90346009Y-145020363D01*
X90346009Y-145020363D02*
X90869819Y-145020363D01*
X90869819Y-144544173D02*
X90203152Y-144544173D01*
X89869819Y-144544173D02*
X89917438Y-144591792D01*
X89917438Y-144591792D02*
X89965057Y-144544173D01*
X89965057Y-144544173D02*
X89917438Y-144496554D01*
X89917438Y-144496554D02*
X89869819Y-144544173D01*
X89869819Y-144544173D02*
X89965057Y-144544173D01*
X90203152Y-144210840D02*
X90203152Y-143829888D01*
X89869819Y-144067983D02*
X90726961Y-144067983D01*
X90726961Y-144067983D02*
X90822200Y-144020364D01*
X90822200Y-144020364D02*
X90869819Y-143925126D01*
X90869819Y-143925126D02*
X90869819Y-143829888D01*
X89869819Y-142829887D02*
X89869819Y-142210840D01*
X89869819Y-142210840D02*
X90250771Y-142544173D01*
X90250771Y-142544173D02*
X90250771Y-142401316D01*
X90250771Y-142401316D02*
X90298390Y-142306078D01*
X90298390Y-142306078D02*
X90346009Y-142258459D01*
X90346009Y-142258459D02*
X90441247Y-142210840D01*
X90441247Y-142210840D02*
X90679342Y-142210840D01*
X90679342Y-142210840D02*
X90774580Y-142258459D01*
X90774580Y-142258459D02*
X90822200Y-142306078D01*
X90822200Y-142306078D02*
X90869819Y-142401316D01*
X90869819Y-142401316D02*
X90869819Y-142687030D01*
X90869819Y-142687030D02*
X90822200Y-142782268D01*
X90822200Y-142782268D02*
X90774580Y-142829887D01*
X95369819Y-146687030D02*
X95369819Y-147163220D01*
X95369819Y-147163220D02*
X94369819Y-147163220D01*
X95369819Y-146353696D02*
X94703152Y-146353696D01*
X94369819Y-146353696D02*
X94417438Y-146401315D01*
X94417438Y-146401315D02*
X94465057Y-146353696D01*
X94465057Y-146353696D02*
X94417438Y-146306077D01*
X94417438Y-146306077D02*
X94369819Y-146353696D01*
X94369819Y-146353696D02*
X94465057Y-146353696D01*
X95369819Y-145877506D02*
X94703152Y-145877506D01*
X94798390Y-145877506D02*
X94750771Y-145829887D01*
X94750771Y-145829887D02*
X94703152Y-145734649D01*
X94703152Y-145734649D02*
X94703152Y-145591792D01*
X94703152Y-145591792D02*
X94750771Y-145496554D01*
X94750771Y-145496554D02*
X94846009Y-145448935D01*
X94846009Y-145448935D02*
X95369819Y-145448935D01*
X94846009Y-145448935D02*
X94750771Y-145401316D01*
X94750771Y-145401316D02*
X94703152Y-145306078D01*
X94703152Y-145306078D02*
X94703152Y-145163221D01*
X94703152Y-145163221D02*
X94750771Y-145067982D01*
X94750771Y-145067982D02*
X94846009Y-145020363D01*
X94846009Y-145020363D02*
X95369819Y-145020363D01*
X95369819Y-144544173D02*
X94703152Y-144544173D01*
X94369819Y-144544173D02*
X94417438Y-144591792D01*
X94417438Y-144591792D02*
X94465057Y-144544173D01*
X94465057Y-144544173D02*
X94417438Y-144496554D01*
X94417438Y-144496554D02*
X94369819Y-144544173D01*
X94369819Y-144544173D02*
X94465057Y-144544173D01*
X94703152Y-144210840D02*
X94703152Y-143829888D01*
X94369819Y-144067983D02*
X95226961Y-144067983D01*
X95226961Y-144067983D02*
X95322200Y-144020364D01*
X95322200Y-144020364D02*
X95369819Y-143925126D01*
X95369819Y-143925126D02*
X95369819Y-143829888D01*
X94703152Y-142306078D02*
X95369819Y-142306078D01*
X94322200Y-142544173D02*
X95036485Y-142782268D01*
X95036485Y-142782268D02*
X95036485Y-142163221D01*
X150494819Y-124809523D02*
X151209104Y-124809523D01*
X151209104Y-124809523D02*
X151351961Y-124857142D01*
X151351961Y-124857142D02*
X151447200Y-124952380D01*
X151447200Y-124952380D02*
X151494819Y-125095237D01*
X151494819Y-125095237D02*
X151494819Y-125190475D01*
X151494819Y-123809523D02*
X151494819Y-124380951D01*
X151494819Y-124095237D02*
X150494819Y-124095237D01*
X150494819Y-124095237D02*
X150637676Y-124190475D01*
X150637676Y-124190475D02*
X150732914Y-124285713D01*
X150732914Y-124285713D02*
X150780533Y-124380951D01*
X150494819Y-123190475D02*
X150494819Y-123095237D01*
X150494819Y-123095237D02*
X150542438Y-122999999D01*
X150542438Y-122999999D02*
X150590057Y-122952380D01*
X150590057Y-122952380D02*
X150685295Y-122904761D01*
X150685295Y-122904761D02*
X150875771Y-122857142D01*
X150875771Y-122857142D02*
X151113866Y-122857142D01*
X151113866Y-122857142D02*
X151304342Y-122904761D01*
X151304342Y-122904761D02*
X151399580Y-122952380D01*
X151399580Y-122952380D02*
X151447200Y-122999999D01*
X151447200Y-122999999D02*
X151494819Y-123095237D01*
X151494819Y-123095237D02*
X151494819Y-123190475D01*
X151494819Y-123190475D02*
X151447200Y-123285713D01*
X151447200Y-123285713D02*
X151399580Y-123333332D01*
X151399580Y-123333332D02*
X151304342Y-123380951D01*
X151304342Y-123380951D02*
X151113866Y-123428570D01*
X151113866Y-123428570D02*
X150875771Y-123428570D01*
X150875771Y-123428570D02*
X150685295Y-123380951D01*
X150685295Y-123380951D02*
X150590057Y-123333332D01*
X150590057Y-123333332D02*
X150542438Y-123285713D01*
X150542438Y-123285713D02*
X150494819Y-123190475D01*
X90076666Y-148494819D02*
X90076666Y-149209104D01*
X90076666Y-149209104D02*
X90029047Y-149351961D01*
X90029047Y-149351961D02*
X89933809Y-149447200D01*
X89933809Y-149447200D02*
X89790952Y-149494819D01*
X89790952Y-149494819D02*
X89695714Y-149494819D01*
X90457619Y-148494819D02*
X91076666Y-148494819D01*
X91076666Y-148494819D02*
X90743333Y-148875771D01*
X90743333Y-148875771D02*
X90886190Y-148875771D01*
X90886190Y-148875771D02*
X90981428Y-148923390D01*
X90981428Y-148923390D02*
X91029047Y-148971009D01*
X91029047Y-148971009D02*
X91076666Y-149066247D01*
X91076666Y-149066247D02*
X91076666Y-149304342D01*
X91076666Y-149304342D02*
X91029047Y-149399580D01*
X91029047Y-149399580D02*
X90981428Y-149447200D01*
X90981428Y-149447200D02*
X90886190Y-149494819D01*
X90886190Y-149494819D02*
X90600476Y-149494819D01*
X90600476Y-149494819D02*
X90505238Y-149447200D01*
X90505238Y-149447200D02*
X90457619Y-149399580D01*
X147954819Y-83923333D02*
X148669104Y-83923333D01*
X148669104Y-83923333D02*
X148811961Y-83970952D01*
X148811961Y-83970952D02*
X148907200Y-84066190D01*
X148907200Y-84066190D02*
X148954819Y-84209047D01*
X148954819Y-84209047D02*
X148954819Y-84304285D01*
X148383390Y-83304285D02*
X148335771Y-83399523D01*
X148335771Y-83399523D02*
X148288152Y-83447142D01*
X148288152Y-83447142D02*
X148192914Y-83494761D01*
X148192914Y-83494761D02*
X148145295Y-83494761D01*
X148145295Y-83494761D02*
X148050057Y-83447142D01*
X148050057Y-83447142D02*
X148002438Y-83399523D01*
X148002438Y-83399523D02*
X147954819Y-83304285D01*
X147954819Y-83304285D02*
X147954819Y-83113809D01*
X147954819Y-83113809D02*
X148002438Y-83018571D01*
X148002438Y-83018571D02*
X148050057Y-82970952D01*
X148050057Y-82970952D02*
X148145295Y-82923333D01*
X148145295Y-82923333D02*
X148192914Y-82923333D01*
X148192914Y-82923333D02*
X148288152Y-82970952D01*
X148288152Y-82970952D02*
X148335771Y-83018571D01*
X148335771Y-83018571D02*
X148383390Y-83113809D01*
X148383390Y-83113809D02*
X148383390Y-83304285D01*
X148383390Y-83304285D02*
X148431009Y-83399523D01*
X148431009Y-83399523D02*
X148478628Y-83447142D01*
X148478628Y-83447142D02*
X148573866Y-83494761D01*
X148573866Y-83494761D02*
X148764342Y-83494761D01*
X148764342Y-83494761D02*
X148859580Y-83447142D01*
X148859580Y-83447142D02*
X148907200Y-83399523D01*
X148907200Y-83399523D02*
X148954819Y-83304285D01*
X148954819Y-83304285D02*
X148954819Y-83113809D01*
X148954819Y-83113809D02*
X148907200Y-83018571D01*
X148907200Y-83018571D02*
X148859580Y-82970952D01*
X148859580Y-82970952D02*
X148764342Y-82923333D01*
X148764342Y-82923333D02*
X148573866Y-82923333D01*
X148573866Y-82923333D02*
X148478628Y-82970952D01*
X148478628Y-82970952D02*
X148431009Y-83018571D01*
X148431009Y-83018571D02*
X148383390Y-83113809D01*
X77653095Y-84569819D02*
X77653095Y-85379342D01*
X77653095Y-85379342D02*
X77700714Y-85474580D01*
X77700714Y-85474580D02*
X77748333Y-85522200D01*
X77748333Y-85522200D02*
X77843571Y-85569819D01*
X77843571Y-85569819D02*
X78034047Y-85569819D01*
X78034047Y-85569819D02*
X78129285Y-85522200D01*
X78129285Y-85522200D02*
X78176904Y-85474580D01*
X78176904Y-85474580D02*
X78224523Y-85379342D01*
X78224523Y-85379342D02*
X78224523Y-84569819D01*
X79224523Y-85569819D02*
X78653095Y-85569819D01*
X78938809Y-85569819D02*
X78938809Y-84569819D01*
X78938809Y-84569819D02*
X78843571Y-84712676D01*
X78843571Y-84712676D02*
X78748333Y-84807914D01*
X78748333Y-84807914D02*
X78653095Y-84855533D01*
X147914819Y-79309523D02*
X148629104Y-79309523D01*
X148629104Y-79309523D02*
X148771961Y-79357142D01*
X148771961Y-79357142D02*
X148867200Y-79452380D01*
X148867200Y-79452380D02*
X148914819Y-79595237D01*
X148914819Y-79595237D02*
X148914819Y-79690475D01*
X148914819Y-78309523D02*
X148914819Y-78880951D01*
X148914819Y-78595237D02*
X147914819Y-78595237D01*
X147914819Y-78595237D02*
X148057676Y-78690475D01*
X148057676Y-78690475D02*
X148152914Y-78785713D01*
X148152914Y-78785713D02*
X148200533Y-78880951D01*
X148914819Y-77357142D02*
X148914819Y-77928570D01*
X148914819Y-77642856D02*
X147914819Y-77642856D01*
X147914819Y-77642856D02*
X148057676Y-77738094D01*
X148057676Y-77738094D02*
X148152914Y-77833332D01*
X148152914Y-77833332D02*
X148200533Y-77928570D01*
X117416666Y-151234819D02*
X117416666Y-151949104D01*
X117416666Y-151949104D02*
X117369047Y-152091961D01*
X117369047Y-152091961D02*
X117273809Y-152187200D01*
X117273809Y-152187200D02*
X117130952Y-152234819D01*
X117130952Y-152234819D02*
X117035714Y-152234819D01*
X118369047Y-151234819D02*
X117892857Y-151234819D01*
X117892857Y-151234819D02*
X117845238Y-151711009D01*
X117845238Y-151711009D02*
X117892857Y-151663390D01*
X117892857Y-151663390D02*
X117988095Y-151615771D01*
X117988095Y-151615771D02*
X118226190Y-151615771D01*
X118226190Y-151615771D02*
X118321428Y-151663390D01*
X118321428Y-151663390D02*
X118369047Y-151711009D01*
X118369047Y-151711009D02*
X118416666Y-151806247D01*
X118416666Y-151806247D02*
X118416666Y-152044342D01*
X118416666Y-152044342D02*
X118369047Y-152139580D01*
X118369047Y-152139580D02*
X118321428Y-152187200D01*
X118321428Y-152187200D02*
X118226190Y-152234819D01*
X118226190Y-152234819D02*
X117988095Y-152234819D01*
X117988095Y-152234819D02*
X117892857Y-152187200D01*
X117892857Y-152187200D02*
X117845238Y-152139580D01*
X116940476Y-85674819D02*
X116940476Y-86389104D01*
X116940476Y-86389104D02*
X116892857Y-86531961D01*
X116892857Y-86531961D02*
X116797619Y-86627200D01*
X116797619Y-86627200D02*
X116654762Y-86674819D01*
X116654762Y-86674819D02*
X116559524Y-86674819D01*
X117940476Y-86674819D02*
X117369048Y-86674819D01*
X117654762Y-86674819D02*
X117654762Y-85674819D01*
X117654762Y-85674819D02*
X117559524Y-85817676D01*
X117559524Y-85817676D02*
X117464286Y-85912914D01*
X117464286Y-85912914D02*
X117369048Y-85960533D01*
X118273810Y-85674819D02*
X118892857Y-85674819D01*
X118892857Y-85674819D02*
X118559524Y-86055771D01*
X118559524Y-86055771D02*
X118702381Y-86055771D01*
X118702381Y-86055771D02*
X118797619Y-86103390D01*
X118797619Y-86103390D02*
X118845238Y-86151009D01*
X118845238Y-86151009D02*
X118892857Y-86246247D01*
X118892857Y-86246247D02*
X118892857Y-86484342D01*
X118892857Y-86484342D02*
X118845238Y-86579580D01*
X118845238Y-86579580D02*
X118797619Y-86627200D01*
X118797619Y-86627200D02*
X118702381Y-86674819D01*
X118702381Y-86674819D02*
X118416667Y-86674819D01*
X118416667Y-86674819D02*
X118321429Y-86627200D01*
X118321429Y-86627200D02*
X118273810Y-86579580D01*
X144849104Y-98064285D02*
X144849104Y-97588095D01*
X145134819Y-98159523D02*
X144134819Y-97826190D01*
X144134819Y-97826190D02*
X145134819Y-97492857D01*
X145134819Y-96635714D02*
X145134819Y-97207142D01*
X145134819Y-96921428D02*
X144134819Y-96921428D01*
X144134819Y-96921428D02*
X144277676Y-97016666D01*
X144277676Y-97016666D02*
X144372914Y-97111904D01*
X144372914Y-97111904D02*
X144420533Y-97207142D01*
X139264819Y-157833333D02*
X139979104Y-157833333D01*
X139979104Y-157833333D02*
X140121961Y-157880952D01*
X140121961Y-157880952D02*
X140217200Y-157976190D01*
X140217200Y-157976190D02*
X140264819Y-158119047D01*
X140264819Y-158119047D02*
X140264819Y-158214285D01*
X139264819Y-157452380D02*
X139264819Y-156785714D01*
X139264819Y-156785714D02*
X140264819Y-157214285D01*
X163583333Y-118109580D02*
X163535714Y-118157200D01*
X163535714Y-118157200D02*
X163392857Y-118204819D01*
X163392857Y-118204819D02*
X163297619Y-118204819D01*
X163297619Y-118204819D02*
X163154762Y-118157200D01*
X163154762Y-118157200D02*
X163059524Y-118061961D01*
X163059524Y-118061961D02*
X163011905Y-117966723D01*
X163011905Y-117966723D02*
X162964286Y-117776247D01*
X162964286Y-117776247D02*
X162964286Y-117633390D01*
X162964286Y-117633390D02*
X163011905Y-117442914D01*
X163011905Y-117442914D02*
X163059524Y-117347676D01*
X163059524Y-117347676D02*
X163154762Y-117252438D01*
X163154762Y-117252438D02*
X163297619Y-117204819D01*
X163297619Y-117204819D02*
X163392857Y-117204819D01*
X163392857Y-117204819D02*
X163535714Y-117252438D01*
X163535714Y-117252438D02*
X163583333Y-117300057D01*
X164535714Y-118204819D02*
X163964286Y-118204819D01*
X164250000Y-118204819D02*
X164250000Y-117204819D01*
X164250000Y-117204819D02*
X164154762Y-117347676D01*
X164154762Y-117347676D02*
X164059524Y-117442914D01*
X164059524Y-117442914D02*
X163964286Y-117490533D01*
X150454819Y-129743333D02*
X151169104Y-129743333D01*
X151169104Y-129743333D02*
X151311961Y-129790952D01*
X151311961Y-129790952D02*
X151407200Y-129886190D01*
X151407200Y-129886190D02*
X151454819Y-130029047D01*
X151454819Y-130029047D02*
X151454819Y-130124285D01*
X151454819Y-129219523D02*
X151454819Y-129029047D01*
X151454819Y-129029047D02*
X151407200Y-128933809D01*
X151407200Y-128933809D02*
X151359580Y-128886190D01*
X151359580Y-128886190D02*
X151216723Y-128790952D01*
X151216723Y-128790952D02*
X151026247Y-128743333D01*
X151026247Y-128743333D02*
X150645295Y-128743333D01*
X150645295Y-128743333D02*
X150550057Y-128790952D01*
X150550057Y-128790952D02*
X150502438Y-128838571D01*
X150502438Y-128838571D02*
X150454819Y-128933809D01*
X150454819Y-128933809D02*
X150454819Y-129124285D01*
X150454819Y-129124285D02*
X150502438Y-129219523D01*
X150502438Y-129219523D02*
X150550057Y-129267142D01*
X150550057Y-129267142D02*
X150645295Y-129314761D01*
X150645295Y-129314761D02*
X150883390Y-129314761D01*
X150883390Y-129314761D02*
X150978628Y-129267142D01*
X150978628Y-129267142D02*
X151026247Y-129219523D01*
X151026247Y-129219523D02*
X151073866Y-129124285D01*
X151073866Y-129124285D02*
X151073866Y-128933809D01*
X151073866Y-128933809D02*
X151026247Y-128838571D01*
X151026247Y-128838571D02*
X150978628Y-128790952D01*
X150978628Y-128790952D02*
X150883390Y-128743333D01*
X80896666Y-148494819D02*
X80896666Y-149209104D01*
X80896666Y-149209104D02*
X80849047Y-149351961D01*
X80849047Y-149351961D02*
X80753809Y-149447200D01*
X80753809Y-149447200D02*
X80610952Y-149494819D01*
X80610952Y-149494819D02*
X80515714Y-149494819D01*
X81896666Y-149494819D02*
X81325238Y-149494819D01*
X81610952Y-149494819D02*
X81610952Y-148494819D01*
X81610952Y-148494819D02*
X81515714Y-148637676D01*
X81515714Y-148637676D02*
X81420476Y-148732914D01*
X81420476Y-148732914D02*
X81325238Y-148780533D01*
X144849104Y-143064285D02*
X144849104Y-142588095D01*
X145134819Y-143159523D02*
X144134819Y-142826190D01*
X144134819Y-142826190D02*
X145134819Y-142492857D01*
X144230057Y-142207142D02*
X144182438Y-142159523D01*
X144182438Y-142159523D02*
X144134819Y-142064285D01*
X144134819Y-142064285D02*
X144134819Y-141826190D01*
X144134819Y-141826190D02*
X144182438Y-141730952D01*
X144182438Y-141730952D02*
X144230057Y-141683333D01*
X144230057Y-141683333D02*
X144325295Y-141635714D01*
X144325295Y-141635714D02*
X144420533Y-141635714D01*
X144420533Y-141635714D02*
X144563390Y-141683333D01*
X144563390Y-141683333D02*
X145134819Y-142254761D01*
X145134819Y-142254761D02*
X145134819Y-141635714D01*
X156954819Y-113333333D02*
X157669104Y-113333333D01*
X157669104Y-113333333D02*
X157811961Y-113380952D01*
X157811961Y-113380952D02*
X157907200Y-113476190D01*
X157907200Y-113476190D02*
X157954819Y-113619047D01*
X157954819Y-113619047D02*
X157954819Y-113714285D01*
X156954819Y-112428571D02*
X156954819Y-112619047D01*
X156954819Y-112619047D02*
X157002438Y-112714285D01*
X157002438Y-112714285D02*
X157050057Y-112761904D01*
X157050057Y-112761904D02*
X157192914Y-112857142D01*
X157192914Y-112857142D02*
X157383390Y-112904761D01*
X157383390Y-112904761D02*
X157764342Y-112904761D01*
X157764342Y-112904761D02*
X157859580Y-112857142D01*
X157859580Y-112857142D02*
X157907200Y-112809523D01*
X157907200Y-112809523D02*
X157954819Y-112714285D01*
X157954819Y-112714285D02*
X157954819Y-112523809D01*
X157954819Y-112523809D02*
X157907200Y-112428571D01*
X157907200Y-112428571D02*
X157859580Y-112380952D01*
X157859580Y-112380952D02*
X157764342Y-112333333D01*
X157764342Y-112333333D02*
X157526247Y-112333333D01*
X157526247Y-112333333D02*
X157431009Y-112380952D01*
X157431009Y-112380952D02*
X157383390Y-112428571D01*
X157383390Y-112428571D02*
X157335771Y-112523809D01*
X157335771Y-112523809D02*
X157335771Y-112714285D01*
X157335771Y-112714285D02*
X157383390Y-112809523D01*
X157383390Y-112809523D02*
X157431009Y-112857142D01*
X157431009Y-112857142D02*
X157526247Y-112904761D01*
X94666666Y-148494819D02*
X94666666Y-149209104D01*
X94666666Y-149209104D02*
X94619047Y-149351961D01*
X94619047Y-149351961D02*
X94523809Y-149447200D01*
X94523809Y-149447200D02*
X94380952Y-149494819D01*
X94380952Y-149494819D02*
X94285714Y-149494819D01*
X95571428Y-148828152D02*
X95571428Y-149494819D01*
X95333333Y-148447200D02*
X95095238Y-149161485D01*
X95095238Y-149161485D02*
X95714285Y-149161485D01*
X78034819Y-80809523D02*
X78749104Y-80809523D01*
X78749104Y-80809523D02*
X78891961Y-80857142D01*
X78891961Y-80857142D02*
X78987200Y-80952380D01*
X78987200Y-80952380D02*
X79034819Y-81095237D01*
X79034819Y-81095237D02*
X79034819Y-81190475D01*
X79034819Y-79809523D02*
X79034819Y-80380951D01*
X79034819Y-80095237D02*
X78034819Y-80095237D01*
X78034819Y-80095237D02*
X78177676Y-80190475D01*
X78177676Y-80190475D02*
X78272914Y-80285713D01*
X78272914Y-80285713D02*
X78320533Y-80380951D01*
X78130057Y-79428570D02*
X78082438Y-79380951D01*
X78082438Y-79380951D02*
X78034819Y-79285713D01*
X78034819Y-79285713D02*
X78034819Y-79047618D01*
X78034819Y-79047618D02*
X78082438Y-78952380D01*
X78082438Y-78952380D02*
X78130057Y-78904761D01*
X78130057Y-78904761D02*
X78225295Y-78857142D01*
X78225295Y-78857142D02*
X78320533Y-78857142D01*
X78320533Y-78857142D02*
X78463390Y-78904761D01*
X78463390Y-78904761D02*
X79034819Y-79476189D01*
X79034819Y-79476189D02*
X79034819Y-78857142D01*
X158736033Y-163109580D02*
X158688414Y-163157200D01*
X158688414Y-163157200D02*
X158545557Y-163204819D01*
X158545557Y-163204819D02*
X158450319Y-163204819D01*
X158450319Y-163204819D02*
X158307462Y-163157200D01*
X158307462Y-163157200D02*
X158212224Y-163061961D01*
X158212224Y-163061961D02*
X158164605Y-162966723D01*
X158164605Y-162966723D02*
X158116986Y-162776247D01*
X158116986Y-162776247D02*
X158116986Y-162633390D01*
X158116986Y-162633390D02*
X158164605Y-162442914D01*
X158164605Y-162442914D02*
X158212224Y-162347676D01*
X158212224Y-162347676D02*
X158307462Y-162252438D01*
X158307462Y-162252438D02*
X158450319Y-162204819D01*
X158450319Y-162204819D02*
X158545557Y-162204819D01*
X158545557Y-162204819D02*
X158688414Y-162252438D01*
X158688414Y-162252438D02*
X158736033Y-162300057D01*
X159116986Y-162300057D02*
X159164605Y-162252438D01*
X159164605Y-162252438D02*
X159259843Y-162204819D01*
X159259843Y-162204819D02*
X159497938Y-162204819D01*
X159497938Y-162204819D02*
X159593176Y-162252438D01*
X159593176Y-162252438D02*
X159640795Y-162300057D01*
X159640795Y-162300057D02*
X159688414Y-162395295D01*
X159688414Y-162395295D02*
X159688414Y-162490533D01*
X159688414Y-162490533D02*
X159640795Y-162633390D01*
X159640795Y-162633390D02*
X159069367Y-163204819D01*
X159069367Y-163204819D02*
X159688414Y-163204819D01*
X85486666Y-148494819D02*
X85486666Y-149209104D01*
X85486666Y-149209104D02*
X85439047Y-149351961D01*
X85439047Y-149351961D02*
X85343809Y-149447200D01*
X85343809Y-149447200D02*
X85200952Y-149494819D01*
X85200952Y-149494819D02*
X85105714Y-149494819D01*
X85915238Y-148590057D02*
X85962857Y-148542438D01*
X85962857Y-148542438D02*
X86058095Y-148494819D01*
X86058095Y-148494819D02*
X86296190Y-148494819D01*
X86296190Y-148494819D02*
X86391428Y-148542438D01*
X86391428Y-148542438D02*
X86439047Y-148590057D01*
X86439047Y-148590057D02*
X86486666Y-148685295D01*
X86486666Y-148685295D02*
X86486666Y-148780533D01*
X86486666Y-148780533D02*
X86439047Y-148923390D01*
X86439047Y-148923390D02*
X85867619Y-149494819D01*
X85867619Y-149494819D02*
X86486666Y-149494819D01*
%TO.C,J10*%
D12*
X152040000Y-125380000D02*
X152040000Y-124000000D01*
X153420000Y-125380000D02*
X152040000Y-125380000D01*
X154690000Y-122620000D02*
X159880000Y-122620000D01*
X154690000Y-125380000D02*
X154690000Y-122620000D01*
X154690000Y-125380000D02*
X159880000Y-125380000D01*
X159880000Y-125380000D02*
X159880000Y-122620000D01*
%TO.C,J3*%
X89030000Y-150040000D02*
X90410000Y-150040000D01*
X89030000Y-151420000D02*
X89030000Y-150040000D01*
X89030000Y-152690000D02*
X89030000Y-157880000D01*
X89030000Y-152690000D02*
X91790000Y-152690000D01*
X89030000Y-157880000D02*
X91790000Y-157880000D01*
X91790000Y-152690000D02*
X91790000Y-157880000D01*
%TO.C,J8*%
X149500000Y-84970000D02*
X149500000Y-83590000D01*
X150880000Y-84970000D02*
X149500000Y-84970000D01*
X152150000Y-82210000D02*
X157340000Y-82210000D01*
X152150000Y-84970000D02*
X152150000Y-82210000D01*
X152150000Y-84970000D02*
X157340000Y-84970000D01*
X157340000Y-84970000D02*
X157340000Y-82210000D01*
%TO.C,U1*%
D13*
X75490000Y-87000000D02*
X86559000Y-87000000D01*
X75490000Y-87000000D02*
X104000000Y-87000000D01*
X75490000Y-137950000D02*
X75490000Y-87000000D01*
X75490000Y-137950000D02*
X75490000Y-87000000D01*
X75490000Y-137950000D02*
X80860000Y-137950000D01*
X80860000Y-137950000D02*
X98550000Y-137950000D01*
X86559000Y-87000000D02*
X93270000Y-87000000D01*
X93270000Y-87000000D02*
X104000000Y-87000000D01*
X98550000Y-137950000D02*
X104000000Y-137950000D01*
X104000000Y-87000000D02*
X104000000Y-137950000D01*
X104000000Y-87000000D02*
X104000000Y-137950000D01*
X104000000Y-137950000D02*
X75490000Y-137950000D01*
D14*
X75020000Y-96960000D02*
G75*
G02*
X74820000Y-96960000I-100000J0D01*
G01*
X74820000Y-96960000D02*
G75*
G02*
X75020000Y-96960000I100000J0D01*
G01*
%TO.C,J11*%
D12*
X149460000Y-79880000D02*
X149460000Y-78500000D01*
X150840000Y-79880000D02*
X149460000Y-79880000D01*
X152110000Y-77120000D02*
X157300000Y-77120000D01*
X152110000Y-79880000D02*
X152110000Y-77120000D01*
X152110000Y-79880000D02*
X157300000Y-79880000D01*
X157300000Y-79880000D02*
X157300000Y-77120000D01*
%TO.C,J5*%
X114130000Y-152780000D02*
X121370000Y-152780000D01*
X114130000Y-159000000D02*
X121370000Y-159000000D01*
X114130000Y-160100000D02*
X121370000Y-160100000D01*
X114130000Y-160620000D02*
X114130000Y-152780000D01*
X115700000Y-160620000D02*
X114130000Y-160620000D01*
X121370000Y-152780000D02*
X121370000Y-160620000D01*
X121370000Y-160620000D02*
X116300000Y-160620000D01*
X116440000Y-161230000D02*
X115560000Y-161230000D01*
X116000000Y-160620000D01*
X116440000Y-161230000D01*
G36*
X116440000Y-161230000D02*
G01*
X115560000Y-161230000D01*
X116000000Y-160620000D01*
X116440000Y-161230000D01*
G37*
%TO.C,J13*%
X114130000Y-77380000D02*
X119200000Y-77380000D01*
X114130000Y-85220000D02*
X114130000Y-77380000D01*
X119800000Y-77380000D02*
X121370000Y-77380000D01*
X121370000Y-77380000D02*
X121370000Y-85220000D01*
X121370000Y-77900000D02*
X114130000Y-77900000D01*
X121370000Y-79000000D02*
X114130000Y-79000000D01*
X121370000Y-85220000D02*
X114130000Y-85220000D01*
X119500000Y-77380000D02*
X119060000Y-76770000D01*
X119940000Y-76770000D01*
X119500000Y-77380000D01*
G36*
X119500000Y-77380000D02*
G01*
X119060000Y-76770000D01*
X119940000Y-76770000D01*
X119500000Y-77380000D01*
G37*
%TO.C,A1*%
X145820000Y-89600000D02*
X145820000Y-102430000D01*
X145820000Y-92270000D02*
X166400000Y-92270000D01*
X145820000Y-102430000D02*
X148490000Y-102430000D01*
X145820000Y-103700000D02*
X145820000Y-105100000D01*
X145820000Y-105100000D02*
X147220000Y-105100000D01*
X148490000Y-102430000D02*
X148490000Y-105100000D01*
X148490000Y-102430000D02*
X166400000Y-102430000D01*
X148490000Y-105100000D02*
X166400000Y-105100000D01*
X166400000Y-89600000D02*
X145820000Y-89600000D01*
X166400000Y-105100000D02*
X166400000Y-89600000D01*
%TO.C,J7*%
X140810000Y-158880000D02*
X140810000Y-157500000D01*
X142190000Y-158880000D02*
X140810000Y-158880000D01*
X143460000Y-156120000D02*
X151190000Y-156120000D01*
X143460000Y-158880000D02*
X143460000Y-156120000D01*
X143460000Y-158880000D02*
X151190000Y-158880000D01*
X151190000Y-158880000D02*
X151190000Y-156120000D01*
%TO.C,C1*%
X159670000Y-113033000D02*
X159670000Y-111967000D01*
X159710000Y-113268000D02*
X159710000Y-111732000D01*
X159750000Y-113447000D02*
X159750000Y-111553000D01*
X159790000Y-113597000D02*
X159790000Y-111403000D01*
X159830000Y-113728000D02*
X159830000Y-111272000D01*
X159870000Y-113846000D02*
X159870000Y-111154000D01*
X159910000Y-113953000D02*
X159910000Y-111047000D01*
X159950000Y-114052000D02*
X159950000Y-110948000D01*
X159990000Y-114144000D02*
X159990000Y-110856000D01*
X160030000Y-114231000D02*
X160030000Y-110769000D01*
X160070000Y-114313000D02*
X160070000Y-110687000D01*
X160110000Y-114390000D02*
X160110000Y-110610000D01*
X160150000Y-114464000D02*
X160150000Y-110536000D01*
X160190000Y-114534000D02*
X160190000Y-110466000D01*
X160230000Y-114601000D02*
X160230000Y-110399000D01*
X160270000Y-114665000D02*
X160270000Y-110335000D01*
X160310000Y-114727000D02*
X160310000Y-110273000D01*
X160350000Y-114787000D02*
X160350000Y-110213000D01*
X160390000Y-114844000D02*
X160390000Y-110156000D01*
X160430000Y-114900000D02*
X160430000Y-110100000D01*
X160470000Y-114953000D02*
X160470000Y-110047000D01*
X160510000Y-115005000D02*
X160510000Y-109995000D01*
X160550000Y-115055000D02*
X160550000Y-109945000D01*
X160590000Y-115104000D02*
X160590000Y-109896000D01*
X160630000Y-115151000D02*
X160630000Y-109849000D01*
X160670000Y-115196000D02*
X160670000Y-109804000D01*
X160710000Y-115241000D02*
X160710000Y-109759000D01*
X160750000Y-115284000D02*
X160750000Y-109716000D01*
X160790000Y-115326000D02*
X160790000Y-109674000D01*
X160830000Y-115367000D02*
X160830000Y-109633000D01*
X160870000Y-115406000D02*
X160870000Y-109594000D01*
X160910000Y-115445000D02*
X160910000Y-109555000D01*
X160950000Y-115482000D02*
X160950000Y-109518000D01*
X160990000Y-111460000D02*
X160990000Y-109481000D01*
X160990000Y-115519000D02*
X160990000Y-113540000D01*
X161030000Y-111460000D02*
X161030000Y-109445000D01*
X161030000Y-115555000D02*
X161030000Y-113540000D01*
X161070000Y-111460000D02*
X161070000Y-109411000D01*
X161070000Y-115589000D02*
X161070000Y-113540000D01*
X161110000Y-111460000D02*
X161110000Y-109377000D01*
X161110000Y-115623000D02*
X161110000Y-113540000D01*
X161150000Y-111460000D02*
X161150000Y-109344000D01*
X161150000Y-115656000D02*
X161150000Y-113540000D01*
X161190000Y-111460000D02*
X161190000Y-109312000D01*
X161190000Y-115688000D02*
X161190000Y-113540000D01*
X161230000Y-111460000D02*
X161230000Y-109281000D01*
X161230000Y-115719000D02*
X161230000Y-113540000D01*
X161270000Y-111460000D02*
X161270000Y-109250000D01*
X161270000Y-115750000D02*
X161270000Y-113540000D01*
X161310000Y-111460000D02*
X161310000Y-109220000D01*
X161310000Y-115780000D02*
X161310000Y-113540000D01*
X161350000Y-111460000D02*
X161350000Y-109191000D01*
X161350000Y-115809000D02*
X161350000Y-113540000D01*
X161390000Y-111460000D02*
X161390000Y-109163000D01*
X161390000Y-115837000D02*
X161390000Y-113540000D01*
X161430000Y-111460000D02*
X161430000Y-109135000D01*
X161430000Y-115865000D02*
X161430000Y-113540000D01*
X161470000Y-111460000D02*
X161470000Y-109108000D01*
X161470000Y-115892000D02*
X161470000Y-113540000D01*
X161510000Y-111460000D02*
X161510000Y-109082000D01*
X161510000Y-115918000D02*
X161510000Y-113540000D01*
X161550000Y-111460000D02*
X161550000Y-109057000D01*
X161550000Y-115943000D02*
X161550000Y-113540000D01*
X161590000Y-111460000D02*
X161590000Y-109032000D01*
X161590000Y-115968000D02*
X161590000Y-113540000D01*
X161630000Y-111460000D02*
X161630000Y-109007000D01*
X161630000Y-115993000D02*
X161630000Y-113540000D01*
X161670000Y-111460000D02*
X161670000Y-108984000D01*
X161670000Y-116016000D02*
X161670000Y-113540000D01*
X161710000Y-111460000D02*
X161710000Y-108961000D01*
X161710000Y-116039000D02*
X161710000Y-113540000D01*
X161750000Y-111460000D02*
X161750000Y-108938000D01*
X161750000Y-116062000D02*
X161750000Y-113540000D01*
X161790000Y-111460000D02*
X161790000Y-108916000D01*
X161790000Y-116084000D02*
X161790000Y-113540000D01*
X161830000Y-111460000D02*
X161830000Y-108895000D01*
X161830000Y-116105000D02*
X161830000Y-113540000D01*
X161870000Y-111460000D02*
X161870000Y-108874000D01*
X161870000Y-116126000D02*
X161870000Y-113540000D01*
X161910000Y-111460000D02*
X161910000Y-108854000D01*
X161910000Y-116146000D02*
X161910000Y-113540000D01*
X161950000Y-111460000D02*
X161950000Y-108834000D01*
X161950000Y-116166000D02*
X161950000Y-113540000D01*
X161990000Y-111460000D02*
X161990000Y-108815000D01*
X161990000Y-116185000D02*
X161990000Y-113540000D01*
X162030000Y-111460000D02*
X162030000Y-108796000D01*
X162030000Y-116204000D02*
X162030000Y-113540000D01*
X162070000Y-111460000D02*
X162070000Y-108778000D01*
X162070000Y-116222000D02*
X162070000Y-113540000D01*
X162110000Y-111460000D02*
X162110000Y-108760000D01*
X162110000Y-116240000D02*
X162110000Y-113540000D01*
X162150000Y-111460000D02*
X162150000Y-108743000D01*
X162150000Y-116257000D02*
X162150000Y-113540000D01*
X162190000Y-111460000D02*
X162190000Y-108727000D01*
X162190000Y-116273000D02*
X162190000Y-113540000D01*
X162230000Y-111460000D02*
X162230000Y-108711000D01*
X162230000Y-116289000D02*
X162230000Y-113540000D01*
X162270000Y-111460000D02*
X162270000Y-108695000D01*
X162270000Y-116305000D02*
X162270000Y-113540000D01*
X162310000Y-111460000D02*
X162310000Y-108680000D01*
X162310000Y-116320000D02*
X162310000Y-113540000D01*
X162350000Y-111460000D02*
X162350000Y-108665000D01*
X162350000Y-116335000D02*
X162350000Y-113540000D01*
X162390000Y-111460000D02*
X162390000Y-108651000D01*
X162390000Y-116349000D02*
X162390000Y-113540000D01*
X162430000Y-111460000D02*
X162430000Y-108637000D01*
X162430000Y-116363000D02*
X162430000Y-113540000D01*
X162470000Y-111460000D02*
X162470000Y-108624000D01*
X162470000Y-116376000D02*
X162470000Y-113540000D01*
X162510000Y-111460000D02*
X162510000Y-108611000D01*
X162510000Y-116389000D02*
X162510000Y-113540000D01*
X162550000Y-111460000D02*
X162550000Y-108599000D01*
X162550000Y-116401000D02*
X162550000Y-113540000D01*
X162590000Y-111460000D02*
X162590000Y-108587000D01*
X162590000Y-116413000D02*
X162590000Y-113540000D01*
X162630000Y-111460000D02*
X162630000Y-108575000D01*
X162630000Y-116425000D02*
X162630000Y-113540000D01*
X162670000Y-111460000D02*
X162670000Y-108564000D01*
X162670000Y-116436000D02*
X162670000Y-113540000D01*
X162710000Y-111460000D02*
X162710000Y-108553000D01*
X162710000Y-116447000D02*
X162710000Y-113540000D01*
X162750000Y-111460000D02*
X162750000Y-108543000D01*
X162750000Y-116457000D02*
X162750000Y-113540000D01*
X162790000Y-111460000D02*
X162790000Y-108533000D01*
X162790000Y-116467000D02*
X162790000Y-113540000D01*
X162830000Y-111460000D02*
X162830000Y-108524000D01*
X162830000Y-116476000D02*
X162830000Y-113540000D01*
X162870000Y-111460000D02*
X162870000Y-108515000D01*
X162870000Y-116485000D02*
X162870000Y-113540000D01*
X162910000Y-111460000D02*
X162910000Y-108507000D01*
X162910000Y-116493000D02*
X162910000Y-113540000D01*
X162950000Y-111460000D02*
X162950000Y-108498000D01*
X162950000Y-116502000D02*
X162950000Y-113540000D01*
X162990000Y-111460000D02*
X162990000Y-108491000D01*
X162990000Y-116509000D02*
X162990000Y-113540000D01*
X163030000Y-111460000D02*
X163030000Y-108483000D01*
X163030000Y-116517000D02*
X163030000Y-113540000D01*
X163070000Y-116523000D02*
X163070000Y-108477000D01*
X163110000Y-116530000D02*
X163110000Y-108470000D01*
X163150000Y-116536000D02*
X163150000Y-108464000D01*
X163190000Y-116542000D02*
X163190000Y-108458000D01*
X163230000Y-116547000D02*
X163230000Y-108453000D01*
X163270000Y-116552000D02*
X163270000Y-108448000D01*
X163310000Y-116556000D02*
X163310000Y-108444000D01*
X163350000Y-116561000D02*
X163350000Y-108439000D01*
X163390000Y-116564000D02*
X163390000Y-108436000D01*
X163430000Y-116568000D02*
X163430000Y-108432000D01*
X163470000Y-116570000D02*
X163470000Y-108430000D01*
X163510000Y-116573000D02*
X163510000Y-108427000D01*
X163550000Y-116575000D02*
X163550000Y-108425000D01*
X163590000Y-116577000D02*
X163590000Y-108423000D01*
X163630000Y-116578000D02*
X163630000Y-108422000D01*
X163670000Y-116579000D02*
X163670000Y-108421000D01*
X163710000Y-116580000D02*
X163710000Y-108420000D01*
X163750000Y-116580000D02*
X163750000Y-108420000D01*
X167759698Y-115215000D02*
X167759698Y-114415000D01*
X168159698Y-114815000D02*
X167359698Y-114815000D01*
X167870000Y-112500000D02*
G75*
G02*
X159630000Y-112500000I-4120000J0D01*
G01*
X159630000Y-112500000D02*
G75*
G02*
X167870000Y-112500000I4120000J0D01*
G01*
%TO.C,J9*%
X152000000Y-130790000D02*
X152000000Y-129410000D01*
X153380000Y-130790000D02*
X152000000Y-130790000D01*
X154650000Y-128030000D02*
X159840000Y-128030000D01*
X154650000Y-130790000D02*
X154650000Y-128030000D01*
X154650000Y-130790000D02*
X159840000Y-130790000D01*
X159840000Y-130790000D02*
X159840000Y-128030000D01*
%TO.C,J1*%
X79850000Y-150040000D02*
X81230000Y-150040000D01*
X79850000Y-151420000D02*
X79850000Y-150040000D01*
X79850000Y-152690000D02*
X79850000Y-157880000D01*
X79850000Y-152690000D02*
X82610000Y-152690000D01*
X79850000Y-157880000D02*
X82610000Y-157880000D01*
X82610000Y-152690000D02*
X82610000Y-157880000D01*
%TO.C,A2*%
X145820000Y-134600000D02*
X145820000Y-147430000D01*
X145820000Y-137270000D02*
X166400000Y-137270000D01*
X145820000Y-147430000D02*
X148490000Y-147430000D01*
X145820000Y-148700000D02*
X145820000Y-150100000D01*
X145820000Y-150100000D02*
X147220000Y-150100000D01*
X148490000Y-147430000D02*
X148490000Y-150100000D01*
X148490000Y-147430000D02*
X166400000Y-147430000D01*
X148490000Y-150100000D02*
X166400000Y-150100000D01*
X166400000Y-134600000D02*
X145820000Y-134600000D01*
X166400000Y-150100000D02*
X166400000Y-134600000D01*
%TO.C,J6*%
X146120000Y-111620000D02*
X146120000Y-114380000D01*
X153850000Y-111620000D02*
X146120000Y-111620000D01*
X153850000Y-111620000D02*
X153850000Y-114380000D01*
X153850000Y-114380000D02*
X146120000Y-114380000D01*
X155120000Y-111620000D02*
X156500000Y-111620000D01*
X156500000Y-111620000D02*
X156500000Y-113000000D01*
%TO.C,J4*%
X93620000Y-150040000D02*
X95000000Y-150040000D01*
X93620000Y-151420000D02*
X93620000Y-150040000D01*
X93620000Y-152690000D02*
X93620000Y-157880000D01*
X93620000Y-152690000D02*
X96380000Y-152690000D01*
X93620000Y-157880000D02*
X96380000Y-157880000D01*
X96380000Y-152690000D02*
X96380000Y-157880000D01*
%TO.C,J12*%
X79580000Y-81380000D02*
X79580000Y-80000000D01*
X80960000Y-81380000D02*
X79580000Y-81380000D01*
X82230000Y-78620000D02*
X89960000Y-78620000D01*
X82230000Y-81380000D02*
X82230000Y-78620000D01*
X82230000Y-81380000D02*
X89960000Y-81380000D01*
X89960000Y-81380000D02*
X89960000Y-78620000D01*
%TO.C,C2*%
X154822700Y-158033000D02*
X154822700Y-156967000D01*
X154862700Y-158268000D02*
X154862700Y-156732000D01*
X154902700Y-158447000D02*
X154902700Y-156553000D01*
X154942700Y-158597000D02*
X154942700Y-156403000D01*
X154982700Y-158728000D02*
X154982700Y-156272000D01*
X155022700Y-158846000D02*
X155022700Y-156154000D01*
X155062700Y-158953000D02*
X155062700Y-156047000D01*
X155102700Y-159052000D02*
X155102700Y-155948000D01*
X155142700Y-159144000D02*
X155142700Y-155856000D01*
X155182700Y-159231000D02*
X155182700Y-155769000D01*
X155222700Y-159313000D02*
X155222700Y-155687000D01*
X155262700Y-159390000D02*
X155262700Y-155610000D01*
X155302700Y-159464000D02*
X155302700Y-155536000D01*
X155342700Y-159534000D02*
X155342700Y-155466000D01*
X155382700Y-159601000D02*
X155382700Y-155399000D01*
X155422700Y-159665000D02*
X155422700Y-155335000D01*
X155462700Y-159727000D02*
X155462700Y-155273000D01*
X155502700Y-159787000D02*
X155502700Y-155213000D01*
X155542700Y-159844000D02*
X155542700Y-155156000D01*
X155582700Y-159900000D02*
X155582700Y-155100000D01*
X155622700Y-159953000D02*
X155622700Y-155047000D01*
X155662700Y-160005000D02*
X155662700Y-154995000D01*
X155702700Y-160055000D02*
X155702700Y-154945000D01*
X155742700Y-160104000D02*
X155742700Y-154896000D01*
X155782700Y-160151000D02*
X155782700Y-154849000D01*
X155822700Y-160196000D02*
X155822700Y-154804000D01*
X155862700Y-160241000D02*
X155862700Y-154759000D01*
X155902700Y-160284000D02*
X155902700Y-154716000D01*
X155942700Y-160326000D02*
X155942700Y-154674000D01*
X155982700Y-160367000D02*
X155982700Y-154633000D01*
X156022700Y-160406000D02*
X156022700Y-154594000D01*
X156062700Y-160445000D02*
X156062700Y-154555000D01*
X156102700Y-160482000D02*
X156102700Y-154518000D01*
X156142700Y-156460000D02*
X156142700Y-154481000D01*
X156142700Y-160519000D02*
X156142700Y-158540000D01*
X156182700Y-156460000D02*
X156182700Y-154445000D01*
X156182700Y-160555000D02*
X156182700Y-158540000D01*
X156222700Y-156460000D02*
X156222700Y-154411000D01*
X156222700Y-160589000D02*
X156222700Y-158540000D01*
X156262700Y-156460000D02*
X156262700Y-154377000D01*
X156262700Y-160623000D02*
X156262700Y-158540000D01*
X156302700Y-156460000D02*
X156302700Y-154344000D01*
X156302700Y-160656000D02*
X156302700Y-158540000D01*
X156342700Y-156460000D02*
X156342700Y-154312000D01*
X156342700Y-160688000D02*
X156342700Y-158540000D01*
X156382700Y-156460000D02*
X156382700Y-154281000D01*
X156382700Y-160719000D02*
X156382700Y-158540000D01*
X156422700Y-156460000D02*
X156422700Y-154250000D01*
X156422700Y-160750000D02*
X156422700Y-158540000D01*
X156462700Y-156460000D02*
X156462700Y-154220000D01*
X156462700Y-160780000D02*
X156462700Y-158540000D01*
X156502700Y-156460000D02*
X156502700Y-154191000D01*
X156502700Y-160809000D02*
X156502700Y-158540000D01*
X156542700Y-156460000D02*
X156542700Y-154163000D01*
X156542700Y-160837000D02*
X156542700Y-158540000D01*
X156582700Y-156460000D02*
X156582700Y-154135000D01*
X156582700Y-160865000D02*
X156582700Y-158540000D01*
X156622700Y-156460000D02*
X156622700Y-154108000D01*
X156622700Y-160892000D02*
X156622700Y-158540000D01*
X156662700Y-156460000D02*
X156662700Y-154082000D01*
X156662700Y-160918000D02*
X156662700Y-158540000D01*
X156702700Y-156460000D02*
X156702700Y-154057000D01*
X156702700Y-160943000D02*
X156702700Y-158540000D01*
X156742700Y-156460000D02*
X156742700Y-154032000D01*
X156742700Y-160968000D02*
X156742700Y-158540000D01*
X156782700Y-156460000D02*
X156782700Y-154007000D01*
X156782700Y-160993000D02*
X156782700Y-158540000D01*
X156822700Y-156460000D02*
X156822700Y-153984000D01*
X156822700Y-161016000D02*
X156822700Y-158540000D01*
X156862700Y-156460000D02*
X156862700Y-153961000D01*
X156862700Y-161039000D02*
X156862700Y-158540000D01*
X156902700Y-156460000D02*
X156902700Y-153938000D01*
X156902700Y-161062000D02*
X156902700Y-158540000D01*
X156942700Y-156460000D02*
X156942700Y-153916000D01*
X156942700Y-161084000D02*
X156942700Y-158540000D01*
X156982700Y-156460000D02*
X156982700Y-153895000D01*
X156982700Y-161105000D02*
X156982700Y-158540000D01*
X157022700Y-156460000D02*
X157022700Y-153874000D01*
X157022700Y-161126000D02*
X157022700Y-158540000D01*
X157062700Y-156460000D02*
X157062700Y-153854000D01*
X157062700Y-161146000D02*
X157062700Y-158540000D01*
X157102700Y-156460000D02*
X157102700Y-153834000D01*
X157102700Y-161166000D02*
X157102700Y-158540000D01*
X157142700Y-156460000D02*
X157142700Y-153815000D01*
X157142700Y-161185000D02*
X157142700Y-158540000D01*
X157182700Y-156460000D02*
X157182700Y-153796000D01*
X157182700Y-161204000D02*
X157182700Y-158540000D01*
X157222700Y-156460000D02*
X157222700Y-153778000D01*
X157222700Y-161222000D02*
X157222700Y-158540000D01*
X157262700Y-156460000D02*
X157262700Y-153760000D01*
X157262700Y-161240000D02*
X157262700Y-158540000D01*
X157302700Y-156460000D02*
X157302700Y-153743000D01*
X157302700Y-161257000D02*
X157302700Y-158540000D01*
X157342700Y-156460000D02*
X157342700Y-153727000D01*
X157342700Y-161273000D02*
X157342700Y-158540000D01*
X157382700Y-156460000D02*
X157382700Y-153711000D01*
X157382700Y-161289000D02*
X157382700Y-158540000D01*
X157422700Y-156460000D02*
X157422700Y-153695000D01*
X157422700Y-161305000D02*
X157422700Y-158540000D01*
X157462700Y-156460000D02*
X157462700Y-153680000D01*
X157462700Y-161320000D02*
X157462700Y-158540000D01*
X157502700Y-156460000D02*
X157502700Y-153665000D01*
X157502700Y-161335000D02*
X157502700Y-158540000D01*
X157542700Y-156460000D02*
X157542700Y-153651000D01*
X157542700Y-161349000D02*
X157542700Y-158540000D01*
X157582700Y-156460000D02*
X157582700Y-153637000D01*
X157582700Y-161363000D02*
X157582700Y-158540000D01*
X157622700Y-156460000D02*
X157622700Y-153624000D01*
X157622700Y-161376000D02*
X157622700Y-158540000D01*
X157662700Y-156460000D02*
X157662700Y-153611000D01*
X157662700Y-161389000D02*
X157662700Y-158540000D01*
X157702700Y-156460000D02*
X157702700Y-153599000D01*
X157702700Y-161401000D02*
X157702700Y-158540000D01*
X157742700Y-156460000D02*
X157742700Y-153587000D01*
X157742700Y-161413000D02*
X157742700Y-158540000D01*
X157782700Y-156460000D02*
X157782700Y-153575000D01*
X157782700Y-161425000D02*
X157782700Y-158540000D01*
X157822700Y-156460000D02*
X157822700Y-153564000D01*
X157822700Y-161436000D02*
X157822700Y-158540000D01*
X157862700Y-156460000D02*
X157862700Y-153553000D01*
X157862700Y-161447000D02*
X157862700Y-158540000D01*
X157902700Y-156460000D02*
X157902700Y-153543000D01*
X157902700Y-161457000D02*
X157902700Y-158540000D01*
X157942700Y-156460000D02*
X157942700Y-153533000D01*
X157942700Y-161467000D02*
X157942700Y-158540000D01*
X157982700Y-156460000D02*
X157982700Y-153524000D01*
X157982700Y-161476000D02*
X157982700Y-158540000D01*
X158022700Y-156460000D02*
X158022700Y-153515000D01*
X158022700Y-161485000D02*
X158022700Y-158540000D01*
X158062700Y-156460000D02*
X158062700Y-153507000D01*
X158062700Y-161493000D02*
X158062700Y-158540000D01*
X158102700Y-156460000D02*
X158102700Y-153498000D01*
X158102700Y-161502000D02*
X158102700Y-158540000D01*
X158142700Y-156460000D02*
X158142700Y-153491000D01*
X158142700Y-161509000D02*
X158142700Y-158540000D01*
X158182700Y-156460000D02*
X158182700Y-153483000D01*
X158182700Y-161517000D02*
X158182700Y-158540000D01*
X158222700Y-161523000D02*
X158222700Y-153477000D01*
X158262700Y-161530000D02*
X158262700Y-153470000D01*
X158302700Y-161536000D02*
X158302700Y-153464000D01*
X158342700Y-161542000D02*
X158342700Y-153458000D01*
X158382700Y-161547000D02*
X158382700Y-153453000D01*
X158422700Y-161552000D02*
X158422700Y-153448000D01*
X158462700Y-161556000D02*
X158462700Y-153444000D01*
X158502700Y-161561000D02*
X158502700Y-153439000D01*
X158542700Y-161564000D02*
X158542700Y-153436000D01*
X158582700Y-161568000D02*
X158582700Y-153432000D01*
X158622700Y-161570000D02*
X158622700Y-153430000D01*
X158662700Y-161573000D02*
X158662700Y-153427000D01*
X158702700Y-161575000D02*
X158702700Y-153425000D01*
X158742700Y-161577000D02*
X158742700Y-153423000D01*
X158782700Y-161578000D02*
X158782700Y-153422000D01*
X158822700Y-161579000D02*
X158822700Y-153421000D01*
X158862700Y-161580000D02*
X158862700Y-153420000D01*
X158902700Y-161580000D02*
X158902700Y-153420000D01*
X162912398Y-160215000D02*
X162912398Y-159415000D01*
X163312398Y-159815000D02*
X162512398Y-159815000D01*
X163022700Y-157500000D02*
G75*
G02*
X154782700Y-157500000I-4120000J0D01*
G01*
X154782700Y-157500000D02*
G75*
G02*
X163022700Y-157500000I4120000J0D01*
G01*
%TO.C,J2*%
X84440000Y-150040000D02*
X85820000Y-150040000D01*
X84440000Y-151420000D02*
X84440000Y-150040000D01*
X84440000Y-152690000D02*
X84440000Y-157880000D01*
X84440000Y-152690000D02*
X87200000Y-152690000D01*
X84440000Y-157880000D02*
X87200000Y-157880000D01*
X87200000Y-152690000D02*
X87200000Y-157880000D01*
%TD*%
M02*
