%TF.GenerationSoftware,KiCad,Pcbnew,10.0.1*%
%TF.CreationDate,2026-05-02T10:35:55+05:30*%
%TF.ProjectId,step,73746570-2e6b-4696-9361-645f70636258,rev?*%
%TF.SameCoordinates,Original*%
%TF.FileFunction,Copper,L1,Top*%
%TF.FilePolarity,Positive*%
%FSLAX46Y46*%
G04 Gerber Fmt 4.6, Leading zero omitted, Abs format (unit mm)*
G04 Created by KiCad (PCBNEW 10.0.1) date 2026-05-02 10:35:55*
%MOMM*%
%LPD*%
G01*
G04 APERTURE LIST*
G04 Aperture macros list*
%AMRoundRect*
0 Rectangle with rounded corners*
0 $1 Rounding radius*
0 $2 $3 $4 $5 $6 $7 $8 $9 X,Y pos of 4 corners*
0 Add a 4 corners polygon primitive as box body*
4,1,4,$2,$3,$4,$5,$6,$7,$8,$9,$2,$3,0*
0 Add four circle primitives for the rounded corners*
1,1,$1+$1,$2,$3*
1,1,$1+$1,$4,$5*
1,1,$1+$1,$6,$7*
1,1,$1+$1,$8,$9*
0 Add four rect primitives between the rounded corners*
20,1,$1+$1,$2,$3,$4,$5,0*
20,1,$1+$1,$4,$5,$6,$7,0*
20,1,$1+$1,$6,$7,$8,$9,0*
20,1,$1+$1,$8,$9,$2,$3,0*%
G04 Aperture macros list end*
%TA.AperFunction,ComponentPad*%
%ADD10C,1.600000*%
%TD*%
%TA.AperFunction,ComponentPad*%
%ADD11RoundRect,0.250000X0.550000X0.550000X-0.550000X0.550000X-0.550000X-0.550000X0.550000X-0.550000X0*%
%TD*%
%TA.AperFunction,ComponentPad*%
%ADD12C,1.700000*%
%TD*%
%TA.AperFunction,ComponentPad*%
%ADD13R,1.700000X1.700000*%
%TD*%
%TA.AperFunction,ComponentPad*%
%ADD14R,2.000000X2.000000*%
%TD*%
%TA.AperFunction,ComponentPad*%
%ADD15C,2.000000*%
%TD*%
%TA.AperFunction,ComponentPad*%
%ADD16RoundRect,0.250001X-0.949999X-0.949999X0.949999X-0.949999X0.949999X0.949999X-0.949999X0.949999X0*%
%TD*%
%TA.AperFunction,ComponentPad*%
%ADD17C,2.400000*%
%TD*%
%TA.AperFunction,ComponentPad*%
%ADD18RoundRect,0.250001X0.949999X0.949999X-0.949999X0.949999X-0.949999X-0.949999X0.949999X-0.949999X0*%
%TD*%
%TA.AperFunction,ComponentPad*%
%ADD19R,1.600000X1.600000*%
%TD*%
%TA.AperFunction,ComponentPad*%
%ADD20O,1.600000X1.600000*%
%TD*%
%TA.AperFunction,ComponentPad*%
%ADD21RoundRect,0.250000X-0.550000X-0.550000X0.550000X-0.550000X0.550000X0.550000X-0.550000X0.550000X0*%
%TD*%
%TA.AperFunction,ViaPad*%
%ADD22C,0.600000*%
%TD*%
%TA.AperFunction,Conductor*%
%ADD23C,0.200000*%
%TD*%
%TA.AperFunction,Conductor*%
%ADD24C,1.000000*%
%TD*%
G04 APERTURE END LIST*
D10*
%TO.P,C2,2*%
%TO.N,GND*%
X110500000Y-131000000D03*
D11*
%TO.P,C2,1*%
%TO.N,Net-(A1-VMOT)*%
X114000000Y-131000000D03*
%TD*%
D12*
%TO.P,J8,3,Pin_3_3*%
%TO.N,Net-(A1-M2)*%
X155960000Y-83590000D03*
%TO.P,J8,2,Pin_2_2*%
%TO.N,Net-(A1-M1)*%
X153420000Y-83590000D03*
D13*
%TO.P,J8,1,Pin_1_1*%
%TO.N,Net-(A1-M0)*%
X150880000Y-83590000D03*
%TD*%
D12*
%TO.P,J11,3,Pin_3_3*%
%TO.N,Net-(A1-~{RST})*%
X155920000Y-78500000D03*
%TO.P,J11,2,Pin_2_2*%
X153380000Y-78500000D03*
D13*
%TO.P,J11,1,Pin_1_1*%
X150840000Y-78500000D03*
%TD*%
%TO.P,J10,1,Pin_1_1*%
%TO.N,Net-(A1-~{RST})*%
X153420000Y-124000000D03*
D12*
%TO.P,J10,2,Pin_2_2*%
X155960000Y-124000000D03*
%TO.P,J10,3,Pin_3_3*%
X158500000Y-124000000D03*
%TD*%
D13*
%TO.P,J3,1,Pin_1_1*%
%TO.N,Net-(J3-Pin_1)*%
X90410000Y-151420000D03*
D12*
%TO.P,J3,2,Pin_2_2*%
%TO.N,GND*%
X90410000Y-153960000D03*
%TO.P,J3,3,Pin_3_3*%
%TO.N,Net-(A1-~{RST})*%
X90410000Y-156500000D03*
%TD*%
D14*
%TO.P,U1,1,3V3_1*%
%TO.N,Net-(A1-~{RST})*%
X77070000Y-96960000D03*
D15*
%TO.P,U1,2,GND_2*%
%TO.N,GND*%
X77070000Y-99500000D03*
%TO.P,U1,3,D15_3*%
%TO.N,unconnected-(U1-D15-Pad3)*%
X77070000Y-102040000D03*
%TO.P,U1,4,D2_4*%
%TO.N,unconnected-(U1-D2-Pad4)*%
X77070000Y-104580000D03*
%TO.P,U1,5,D4_5*%
%TO.N,unconnected-(U1-D4-Pad5)*%
X77070000Y-107120000D03*
%TO.P,U1,6,RX2_6*%
%TO.N,Net-(J12-Pin_3)*%
X77070000Y-109660000D03*
%TO.P,U1,7,TX2_7*%
%TO.N,Net-(J12-Pin_4)*%
X77070000Y-112200000D03*
%TO.P,U1,8,D5_8*%
%TO.N,unconnected-(U1-D5-Pad8)*%
X77070000Y-114740000D03*
%TO.P,U1,9,D18_9*%
%TO.N,Net-(A1-STEP)*%
X77070000Y-117280000D03*
%TO.P,U1,10,D19_10*%
%TO.N,Net-(A1-DIR)*%
X77070000Y-119820000D03*
%TO.P,U1,11,D21_11*%
%TO.N,Net-(A2-STEP)*%
X77070000Y-122360000D03*
%TO.P,U1,12,RX0_12*%
%TO.N,Net-(J12-Pin_1)*%
X77070000Y-124900000D03*
%TO.P,U1,13,TX0_13*%
%TO.N,Net-(J12-Pin_2)*%
X77070000Y-127440000D03*
%TO.P,U1,14,D22_14*%
%TO.N,Net-(A2-DIR)*%
X77070000Y-129980000D03*
%TO.P,U1,15,D23_15*%
%TO.N,unconnected-(U1-D23-Pad15)*%
X77070000Y-132520000D03*
%TO.P,U1,16,EN_16*%
%TO.N,unconnected-(U1-EN-Pad16)*%
X102470000Y-132520000D03*
%TO.P,U1,17,VP_17*%
%TO.N,unconnected-(U1-VP-Pad17)*%
X102470000Y-129980000D03*
%TO.P,U1,18,VN_18*%
%TO.N,unconnected-(U1-VN-Pad18)*%
X102470000Y-127440000D03*
%TO.P,U1,19,D34_19*%
%TO.N,unconnected-(U1-D34-Pad19)*%
X102470000Y-124900000D03*
%TO.P,U1,20,D35_20*%
%TO.N,unconnected-(U1-D35-Pad20)*%
X102470000Y-122360000D03*
%TO.P,U1,21,D32_21*%
%TO.N,Net-(J3-Pin_1)*%
X102470000Y-119820000D03*
%TO.P,U1,22,D33_22*%
%TO.N,Net-(J4-Pin_1)*%
X102470000Y-117280000D03*
%TO.P,U1,23,D25_23*%
%TO.N,Net-(J1-Pin_1)*%
X102470000Y-114740000D03*
%TO.P,U1,24,D26_24*%
%TO.N,Net-(J2-Pin_1)*%
X102470000Y-112200000D03*
%TO.P,U1,25,D27_25*%
%TO.N,unconnected-(U1-D27-Pad25)*%
X102470000Y-109660000D03*
%TO.P,U1,26,D14_26*%
%TO.N,unconnected-(U1-D14-Pad26)*%
X102470000Y-107120000D03*
%TO.P,U1,27,D12_27*%
%TO.N,unconnected-(U1-D12-Pad27)*%
X102470000Y-104580000D03*
%TO.P,U1,28,D13_28*%
%TO.N,unconnected-(U1-D13-Pad28)*%
X102470000Y-102040000D03*
%TO.P,U1,29,GND_29*%
%TO.N,GND*%
X102470000Y-99500000D03*
%TO.P,U1,30,VIN_30*%
%TO.N,Net-(J13-Pin_1)*%
X102470000Y-96960000D03*
%TD*%
D16*
%TO.P,J5,1,Pin_1_1*%
%TO.N,Net-(A1-VMOT)*%
X106500000Y-155000000D03*
D17*
%TO.P,J5,2,Pin_2_2*%
%TO.N,GND*%
X110000000Y-155000000D03*
%TD*%
D18*
%TO.P,J13,1,Pin_1_1*%
%TO.N,Net-(J13-Pin_1)*%
X119500000Y-82000000D03*
D17*
%TO.P,J13,2,Pin_2_2*%
%TO.N,GND*%
X116000000Y-82000000D03*
%TD*%
D19*
%TO.P,A1,1,GND_1*%
%TO.N,GND*%
X147220000Y-103700000D03*
D20*
%TO.P,A1,2,~{FLT}_2*%
%TO.N,unconnected-(A1-~{FLT}-Pad2)*%
X149760000Y-103700000D03*
%TO.P,A1,3,A2_3*%
%TO.N,Net-(A1-A2)*%
X152300000Y-103700000D03*
%TO.P,A1,4,A1_4*%
%TO.N,Net-(A1-A1)*%
X154840000Y-103700000D03*
%TO.P,A1,5,B1_5*%
%TO.N,Net-(A1-B1)*%
X157380000Y-103700000D03*
%TO.P,A1,6,B2_6*%
%TO.N,Net-(A1-B2)*%
X159920000Y-103700000D03*
%TO.P,A1,7,GND_7*%
%TO.N,GND*%
X162460000Y-103700000D03*
%TO.P,A1,8,VMOT_8*%
%TO.N,Net-(A1-VMOT)*%
X165000000Y-103700000D03*
%TO.P,A1,9,~{EN}_9*%
%TO.N,GND*%
X165000000Y-91000000D03*
%TO.P,A1,10,M0_10*%
%TO.N,Net-(A1-M0)*%
X162460000Y-91000000D03*
%TO.P,A1,11,M1_11*%
%TO.N,Net-(A1-M1)*%
X159920000Y-91000000D03*
%TO.P,A1,12,M2_12*%
%TO.N,Net-(A1-M2)*%
X157380000Y-91000000D03*
%TO.P,A1,13,~{RST}_13*%
%TO.N,Net-(A1-~{RST})*%
X154840000Y-91000000D03*
%TO.P,A1,14,~{SLP}_14*%
X152300000Y-91000000D03*
%TO.P,A1,15,STEP_15*%
%TO.N,Net-(A1-STEP)*%
X149760000Y-91000000D03*
%TO.P,A1,16,DIR_16*%
%TO.N,Net-(A1-DIR)*%
X147220000Y-91000000D03*
%TD*%
D13*
%TO.P,J7,1,Pin_1_1*%
%TO.N,Net-(A2-A1)*%
X152000000Y-157500000D03*
D12*
%TO.P,J7,2,Pin_2_2*%
%TO.N,Net-(A2-A2)*%
X154540000Y-157500000D03*
%TO.P,J7,3,Pin_3_3*%
%TO.N,Net-(A2-B1)*%
X157080000Y-157500000D03*
%TO.P,J7,4,Pin_4_4*%
%TO.N,Net-(A2-B2)*%
X159620000Y-157500000D03*
%TD*%
D21*
%TO.P,C1,1*%
%TO.N,Net-(A1-VMOT)*%
X110500000Y-112000000D03*
D10*
%TO.P,C1,2*%
%TO.N,GND*%
X114000000Y-112000000D03*
%TD*%
D13*
%TO.P,J9,1,Pin_1_1*%
%TO.N,Net-(A2-M0)*%
X153380000Y-129410000D03*
D12*
%TO.P,J9,2,Pin_2_2*%
%TO.N,Net-(A2-M1)*%
X155920000Y-129410000D03*
%TO.P,J9,3,Pin_3_3*%
%TO.N,Net-(A2-M2)*%
X158460000Y-129410000D03*
%TD*%
D13*
%TO.P,J1,1,Pin_1_1*%
%TO.N,Net-(J1-Pin_1)*%
X81230000Y-151420000D03*
D12*
%TO.P,J1,2,Pin_2_2*%
%TO.N,GND*%
X81230000Y-153960000D03*
%TO.P,J1,3,Pin_3_3*%
%TO.N,Net-(A1-~{RST})*%
X81230000Y-156500000D03*
%TD*%
D19*
%TO.P,A2,1,GND_1*%
%TO.N,GND*%
X147220000Y-148700000D03*
D20*
%TO.P,A2,2,~{FLT}_2*%
%TO.N,unconnected-(A2-~{FLT}-Pad2)*%
X149760000Y-148700000D03*
%TO.P,A2,3,A2_3*%
%TO.N,Net-(A2-A2)*%
X152300000Y-148700000D03*
%TO.P,A2,4,A1_4*%
%TO.N,Net-(A2-A1)*%
X154840000Y-148700000D03*
%TO.P,A2,5,B1_5*%
%TO.N,Net-(A2-B1)*%
X157380000Y-148700000D03*
%TO.P,A2,6,B2_6*%
%TO.N,Net-(A2-B2)*%
X159920000Y-148700000D03*
%TO.P,A2,7,GND_7*%
%TO.N,GND*%
X162460000Y-148700000D03*
%TO.P,A2,8,VMOT_8*%
%TO.N,Net-(A1-VMOT)*%
X165000000Y-148700000D03*
%TO.P,A2,9,~{EN}_9*%
%TO.N,GND*%
X165000000Y-136000000D03*
%TO.P,A2,10,M0_10*%
%TO.N,Net-(A2-M0)*%
X162460000Y-136000000D03*
%TO.P,A2,11,M1_11*%
%TO.N,Net-(A2-M1)*%
X159920000Y-136000000D03*
%TO.P,A2,12,M2_12*%
%TO.N,Net-(A2-M2)*%
X157380000Y-136000000D03*
%TO.P,A2,13,~{RST}_13*%
%TO.N,Net-(A1-~{RST})*%
X154840000Y-136000000D03*
%TO.P,A2,14,~{SLP}_14*%
X152300000Y-136000000D03*
%TO.P,A2,15,STEP_15*%
%TO.N,Net-(A2-STEP)*%
X149760000Y-136000000D03*
%TO.P,A2,16,DIR_16*%
%TO.N,Net-(A2-DIR)*%
X147220000Y-136000000D03*
%TD*%
D13*
%TO.P,J6,1,Pin_1_1*%
%TO.N,Net-(A1-A1)*%
X159460000Y-113000000D03*
D12*
%TO.P,J6,2,Pin_2_2*%
%TO.N,Net-(A1-A2)*%
X156920000Y-113000000D03*
%TO.P,J6,3,Pin_3_3*%
%TO.N,Net-(A1-B1)*%
X154380000Y-113000000D03*
%TO.P,J6,4,Pin_4_4*%
%TO.N,Net-(A1-B2)*%
X151840000Y-113000000D03*
%TD*%
D13*
%TO.P,J4,1,Pin_1_1*%
%TO.N,Net-(J4-Pin_1)*%
X95000000Y-151420000D03*
D12*
%TO.P,J4,2,Pin_2_2*%
%TO.N,GND*%
X95000000Y-153960000D03*
%TO.P,J4,3,Pin_3_3*%
%TO.N,Net-(A1-~{RST})*%
X95000000Y-156500000D03*
%TD*%
D13*
%TO.P,J12,1,Pin_1_1*%
%TO.N,Net-(J12-Pin_1)*%
X80960000Y-80000000D03*
D12*
%TO.P,J12,2,Pin_2_2*%
%TO.N,Net-(J12-Pin_2)*%
X83500000Y-80000000D03*
%TO.P,J12,3,Pin_3_3*%
%TO.N,Net-(J12-Pin_3)*%
X86040000Y-80000000D03*
%TO.P,J12,4,Pin_4_4*%
%TO.N,Net-(J12-Pin_4)*%
X88580000Y-80000000D03*
%TD*%
D13*
%TO.P,J2,1,Pin_1_1*%
%TO.N,Net-(J2-Pin_1)*%
X85820000Y-151420000D03*
D12*
%TO.P,J2,2,Pin_2_2*%
%TO.N,GND*%
X85820000Y-153960000D03*
%TO.P,J2,3,Pin_3_3*%
%TO.N,Net-(A1-~{RST})*%
X85820000Y-156500000D03*
%TD*%
D22*
%TO.N,Net-(A1-~{RST})*%
X97183500Y-151720800D03*
X75069300Y-96960000D03*
%TD*%
%TO.N,Net-(A2-M1)*%
D23*
X159920000Y-133410000D02*
X155920000Y-129410000D01*
X159920000Y-136000000D02*
X159920000Y-133410000D01*
%TO.N,Net-(A1-B1)*%
X157380000Y-110000000D02*
X157380000Y-103700000D01*
X154380000Y-113000000D02*
X157380000Y-110000000D01*
%TO.N,Net-(A1-VMOT)*%
D24*
X160052100Y-153647900D02*
X165000000Y-148700000D01*
X145892300Y-153647900D02*
X160052100Y-153647900D01*
X145890800Y-153649400D02*
X145892300Y-153647900D01*
X139107400Y-153649400D02*
X145890800Y-153649400D01*
X137857200Y-154899600D02*
X139107400Y-153649400D01*
X115145800Y-154899600D02*
X137857200Y-154899600D01*
X112443600Y-157601800D02*
X115145800Y-154899600D01*
X111406500Y-157601800D02*
X112443600Y-157601800D01*
X110780000Y-156975300D02*
X111406500Y-157601800D01*
X108475300Y-156975300D02*
X110780000Y-156975300D01*
X106500000Y-155000000D02*
X108475300Y-156975300D01*
%TO.N,Net-(A2-DIR)*%
D23*
X97518100Y-129980000D02*
X77070000Y-129980000D01*
X98886400Y-131348300D02*
X97518100Y-129980000D01*
X98886400Y-135766900D02*
X98886400Y-131348300D01*
X101173200Y-138053700D02*
X98886400Y-135766900D01*
X144064600Y-138053700D02*
X101173200Y-138053700D01*
X146118300Y-136000000D02*
X144064600Y-138053700D01*
X147220000Y-136000000D02*
X146118300Y-136000000D01*
%TO.N,Net-(A2-STEP)*%
X149760000Y-136000000D02*
X148658300Y-136000000D01*
X90466300Y-122360000D02*
X77070000Y-122360000D01*
X101966300Y-133860000D02*
X90466300Y-122360000D01*
X146746600Y-133860000D02*
X101966300Y-133860000D01*
X148658300Y-135771700D02*
X146746600Y-133860000D01*
X148658300Y-136000000D02*
X148658300Y-135771700D01*
%TO.N,Net-(A1-DIR)*%
X105890000Y-91000000D02*
X147220000Y-91000000D01*
X77070000Y-119820000D02*
X105890000Y-91000000D01*
%TO.N,Net-(A1-STEP)*%
X148658300Y-90771700D02*
X148658300Y-91000000D01*
X147756800Y-89870200D02*
X148658300Y-90771700D01*
X104479800Y-89870200D02*
X147756800Y-89870200D01*
X77070000Y-117280000D02*
X104479800Y-89870200D01*
X149760000Y-91000000D02*
X148658300Y-91000000D01*
%TO.N,Net-(A1-M1)*%
X159728300Y-89898300D02*
X153420000Y-83590000D01*
X159920000Y-89898300D02*
X159728300Y-89898300D01*
X159920000Y-91000000D02*
X159920000Y-89898300D01*
%TO.N,GND*%
D24*
X162460000Y-103700000D02*
X162460000Y-102148300D01*
X165000000Y-99608300D02*
X162460000Y-102148300D01*
X165000000Y-91000000D02*
X165000000Y-99608300D01*
X148771700Y-102148300D02*
X147220000Y-103700000D01*
X162460000Y-102148300D02*
X148771700Y-102148300D01*
X95937100Y-153022900D02*
X95000000Y-153960000D01*
X108022900Y-153022900D02*
X95937100Y-153022900D01*
X110000000Y-155000000D02*
X108022900Y-153022900D01*
X102470000Y-99500000D02*
X114485000Y-111515000D01*
X122300000Y-103700000D02*
X114485000Y-111515000D01*
X147220000Y-103700000D02*
X122300000Y-103700000D01*
X114485000Y-111515000D02*
X114000000Y-112000000D01*
X101842700Y-82000000D02*
X116000000Y-82000000D01*
X84342700Y-99500000D02*
X101842700Y-82000000D01*
X77070000Y-99500000D02*
X84342700Y-99500000D01*
X85820000Y-153960000D02*
X90410000Y-153960000D01*
X95000000Y-153960000D02*
X90410000Y-153960000D01*
X81230000Y-153960000D02*
X85820000Y-153960000D01*
X147220000Y-149625000D02*
X147220000Y-148700000D01*
X140736400Y-149625000D02*
X147220000Y-149625000D01*
X137338500Y-153022900D02*
X140736400Y-149625000D01*
X111977100Y-153022900D02*
X137338500Y-153022900D01*
X110000000Y-155000000D02*
X111977100Y-153022900D01*
X160905500Y-150254500D02*
X162460000Y-148700000D01*
X147849500Y-150254500D02*
X160905500Y-150254500D01*
X147220000Y-149625000D02*
X147849500Y-150254500D01*
%TO.N,Net-(A1-~{RST})*%
D23*
X152300000Y-136000000D02*
X154840000Y-136000000D01*
X152300000Y-91000000D02*
X154840000Y-91000000D01*
X85820000Y-156500000D02*
X90410000Y-156500000D01*
X95000000Y-156500000D02*
X90410000Y-156500000D01*
X81230000Y-156500000D02*
X85820000Y-156500000D01*
X151198300Y-136228300D02*
X151198300Y-136000000D01*
X135705800Y-151720800D02*
X151198300Y-136228300D01*
X97183500Y-151720800D02*
X135705800Y-151720800D01*
X152300000Y-136000000D02*
X151198300Y-136000000D01*
X158500000Y-124000000D02*
X155960000Y-124000000D01*
X155960000Y-124000000D02*
X153420000Y-124000000D01*
X150840000Y-78500000D02*
X153380000Y-78500000D01*
X153380000Y-78500000D02*
X155920000Y-78500000D01*
X77070000Y-96960000D02*
X75768300Y-96960000D01*
X75768300Y-96960000D02*
X75069300Y-96960000D01*
%TD*%
M02*
