%TF.GenerationSoftware,KiCad,Pcbnew,10.0.1*%
%TF.CreationDate,2026-06-02T20:11:38+05:30*%
%TF.ProjectId,power,706f7765-722e-46b6-9963-61645f706362,rev?*%
%TF.SameCoordinates,Original*%
%TF.FileFunction,Soldermask,Bot*%
%TF.FilePolarity,Negative*%
%FSLAX46Y46*%
G04 Gerber Fmt 4.6, Leading zero omitted, Abs format (unit mm)*
G04 Created by KiCad (PCBNEW 10.0.1) date 2026-06-02 20:11:38*
%MOMM*%
%LPD*%
G01*
G04 APERTURE LIST*
G04 Aperture macros list*
%AMRoundRect*
0 Rectangle with rounded corners*
0 $1 Rounding radius*
0 $2 $3 $4 $5 $6 $7 $8 $9 X,Y pos of 4 corners*
0 Add a 4 corners polygon primitive as box body*
4,1,4,$2,$3,$4,$5,$6,$7,$8,$9,$2,$3,0*
0 Add four circle primitives for the rounded corners*
1,1,$1+$1,$2,$3*
1,1,$1+$1,$4,$5*
1,1,$1+$1,$6,$7*
1,1,$1+$1,$8,$9*
0 Add four rect primitives between the rounded corners*
20,1,$1+$1,$2,$3,$4,$5,0*
20,1,$1+$1,$4,$5,$6,$7,0*
20,1,$1+$1,$6,$7,$8,$9,0*
20,1,$1+$1,$8,$9,$2,$3,0*%
G04 Aperture macros list end*
%ADD10C,1.400000*%
%ADD11RoundRect,0.250000X1.000000X1.000000X-1.000000X1.000000X-1.000000X-1.000000X1.000000X-1.000000X0*%
%ADD12C,2.500000*%
%ADD13R,1.700000X1.700000*%
%ADD14C,1.700000*%
%ADD15RoundRect,0.250000X-1.000000X-1.000000X1.000000X-1.000000X1.000000X1.000000X-1.000000X1.000000X0*%
%ADD16R,2.540000X2.540000*%
%ADD17C,2.540000*%
%ADD18R,1.800000X1.800000*%
%ADD19C,1.800000*%
%ADD20RoundRect,0.550000X0.550000X-0.550000X0.550000X0.550000X-0.550000X0.550000X-0.550000X-0.550000X0*%
%ADD21C,2.200000*%
G04 APERTURE END LIST*
D10*
%TO.C,R5*%
X144780000Y-106000000D03*
X147320000Y-106000000D03*
%TD*%
D11*
%TO.C,J1*%
X103500000Y-65500000D03*
D12*
X98420000Y-65500000D03*
%TD*%
D10*
%TO.C,R3*%
X119500000Y-97500000D03*
X119500000Y-100040000D03*
%TD*%
D11*
%TO.C,J3*%
X126500000Y-66000000D03*
D12*
X121420000Y-66000000D03*
%TD*%
D11*
%TO.C,J7*%
X140000000Y-66000000D03*
D12*
X134920000Y-66000000D03*
%TD*%
D13*
%TO.C,J4*%
X117040000Y-91500000D03*
D14*
X114500000Y-91500000D03*
X111960000Y-91500000D03*
X109420000Y-91500000D03*
X106880000Y-91500000D03*
%TD*%
D13*
%TO.C,SW6*%
X109000000Y-82000000D03*
D14*
X109000000Y-79460000D03*
X109000000Y-76920000D03*
%TD*%
D15*
%TO.C,J2*%
X145500000Y-122500000D03*
D12*
X150580000Y-122500000D03*
%TD*%
D16*
%TO.C,U1*%
X97500000Y-104000000D03*
D17*
X97500000Y-121780000D03*
X138140000Y-121780000D03*
X138140000Y-104000000D03*
%TD*%
D13*
%TO.C,SW5*%
X144960000Y-101000000D03*
D14*
X147500000Y-101000000D03*
X150040000Y-101000000D03*
%TD*%
D18*
%TO.C,D2*%
X126000000Y-96500000D03*
D19*
X126000000Y-99040000D03*
%TD*%
D18*
%TO.C,D1*%
X121000000Y-76500000D03*
D19*
X121000000Y-79040000D03*
%TD*%
D20*
%TO.C,F1*%
X97500000Y-93800000D03*
X102500000Y-93800000D03*
D21*
X97500000Y-76000000D03*
X102500000Y-76000000D03*
%TD*%
D13*
%TO.C,J5*%
X137500000Y-94000000D03*
D14*
X137500000Y-91460000D03*
X137500000Y-88920000D03*
X137500000Y-86380000D03*
X137500000Y-83840000D03*
%TD*%
D13*
%TO.C,SW7*%
X115000000Y-97500000D03*
D14*
X112460000Y-97500000D03*
X109920000Y-97500000D03*
%TD*%
D13*
%TO.C,J6*%
X152000000Y-115500000D03*
D14*
X152000000Y-112960000D03*
X152000000Y-110420000D03*
X152000000Y-107880000D03*
X152000000Y-105340000D03*
%TD*%
D18*
%TO.C,D3*%
X144960000Y-111500000D03*
D19*
X147500000Y-111500000D03*
%TD*%
D10*
%TO.C,R1*%
X114500000Y-76500000D03*
X114500000Y-79040000D03*
%TD*%
D13*
%TO.C,SW4*%
X111000000Y-68040000D03*
D14*
X111000000Y-65500000D03*
X111000000Y-62960000D03*
%TD*%
M02*
