%TF.GenerationSoftware,KiCad,Pcbnew,10.0.1*%
%TF.CreationDate,2026-06-02T20:11:38+05:30*%
%TF.ProjectId,power,706f7765-722e-46b6-9963-61645f706362,rev?*%
%TF.SameCoordinates,Original*%
%TF.FileFunction,Legend,Top*%
%TF.FilePolarity,Positive*%
%FSLAX46Y46*%
G04 Gerber Fmt 4.6, Leading zero omitted, Abs format (unit mm)*
G04 Created by KiCad (PCBNEW 10.0.1) date 2026-06-02 20:11:38*
%MOMM*%
%LPD*%
G01*
G04 APERTURE LIST*
%ADD10C,0.100000*%
%ADD11C,0.150000*%
%ADD12C,0.120000*%
G04 APERTURE END LIST*
D10*
X97303884Y-58991466D02*
X98065789Y-58991466D01*
X98803884Y-60372419D02*
X98803884Y-59372419D01*
X99280074Y-60372419D02*
X99280074Y-59372419D01*
X99280074Y-59372419D02*
X99851502Y-60372419D01*
X99851502Y-60372419D02*
X99851502Y-59372419D01*
X100327693Y-60372419D02*
X100327693Y-59372419D01*
X100327693Y-59372419D02*
X100708645Y-59372419D01*
X100708645Y-59372419D02*
X100803883Y-59420038D01*
X100803883Y-59420038D02*
X100851502Y-59467657D01*
X100851502Y-59467657D02*
X100899121Y-59562895D01*
X100899121Y-59562895D02*
X100899121Y-59705752D01*
X100899121Y-59705752D02*
X100851502Y-59800990D01*
X100851502Y-59800990D02*
X100803883Y-59848609D01*
X100803883Y-59848609D02*
X100708645Y-59896228D01*
X100708645Y-59896228D02*
X100327693Y-59896228D01*
X101327693Y-59372419D02*
X101327693Y-60181942D01*
X101327693Y-60181942D02*
X101375312Y-60277180D01*
X101375312Y-60277180D02*
X101422931Y-60324800D01*
X101422931Y-60324800D02*
X101518169Y-60372419D01*
X101518169Y-60372419D02*
X101708645Y-60372419D01*
X101708645Y-60372419D02*
X101803883Y-60324800D01*
X101803883Y-60324800D02*
X101851502Y-60277180D01*
X101851502Y-60277180D02*
X101899121Y-60181942D01*
X101899121Y-60181942D02*
X101899121Y-59372419D01*
X102232455Y-59372419D02*
X102803883Y-59372419D01*
X102518169Y-60372419D02*
X102518169Y-59372419D01*
X103363884Y-58991466D02*
X104125789Y-58991466D01*
X103744836Y-59372419D02*
X103744836Y-58610514D01*
X119743884Y-58991466D02*
X120505789Y-58991466D01*
X121327693Y-60872419D02*
X120756265Y-60872419D01*
X121041979Y-60872419D02*
X121041979Y-59872419D01*
X121041979Y-59872419D02*
X120946741Y-60015276D01*
X120946741Y-60015276D02*
X120851503Y-60110514D01*
X120851503Y-60110514D02*
X120756265Y-60158133D01*
X121708646Y-59967657D02*
X121756265Y-59920038D01*
X121756265Y-59920038D02*
X121851503Y-59872419D01*
X121851503Y-59872419D02*
X122089598Y-59872419D01*
X122089598Y-59872419D02*
X122184836Y-59920038D01*
X122184836Y-59920038D02*
X122232455Y-59967657D01*
X122232455Y-59967657D02*
X122280074Y-60062895D01*
X122280074Y-60062895D02*
X122280074Y-60158133D01*
X122280074Y-60158133D02*
X122232455Y-60300990D01*
X122232455Y-60300990D02*
X121661027Y-60872419D01*
X121661027Y-60872419D02*
X122280074Y-60872419D01*
X122565789Y-59872419D02*
X122899122Y-60872419D01*
X122899122Y-60872419D02*
X123232455Y-59872419D01*
X124518170Y-59872419D02*
X124708646Y-59872419D01*
X124708646Y-59872419D02*
X124803884Y-59920038D01*
X124803884Y-59920038D02*
X124899122Y-60015276D01*
X124899122Y-60015276D02*
X124946741Y-60205752D01*
X124946741Y-60205752D02*
X124946741Y-60539085D01*
X124946741Y-60539085D02*
X124899122Y-60729561D01*
X124899122Y-60729561D02*
X124803884Y-60824800D01*
X124803884Y-60824800D02*
X124708646Y-60872419D01*
X124708646Y-60872419D02*
X124518170Y-60872419D01*
X124518170Y-60872419D02*
X124422932Y-60824800D01*
X124422932Y-60824800D02*
X124327694Y-60729561D01*
X124327694Y-60729561D02*
X124280075Y-60539085D01*
X124280075Y-60539085D02*
X124280075Y-60205752D01*
X124280075Y-60205752D02*
X124327694Y-60015276D01*
X124327694Y-60015276D02*
X124422932Y-59920038D01*
X124422932Y-59920038D02*
X124518170Y-59872419D01*
X125375313Y-59872419D02*
X125375313Y-60681942D01*
X125375313Y-60681942D02*
X125422932Y-60777180D01*
X125422932Y-60777180D02*
X125470551Y-60824800D01*
X125470551Y-60824800D02*
X125565789Y-60872419D01*
X125565789Y-60872419D02*
X125756265Y-60872419D01*
X125756265Y-60872419D02*
X125851503Y-60824800D01*
X125851503Y-60824800D02*
X125899122Y-60777180D01*
X125899122Y-60777180D02*
X125946741Y-60681942D01*
X125946741Y-60681942D02*
X125946741Y-59872419D01*
X126280075Y-59872419D02*
X126851503Y-59872419D01*
X126565789Y-60872419D02*
X126565789Y-59872419D01*
X125803884Y-58991466D02*
X126565789Y-58991466D01*
X126184836Y-59372419D02*
X126184836Y-58610514D01*
X133743884Y-58991466D02*
X134505789Y-58991466D01*
X135327693Y-60872419D02*
X134756265Y-60872419D01*
X135041979Y-60872419D02*
X135041979Y-59872419D01*
X135041979Y-59872419D02*
X134946741Y-60015276D01*
X134946741Y-60015276D02*
X134851503Y-60110514D01*
X134851503Y-60110514D02*
X134756265Y-60158133D01*
X135708646Y-59967657D02*
X135756265Y-59920038D01*
X135756265Y-59920038D02*
X135851503Y-59872419D01*
X135851503Y-59872419D02*
X136089598Y-59872419D01*
X136089598Y-59872419D02*
X136184836Y-59920038D01*
X136184836Y-59920038D02*
X136232455Y-59967657D01*
X136232455Y-59967657D02*
X136280074Y-60062895D01*
X136280074Y-60062895D02*
X136280074Y-60158133D01*
X136280074Y-60158133D02*
X136232455Y-60300990D01*
X136232455Y-60300990D02*
X135661027Y-60872419D01*
X135661027Y-60872419D02*
X136280074Y-60872419D01*
X136565789Y-59872419D02*
X136899122Y-60872419D01*
X136899122Y-60872419D02*
X137232455Y-59872419D01*
X138518170Y-59872419D02*
X138708646Y-59872419D01*
X138708646Y-59872419D02*
X138803884Y-59920038D01*
X138803884Y-59920038D02*
X138899122Y-60015276D01*
X138899122Y-60015276D02*
X138946741Y-60205752D01*
X138946741Y-60205752D02*
X138946741Y-60539085D01*
X138946741Y-60539085D02*
X138899122Y-60729561D01*
X138899122Y-60729561D02*
X138803884Y-60824800D01*
X138803884Y-60824800D02*
X138708646Y-60872419D01*
X138708646Y-60872419D02*
X138518170Y-60872419D01*
X138518170Y-60872419D02*
X138422932Y-60824800D01*
X138422932Y-60824800D02*
X138327694Y-60729561D01*
X138327694Y-60729561D02*
X138280075Y-60539085D01*
X138280075Y-60539085D02*
X138280075Y-60205752D01*
X138280075Y-60205752D02*
X138327694Y-60015276D01*
X138327694Y-60015276D02*
X138422932Y-59920038D01*
X138422932Y-59920038D02*
X138518170Y-59872419D01*
X139375313Y-59872419D02*
X139375313Y-60681942D01*
X139375313Y-60681942D02*
X139422932Y-60777180D01*
X139422932Y-60777180D02*
X139470551Y-60824800D01*
X139470551Y-60824800D02*
X139565789Y-60872419D01*
X139565789Y-60872419D02*
X139756265Y-60872419D01*
X139756265Y-60872419D02*
X139851503Y-60824800D01*
X139851503Y-60824800D02*
X139899122Y-60777180D01*
X139899122Y-60777180D02*
X139946741Y-60681942D01*
X139946741Y-60681942D02*
X139946741Y-59872419D01*
X140280075Y-59872419D02*
X140851503Y-59872419D01*
X140565789Y-60872419D02*
X140565789Y-59872419D01*
X139803884Y-58991466D02*
X140565789Y-58991466D01*
X140184836Y-59372419D02*
X140184836Y-58610514D01*
X145803884Y-128372419D02*
X145803884Y-127372419D01*
X146280074Y-128372419D02*
X146280074Y-127372419D01*
X146280074Y-127372419D02*
X146851502Y-128372419D01*
X146851502Y-128372419D02*
X146851502Y-127372419D01*
X147327693Y-128372419D02*
X147327693Y-127372419D01*
X147327693Y-127372419D02*
X147708645Y-127372419D01*
X147708645Y-127372419D02*
X147803883Y-127420038D01*
X147803883Y-127420038D02*
X147851502Y-127467657D01*
X147851502Y-127467657D02*
X147899121Y-127562895D01*
X147899121Y-127562895D02*
X147899121Y-127705752D01*
X147899121Y-127705752D02*
X147851502Y-127800990D01*
X147851502Y-127800990D02*
X147803883Y-127848609D01*
X147803883Y-127848609D02*
X147708645Y-127896228D01*
X147708645Y-127896228D02*
X147327693Y-127896228D01*
X148327693Y-127372419D02*
X148327693Y-128181942D01*
X148327693Y-128181942D02*
X148375312Y-128277180D01*
X148375312Y-128277180D02*
X148422931Y-128324800D01*
X148422931Y-128324800D02*
X148518169Y-128372419D01*
X148518169Y-128372419D02*
X148708645Y-128372419D01*
X148708645Y-128372419D02*
X148803883Y-128324800D01*
X148803883Y-128324800D02*
X148851502Y-128277180D01*
X148851502Y-128277180D02*
X148899121Y-128181942D01*
X148899121Y-128181942D02*
X148899121Y-127372419D01*
X149232455Y-127372419D02*
X149803883Y-127372419D01*
X149518169Y-128372419D02*
X149518169Y-127372419D01*
X144696115Y-128008533D02*
X143934211Y-128008533D01*
X144315163Y-127627580D02*
X144315163Y-128389485D01*
X151696115Y-128008533D02*
X150934211Y-128008533D01*
D11*
X145883333Y-104534819D02*
X145550000Y-104058628D01*
X145311905Y-104534819D02*
X145311905Y-103534819D01*
X145311905Y-103534819D02*
X145692857Y-103534819D01*
X145692857Y-103534819D02*
X145788095Y-103582438D01*
X145788095Y-103582438D02*
X145835714Y-103630057D01*
X145835714Y-103630057D02*
X145883333Y-103725295D01*
X145883333Y-103725295D02*
X145883333Y-103868152D01*
X145883333Y-103868152D02*
X145835714Y-103963390D01*
X145835714Y-103963390D02*
X145788095Y-104011009D01*
X145788095Y-104011009D02*
X145692857Y-104058628D01*
X145692857Y-104058628D02*
X145311905Y-104058628D01*
X146788095Y-103534819D02*
X146311905Y-103534819D01*
X146311905Y-103534819D02*
X146264286Y-104011009D01*
X146264286Y-104011009D02*
X146311905Y-103963390D01*
X146311905Y-103963390D02*
X146407143Y-103915771D01*
X146407143Y-103915771D02*
X146645238Y-103915771D01*
X146645238Y-103915771D02*
X146740476Y-103963390D01*
X146740476Y-103963390D02*
X146788095Y-104011009D01*
X146788095Y-104011009D02*
X146835714Y-104106247D01*
X146835714Y-104106247D02*
X146835714Y-104344342D01*
X146835714Y-104344342D02*
X146788095Y-104439580D01*
X146788095Y-104439580D02*
X146740476Y-104487200D01*
X146740476Y-104487200D02*
X146645238Y-104534819D01*
X146645238Y-104534819D02*
X146407143Y-104534819D01*
X146407143Y-104534819D02*
X146311905Y-104487200D01*
X146311905Y-104487200D02*
X146264286Y-104439580D01*
X100626666Y-70074819D02*
X100626666Y-70789104D01*
X100626666Y-70789104D02*
X100579047Y-70931961D01*
X100579047Y-70931961D02*
X100483809Y-71027200D01*
X100483809Y-71027200D02*
X100340952Y-71074819D01*
X100340952Y-71074819D02*
X100245714Y-71074819D01*
X101626666Y-71074819D02*
X101055238Y-71074819D01*
X101340952Y-71074819D02*
X101340952Y-70074819D01*
X101340952Y-70074819D02*
X101245714Y-70217676D01*
X101245714Y-70217676D02*
X101150476Y-70312914D01*
X101150476Y-70312914D02*
X101055238Y-70360533D01*
X121874819Y-98936666D02*
X121398628Y-99269999D01*
X121874819Y-99508094D02*
X120874819Y-99508094D01*
X120874819Y-99508094D02*
X120874819Y-99127142D01*
X120874819Y-99127142D02*
X120922438Y-99031904D01*
X120922438Y-99031904D02*
X120970057Y-98984285D01*
X120970057Y-98984285D02*
X121065295Y-98936666D01*
X121065295Y-98936666D02*
X121208152Y-98936666D01*
X121208152Y-98936666D02*
X121303390Y-98984285D01*
X121303390Y-98984285D02*
X121351009Y-99031904D01*
X121351009Y-99031904D02*
X121398628Y-99127142D01*
X121398628Y-99127142D02*
X121398628Y-99508094D01*
X120874819Y-98603332D02*
X120874819Y-97984285D01*
X120874819Y-97984285D02*
X121255771Y-98317618D01*
X121255771Y-98317618D02*
X121255771Y-98174761D01*
X121255771Y-98174761D02*
X121303390Y-98079523D01*
X121303390Y-98079523D02*
X121351009Y-98031904D01*
X121351009Y-98031904D02*
X121446247Y-97984285D01*
X121446247Y-97984285D02*
X121684342Y-97984285D01*
X121684342Y-97984285D02*
X121779580Y-98031904D01*
X121779580Y-98031904D02*
X121827200Y-98079523D01*
X121827200Y-98079523D02*
X121874819Y-98174761D01*
X121874819Y-98174761D02*
X121874819Y-98460475D01*
X121874819Y-98460475D02*
X121827200Y-98555713D01*
X121827200Y-98555713D02*
X121779580Y-98603332D01*
X123626666Y-70574819D02*
X123626666Y-71289104D01*
X123626666Y-71289104D02*
X123579047Y-71431961D01*
X123579047Y-71431961D02*
X123483809Y-71527200D01*
X123483809Y-71527200D02*
X123340952Y-71574819D01*
X123340952Y-71574819D02*
X123245714Y-71574819D01*
X124007619Y-70574819D02*
X124626666Y-70574819D01*
X124626666Y-70574819D02*
X124293333Y-70955771D01*
X124293333Y-70955771D02*
X124436190Y-70955771D01*
X124436190Y-70955771D02*
X124531428Y-71003390D01*
X124531428Y-71003390D02*
X124579047Y-71051009D01*
X124579047Y-71051009D02*
X124626666Y-71146247D01*
X124626666Y-71146247D02*
X124626666Y-71384342D01*
X124626666Y-71384342D02*
X124579047Y-71479580D01*
X124579047Y-71479580D02*
X124531428Y-71527200D01*
X124531428Y-71527200D02*
X124436190Y-71574819D01*
X124436190Y-71574819D02*
X124150476Y-71574819D01*
X124150476Y-71574819D02*
X124055238Y-71527200D01*
X124055238Y-71527200D02*
X124007619Y-71479580D01*
X137126666Y-70574819D02*
X137126666Y-71289104D01*
X137126666Y-71289104D02*
X137079047Y-71431961D01*
X137079047Y-71431961D02*
X136983809Y-71527200D01*
X136983809Y-71527200D02*
X136840952Y-71574819D01*
X136840952Y-71574819D02*
X136745714Y-71574819D01*
X137507619Y-70574819D02*
X138174285Y-70574819D01*
X138174285Y-70574819D02*
X137745714Y-71574819D01*
X119264819Y-91833333D02*
X119979104Y-91833333D01*
X119979104Y-91833333D02*
X120121961Y-91880952D01*
X120121961Y-91880952D02*
X120217200Y-91976190D01*
X120217200Y-91976190D02*
X120264819Y-92119047D01*
X120264819Y-92119047D02*
X120264819Y-92214285D01*
X119598152Y-90928571D02*
X120264819Y-90928571D01*
X119217200Y-91166666D02*
X119931485Y-91404761D01*
X119931485Y-91404761D02*
X119931485Y-90785714D01*
X107666667Y-84787200D02*
X107809524Y-84834819D01*
X107809524Y-84834819D02*
X108047619Y-84834819D01*
X108047619Y-84834819D02*
X108142857Y-84787200D01*
X108142857Y-84787200D02*
X108190476Y-84739580D01*
X108190476Y-84739580D02*
X108238095Y-84644342D01*
X108238095Y-84644342D02*
X108238095Y-84549104D01*
X108238095Y-84549104D02*
X108190476Y-84453866D01*
X108190476Y-84453866D02*
X108142857Y-84406247D01*
X108142857Y-84406247D02*
X108047619Y-84358628D01*
X108047619Y-84358628D02*
X107857143Y-84311009D01*
X107857143Y-84311009D02*
X107761905Y-84263390D01*
X107761905Y-84263390D02*
X107714286Y-84215771D01*
X107714286Y-84215771D02*
X107666667Y-84120533D01*
X107666667Y-84120533D02*
X107666667Y-84025295D01*
X107666667Y-84025295D02*
X107714286Y-83930057D01*
X107714286Y-83930057D02*
X107761905Y-83882438D01*
X107761905Y-83882438D02*
X107857143Y-83834819D01*
X107857143Y-83834819D02*
X108095238Y-83834819D01*
X108095238Y-83834819D02*
X108238095Y-83882438D01*
X108571429Y-83834819D02*
X108809524Y-84834819D01*
X108809524Y-84834819D02*
X109000000Y-84120533D01*
X109000000Y-84120533D02*
X109190476Y-84834819D01*
X109190476Y-84834819D02*
X109428572Y-83834819D01*
X110238095Y-83834819D02*
X110047619Y-83834819D01*
X110047619Y-83834819D02*
X109952381Y-83882438D01*
X109952381Y-83882438D02*
X109904762Y-83930057D01*
X109904762Y-83930057D02*
X109809524Y-84072914D01*
X109809524Y-84072914D02*
X109761905Y-84263390D01*
X109761905Y-84263390D02*
X109761905Y-84644342D01*
X109761905Y-84644342D02*
X109809524Y-84739580D01*
X109809524Y-84739580D02*
X109857143Y-84787200D01*
X109857143Y-84787200D02*
X109952381Y-84834819D01*
X109952381Y-84834819D02*
X110142857Y-84834819D01*
X110142857Y-84834819D02*
X110238095Y-84787200D01*
X110238095Y-84787200D02*
X110285714Y-84739580D01*
X110285714Y-84739580D02*
X110333333Y-84644342D01*
X110333333Y-84644342D02*
X110333333Y-84406247D01*
X110333333Y-84406247D02*
X110285714Y-84311009D01*
X110285714Y-84311009D02*
X110238095Y-84263390D01*
X110238095Y-84263390D02*
X110142857Y-84215771D01*
X110142857Y-84215771D02*
X109952381Y-84215771D01*
X109952381Y-84215771D02*
X109857143Y-84263390D01*
X109857143Y-84263390D02*
X109809524Y-84311009D01*
X109809524Y-84311009D02*
X109761905Y-84406247D01*
X147706666Y-116834819D02*
X147706666Y-117549104D01*
X147706666Y-117549104D02*
X147659047Y-117691961D01*
X147659047Y-117691961D02*
X147563809Y-117787200D01*
X147563809Y-117787200D02*
X147420952Y-117834819D01*
X147420952Y-117834819D02*
X147325714Y-117834819D01*
X148135238Y-116930057D02*
X148182857Y-116882438D01*
X148182857Y-116882438D02*
X148278095Y-116834819D01*
X148278095Y-116834819D02*
X148516190Y-116834819D01*
X148516190Y-116834819D02*
X148611428Y-116882438D01*
X148611428Y-116882438D02*
X148659047Y-116930057D01*
X148659047Y-116930057D02*
X148706666Y-117025295D01*
X148706666Y-117025295D02*
X148706666Y-117120533D01*
X148706666Y-117120533D02*
X148659047Y-117263390D01*
X148659047Y-117263390D02*
X148087619Y-117834819D01*
X148087619Y-117834819D02*
X148706666Y-117834819D01*
X118328095Y-99644819D02*
X118328095Y-100454342D01*
X118328095Y-100454342D02*
X118375714Y-100549580D01*
X118375714Y-100549580D02*
X118423333Y-100597200D01*
X118423333Y-100597200D02*
X118518571Y-100644819D01*
X118518571Y-100644819D02*
X118709047Y-100644819D01*
X118709047Y-100644819D02*
X118804285Y-100597200D01*
X118804285Y-100597200D02*
X118851904Y-100549580D01*
X118851904Y-100549580D02*
X118899523Y-100454342D01*
X118899523Y-100454342D02*
X118899523Y-99644819D01*
X119899523Y-100644819D02*
X119328095Y-100644819D01*
X119613809Y-100644819D02*
X119613809Y-99644819D01*
X119613809Y-99644819D02*
X119518571Y-99787676D01*
X119518571Y-99787676D02*
X119423333Y-99882914D01*
X119423333Y-99882914D02*
X119328095Y-99930533D01*
X142987200Y-102333332D02*
X143034819Y-102190475D01*
X143034819Y-102190475D02*
X143034819Y-101952380D01*
X143034819Y-101952380D02*
X142987200Y-101857142D01*
X142987200Y-101857142D02*
X142939580Y-101809523D01*
X142939580Y-101809523D02*
X142844342Y-101761904D01*
X142844342Y-101761904D02*
X142749104Y-101761904D01*
X142749104Y-101761904D02*
X142653866Y-101809523D01*
X142653866Y-101809523D02*
X142606247Y-101857142D01*
X142606247Y-101857142D02*
X142558628Y-101952380D01*
X142558628Y-101952380D02*
X142511009Y-102142856D01*
X142511009Y-102142856D02*
X142463390Y-102238094D01*
X142463390Y-102238094D02*
X142415771Y-102285713D01*
X142415771Y-102285713D02*
X142320533Y-102333332D01*
X142320533Y-102333332D02*
X142225295Y-102333332D01*
X142225295Y-102333332D02*
X142130057Y-102285713D01*
X142130057Y-102285713D02*
X142082438Y-102238094D01*
X142082438Y-102238094D02*
X142034819Y-102142856D01*
X142034819Y-102142856D02*
X142034819Y-101904761D01*
X142034819Y-101904761D02*
X142082438Y-101761904D01*
X142034819Y-101428570D02*
X143034819Y-101190475D01*
X143034819Y-101190475D02*
X142320533Y-100999999D01*
X142320533Y-100999999D02*
X143034819Y-100809523D01*
X143034819Y-100809523D02*
X142034819Y-100571428D01*
X142034819Y-99714285D02*
X142034819Y-100190475D01*
X142034819Y-100190475D02*
X142511009Y-100238094D01*
X142511009Y-100238094D02*
X142463390Y-100190475D01*
X142463390Y-100190475D02*
X142415771Y-100095237D01*
X142415771Y-100095237D02*
X142415771Y-99857142D01*
X142415771Y-99857142D02*
X142463390Y-99761904D01*
X142463390Y-99761904D02*
X142511009Y-99714285D01*
X142511009Y-99714285D02*
X142606247Y-99666666D01*
X142606247Y-99666666D02*
X142844342Y-99666666D01*
X142844342Y-99666666D02*
X142939580Y-99714285D01*
X142939580Y-99714285D02*
X142987200Y-99761904D01*
X142987200Y-99761904D02*
X143034819Y-99857142D01*
X143034819Y-99857142D02*
X143034819Y-100095237D01*
X143034819Y-100095237D02*
X142987200Y-100190475D01*
X142987200Y-100190475D02*
X142939580Y-100238094D01*
X130414819Y-98508094D02*
X129414819Y-98508094D01*
X129414819Y-98508094D02*
X129414819Y-98269999D01*
X129414819Y-98269999D02*
X129462438Y-98127142D01*
X129462438Y-98127142D02*
X129557676Y-98031904D01*
X129557676Y-98031904D02*
X129652914Y-97984285D01*
X129652914Y-97984285D02*
X129843390Y-97936666D01*
X129843390Y-97936666D02*
X129986247Y-97936666D01*
X129986247Y-97936666D02*
X130176723Y-97984285D01*
X130176723Y-97984285D02*
X130271961Y-98031904D01*
X130271961Y-98031904D02*
X130367200Y-98127142D01*
X130367200Y-98127142D02*
X130414819Y-98269999D01*
X130414819Y-98269999D02*
X130414819Y-98508094D01*
X129510057Y-97555713D02*
X129462438Y-97508094D01*
X129462438Y-97508094D02*
X129414819Y-97412856D01*
X129414819Y-97412856D02*
X129414819Y-97174761D01*
X129414819Y-97174761D02*
X129462438Y-97079523D01*
X129462438Y-97079523D02*
X129510057Y-97031904D01*
X129510057Y-97031904D02*
X129605295Y-96984285D01*
X129605295Y-96984285D02*
X129700533Y-96984285D01*
X129700533Y-96984285D02*
X129843390Y-97031904D01*
X129843390Y-97031904D02*
X130414819Y-97603332D01*
X130414819Y-97603332D02*
X130414819Y-96984285D01*
X125414819Y-78508094D02*
X124414819Y-78508094D01*
X124414819Y-78508094D02*
X124414819Y-78269999D01*
X124414819Y-78269999D02*
X124462438Y-78127142D01*
X124462438Y-78127142D02*
X124557676Y-78031904D01*
X124557676Y-78031904D02*
X124652914Y-77984285D01*
X124652914Y-77984285D02*
X124843390Y-77936666D01*
X124843390Y-77936666D02*
X124986247Y-77936666D01*
X124986247Y-77936666D02*
X125176723Y-77984285D01*
X125176723Y-77984285D02*
X125271961Y-78031904D01*
X125271961Y-78031904D02*
X125367200Y-78127142D01*
X125367200Y-78127142D02*
X125414819Y-78269999D01*
X125414819Y-78269999D02*
X125414819Y-78508094D01*
X125414819Y-76984285D02*
X125414819Y-77555713D01*
X125414819Y-77269999D02*
X124414819Y-77269999D01*
X124414819Y-77269999D02*
X124557676Y-77365237D01*
X124557676Y-77365237D02*
X124652914Y-77460475D01*
X124652914Y-77460475D02*
X124700533Y-77555713D01*
X95431009Y-85233333D02*
X95431009Y-85566666D01*
X95954819Y-85566666D02*
X94954819Y-85566666D01*
X94954819Y-85566666D02*
X94954819Y-85090476D01*
X95954819Y-84185714D02*
X95954819Y-84757142D01*
X95954819Y-84471428D02*
X94954819Y-84471428D01*
X94954819Y-84471428D02*
X95097676Y-84566666D01*
X95097676Y-84566666D02*
X95192914Y-84661904D01*
X95192914Y-84661904D02*
X95240533Y-84757142D01*
X137166666Y-96224819D02*
X137166666Y-96939104D01*
X137166666Y-96939104D02*
X137119047Y-97081961D01*
X137119047Y-97081961D02*
X137023809Y-97177200D01*
X137023809Y-97177200D02*
X136880952Y-97224819D01*
X136880952Y-97224819D02*
X136785714Y-97224819D01*
X138119047Y-96224819D02*
X137642857Y-96224819D01*
X137642857Y-96224819D02*
X137595238Y-96701009D01*
X137595238Y-96701009D02*
X137642857Y-96653390D01*
X137642857Y-96653390D02*
X137738095Y-96605771D01*
X137738095Y-96605771D02*
X137976190Y-96605771D01*
X137976190Y-96605771D02*
X138071428Y-96653390D01*
X138071428Y-96653390D02*
X138119047Y-96701009D01*
X138119047Y-96701009D02*
X138166666Y-96796247D01*
X138166666Y-96796247D02*
X138166666Y-97034342D01*
X138166666Y-97034342D02*
X138119047Y-97129580D01*
X138119047Y-97129580D02*
X138071428Y-97177200D01*
X138071428Y-97177200D02*
X137976190Y-97224819D01*
X137976190Y-97224819D02*
X137738095Y-97224819D01*
X137738095Y-97224819D02*
X137642857Y-97177200D01*
X137642857Y-97177200D02*
X137595238Y-97129580D01*
X117787200Y-98833332D02*
X117834819Y-98690475D01*
X117834819Y-98690475D02*
X117834819Y-98452380D01*
X117834819Y-98452380D02*
X117787200Y-98357142D01*
X117787200Y-98357142D02*
X117739580Y-98309523D01*
X117739580Y-98309523D02*
X117644342Y-98261904D01*
X117644342Y-98261904D02*
X117549104Y-98261904D01*
X117549104Y-98261904D02*
X117453866Y-98309523D01*
X117453866Y-98309523D02*
X117406247Y-98357142D01*
X117406247Y-98357142D02*
X117358628Y-98452380D01*
X117358628Y-98452380D02*
X117311009Y-98642856D01*
X117311009Y-98642856D02*
X117263390Y-98738094D01*
X117263390Y-98738094D02*
X117215771Y-98785713D01*
X117215771Y-98785713D02*
X117120533Y-98833332D01*
X117120533Y-98833332D02*
X117025295Y-98833332D01*
X117025295Y-98833332D02*
X116930057Y-98785713D01*
X116930057Y-98785713D02*
X116882438Y-98738094D01*
X116882438Y-98738094D02*
X116834819Y-98642856D01*
X116834819Y-98642856D02*
X116834819Y-98404761D01*
X116834819Y-98404761D02*
X116882438Y-98261904D01*
X116834819Y-97928570D02*
X117834819Y-97690475D01*
X117834819Y-97690475D02*
X117120533Y-97499999D01*
X117120533Y-97499999D02*
X117834819Y-97309523D01*
X117834819Y-97309523D02*
X116834819Y-97071428D01*
X116834819Y-96785713D02*
X116834819Y-96119047D01*
X116834819Y-96119047D02*
X117834819Y-96547618D01*
X151666666Y-117724819D02*
X151666666Y-118439104D01*
X151666666Y-118439104D02*
X151619047Y-118581961D01*
X151619047Y-118581961D02*
X151523809Y-118677200D01*
X151523809Y-118677200D02*
X151380952Y-118724819D01*
X151380952Y-118724819D02*
X151285714Y-118724819D01*
X152571428Y-117724819D02*
X152380952Y-117724819D01*
X152380952Y-117724819D02*
X152285714Y-117772438D01*
X152285714Y-117772438D02*
X152238095Y-117820057D01*
X152238095Y-117820057D02*
X152142857Y-117962914D01*
X152142857Y-117962914D02*
X152095238Y-118153390D01*
X152095238Y-118153390D02*
X152095238Y-118534342D01*
X152095238Y-118534342D02*
X152142857Y-118629580D01*
X152142857Y-118629580D02*
X152190476Y-118677200D01*
X152190476Y-118677200D02*
X152285714Y-118724819D01*
X152285714Y-118724819D02*
X152476190Y-118724819D01*
X152476190Y-118724819D02*
X152571428Y-118677200D01*
X152571428Y-118677200D02*
X152619047Y-118629580D01*
X152619047Y-118629580D02*
X152666666Y-118534342D01*
X152666666Y-118534342D02*
X152666666Y-118296247D01*
X152666666Y-118296247D02*
X152619047Y-118201009D01*
X152619047Y-118201009D02*
X152571428Y-118153390D01*
X152571428Y-118153390D02*
X152476190Y-118105771D01*
X152476190Y-118105771D02*
X152285714Y-118105771D01*
X152285714Y-118105771D02*
X152190476Y-118153390D01*
X152190476Y-118153390D02*
X152142857Y-118201009D01*
X152142857Y-118201009D02*
X152095238Y-118296247D01*
X145491905Y-107994819D02*
X145491905Y-106994819D01*
X145491905Y-106994819D02*
X145730000Y-106994819D01*
X145730000Y-106994819D02*
X145872857Y-107042438D01*
X145872857Y-107042438D02*
X145968095Y-107137676D01*
X145968095Y-107137676D02*
X146015714Y-107232914D01*
X146015714Y-107232914D02*
X146063333Y-107423390D01*
X146063333Y-107423390D02*
X146063333Y-107566247D01*
X146063333Y-107566247D02*
X146015714Y-107756723D01*
X146015714Y-107756723D02*
X145968095Y-107851961D01*
X145968095Y-107851961D02*
X145872857Y-107947200D01*
X145872857Y-107947200D02*
X145730000Y-107994819D01*
X145730000Y-107994819D02*
X145491905Y-107994819D01*
X146396667Y-106994819D02*
X147015714Y-106994819D01*
X147015714Y-106994819D02*
X146682381Y-107375771D01*
X146682381Y-107375771D02*
X146825238Y-107375771D01*
X146825238Y-107375771D02*
X146920476Y-107423390D01*
X146920476Y-107423390D02*
X146968095Y-107471009D01*
X146968095Y-107471009D02*
X147015714Y-107566247D01*
X147015714Y-107566247D02*
X147015714Y-107804342D01*
X147015714Y-107804342D02*
X146968095Y-107899580D01*
X146968095Y-107899580D02*
X146920476Y-107947200D01*
X146920476Y-107947200D02*
X146825238Y-107994819D01*
X146825238Y-107994819D02*
X146539524Y-107994819D01*
X146539524Y-107994819D02*
X146444286Y-107947200D01*
X146444286Y-107947200D02*
X146396667Y-107899580D01*
X116874819Y-77936666D02*
X116398628Y-78269999D01*
X116874819Y-78508094D02*
X115874819Y-78508094D01*
X115874819Y-78508094D02*
X115874819Y-78127142D01*
X115874819Y-78127142D02*
X115922438Y-78031904D01*
X115922438Y-78031904D02*
X115970057Y-77984285D01*
X115970057Y-77984285D02*
X116065295Y-77936666D01*
X116065295Y-77936666D02*
X116208152Y-77936666D01*
X116208152Y-77936666D02*
X116303390Y-77984285D01*
X116303390Y-77984285D02*
X116351009Y-78031904D01*
X116351009Y-78031904D02*
X116398628Y-78127142D01*
X116398628Y-78127142D02*
X116398628Y-78508094D01*
X116874819Y-76984285D02*
X116874819Y-77555713D01*
X116874819Y-77269999D02*
X115874819Y-77269999D01*
X115874819Y-77269999D02*
X116017676Y-77365237D01*
X116017676Y-77365237D02*
X116112914Y-77460475D01*
X116112914Y-77460475D02*
X116160533Y-77555713D01*
X109666667Y-70827200D02*
X109809524Y-70874819D01*
X109809524Y-70874819D02*
X110047619Y-70874819D01*
X110047619Y-70874819D02*
X110142857Y-70827200D01*
X110142857Y-70827200D02*
X110190476Y-70779580D01*
X110190476Y-70779580D02*
X110238095Y-70684342D01*
X110238095Y-70684342D02*
X110238095Y-70589104D01*
X110238095Y-70589104D02*
X110190476Y-70493866D01*
X110190476Y-70493866D02*
X110142857Y-70446247D01*
X110142857Y-70446247D02*
X110047619Y-70398628D01*
X110047619Y-70398628D02*
X109857143Y-70351009D01*
X109857143Y-70351009D02*
X109761905Y-70303390D01*
X109761905Y-70303390D02*
X109714286Y-70255771D01*
X109714286Y-70255771D02*
X109666667Y-70160533D01*
X109666667Y-70160533D02*
X109666667Y-70065295D01*
X109666667Y-70065295D02*
X109714286Y-69970057D01*
X109714286Y-69970057D02*
X109761905Y-69922438D01*
X109761905Y-69922438D02*
X109857143Y-69874819D01*
X109857143Y-69874819D02*
X110095238Y-69874819D01*
X110095238Y-69874819D02*
X110238095Y-69922438D01*
X110571429Y-69874819D02*
X110809524Y-70874819D01*
X110809524Y-70874819D02*
X111000000Y-70160533D01*
X111000000Y-70160533D02*
X111190476Y-70874819D01*
X111190476Y-70874819D02*
X111428572Y-69874819D01*
X112238095Y-70208152D02*
X112238095Y-70874819D01*
X112000000Y-69827200D02*
X111761905Y-70541485D01*
X111761905Y-70541485D02*
X112380952Y-70541485D01*
%TO.C,R5*%
D12*
X145700000Y-106000000D02*
X146320000Y-106000000D01*
X145700000Y-106000000D02*
G75*
G02*
X143860000Y-106000000I-920000J0D01*
G01*
X143860000Y-106000000D02*
G75*
G02*
X145700000Y-106000000I920000J0D01*
G01*
%TO.C,J1*%
X95760000Y-61380000D02*
X103200000Y-61380000D01*
X95760000Y-69620000D02*
X95760000Y-61380000D01*
X103800000Y-61380000D02*
X106160000Y-61380000D01*
X106160000Y-61380000D02*
X106160000Y-69620000D01*
X106160000Y-63500000D02*
X95760000Y-63500000D01*
X106160000Y-67500000D02*
X95760000Y-67500000D01*
X106160000Y-69620000D02*
X95760000Y-69620000D01*
X103500000Y-61380000D02*
X103060000Y-60770000D01*
X103940000Y-60770000D01*
X103500000Y-61380000D01*
G36*
X103500000Y-61380000D02*
G01*
X103060000Y-60770000D01*
X103940000Y-60770000D01*
X103500000Y-61380000D01*
G37*
%TO.C,R3*%
X119500000Y-98420000D02*
X119500000Y-99040000D01*
X120420000Y-97500000D02*
G75*
G02*
X118580000Y-97500000I-920000J0D01*
G01*
X118580000Y-97500000D02*
G75*
G02*
X120420000Y-97500000I920000J0D01*
G01*
%TO.C,J3*%
X118760000Y-61880000D02*
X126200000Y-61880000D01*
X118760000Y-70120000D02*
X118760000Y-61880000D01*
X126800000Y-61880000D02*
X129160000Y-61880000D01*
X129160000Y-61880000D02*
X129160000Y-70120000D01*
X129160000Y-64000000D02*
X118760000Y-64000000D01*
X129160000Y-68000000D02*
X118760000Y-68000000D01*
X129160000Y-70120000D02*
X118760000Y-70120000D01*
X126500000Y-61880000D02*
X126060000Y-61270000D01*
X126940000Y-61270000D01*
X126500000Y-61880000D01*
G36*
X126500000Y-61880000D02*
G01*
X126060000Y-61270000D01*
X126940000Y-61270000D01*
X126500000Y-61880000D01*
G37*
%TO.C,J7*%
X132260000Y-61880000D02*
X139700000Y-61880000D01*
X132260000Y-70120000D02*
X132260000Y-61880000D01*
X140300000Y-61880000D02*
X142660000Y-61880000D01*
X142660000Y-61880000D02*
X142660000Y-70120000D01*
X142660000Y-64000000D02*
X132260000Y-64000000D01*
X142660000Y-68000000D02*
X132260000Y-68000000D01*
X142660000Y-70120000D02*
X132260000Y-70120000D01*
X140000000Y-61880000D02*
X139560000Y-61270000D01*
X140440000Y-61270000D01*
X140000000Y-61880000D01*
G36*
X140000000Y-61880000D02*
G01*
X139560000Y-61270000D01*
X140440000Y-61270000D01*
X140000000Y-61880000D01*
G37*
%TO.C,J4*%
X105550000Y-90170000D02*
X105550000Y-92830000D01*
X115770000Y-90170000D02*
X105550000Y-90170000D01*
X115770000Y-90170000D02*
X115770000Y-92830000D01*
X115770000Y-92830000D02*
X105550000Y-92830000D01*
X118370000Y-91500000D02*
X118370000Y-92830000D01*
X118370000Y-92830000D02*
X117040000Y-92830000D01*
%TO.C,SW6*%
X107620000Y-80730000D02*
X107620000Y-75540000D01*
X110380000Y-75540000D02*
X107620000Y-75540000D01*
X110380000Y-80730000D02*
X107620000Y-80730000D01*
X110380000Y-80730000D02*
X110380000Y-75540000D01*
X110380000Y-82000000D02*
X110380000Y-83380000D01*
X110380000Y-83380000D02*
X109000000Y-83380000D01*
%TO.C,J2*%
X142840000Y-118380000D02*
X153240000Y-118380000D01*
X142840000Y-120500000D02*
X153240000Y-120500000D01*
X142840000Y-124500000D02*
X153240000Y-124500000D01*
X142840000Y-126620000D02*
X142840000Y-118380000D01*
X145200000Y-126620000D02*
X142840000Y-126620000D01*
X153240000Y-118380000D02*
X153240000Y-126620000D01*
X153240000Y-126620000D02*
X145800000Y-126620000D01*
X145940000Y-127230000D02*
X145060000Y-127230000D01*
X145500000Y-126620000D01*
X145940000Y-127230000D01*
G36*
X145940000Y-127230000D02*
G01*
X145060000Y-127230000D01*
X145500000Y-126620000D01*
X145940000Y-127230000D01*
G37*
%TO.C,U1*%
X95945000Y-102165000D02*
X95945000Y-123615000D01*
X95945000Y-123615000D02*
X139695000Y-123615000D01*
X95950000Y-102420000D02*
X97250000Y-102420000D01*
X95950000Y-105575000D02*
X99080000Y-105580000D01*
X95950000Y-120200000D02*
X99080000Y-120200000D01*
X95950000Y-123360000D02*
X99080000Y-123360000D01*
X99080000Y-105270000D02*
X99080000Y-105580000D01*
X99080000Y-120200000D02*
X99080000Y-123360000D01*
X106249233Y-105004149D02*
X106249233Y-105165687D01*
X106250233Y-103637610D02*
X107900233Y-103346671D01*
X106250233Y-112989106D02*
X106250233Y-103637610D01*
X106250233Y-112989106D02*
X106327797Y-113066670D01*
X106327797Y-113066670D02*
X116332670Y-113066670D01*
X106531636Y-120558217D02*
X106981636Y-120558217D01*
X106531636Y-122308217D02*
X106531636Y-120558217D01*
X106981636Y-122308217D02*
X106531636Y-122308217D01*
X106981636Y-122583217D02*
X106981636Y-120283217D01*
X107081636Y-120183217D02*
X110681636Y-120183217D01*
X107510233Y-117696670D02*
X107510233Y-113066670D01*
X107510233Y-117696670D02*
X108350233Y-117696670D01*
X107900233Y-103346671D02*
X114760233Y-103346671D01*
X108350233Y-117696670D02*
X108350233Y-113066670D01*
X109210233Y-117696670D02*
X109210233Y-113066670D01*
X109210233Y-117696670D02*
X110050233Y-117696670D01*
X109911358Y-120283217D02*
X109911358Y-122583217D01*
X110050233Y-117696670D02*
X110050233Y-113066670D01*
X110681636Y-122683217D02*
X107081636Y-122683217D01*
X110781636Y-120283217D02*
X110781636Y-122583217D01*
X110781636Y-120558217D02*
X111231636Y-120558217D01*
X110782636Y-120794696D02*
X110782636Y-120700144D01*
X110910233Y-117696670D02*
X110910233Y-113066670D01*
X110910233Y-117696670D02*
X111750233Y-117696670D01*
X111231636Y-120558217D02*
X111231636Y-122308217D01*
X111231636Y-122308217D02*
X110781636Y-122308217D01*
X111750233Y-117696670D02*
X111750233Y-113066670D01*
X112610233Y-117696670D02*
X112610233Y-113066670D01*
X112610233Y-117696670D02*
X113450233Y-117696670D01*
X113450233Y-117696670D02*
X113450233Y-113066670D01*
X114310233Y-117696670D02*
X114310233Y-113066670D01*
X114310233Y-117696670D02*
X115150233Y-117696670D01*
X114760233Y-103346671D02*
X116410233Y-103637610D01*
X115150233Y-117696670D02*
X115150233Y-113066670D01*
X116332670Y-113066670D02*
X116410233Y-112989106D01*
X116410233Y-104426670D02*
X106250233Y-104426670D01*
X116410233Y-112989106D02*
X116410233Y-103637610D01*
X117967397Y-111585796D02*
X117967397Y-121285796D01*
X119467397Y-122785796D02*
X129167397Y-122785796D01*
X120799783Y-107582294D02*
X120799783Y-102682295D01*
X120849783Y-102632295D02*
X130749783Y-102632295D01*
X121836385Y-103950900D02*
X121860553Y-103982295D01*
X121848594Y-104007294D02*
X121824147Y-104002062D01*
X121848594Y-104007294D02*
X121855764Y-103976075D01*
X121848594Y-104007294D02*
X121860553Y-103982295D01*
X121860553Y-104482294D02*
X123939014Y-104482294D01*
X123939014Y-103982295D02*
X121860553Y-103982295D01*
X129167397Y-110085796D02*
X119467397Y-110085796D01*
X129358978Y-102631295D02*
X129314106Y-102631295D01*
X129442312Y-102631295D02*
X129408357Y-102631295D01*
X130667397Y-121285796D02*
X130667397Y-111585796D01*
X130749783Y-107632294D02*
X120849783Y-107632294D01*
X130799783Y-102682295D02*
X130799783Y-107582294D01*
X134148681Y-103700296D02*
X134948681Y-103700296D01*
X134148681Y-104980295D02*
X134148681Y-103380296D01*
X134948681Y-103380296D02*
X134148681Y-103380296D01*
X134948681Y-103380296D02*
X134948681Y-104980295D01*
X134948681Y-104660295D02*
X134148681Y-104660295D01*
X134948681Y-104980295D02*
X134148681Y-104980295D01*
X136560000Y-102420000D02*
X139675000Y-102420000D01*
X136560000Y-105580000D02*
X136560000Y-102420000D01*
X136560000Y-105580000D02*
X139720000Y-105580000D01*
X136560000Y-120200000D02*
X139675000Y-120200000D01*
X136560000Y-123360000D02*
X136560000Y-120200000D01*
X136560000Y-123360000D02*
X139675000Y-123360000D01*
X139695000Y-102165000D02*
X95945000Y-102165000D01*
X139695000Y-123615000D02*
X139695000Y-102165000D01*
X106981636Y-120283217D02*
G75*
G02*
X107081636Y-120183236I99964J17D01*
G01*
X107081636Y-122683217D02*
G75*
G02*
X106981583Y-122583217I-36J100017D01*
G01*
X110681636Y-120183217D02*
G75*
G02*
X110781583Y-120283217I-36J-99983D01*
G01*
X110781636Y-122583217D02*
G75*
G02*
X110681636Y-122683236I-100036J17D01*
G01*
X117967397Y-111585796D02*
G75*
G02*
X119467397Y-110085797I1500003J-4D01*
G01*
X119281131Y-113466010D02*
G75*
G02*
X119315249Y-113600200I-52931J-84890D01*
G01*
X119281132Y-113466011D02*
G75*
G02*
X121347611Y-111399531I793628J1272851D01*
G01*
X119315217Y-119271409D02*
G75*
G02*
X119281118Y-119405560I-87017J-49291D01*
G01*
X119315218Y-119271410D02*
G75*
G02*
X119315221Y-113600185I5002182J2835610D01*
G01*
X119467397Y-122785796D02*
G75*
G02*
X117967404Y-121285796I3J1499996D01*
G01*
X120799783Y-102682295D02*
G75*
G02*
X120849783Y-102632283I50017J-5D01*
G01*
X120849783Y-107632294D02*
G75*
G02*
X120799806Y-107582294I17J49994D01*
G01*
X121347611Y-121472062D02*
G75*
G02*
X119281137Y-119405590I-1272811J793662D01*
G01*
X121347611Y-121472062D02*
G75*
G02*
X121481799Y-121437947I84889J-52938D01*
G01*
X121481783Y-111433617D02*
G75*
G02*
X121347641Y-111399512I-49283J87017D01*
G01*
X121481784Y-111433617D02*
G75*
G02*
X127153011Y-111433617I2835614J-5002178D01*
G01*
X121824148Y-104462527D02*
G75*
G02*
X121836385Y-104513690I1075652J230227D01*
G01*
X127153011Y-121437976D02*
G75*
G02*
X121481783Y-121437976I-2835614J5002180D01*
G01*
X127153011Y-121437976D02*
G75*
G02*
X127287162Y-121472075I49289J-87024D01*
G01*
X127287183Y-111399531D02*
G75*
G02*
X127152998Y-111433641I-84883J52931D01*
G01*
X127287183Y-111399531D02*
G75*
G02*
X129353667Y-113466018I1272817J-793669D01*
G01*
X129167397Y-110085796D02*
G75*
G02*
X130667404Y-111585796I3J-1500004D01*
G01*
X129319576Y-113600183D02*
G75*
G02*
X129319579Y-119271412I-5002176J-2835617D01*
G01*
X129319577Y-113600184D02*
G75*
G02*
X129353680Y-113466039I87023J49284D01*
G01*
X129353662Y-119405582D02*
G75*
G02*
X127287182Y-121472062I-793622J-1272858D01*
G01*
X129353663Y-119405583D02*
G75*
G02*
X129319555Y-119271398I52937J84883D01*
G01*
X130667397Y-121285796D02*
G75*
G02*
X129167397Y-122785797I-1499997J-4D01*
G01*
X130749783Y-102632295D02*
G75*
G02*
X130799805Y-102682295I17J-50005D01*
G01*
X130799783Y-107582294D02*
G75*
G02*
X130749783Y-107632283I-49983J-6D01*
G01*
X104146666Y-112957418D02*
G75*
G02*
X96146666Y-112957418I-4000000J0D01*
G01*
X96146666Y-112957418D02*
G75*
G02*
X104146666Y-112957418I4000000J0D01*
G01*
X104178999Y-104635000D02*
G75*
G02*
X100981001Y-104635000I-1598999J0D01*
G01*
X100981001Y-104635000D02*
G75*
G02*
X104178999Y-104635000I1598999J0D01*
G01*
X107548179Y-112154594D02*
G75*
G02*
X106798179Y-112154594I-375000J0D01*
G01*
X106798179Y-112154594D02*
G75*
G02*
X107548179Y-112154594I375000J0D01*
G01*
X129567397Y-116435796D02*
G75*
G02*
X119067397Y-116435796I-5250000J0D01*
G01*
X119067397Y-116435796D02*
G75*
G02*
X129567397Y-116435796I5250000J0D01*
G01*
X134659000Y-121145000D02*
G75*
G02*
X131461000Y-121145000I-1599000J0D01*
G01*
X131461000Y-121145000D02*
G75*
G02*
X134659000Y-121145000I1599000J0D01*
G01*
X139529307Y-113455206D02*
G75*
G02*
X131529307Y-113455206I-4000000J0D01*
G01*
X131529307Y-113455206D02*
G75*
G02*
X139529307Y-113455206I4000000J0D01*
G01*
%TO.C,SW5*%
X143580000Y-102380000D02*
X143580000Y-101000000D01*
X144960000Y-102380000D02*
X143580000Y-102380000D01*
X146230000Y-99620000D02*
X151420000Y-99620000D01*
X146230000Y-102380000D02*
X146230000Y-99620000D01*
X146230000Y-102380000D02*
X151420000Y-102380000D01*
X151420000Y-102380000D02*
X151420000Y-99620000D01*
%TO.C,D2*%
X127545000Y-95210000D02*
X124455000Y-95210000D01*
X126000000Y-100760000D02*
G75*
G02*
X124455170Y-95210000I0J2990000D01*
G01*
X127544830Y-95210000D02*
G75*
G02*
X126000000Y-100760000I-1544830J-2560000D01*
G01*
X128500000Y-97770000D02*
G75*
G02*
X123500000Y-97770000I-2500000J0D01*
G01*
X123500000Y-97770000D02*
G75*
G02*
X128500000Y-97770000I2500000J0D01*
G01*
%TO.C,D1*%
X122545000Y-75210000D02*
X119455000Y-75210000D01*
X121000000Y-80760000D02*
G75*
G02*
X119455170Y-75210000I0J2990000D01*
G01*
X122544830Y-75210000D02*
G75*
G02*
X121000000Y-80760000I-1544830J-2560000D01*
G01*
X123500000Y-77770000D02*
G75*
G02*
X118500000Y-77770000I-2500000J0D01*
G01*
X118500000Y-77770000D02*
G75*
G02*
X123500000Y-77770000I2500000J0D01*
G01*
%TO.C,F1*%
X97460000Y-73930000D02*
X102540000Y-73930000D01*
X97460000Y-74700000D02*
X97460000Y-73930000D01*
X97460000Y-77300000D02*
X97460000Y-78930000D01*
X97460000Y-78930000D02*
X102540000Y-78930000D01*
X97460000Y-90870000D02*
X97460000Y-92500000D01*
X97460000Y-90870000D02*
X102540000Y-90870000D01*
X97460000Y-95100000D02*
X97460000Y-95870000D01*
X97500000Y-78930000D02*
X97500000Y-90870000D01*
X102500000Y-78930000D02*
X102500000Y-90870000D01*
X102540000Y-74700000D02*
X102540000Y-73930000D01*
X102540000Y-77300000D02*
X102540000Y-78930000D01*
X102540000Y-90870000D02*
X102540000Y-92500000D01*
X102540000Y-95100000D02*
X102540000Y-95870000D01*
X102540000Y-95870000D02*
X97460000Y-95870000D01*
%TO.C,J5*%
X136170000Y-92730000D02*
X136170000Y-82510000D01*
X136170000Y-95330000D02*
X136170000Y-94000000D01*
X137500000Y-95330000D02*
X136170000Y-95330000D01*
X138830000Y-82510000D02*
X136170000Y-82510000D01*
X138830000Y-92730000D02*
X136170000Y-92730000D01*
X138830000Y-92730000D02*
X138830000Y-82510000D01*
%TO.C,SW7*%
X108540000Y-96120000D02*
X108540000Y-98880000D01*
X113730000Y-96120000D02*
X108540000Y-96120000D01*
X113730000Y-96120000D02*
X113730000Y-98880000D01*
X113730000Y-98880000D02*
X108540000Y-98880000D01*
X115000000Y-96120000D02*
X116380000Y-96120000D01*
X116380000Y-96120000D02*
X116380000Y-97500000D01*
%TO.C,J6*%
X150670000Y-114230000D02*
X150670000Y-104010000D01*
X150670000Y-116830000D02*
X150670000Y-115500000D01*
X152000000Y-116830000D02*
X150670000Y-116830000D01*
X153330000Y-104010000D02*
X150670000Y-104010000D01*
X153330000Y-114230000D02*
X150670000Y-114230000D01*
X153330000Y-114230000D02*
X153330000Y-104010000D01*
%TO.C,D3*%
X143670000Y-109955000D02*
X143670000Y-113045000D01*
X143670000Y-109955170D02*
G75*
G02*
X149220000Y-111500000I2560000J-1544830D01*
G01*
X149220000Y-111500000D02*
G75*
G02*
X143670000Y-113044830I-2990000J0D01*
G01*
X148730000Y-111500000D02*
G75*
G02*
X143730000Y-111500000I-2500000J0D01*
G01*
X143730000Y-111500000D02*
G75*
G02*
X148730000Y-111500000I2500000J0D01*
G01*
%TO.C,R1*%
X114500000Y-77420000D02*
X114500000Y-78040000D01*
X115420000Y-76500000D02*
G75*
G02*
X113580000Y-76500000I-920000J0D01*
G01*
X113580000Y-76500000D02*
G75*
G02*
X115420000Y-76500000I920000J0D01*
G01*
%TO.C,SW4*%
X109620000Y-66770000D02*
X109620000Y-61580000D01*
X112380000Y-61580000D02*
X109620000Y-61580000D01*
X112380000Y-66770000D02*
X109620000Y-66770000D01*
X112380000Y-66770000D02*
X112380000Y-61580000D01*
X112380000Y-68040000D02*
X112380000Y-69420000D01*
X112380000Y-69420000D02*
X111000000Y-69420000D01*
%TD*%
M02*
