%TF.GenerationSoftware,KiCad,Pcbnew,10.0.1*%
%TF.CreationDate,2026-06-02T20:11:38+05:30*%
%TF.ProjectId,power,706f7765-722e-46b6-9963-61645f706362,rev?*%
%TF.SameCoordinates,Original*%
%TF.FileFunction,Copper,L1,Top*%
%TF.FilePolarity,Positive*%
%FSLAX46Y46*%
G04 Gerber Fmt 4.6, Leading zero omitted, Abs format (unit mm)*
G04 Created by KiCad (PCBNEW 10.0.1) date 2026-06-02 20:11:38*
%MOMM*%
%LPD*%
G01*
G04 APERTURE LIST*
G04 Aperture macros list*
%AMRoundRect*
0 Rectangle with rounded corners*
0 $1 Rounding radius*
0 $2 $3 $4 $5 $6 $7 $8 $9 X,Y pos of 4 corners*
0 Add a 4 corners polygon primitive as box body*
4,1,4,$2,$3,$4,$5,$6,$7,$8,$9,$2,$3,0*
0 Add four circle primitives for the rounded corners*
1,1,$1+$1,$2,$3*
1,1,$1+$1,$4,$5*
1,1,$1+$1,$6,$7*
1,1,$1+$1,$8,$9*
0 Add four rect primitives between the rounded corners*
20,1,$1+$1,$2,$3,$4,$5,0*
20,1,$1+$1,$4,$5,$6,$7,0*
20,1,$1+$1,$6,$7,$8,$9,0*
20,1,$1+$1,$8,$9,$2,$3,0*%
G04 Aperture macros list end*
%TA.AperFunction,ComponentPad*%
%ADD10C,1.400000*%
%TD*%
%TA.AperFunction,ComponentPad*%
%ADD11RoundRect,0.250000X1.000000X1.000000X-1.000000X1.000000X-1.000000X-1.000000X1.000000X-1.000000X0*%
%TD*%
%TA.AperFunction,ComponentPad*%
%ADD12C,2.500000*%
%TD*%
%TA.AperFunction,ComponentPad*%
%ADD13R,1.700000X1.700000*%
%TD*%
%TA.AperFunction,ComponentPad*%
%ADD14C,1.700000*%
%TD*%
%TA.AperFunction,ComponentPad*%
%ADD15RoundRect,0.250000X-1.000000X-1.000000X1.000000X-1.000000X1.000000X1.000000X-1.000000X1.000000X0*%
%TD*%
%TA.AperFunction,ComponentPad*%
%ADD16R,2.540000X2.540000*%
%TD*%
%TA.AperFunction,ComponentPad*%
%ADD17C,2.540000*%
%TD*%
%TA.AperFunction,ComponentPad*%
%ADD18R,1.800000X1.800000*%
%TD*%
%TA.AperFunction,ComponentPad*%
%ADD19C,1.800000*%
%TD*%
%TA.AperFunction,ComponentPad*%
%ADD20RoundRect,0.550000X0.550000X-0.550000X0.550000X0.550000X-0.550000X0.550000X-0.550000X-0.550000X0*%
%TD*%
%TA.AperFunction,ComponentPad*%
%ADD21C,2.200000*%
%TD*%
%TA.AperFunction,Conductor*%
%ADD22C,2.000000*%
%TD*%
G04 APERTURE END LIST*
D10*
%TO.P,R5,1*%
%TO.N,/5V-SW*%
X144780000Y-106000000D03*
%TO.P,R5,2*%
%TO.N,Net-(D3-A)*%
X147320000Y-106000000D03*
%TD*%
D11*
%TO.P,J1,1,Pin_1_1*%
%TO.N,Net-(J1-Pin_1)*%
X103500000Y-65500000D03*
D12*
%TO.P,J1,2,Pin_2_2*%
%TO.N,GND*%
X98420000Y-65500000D03*
%TD*%
D10*
%TO.P,R3,1*%
%TO.N,12V-SW-1*%
X119500000Y-97500000D03*
%TO.P,R3,2*%
%TO.N,Net-(D2-A)*%
X119500000Y-100040000D03*
%TD*%
D11*
%TO.P,J3,1,Pin_1_1*%
%TO.N,/12V-SW*%
X126500000Y-66000000D03*
D12*
%TO.P,J3,2,Pin_2_2*%
%TO.N,GND*%
X121420000Y-66000000D03*
%TD*%
D11*
%TO.P,J7,1,Pin_1_1*%
%TO.N,12V-SW-1*%
X140000000Y-66000000D03*
D12*
%TO.P,J7,2,Pin_2_2*%
%TO.N,GND*%
X134920000Y-66000000D03*
%TD*%
D13*
%TO.P,J4,1,Pin_1_1*%
%TO.N,12V-SW-1*%
X117040000Y-91500000D03*
D14*
%TO.P,J4,2,Pin_2_2*%
X114500000Y-91500000D03*
%TO.P,J4,3,Pin_3_3*%
X111960000Y-91500000D03*
%TO.P,J4,4,Pin_4_4*%
X109420000Y-91500000D03*
%TO.P,J4,5,Pin_5_5*%
X106880000Y-91500000D03*
%TD*%
D13*
%TO.P,SW6,1,B_1*%
%TO.N,+12V*%
X109000000Y-82000000D03*
D14*
%TO.P,SW6,2,C_2*%
%TO.N,unconnected-(SW6-C-Pad2)*%
X109000000Y-79460000D03*
%TO.P,SW6,3,A_3*%
%TO.N,/12V-SW*%
X109000000Y-76920000D03*
%TD*%
D15*
%TO.P,J2,1,Pin_1_1*%
%TO.N,/5V-SW*%
X145500000Y-122500000D03*
D12*
%TO.P,J2,2,Pin_2_2*%
%TO.N,GND*%
X150580000Y-122500000D03*
%TD*%
D16*
%TO.P,U1,1,Vin_1*%
%TO.N,+12V*%
X97500000Y-104000000D03*
D17*
%TO.P,U1,2,GND_2*%
%TO.N,GND*%
X97500000Y-121780000D03*
%TO.P,U1,3,GND_3*%
X138140000Y-121780000D03*
%TO.P,U1,4,Vout_4*%
%TO.N,/5V*%
X138140000Y-104000000D03*
%TD*%
D13*
%TO.P,SW5,1,B_1*%
%TO.N,/5V-SW*%
X144960000Y-101000000D03*
D14*
%TO.P,SW5,2,C_2*%
%TO.N,unconnected-(SW5-C-Pad2)*%
X147500000Y-101000000D03*
%TO.P,SW5,3,A_3*%
%TO.N,/5V*%
X150040000Y-101000000D03*
%TD*%
D18*
%TO.P,D2,1,K_1*%
%TO.N,12V-SW-1*%
X126000000Y-96500000D03*
D19*
%TO.P,D2,2,A_2*%
%TO.N,Net-(D2-A)*%
X126000000Y-99040000D03*
%TD*%
D18*
%TO.P,D1,1,K_1*%
%TO.N,/12V-SW*%
X121000000Y-76500000D03*
D19*
%TO.P,D1,2,A_2*%
%TO.N,Net-(D1-A)*%
X121000000Y-79040000D03*
%TD*%
D20*
%TO.P,F1,1*%
%TO.N,+12V*%
X97500000Y-93800000D03*
X102500000Y-93800000D03*
D21*
%TO.P,F1,2*%
%TO.N,Net-(SW4-B)*%
X97500000Y-76000000D03*
X102500000Y-76000000D03*
%TD*%
D13*
%TO.P,J5,1,Pin_1_1*%
%TO.N,GND*%
X137500000Y-94000000D03*
D14*
%TO.P,J5,2,Pin_2_2*%
X137500000Y-91460000D03*
%TO.P,J5,3,Pin_3_3*%
X137500000Y-88920000D03*
%TO.P,J5,4,Pin_4_4*%
X137500000Y-86380000D03*
%TO.P,J5,5,Pin_5_5*%
X137500000Y-83840000D03*
%TD*%
D13*
%TO.P,SW7,1,B_1*%
%TO.N,12V-SW-1*%
X115000000Y-97500000D03*
D14*
%TO.P,SW7,2,C_2*%
%TO.N,unconnected-(SW7-C-Pad2)*%
X112460000Y-97500000D03*
%TO.P,SW7,3,A_3*%
%TO.N,+12V*%
X109920000Y-97500000D03*
%TD*%
D13*
%TO.P,J6,1,Pin_1_1*%
%TO.N,/5V-SW*%
X152000000Y-115500000D03*
D14*
%TO.P,J6,2,Pin_2_2*%
X152000000Y-112960000D03*
%TO.P,J6,3,Pin_3_3*%
X152000000Y-110420000D03*
%TO.P,J6,4,Pin_4_4*%
X152000000Y-107880000D03*
%TO.P,J6,5,Pin_5_5*%
X152000000Y-105340000D03*
%TD*%
D18*
%TO.P,D3,1,K_1*%
%TO.N,/5V-SW*%
X144960000Y-111500000D03*
D19*
%TO.P,D3,2,A_2*%
%TO.N,Net-(D3-A)*%
X147500000Y-111500000D03*
%TD*%
D10*
%TO.P,R1,1*%
%TO.N,/12V-SW*%
X114500000Y-76500000D03*
%TO.P,R1,2*%
%TO.N,Net-(D1-A)*%
X114500000Y-79040000D03*
%TD*%
D13*
%TO.P,SW4,1,B_1*%
%TO.N,Net-(SW4-B)*%
X111000000Y-68040000D03*
D14*
%TO.P,SW4,2,C_2*%
%TO.N,unconnected-(SW4-C-Pad2)*%
X111000000Y-65500000D03*
%TO.P,SW4,3,A_3*%
%TO.N,Net-(J1-Pin_1)*%
X111000000Y-62960000D03*
%TD*%
%TO.N,+12V*%
D22*
X105000000Y-97500000D02*
X109920000Y-97500000D01*
X102500000Y-93800000D02*
X102500000Y-95000000D01*
X102500000Y-85500000D02*
X106000000Y-82000000D01*
X102500000Y-93800000D02*
X102500000Y-85500000D01*
X97500000Y-93800000D02*
X97500000Y-104000000D01*
X97500000Y-93800000D02*
X102500000Y-93800000D01*
X106000000Y-82000000D02*
X109000000Y-82000000D01*
X102500000Y-95000000D02*
X105000000Y-97500000D01*
%TO.N,GND*%
X94500000Y-118780000D02*
X97500000Y-121780000D01*
X99500000Y-59500000D02*
X118000000Y-59500000D01*
X126500000Y-63000000D02*
X123000000Y-59500000D01*
X137920000Y-63000000D02*
X142000000Y-63000000D01*
X142000000Y-63000000D02*
X143000000Y-64000000D01*
X147580000Y-125500000D02*
X150580000Y-122500000D01*
X97500000Y-121780000D02*
X138140000Y-121780000D01*
X137500000Y-86380000D02*
X137500000Y-88920000D01*
X118000000Y-59500000D02*
X121420000Y-62920000D01*
X98420000Y-65500000D02*
X98420000Y-60580000D01*
X134920000Y-66000000D02*
X137920000Y-63000000D01*
X98420000Y-65500000D02*
X94500000Y-69420000D01*
X137500000Y-91460000D02*
X137500000Y-94000000D01*
X137500000Y-88920000D02*
X137500000Y-91460000D01*
X123000000Y-59500000D02*
X118000000Y-59500000D01*
X141000000Y-71500000D02*
X143000000Y-69500000D01*
X137500000Y-83840000D02*
X137500000Y-86380000D01*
X141000000Y-125500000D02*
X147580000Y-125500000D01*
X137500000Y-72500000D02*
X137500000Y-83840000D01*
X138500000Y-71500000D02*
X141000000Y-71500000D01*
X121420000Y-62920000D02*
X121420000Y-66000000D01*
X94500000Y-69420000D02*
X94500000Y-118780000D01*
X134920000Y-66000000D02*
X131920000Y-63000000D01*
X143000000Y-69500000D02*
X143000000Y-64000000D01*
X138140000Y-122640000D02*
X141000000Y-125500000D01*
X138500000Y-71500000D02*
X137500000Y-72500000D01*
X131920000Y-63000000D02*
X126500000Y-63000000D01*
X138140000Y-121780000D02*
X138140000Y-122640000D01*
X98420000Y-60580000D02*
X99500000Y-59500000D01*
%TO.N,/5V*%
X149000000Y-98500000D02*
X150040000Y-99540000D01*
X138140000Y-101860000D02*
X141500000Y-98500000D01*
X138140000Y-104000000D02*
X138140000Y-101860000D01*
X141500000Y-98500000D02*
X149000000Y-98500000D01*
X150040000Y-99540000D02*
X150040000Y-101000000D01*
%TO.N,Net-(D1-A)*%
X114500000Y-79040000D02*
X121000000Y-79040000D01*
%TO.N,Net-(D2-A)*%
X119500000Y-100040000D02*
X125000000Y-100040000D01*
X125000000Y-100040000D02*
X126000000Y-99040000D01*
%TO.N,Net-(D3-A)*%
X147320000Y-111320000D02*
X147500000Y-111500000D01*
X147320000Y-106000000D02*
X147320000Y-111320000D01*
%TO.N,Net-(SW4-B)*%
X111000000Y-68040000D02*
X109460000Y-68040000D01*
X97500000Y-76000000D02*
X102500000Y-76000000D01*
X103500000Y-71000000D02*
X102500000Y-72000000D01*
X106500000Y-71000000D02*
X103500000Y-71000000D01*
X102500000Y-72000000D02*
X102500000Y-76000000D01*
X109460000Y-68040000D02*
X106500000Y-71000000D01*
%TO.N,Net-(J1-Pin_1)*%
X103500000Y-65500000D02*
X106040000Y-62960000D01*
X106040000Y-62960000D02*
X111000000Y-62960000D01*
%TO.N,/5V-SW*%
X141500000Y-108000000D02*
X141500000Y-109500000D01*
X141500000Y-120000000D02*
X144000000Y-122500000D01*
X143320000Y-111320000D02*
X141500000Y-109500000D01*
X144780000Y-105010051D02*
X146290051Y-103500000D01*
X143500000Y-106000000D02*
X141500000Y-108000000D01*
X152000000Y-105340000D02*
X152000000Y-107880000D01*
X144960000Y-101359138D02*
X147100862Y-103500000D01*
X152000000Y-112960000D02*
X152000000Y-115500000D01*
X144000000Y-122500000D02*
X145500000Y-122500000D01*
X150160000Y-103500000D02*
X152000000Y-105340000D01*
X141500000Y-109500000D02*
X141500000Y-120000000D01*
X147100862Y-103500000D02*
X150160000Y-103500000D01*
X152000000Y-110420000D02*
X152000000Y-112960000D01*
X144780000Y-111320000D02*
X143320000Y-111320000D01*
X152000000Y-107880000D02*
X152000000Y-110420000D01*
X144780000Y-106000000D02*
X144780000Y-105010051D01*
X144780000Y-106000000D02*
X143500000Y-106000000D01*
X146290051Y-103500000D02*
X147100862Y-103500000D01*
X144960000Y-101000000D02*
X144960000Y-101359138D01*
X144780000Y-111320000D02*
X144960000Y-111500000D01*
%TO.N,/12V-SW*%
X114500000Y-76500000D02*
X114500000Y-74500000D01*
X123500000Y-69000000D02*
X126500000Y-66000000D01*
X114500000Y-69000000D02*
X123500000Y-69000000D01*
X111750000Y-71750000D02*
X114500000Y-69000000D01*
X114500000Y-74500000D02*
X111750000Y-71750000D01*
X114500000Y-76500000D02*
X121000000Y-76500000D01*
X109000000Y-76920000D02*
X109000000Y-74500000D01*
X109000000Y-74500000D02*
X111750000Y-71750000D01*
%TO.N,12V-SW-1*%
X126500000Y-81000000D02*
X126500000Y-72500000D01*
X117040000Y-94460000D02*
X117040000Y-91500000D01*
X126500000Y-72500000D02*
X130000000Y-69000000D01*
X115000000Y-97500000D02*
X115000000Y-96500000D01*
X119500000Y-97500000D02*
X120500000Y-96500000D01*
X117040000Y-91500000D02*
X117040000Y-90460000D01*
X115000000Y-97500000D02*
X119500000Y-97500000D01*
X106880000Y-91500000D02*
X109420000Y-91500000D01*
X140000000Y-68000000D02*
X140000000Y-66000000D01*
X117040000Y-90460000D02*
X126500000Y-81000000D01*
X139000000Y-69000000D02*
X140000000Y-68000000D01*
X115000000Y-96500000D02*
X117040000Y-94460000D01*
X109420000Y-91500000D02*
X111960000Y-91500000D01*
X130000000Y-69000000D02*
X139000000Y-69000000D01*
X120500000Y-96500000D02*
X126000000Y-96500000D01*
X111960000Y-91500000D02*
X114500000Y-91500000D01*
X114500000Y-91500000D02*
X117040000Y-91500000D01*
%TD*%
%TA.AperFunction,Conductor*%
%TO.N,GND*%
G36*
X157442539Y-57020185D02*
G01*
X157488294Y-57072989D01*
X157499500Y-57124500D01*
X157499500Y-128375500D01*
X157479815Y-128442539D01*
X157427011Y-128488294D01*
X157375500Y-128499500D01*
X91124500Y-128499500D01*
X91057461Y-128479815D01*
X91011706Y-128427011D01*
X91000500Y-128375500D01*
X91000500Y-121663994D01*
X95730000Y-121663994D01*
X95730000Y-121896005D01*
X95730001Y-121896022D01*
X95760283Y-122126040D01*
X95760286Y-122126053D01*
X95820336Y-122350167D01*
X95909124Y-122564521D01*
X95909132Y-122564538D01*
X96025136Y-122765461D01*
X96025142Y-122765469D01*
X96084117Y-122842327D01*
X97017037Y-121909408D01*
X97034075Y-121972993D01*
X97099901Y-122087007D01*
X97192993Y-122180099D01*
X97307007Y-122245925D01*
X97370591Y-122262962D01*
X96437671Y-123195881D01*
X96514530Y-123254857D01*
X96514538Y-123254863D01*
X96715461Y-123370867D01*
X96715478Y-123370875D01*
X96929832Y-123459663D01*
X97153946Y-123519713D01*
X97153959Y-123519716D01*
X97383977Y-123549998D01*
X97383995Y-123550000D01*
X97616005Y-123550000D01*
X97616022Y-123549998D01*
X97846040Y-123519716D01*
X97846053Y-123519713D01*
X98070167Y-123459663D01*
X98284521Y-123370875D01*
X98284538Y-123370867D01*
X98485475Y-123254855D01*
X98562327Y-123195883D01*
X98562327Y-123195880D01*
X97629408Y-122262962D01*
X97692993Y-122245925D01*
X97807007Y-122180099D01*
X97900099Y-122087007D01*
X97965925Y-121972993D01*
X97982962Y-121909408D01*
X98915880Y-122842327D01*
X98915883Y-122842327D01*
X98974855Y-122765475D01*
X99090867Y-122564538D01*
X99090875Y-122564521D01*
X99179663Y-122350167D01*
X99239713Y-122126053D01*
X99239716Y-122126040D01*
X99269998Y-121896022D01*
X99270000Y-121896005D01*
X99270000Y-121663994D01*
X136370000Y-121663994D01*
X136370000Y-121896005D01*
X136370001Y-121896022D01*
X136400283Y-122126040D01*
X136400286Y-122126053D01*
X136460336Y-122350167D01*
X136549124Y-122564521D01*
X136549132Y-122564538D01*
X136665136Y-122765461D01*
X136665142Y-122765469D01*
X136724117Y-122842327D01*
X137657037Y-121909408D01*
X137674075Y-121972993D01*
X137739901Y-122087007D01*
X137832993Y-122180099D01*
X137947007Y-122245925D01*
X138010591Y-122262962D01*
X137077671Y-123195881D01*
X137154530Y-123254857D01*
X137154538Y-123254863D01*
X137355461Y-123370867D01*
X137355478Y-123370875D01*
X137569832Y-123459663D01*
X137793946Y-123519713D01*
X137793959Y-123519716D01*
X138023977Y-123549998D01*
X138023995Y-123550000D01*
X138256005Y-123550000D01*
X138256022Y-123549998D01*
X138486040Y-123519716D01*
X138486053Y-123519713D01*
X138710167Y-123459663D01*
X138924521Y-123370875D01*
X138924538Y-123370867D01*
X139125475Y-123254855D01*
X139202327Y-123195883D01*
X139202327Y-123195880D01*
X138269408Y-122262962D01*
X138332993Y-122245925D01*
X138447007Y-122180099D01*
X138540099Y-122087007D01*
X138605925Y-121972993D01*
X138622962Y-121909409D01*
X139555880Y-122842327D01*
X139555883Y-122842327D01*
X139614855Y-122765475D01*
X139730867Y-122564538D01*
X139730875Y-122564521D01*
X139819663Y-122350167D01*
X139879713Y-122126053D01*
X139879716Y-122126040D01*
X139909998Y-121896022D01*
X139910000Y-121896005D01*
X139910000Y-121663994D01*
X139909998Y-121663977D01*
X139879716Y-121433959D01*
X139879713Y-121433946D01*
X139819663Y-121209832D01*
X139730875Y-120995478D01*
X139730867Y-120995461D01*
X139614863Y-120794538D01*
X139614857Y-120794530D01*
X139555881Y-120717671D01*
X138622962Y-121650590D01*
X138605925Y-121587007D01*
X138540099Y-121472993D01*
X138447007Y-121379901D01*
X138332993Y-121314075D01*
X138269409Y-121297037D01*
X139202327Y-120364117D01*
X139125469Y-120305142D01*
X139125461Y-120305136D01*
X138924538Y-120189132D01*
X138924521Y-120189124D01*
X138710167Y-120100336D01*
X138486053Y-120040286D01*
X138486040Y-120040283D01*
X138256022Y-120010001D01*
X138256005Y-120010000D01*
X138023995Y-120010000D01*
X138023977Y-120010001D01*
X137793959Y-120040283D01*
X137793946Y-120040286D01*
X137569832Y-120100336D01*
X137355478Y-120189124D01*
X137355461Y-120189132D01*
X137154541Y-120305134D01*
X137154533Y-120305140D01*
X137077671Y-120364116D01*
X137077671Y-120364117D01*
X138010591Y-121297037D01*
X137947007Y-121314075D01*
X137832993Y-121379901D01*
X137739901Y-121472993D01*
X137674075Y-121587007D01*
X137657037Y-121650590D01*
X136724117Y-120717671D01*
X136724116Y-120717671D01*
X136665140Y-120794533D01*
X136665134Y-120794541D01*
X136549132Y-120995461D01*
X136549124Y-120995478D01*
X136460336Y-121209832D01*
X136400286Y-121433946D01*
X136400283Y-121433959D01*
X136370001Y-121663977D01*
X136370000Y-121663994D01*
X99270000Y-121663994D01*
X99269998Y-121663977D01*
X99239716Y-121433959D01*
X99239713Y-121433946D01*
X99179663Y-121209832D01*
X99090875Y-120995478D01*
X99090867Y-120995461D01*
X98974863Y-120794538D01*
X98974857Y-120794530D01*
X98915881Y-120717671D01*
X97982962Y-121650590D01*
X97965925Y-121587007D01*
X97900099Y-121472993D01*
X97807007Y-121379901D01*
X97692993Y-121314075D01*
X97629409Y-121297037D01*
X98562327Y-120364117D01*
X98485469Y-120305142D01*
X98485461Y-120305136D01*
X98284538Y-120189132D01*
X98284521Y-120189124D01*
X98070167Y-120100336D01*
X97846053Y-120040286D01*
X97846040Y-120040283D01*
X97616022Y-120010001D01*
X97616005Y-120010000D01*
X97383995Y-120010000D01*
X97383977Y-120010001D01*
X97153959Y-120040283D01*
X97153946Y-120040286D01*
X96929832Y-120100336D01*
X96715478Y-120189124D01*
X96715461Y-120189132D01*
X96514541Y-120305134D01*
X96514533Y-120305140D01*
X96437671Y-120364116D01*
X96437671Y-120364117D01*
X97370591Y-121297037D01*
X97307007Y-121314075D01*
X97192993Y-121379901D01*
X97099901Y-121472993D01*
X97034075Y-121587007D01*
X97017037Y-121650590D01*
X96084117Y-120717671D01*
X96084116Y-120717671D01*
X96025140Y-120794533D01*
X96025134Y-120794541D01*
X95909132Y-120995461D01*
X95909124Y-120995478D01*
X95820336Y-121209832D01*
X95760286Y-121433946D01*
X95760283Y-121433959D01*
X95730001Y-121663977D01*
X95730000Y-121663994D01*
X91000500Y-121663994D01*
X91000500Y-102682135D01*
X95729500Y-102682135D01*
X95729500Y-105317870D01*
X95729501Y-105317876D01*
X95735908Y-105377483D01*
X95786202Y-105512328D01*
X95786206Y-105512335D01*
X95872452Y-105627544D01*
X95872455Y-105627547D01*
X95987664Y-105713793D01*
X95987671Y-105713797D01*
X96122517Y-105764091D01*
X96122516Y-105764091D01*
X96129444Y-105764835D01*
X96182127Y-105770500D01*
X98817872Y-105770499D01*
X98877483Y-105764091D01*
X99012331Y-105713796D01*
X99127546Y-105627546D01*
X99213796Y-105512331D01*
X99264091Y-105377483D01*
X99270500Y-105317873D01*
X99270499Y-103883947D01*
X136369500Y-103883947D01*
X136369500Y-104116052D01*
X136399794Y-104346148D01*
X136459862Y-104570328D01*
X136548677Y-104784745D01*
X136548685Y-104784762D01*
X136664720Y-104985743D01*
X136664721Y-104985745D01*
X136806009Y-105169875D01*
X136806015Y-105169882D01*
X136970117Y-105333984D01*
X136970124Y-105333990D01*
X137154254Y-105475278D01*
X137154256Y-105475279D01*
X137355237Y-105591314D01*
X137355240Y-105591315D01*
X137355248Y-105591320D01*
X137569670Y-105680137D01*
X137793851Y-105740206D01*
X138012318Y-105768968D01*
X138023939Y-105770498D01*
X138023955Y-105770500D01*
X138023962Y-105770500D01*
X138256038Y-105770500D01*
X138256045Y-105770500D01*
X138486149Y-105740206D01*
X138710330Y-105680137D01*
X138924752Y-105591320D01*
X139125748Y-105475276D01*
X139309877Y-105333989D01*
X139473989Y-105169877D01*
X139615276Y-104985748D01*
X139731320Y-104784752D01*
X139820137Y-104570330D01*
X139880206Y-104346149D01*
X139910500Y-104116045D01*
X139910500Y-103883955D01*
X139880206Y-103653851D01*
X139820137Y-103429670D01*
X139731320Y-103215248D01*
X139657112Y-103086714D01*
X139640500Y-103024715D01*
X139640500Y-102532889D01*
X139660185Y-102465850D01*
X139676819Y-102445208D01*
X142085209Y-100036819D01*
X142146532Y-100003334D01*
X142172890Y-100000500D01*
X143485500Y-100000500D01*
X143494185Y-100003050D01*
X143503147Y-100001762D01*
X143527187Y-100012740D01*
X143552539Y-100020185D01*
X143558466Y-100027025D01*
X143566703Y-100030787D01*
X143580992Y-100053021D01*
X143598294Y-100072989D01*
X143600581Y-100083503D01*
X143604477Y-100089565D01*
X143609500Y-100124500D01*
X143609500Y-100315599D01*
X143595985Y-100371893D01*
X143569430Y-100424009D01*
X143569430Y-100424011D01*
X143496447Y-100648627D01*
X143496447Y-100648630D01*
X143459500Y-100881902D01*
X143459500Y-101477235D01*
X143496446Y-101710506D01*
X143569433Y-101935134D01*
X143660982Y-102114808D01*
X143676657Y-102145572D01*
X143789980Y-102301547D01*
X143815484Y-102336649D01*
X144485748Y-103006913D01*
X144519233Y-103068236D01*
X144514249Y-103137928D01*
X144485748Y-103182275D01*
X143635484Y-104032539D01*
X143496657Y-104223616D01*
X143452834Y-104309624D01*
X143452787Y-104309716D01*
X143452696Y-104309896D01*
X143389432Y-104434059D01*
X143387987Y-104438506D01*
X143383743Y-104446941D01*
X143365884Y-104466042D01*
X143351026Y-104487560D01*
X143342017Y-104491571D01*
X143336027Y-104497979D01*
X143316578Y-104502900D01*
X143292372Y-104513680D01*
X143148634Y-104536446D01*
X142924005Y-104609433D01*
X142713565Y-104716657D01*
X142522488Y-104855484D01*
X140355484Y-107022488D01*
X140216655Y-107213567D01*
X140150788Y-107342842D01*
X140118564Y-107406086D01*
X140113998Y-107415047D01*
X140109432Y-107424007D01*
X140036446Y-107648631D01*
X139999500Y-107881902D01*
X139999500Y-120118097D01*
X140036446Y-120351368D01*
X140109433Y-120575996D01*
X140198493Y-120750785D01*
X140216657Y-120786434D01*
X140355483Y-120977510D01*
X142855483Y-123477510D01*
X143022490Y-123644517D01*
X143213567Y-123783343D01*
X143312991Y-123834002D01*
X143424003Y-123890566D01*
X143424005Y-123890566D01*
X143424008Y-123890568D01*
X143544412Y-123929689D01*
X143648631Y-123963553D01*
X143881903Y-124000500D01*
X143881908Y-124000500D01*
X143887770Y-124000500D01*
X143954809Y-124020185D01*
X143975451Y-124036819D01*
X144031344Y-124092712D01*
X144180666Y-124184814D01*
X144347203Y-124239999D01*
X144449991Y-124250500D01*
X146550008Y-124250499D01*
X146652797Y-124239999D01*
X146819334Y-124184814D01*
X146968656Y-124092712D01*
X147092712Y-123968656D01*
X147184814Y-123819334D01*
X147239999Y-123652797D01*
X147250500Y-123550009D01*
X147250499Y-122385305D01*
X148830000Y-122385305D01*
X148830000Y-122614694D01*
X148830001Y-122614710D01*
X148859942Y-122842137D01*
X148919318Y-123063730D01*
X149007102Y-123275659D01*
X149007106Y-123275669D01*
X149121799Y-123474324D01*
X149121805Y-123474331D01*
X149178381Y-123548064D01*
X149978958Y-122747487D01*
X150003978Y-122807890D01*
X150075112Y-122914351D01*
X150165649Y-123004888D01*
X150272110Y-123076022D01*
X150332511Y-123101041D01*
X149531934Y-123901617D01*
X149531934Y-123901618D01*
X149605666Y-123958194D01*
X149804330Y-124072893D01*
X149804340Y-124072897D01*
X150016269Y-124160681D01*
X150237862Y-124220057D01*
X150465289Y-124249998D01*
X150465306Y-124250000D01*
X150694694Y-124250000D01*
X150694710Y-124249998D01*
X150922137Y-124220057D01*
X151143730Y-124160681D01*
X151355659Y-124072897D01*
X151355668Y-124072893D01*
X151554327Y-123958197D01*
X151554334Y-123958192D01*
X151628064Y-123901617D01*
X150827488Y-123101041D01*
X150887890Y-123076022D01*
X150994351Y-123004888D01*
X151084888Y-122914351D01*
X151156022Y-122807890D01*
X151181041Y-122747488D01*
X151981617Y-123548064D01*
X152038192Y-123474334D01*
X152038197Y-123474327D01*
X152152893Y-123275668D01*
X152152897Y-123275659D01*
X152240681Y-123063730D01*
X152300057Y-122842137D01*
X152329998Y-122614710D01*
X152330000Y-122614694D01*
X152330000Y-122385305D01*
X152329998Y-122385289D01*
X152300057Y-122157862D01*
X152240681Y-121936269D01*
X152152897Y-121724340D01*
X152152893Y-121724330D01*
X152038194Y-121525666D01*
X151981618Y-121451934D01*
X151981617Y-121451934D01*
X151181041Y-122252510D01*
X151156022Y-122192110D01*
X151084888Y-122085649D01*
X150994351Y-121995112D01*
X150887890Y-121923978D01*
X150827487Y-121898957D01*
X151628064Y-121098381D01*
X151628064Y-121098380D01*
X151554331Y-121041805D01*
X151554324Y-121041799D01*
X151355669Y-120927106D01*
X151355659Y-120927102D01*
X151143730Y-120839318D01*
X150922137Y-120779942D01*
X150694710Y-120750001D01*
X150694694Y-120750000D01*
X150465306Y-120750000D01*
X150465289Y-120750001D01*
X150237862Y-120779942D01*
X150016269Y-120839318D01*
X149804340Y-120927102D01*
X149804330Y-120927106D01*
X149605673Y-121041801D01*
X149605659Y-121041810D01*
X149531934Y-121098380D01*
X150332511Y-121898958D01*
X150272110Y-121923978D01*
X150165649Y-121995112D01*
X150075112Y-122085649D01*
X150003978Y-122192110D01*
X149978958Y-122252511D01*
X149178380Y-121451934D01*
X149121810Y-121525659D01*
X149121801Y-121525673D01*
X149007106Y-121724330D01*
X149007102Y-121724340D01*
X148919318Y-121936269D01*
X148859942Y-122157862D01*
X148830001Y-122385289D01*
X148830000Y-122385305D01*
X147250499Y-122385305D01*
X147250499Y-121449992D01*
X147239999Y-121347203D01*
X147184814Y-121180666D01*
X147092712Y-121031344D01*
X146968656Y-120907288D01*
X146875888Y-120850069D01*
X146819336Y-120815187D01*
X146819331Y-120815185D01*
X146817862Y-120814698D01*
X146652797Y-120760001D01*
X146652795Y-120760000D01*
X146550010Y-120749500D01*
X144449998Y-120749500D01*
X144449975Y-120749502D01*
X144437415Y-120750785D01*
X144368722Y-120738014D01*
X144337135Y-120715108D01*
X143036819Y-119414792D01*
X143003334Y-119353469D01*
X143000500Y-119327111D01*
X143000500Y-112933784D01*
X143020185Y-112866745D01*
X143072989Y-112820990D01*
X143142147Y-112811046D01*
X143143705Y-112811281D01*
X143201908Y-112820500D01*
X143745278Y-112820500D01*
X143812317Y-112840185D01*
X143816965Y-112843412D01*
X143817670Y-112843797D01*
X143892155Y-112871577D01*
X143952517Y-112894091D01*
X144012127Y-112900500D01*
X144394934Y-112900499D01*
X144433252Y-112906568D01*
X144582516Y-112955066D01*
X144608631Y-112963552D01*
X144701609Y-112978278D01*
X144841903Y-113000499D01*
X144841908Y-113000499D01*
X145078096Y-113000499D01*
X145191183Y-112982587D01*
X145311368Y-112963552D01*
X145450553Y-112918328D01*
X145486748Y-112906568D01*
X145525066Y-112900499D01*
X145907871Y-112900499D01*
X145907872Y-112900499D01*
X145967483Y-112894091D01*
X146102331Y-112843796D01*
X146217546Y-112757546D01*
X146302160Y-112644517D01*
X146309112Y-112635231D01*
X146311521Y-112637034D01*
X146350269Y-112598276D01*
X146418540Y-112583415D01*
X146484008Y-112607823D01*
X146497392Y-112619419D01*
X146522490Y-112644517D01*
X146713566Y-112783343D01*
X146816781Y-112835933D01*
X146924006Y-112890568D01*
X146924009Y-112890569D01*
X146973250Y-112906568D01*
X147148631Y-112963552D01*
X147256673Y-112980663D01*
X147381903Y-113000499D01*
X147381908Y-113000499D01*
X147618096Y-113000499D01*
X147731183Y-112982587D01*
X147851368Y-112963552D01*
X148075992Y-112890568D01*
X148286433Y-112783343D01*
X148477510Y-112644517D01*
X148644517Y-112477510D01*
X148783343Y-112286433D01*
X148890568Y-112075992D01*
X148963552Y-111851368D01*
X148982587Y-111731183D01*
X149000499Y-111618096D01*
X149000499Y-111381902D01*
X148979004Y-111246197D01*
X148963552Y-111148631D01*
X148890568Y-110924007D01*
X148890565Y-110924001D01*
X148834015Y-110813013D01*
X148820500Y-110756719D01*
X148820500Y-105881902D01*
X148783553Y-105648631D01*
X148727227Y-105475279D01*
X148710568Y-105424008D01*
X148710566Y-105424005D01*
X148710566Y-105424003D01*
X148603343Y-105213567D01*
X148591586Y-105197385D01*
X148568107Y-105131578D01*
X148583933Y-105063524D01*
X148634039Y-105014830D01*
X148691905Y-105000500D01*
X149487111Y-105000500D01*
X149554150Y-105020185D01*
X149574792Y-105036819D01*
X150463181Y-105925208D01*
X150496666Y-105986531D01*
X150499500Y-106012889D01*
X150499500Y-115618097D01*
X150536447Y-115851369D01*
X150536447Y-115851372D01*
X150609430Y-116075988D01*
X150609430Y-116075989D01*
X150635985Y-116128106D01*
X150649500Y-116184399D01*
X150649500Y-116397869D01*
X150649501Y-116397876D01*
X150655908Y-116457483D01*
X150706202Y-116592328D01*
X150706206Y-116592335D01*
X150792452Y-116707544D01*
X150792455Y-116707547D01*
X150907664Y-116793793D01*
X150907671Y-116793797D01*
X150952618Y-116810561D01*
X151042517Y-116844091D01*
X151102127Y-116850500D01*
X151315598Y-116850499D01*
X151371893Y-116864014D01*
X151424008Y-116890568D01*
X151605059Y-116949395D01*
X151648631Y-116963553D01*
X151881903Y-117000500D01*
X151881908Y-117000500D01*
X152118097Y-117000500D01*
X152351368Y-116963553D01*
X152575992Y-116890568D01*
X152628107Y-116864014D01*
X152684401Y-116850499D01*
X152897871Y-116850499D01*
X152897872Y-116850499D01*
X152957483Y-116844091D01*
X153092331Y-116793796D01*
X153207546Y-116707546D01*
X153293796Y-116592331D01*
X153344091Y-116457483D01*
X153350500Y-116397873D01*
X153350499Y-116184399D01*
X153364014Y-116128105D01*
X153390568Y-116075992D01*
X153463553Y-115851368D01*
X153500500Y-115618097D01*
X153500500Y-105221902D01*
X153463553Y-104988631D01*
X153390566Y-104764003D01*
X153334003Y-104652992D01*
X153283343Y-104553566D01*
X153144517Y-104362490D01*
X151137510Y-102355483D01*
X151063271Y-102301545D01*
X151020608Y-102246217D01*
X151014629Y-102176603D01*
X151047235Y-102114808D01*
X151048339Y-102113687D01*
X151184517Y-101977510D01*
X151323343Y-101786433D01*
X151430568Y-101575992D01*
X151503553Y-101351368D01*
X151514222Y-101284008D01*
X151540500Y-101118097D01*
X151540500Y-99421902D01*
X151519043Y-99286433D01*
X151519043Y-99286432D01*
X151503553Y-99188631D01*
X151503553Y-99188630D01*
X151430566Y-98964003D01*
X151369468Y-98844091D01*
X151323343Y-98753566D01*
X151184517Y-98562490D01*
X149977510Y-97355483D01*
X149786434Y-97216657D01*
X149575996Y-97109433D01*
X149351368Y-97036446D01*
X149118097Y-96999500D01*
X149118092Y-96999500D01*
X141381908Y-96999500D01*
X141381903Y-96999500D01*
X141148631Y-97036446D01*
X140924003Y-97109433D01*
X140713563Y-97216659D01*
X140522496Y-97355476D01*
X140522491Y-97355480D01*
X136995485Y-100882487D01*
X136995484Y-100882488D01*
X136856657Y-101073565D01*
X136800125Y-101184517D01*
X136749433Y-101284003D01*
X136676446Y-101508631D01*
X136639500Y-101741902D01*
X136639500Y-103024715D01*
X136622888Y-103086714D01*
X136548679Y-103215249D01*
X136548677Y-103215254D01*
X136459862Y-103429671D01*
X136399794Y-103653851D01*
X136369500Y-103883947D01*
X99270499Y-103883947D01*
X99270499Y-102682128D01*
X99264091Y-102622517D01*
X99213796Y-102487669D01*
X99213795Y-102487668D01*
X99213793Y-102487664D01*
X99127547Y-102372455D01*
X99050188Y-102314543D01*
X99008318Y-102258609D01*
X99000500Y-102215277D01*
X99000500Y-95424500D01*
X99020185Y-95357461D01*
X99072989Y-95311706D01*
X99124500Y-95300500D01*
X100929828Y-95300500D01*
X100996867Y-95320185D01*
X101042622Y-95372989D01*
X101047757Y-95386178D01*
X101109432Y-95575992D01*
X101216657Y-95786434D01*
X101355483Y-95977510D01*
X104022490Y-98644517D01*
X104213567Y-98783343D01*
X104312991Y-98834002D01*
X104424003Y-98890566D01*
X104424005Y-98890566D01*
X104424008Y-98890568D01*
X104544412Y-98929689D01*
X104648631Y-98963553D01*
X104881903Y-99000500D01*
X104881908Y-99000500D01*
X110038097Y-99000500D01*
X110271368Y-98963553D01*
X110495992Y-98890568D01*
X110706433Y-98783343D01*
X110897510Y-98644517D01*
X111064517Y-98477510D01*
X111182387Y-98315276D01*
X111237716Y-98272611D01*
X111307329Y-98266632D01*
X111369124Y-98299238D01*
X111383022Y-98315277D01*
X111429890Y-98379785D01*
X111429894Y-98379790D01*
X111580213Y-98530109D01*
X111752179Y-98655048D01*
X111752181Y-98655049D01*
X111752184Y-98655051D01*
X111941588Y-98751557D01*
X112143757Y-98817246D01*
X112353713Y-98850500D01*
X112353714Y-98850500D01*
X112566286Y-98850500D01*
X112566287Y-98850500D01*
X112776243Y-98817246D01*
X112978412Y-98751557D01*
X113167816Y-98655051D01*
X113295219Y-98562488D01*
X113339784Y-98530110D01*
X113339784Y-98530109D01*
X113339792Y-98530104D01*
X113453329Y-98416566D01*
X113514648Y-98383084D01*
X113584340Y-98388068D01*
X113640274Y-98429939D01*
X113657189Y-98460917D01*
X113706202Y-98592328D01*
X113706206Y-98592335D01*
X113792452Y-98707544D01*
X113792455Y-98707547D01*
X113907664Y-98793793D01*
X113907671Y-98793797D01*
X113952618Y-98810561D01*
X114042517Y-98844091D01*
X114102127Y-98850500D01*
X114315598Y-98850499D01*
X114371893Y-98864014D01*
X114424008Y-98890568D01*
X114605059Y-98949395D01*
X114648631Y-98963553D01*
X114881903Y-99000500D01*
X114881908Y-99000500D01*
X118157157Y-99000500D01*
X118224196Y-99020185D01*
X118269951Y-99072989D01*
X118279895Y-99142147D01*
X118257475Y-99197385D01*
X118216659Y-99253563D01*
X118109433Y-99464003D01*
X118036446Y-99688631D01*
X117999500Y-99921902D01*
X117999500Y-100158097D01*
X118036446Y-100391368D01*
X118109433Y-100615996D01*
X118216657Y-100826433D01*
X118355483Y-101017510D01*
X118522490Y-101184517D01*
X118713567Y-101323343D01*
X118812991Y-101374002D01*
X118924003Y-101430566D01*
X118924005Y-101430566D01*
X118924008Y-101430568D01*
X119044412Y-101469689D01*
X119148631Y-101503553D01*
X119381903Y-101540500D01*
X119381908Y-101540500D01*
X125118097Y-101540500D01*
X125351368Y-101503553D01*
X125575992Y-101430568D01*
X125786434Y-101323343D01*
X125977510Y-101184517D01*
X127144518Y-100017510D01*
X127283343Y-99826433D01*
X127390568Y-99615992D01*
X127463553Y-99391368D01*
X127480173Y-99286432D01*
X127500500Y-99158096D01*
X127500500Y-98921902D01*
X127463553Y-98688630D01*
X127422567Y-98562490D01*
X127390568Y-98464007D01*
X127390566Y-98464004D01*
X127390566Y-98464002D01*
X127306614Y-98299238D01*
X127283343Y-98253566D01*
X127144518Y-98062490D01*
X127119419Y-98037391D01*
X127085934Y-97976068D01*
X127090918Y-97906376D01*
X127132790Y-97850443D01*
X127137462Y-97847441D01*
X127151240Y-97837126D01*
X127257546Y-97757546D01*
X127343796Y-97642331D01*
X127394091Y-97507483D01*
X127400500Y-97447873D01*
X127400499Y-97065064D01*
X127406568Y-97026747D01*
X127415421Y-96999500D01*
X127463553Y-96851368D01*
X127483189Y-96727388D01*
X127500500Y-96618097D01*
X127500500Y-96381902D01*
X127463553Y-96148635D01*
X127463553Y-96148634D01*
X127463553Y-96148632D01*
X127406568Y-95973251D01*
X127400499Y-95934933D01*
X127400499Y-95552129D01*
X127400498Y-95552123D01*
X127394091Y-95492516D01*
X127343797Y-95357671D01*
X127343793Y-95357664D01*
X127257547Y-95242455D01*
X127257544Y-95242452D01*
X127142335Y-95156206D01*
X127142328Y-95156202D01*
X127007482Y-95105908D01*
X127007483Y-95105908D01*
X126947883Y-95099501D01*
X126947881Y-95099500D01*
X126947873Y-95099500D01*
X126947865Y-95099500D01*
X126565065Y-95099500D01*
X126526747Y-95093431D01*
X126351370Y-95036447D01*
X126118097Y-94999500D01*
X126118092Y-94999500D01*
X120381908Y-94999500D01*
X120381903Y-94999500D01*
X120151516Y-95035989D01*
X120151517Y-95035990D01*
X120148631Y-95036447D01*
X119924003Y-95109433D01*
X119713563Y-95216659D01*
X119522496Y-95355476D01*
X119522491Y-95355480D01*
X118914792Y-95963181D01*
X118853469Y-95996666D01*
X118827111Y-95999500D01*
X117921890Y-95999500D01*
X117854851Y-95979815D01*
X117809096Y-95927011D01*
X117799152Y-95857853D01*
X117828177Y-95794297D01*
X117834209Y-95787819D01*
X117908463Y-95713565D01*
X118184518Y-95437510D01*
X118323343Y-95246433D01*
X118430568Y-95035992D01*
X118503553Y-94811368D01*
X118509657Y-94772830D01*
X118540500Y-94578097D01*
X118540500Y-91132889D01*
X118560185Y-91065850D01*
X118576819Y-91045208D01*
X125888274Y-83733753D01*
X136150000Y-83733753D01*
X136150000Y-83946246D01*
X136183242Y-84156127D01*
X136183242Y-84156130D01*
X136248904Y-84358217D01*
X136345375Y-84547550D01*
X136384728Y-84601716D01*
X137017037Y-83969408D01*
X137034075Y-84032993D01*
X137099901Y-84147007D01*
X137192993Y-84240099D01*
X137307007Y-84305925D01*
X137370591Y-84322962D01*
X136769971Y-84923581D01*
X136848711Y-85040895D01*
X136849920Y-85044729D01*
X136852844Y-85047491D01*
X136860343Y-85077778D01*
X136869727Y-85107529D01*
X136868671Y-85111408D01*
X136869638Y-85115312D01*
X136859573Y-85144844D01*
X136851383Y-85174947D01*
X136848397Y-85177640D01*
X136847100Y-85181447D01*
X136802051Y-85220483D01*
X136792440Y-85225380D01*
X136738282Y-85264727D01*
X136738282Y-85264728D01*
X137370591Y-85897037D01*
X137307007Y-85914075D01*
X137192993Y-85979901D01*
X137099901Y-86072993D01*
X137034075Y-86187007D01*
X137017037Y-86250591D01*
X136384728Y-85618282D01*
X136384727Y-85618282D01*
X136345380Y-85672439D01*
X136248904Y-85861782D01*
X136183242Y-86063869D01*
X136183242Y-86063872D01*
X136150000Y-86273753D01*
X136150000Y-86486246D01*
X136183242Y-86696127D01*
X136183242Y-86696130D01*
X136248904Y-86898217D01*
X136345375Y-87087550D01*
X136384728Y-87141716D01*
X137017037Y-86509408D01*
X137034075Y-86572993D01*
X137099901Y-86687007D01*
X137192993Y-86780099D01*
X137307007Y-86845925D01*
X137370591Y-86862962D01*
X136769971Y-87463581D01*
X136848711Y-87580895D01*
X136849920Y-87584729D01*
X136852844Y-87587491D01*
X136860343Y-87617778D01*
X136869727Y-87647529D01*
X136868671Y-87651408D01*
X136869638Y-87655312D01*
X136859573Y-87684844D01*
X136851383Y-87714947D01*
X136848397Y-87717640D01*
X136847100Y-87721447D01*
X136802051Y-87760483D01*
X136792440Y-87765380D01*
X136738282Y-87804727D01*
X136738282Y-87804728D01*
X137370591Y-88437037D01*
X137307007Y-88454075D01*
X137192993Y-88519901D01*
X137099901Y-88612993D01*
X137034075Y-88727007D01*
X137017037Y-88790591D01*
X136384728Y-88158282D01*
X136384727Y-88158282D01*
X136345380Y-88212439D01*
X136248904Y-88401782D01*
X136183242Y-88603869D01*
X136183242Y-88603872D01*
X136150000Y-88813753D01*
X136150000Y-89026246D01*
X136183242Y-89236127D01*
X136183242Y-89236130D01*
X136248904Y-89438217D01*
X136345375Y-89627550D01*
X136384728Y-89681716D01*
X137017037Y-89049408D01*
X137034075Y-89112993D01*
X137099901Y-89227007D01*
X137192993Y-89320099D01*
X137307007Y-89385925D01*
X137370590Y-89402962D01*
X136738282Y-90035269D01*
X136738282Y-90035270D01*
X136792452Y-90074626D01*
X136802048Y-90079516D01*
X136852844Y-90127491D01*
X136869638Y-90195312D01*
X136847100Y-90261447D01*
X136802051Y-90300483D01*
X136792440Y-90305380D01*
X136738282Y-90344727D01*
X136738282Y-90344728D01*
X137370591Y-90977037D01*
X137307007Y-90994075D01*
X137192993Y-91059901D01*
X137099901Y-91152993D01*
X137034075Y-91267007D01*
X137017037Y-91330591D01*
X136384728Y-90698282D01*
X136384727Y-90698282D01*
X136345380Y-90752439D01*
X136248904Y-90941782D01*
X136183242Y-91143869D01*
X136183242Y-91143872D01*
X136150000Y-91353753D01*
X136150000Y-91566246D01*
X136183242Y-91776127D01*
X136183242Y-91776130D01*
X136248904Y-91978217D01*
X136345375Y-92167550D01*
X136384728Y-92221716D01*
X137017037Y-91589408D01*
X137034075Y-91652993D01*
X137099901Y-91767007D01*
X137192993Y-91860099D01*
X137307007Y-91925925D01*
X137370590Y-91942962D01*
X136701195Y-92612356D01*
X136639872Y-92645841D01*
X136625167Y-92644924D01*
X136625444Y-92647497D01*
X136542626Y-92656401D01*
X136542619Y-92656403D01*
X136407913Y-92706645D01*
X136407906Y-92706649D01*
X136292812Y-92792809D01*
X136292809Y-92792812D01*
X136206649Y-92907906D01*
X136206645Y-92907913D01*
X136156403Y-93042620D01*
X136156401Y-93042627D01*
X136150000Y-93102155D01*
X136150000Y-93750000D01*
X137066988Y-93750000D01*
X137034075Y-93807007D01*
X137000000Y-93934174D01*
X137000000Y-94065826D01*
X137034075Y-94192993D01*
X137066988Y-94250000D01*
X136150000Y-94250000D01*
X136150000Y-94897844D01*
X136156401Y-94957372D01*
X136156403Y-94957379D01*
X136206645Y-95092086D01*
X136206649Y-95092093D01*
X136292809Y-95207187D01*
X136292812Y-95207190D01*
X136407906Y-95293350D01*
X136407913Y-95293354D01*
X136542620Y-95343596D01*
X136542627Y-95343598D01*
X136602155Y-95349999D01*
X136602172Y-95350000D01*
X137250000Y-95350000D01*
X137250000Y-94433012D01*
X137307007Y-94465925D01*
X137434174Y-94500000D01*
X137565826Y-94500000D01*
X137692993Y-94465925D01*
X137750000Y-94433012D01*
X137750000Y-95350000D01*
X138397828Y-95350000D01*
X138397844Y-95349999D01*
X138457372Y-95343598D01*
X138457379Y-95343596D01*
X138592086Y-95293354D01*
X138592093Y-95293350D01*
X138707187Y-95207190D01*
X138707190Y-95207187D01*
X138793350Y-95092093D01*
X138793354Y-95092086D01*
X138843596Y-94957379D01*
X138843598Y-94957372D01*
X138849999Y-94897844D01*
X138850000Y-94897827D01*
X138850000Y-94250000D01*
X137933012Y-94250000D01*
X137965925Y-94192993D01*
X138000000Y-94065826D01*
X138000000Y-93934174D01*
X137965925Y-93807007D01*
X137933012Y-93750000D01*
X138850000Y-93750000D01*
X138850000Y-93102172D01*
X138849999Y-93102155D01*
X138843598Y-93042627D01*
X138843596Y-93042620D01*
X138793354Y-92907913D01*
X138793350Y-92907906D01*
X138707190Y-92792812D01*
X138707187Y-92792809D01*
X138592093Y-92706649D01*
X138592086Y-92706645D01*
X138457380Y-92656403D01*
X138457373Y-92656401D01*
X138374555Y-92647497D01*
X138374884Y-92644431D01*
X138357875Y-92645330D01*
X138298803Y-92612356D01*
X137629408Y-91942962D01*
X137692993Y-91925925D01*
X137807007Y-91860099D01*
X137900099Y-91767007D01*
X137965925Y-91652993D01*
X137982962Y-91589408D01*
X138615270Y-92221717D01*
X138615270Y-92221716D01*
X138654622Y-92167554D01*
X138751095Y-91978217D01*
X138816757Y-91776130D01*
X138816757Y-91776127D01*
X138850000Y-91566246D01*
X138850000Y-91353753D01*
X138816757Y-91143872D01*
X138816757Y-91143869D01*
X138751095Y-90941782D01*
X138654624Y-90752449D01*
X138615270Y-90698282D01*
X138615269Y-90698282D01*
X137982962Y-91330590D01*
X137965925Y-91267007D01*
X137900099Y-91152993D01*
X137807007Y-91059901D01*
X137692993Y-90994075D01*
X137629409Y-90977037D01*
X138261716Y-90344728D01*
X138207550Y-90305375D01*
X138197954Y-90300486D01*
X138147157Y-90252512D01*
X138130361Y-90184692D01*
X138152897Y-90118556D01*
X138197954Y-90079514D01*
X138207554Y-90074622D01*
X138261716Y-90035270D01*
X138261717Y-90035270D01*
X137629408Y-89402962D01*
X137692993Y-89385925D01*
X137807007Y-89320099D01*
X137900099Y-89227007D01*
X137965925Y-89112993D01*
X137982962Y-89049408D01*
X138615270Y-89681717D01*
X138615270Y-89681716D01*
X138654622Y-89627554D01*
X138751095Y-89438217D01*
X138816757Y-89236130D01*
X138816757Y-89236127D01*
X138850000Y-89026246D01*
X138850000Y-88813753D01*
X138816757Y-88603872D01*
X138816757Y-88603869D01*
X138751095Y-88401782D01*
X138654624Y-88212449D01*
X138615270Y-88158282D01*
X138615269Y-88158282D01*
X137982962Y-88790590D01*
X137965925Y-88727007D01*
X137900099Y-88612993D01*
X137807007Y-88519901D01*
X137692993Y-88454075D01*
X137629409Y-88437037D01*
X138261716Y-87804728D01*
X138207550Y-87765375D01*
X138197954Y-87760486D01*
X138147157Y-87712512D01*
X138130361Y-87644692D01*
X138152897Y-87578556D01*
X138197954Y-87539514D01*
X138207554Y-87534622D01*
X138261716Y-87495270D01*
X138261717Y-87495270D01*
X137629408Y-86862962D01*
X137692993Y-86845925D01*
X137807007Y-86780099D01*
X137900099Y-86687007D01*
X137965925Y-86572993D01*
X137982962Y-86509408D01*
X138615270Y-87141717D01*
X138615270Y-87141716D01*
X138654622Y-87087554D01*
X138751095Y-86898217D01*
X138816757Y-86696130D01*
X138816757Y-86696127D01*
X138850000Y-86486246D01*
X138850000Y-86273753D01*
X138816757Y-86063872D01*
X138816757Y-86063869D01*
X138751095Y-85861782D01*
X138654624Y-85672449D01*
X138615270Y-85618282D01*
X138615269Y-85618282D01*
X137982962Y-86250590D01*
X137965925Y-86187007D01*
X137900099Y-86072993D01*
X137807007Y-85979901D01*
X137692993Y-85914075D01*
X137629409Y-85897037D01*
X138261716Y-85264728D01*
X138207550Y-85225375D01*
X138197954Y-85220486D01*
X138147157Y-85172512D01*
X138130361Y-85104692D01*
X138152897Y-85038556D01*
X138197954Y-84999514D01*
X138207554Y-84994622D01*
X138261716Y-84955270D01*
X138261717Y-84955270D01*
X137629408Y-84322962D01*
X137692993Y-84305925D01*
X137807007Y-84240099D01*
X137900099Y-84147007D01*
X137965925Y-84032993D01*
X137982962Y-83969408D01*
X138615270Y-84601717D01*
X138615270Y-84601716D01*
X138654622Y-84547554D01*
X138751095Y-84358217D01*
X138816757Y-84156130D01*
X138816757Y-84156127D01*
X138850000Y-83946246D01*
X138850000Y-83733753D01*
X138816757Y-83523872D01*
X138816757Y-83523869D01*
X138751095Y-83321782D01*
X138654624Y-83132449D01*
X138615270Y-83078282D01*
X138615269Y-83078282D01*
X137982962Y-83710590D01*
X137965925Y-83647007D01*
X137900099Y-83532993D01*
X137807007Y-83439901D01*
X137692993Y-83374075D01*
X137629409Y-83357037D01*
X138261716Y-82724728D01*
X138207550Y-82685375D01*
X138018217Y-82588904D01*
X137816129Y-82523242D01*
X137606246Y-82490000D01*
X137393754Y-82490000D01*
X137183872Y-82523242D01*
X137183869Y-82523242D01*
X136981782Y-82588904D01*
X136792439Y-82685380D01*
X136738282Y-82724727D01*
X136738282Y-82724728D01*
X137370591Y-83357037D01*
X137307007Y-83374075D01*
X137192993Y-83439901D01*
X137099901Y-83532993D01*
X137034075Y-83647007D01*
X137017037Y-83710591D01*
X136384728Y-83078282D01*
X136384727Y-83078282D01*
X136345380Y-83132439D01*
X136248904Y-83321782D01*
X136183242Y-83523869D01*
X136183242Y-83523872D01*
X136150000Y-83733753D01*
X125888274Y-83733753D01*
X126937721Y-82684306D01*
X127270659Y-82351368D01*
X127644517Y-81977510D01*
X127783343Y-81786434D01*
X127890568Y-81575992D01*
X127906783Y-81526086D01*
X127963553Y-81351368D01*
X127979973Y-81247689D01*
X128000500Y-81118097D01*
X128000500Y-73172889D01*
X128020185Y-73105850D01*
X128036819Y-73085208D01*
X130585208Y-70536819D01*
X130646531Y-70503334D01*
X130672889Y-70500500D01*
X139118097Y-70500500D01*
X139351368Y-70463553D01*
X139575992Y-70390568D01*
X139786434Y-70283343D01*
X139977510Y-70144517D01*
X141144518Y-68977510D01*
X141283343Y-68786433D01*
X141390568Y-68575992D01*
X141463553Y-68351368D01*
X141485378Y-68213567D01*
X141500500Y-68118092D01*
X141500500Y-67612230D01*
X141520185Y-67545191D01*
X141536819Y-67524549D01*
X141564702Y-67496666D01*
X141592712Y-67468656D01*
X141684814Y-67319334D01*
X141739999Y-67152797D01*
X141750500Y-67050009D01*
X141750499Y-64949992D01*
X141739999Y-64847203D01*
X141684814Y-64680666D01*
X141592712Y-64531344D01*
X141468656Y-64407288D01*
X141367588Y-64344949D01*
X141319336Y-64315187D01*
X141319331Y-64315185D01*
X141316280Y-64314174D01*
X141152797Y-64260001D01*
X141152795Y-64260000D01*
X141050010Y-64249500D01*
X138949998Y-64249500D01*
X138949981Y-64249501D01*
X138847203Y-64260000D01*
X138847200Y-64260001D01*
X138680668Y-64315185D01*
X138680663Y-64315187D01*
X138531342Y-64407289D01*
X138407289Y-64531342D01*
X138315187Y-64680663D01*
X138315185Y-64680668D01*
X138313638Y-64685337D01*
X138260001Y-64847203D01*
X138260001Y-64847204D01*
X138260000Y-64847204D01*
X138249500Y-64949983D01*
X138249500Y-67050001D01*
X138249501Y-67050018D01*
X138260000Y-67152796D01*
X138260001Y-67152799D01*
X138315186Y-67319334D01*
X138316941Y-67323097D01*
X138317370Y-67325924D01*
X138317458Y-67326189D01*
X138317412Y-67326203D01*
X138327432Y-67392175D01*
X138298911Y-67455958D01*
X138240433Y-67494197D01*
X138204558Y-67499500D01*
X136094043Y-67499500D01*
X136027004Y-67479815D01*
X135981249Y-67427011D01*
X135978504Y-67412057D01*
X135167488Y-66601041D01*
X135227890Y-66576022D01*
X135334351Y-66504888D01*
X135424888Y-66414351D01*
X135496022Y-66307890D01*
X135521041Y-66247488D01*
X136321617Y-67048064D01*
X136378192Y-66974334D01*
X136378203Y-66974319D01*
X136492893Y-66775668D01*
X136492897Y-66775659D01*
X136580681Y-66563730D01*
X136640057Y-66342137D01*
X136669998Y-66114710D01*
X136670000Y-66114694D01*
X136670000Y-65885305D01*
X136669998Y-65885289D01*
X136640057Y-65657862D01*
X136580681Y-65436269D01*
X136492897Y-65224340D01*
X136492893Y-65224330D01*
X136378194Y-65025666D01*
X136321618Y-64951934D01*
X136321617Y-64951934D01*
X135521041Y-65752510D01*
X135496022Y-65692110D01*
X135424888Y-65585649D01*
X135334351Y-65495112D01*
X135227890Y-65423978D01*
X135167487Y-65398957D01*
X135968064Y-64598381D01*
X135968064Y-64598380D01*
X135894331Y-64541805D01*
X135894324Y-64541799D01*
X135695669Y-64427106D01*
X135695659Y-64427102D01*
X135483730Y-64339318D01*
X135262137Y-64279942D01*
X135034710Y-64250001D01*
X135034694Y-64250000D01*
X134805306Y-64250000D01*
X134805289Y-64250001D01*
X134577862Y-64279942D01*
X134356269Y-64339318D01*
X134144340Y-64427102D01*
X134144330Y-64427106D01*
X133945673Y-64541801D01*
X133945659Y-64541810D01*
X133871934Y-64598380D01*
X134672511Y-65398958D01*
X134612110Y-65423978D01*
X134505649Y-65495112D01*
X134415112Y-65585649D01*
X134343978Y-65692110D01*
X134318958Y-65752511D01*
X133518380Y-64951934D01*
X133461810Y-65025659D01*
X133461801Y-65025673D01*
X133347106Y-65224330D01*
X133347102Y-65224340D01*
X133259318Y-65436269D01*
X133199942Y-65657862D01*
X133170001Y-65885289D01*
X133170000Y-65885305D01*
X133170000Y-66114694D01*
X133170001Y-66114710D01*
X133199942Y-66342137D01*
X133259318Y-66563730D01*
X133347102Y-66775659D01*
X133347106Y-66775669D01*
X133461799Y-66974324D01*
X133461805Y-66974331D01*
X133518381Y-67048064D01*
X134318958Y-66247487D01*
X134343978Y-66307890D01*
X134415112Y-66414351D01*
X134505649Y-66504888D01*
X134612110Y-66576022D01*
X134672511Y-66601041D01*
X133859175Y-67414376D01*
X133854432Y-67435574D01*
X133804734Y-67484684D01*
X133745956Y-67499500D01*
X129881903Y-67499500D01*
X129648630Y-67536447D01*
X129496993Y-67585716D01*
X129496992Y-67585717D01*
X129424016Y-67609429D01*
X129424001Y-67609434D01*
X129213565Y-67716657D01*
X129022488Y-67855484D01*
X125355484Y-71522488D01*
X125216657Y-71713565D01*
X125130883Y-71881908D01*
X125109433Y-71924003D01*
X125036446Y-72148631D01*
X124999500Y-72381902D01*
X124999500Y-80327111D01*
X124979815Y-80394150D01*
X124963181Y-80414792D01*
X115895485Y-89482487D01*
X115895484Y-89482488D01*
X115756657Y-89673565D01*
X115649434Y-89884002D01*
X115649432Y-89884007D01*
X115649432Y-89884008D01*
X115639744Y-89913821D01*
X115600307Y-89971495D01*
X115535948Y-89998692D01*
X115521815Y-89999500D01*
X106761903Y-89999500D01*
X106528631Y-90036446D01*
X106304003Y-90109433D01*
X106093566Y-90216657D01*
X106031919Y-90261447D01*
X105902490Y-90355483D01*
X105902488Y-90355485D01*
X105902487Y-90355485D01*
X105735485Y-90522487D01*
X105735485Y-90522488D01*
X105735483Y-90522490D01*
X105675862Y-90604550D01*
X105596657Y-90713566D01*
X105489433Y-90924003D01*
X105416446Y-91148631D01*
X105379500Y-91381902D01*
X105379500Y-91618097D01*
X105416446Y-91851368D01*
X105489433Y-92075996D01*
X105574292Y-92242539D01*
X105596657Y-92286433D01*
X105735483Y-92477510D01*
X105902490Y-92644517D01*
X106093567Y-92783343D01*
X106192991Y-92834002D01*
X106304003Y-92890566D01*
X106304005Y-92890566D01*
X106304008Y-92890568D01*
X106424412Y-92929689D01*
X106528631Y-92963553D01*
X106761903Y-93000500D01*
X106761908Y-93000500D01*
X109301908Y-93000500D01*
X111841908Y-93000500D01*
X114381908Y-93000500D01*
X115415500Y-93000500D01*
X115482539Y-93020185D01*
X115528294Y-93072989D01*
X115539500Y-93124500D01*
X115539500Y-93787110D01*
X115519815Y-93854149D01*
X115503181Y-93874791D01*
X113855484Y-95522488D01*
X113716657Y-95713565D01*
X113624675Y-95894092D01*
X113609433Y-95924003D01*
X113536446Y-96148631D01*
X113502174Y-96365017D01*
X113472245Y-96428152D01*
X113412933Y-96465083D01*
X113343070Y-96464085D01*
X113306816Y-96445937D01*
X113167819Y-96344951D01*
X113167818Y-96344950D01*
X113167816Y-96344949D01*
X112978412Y-96248443D01*
X112776243Y-96182754D01*
X112776241Y-96182753D01*
X112776240Y-96182753D01*
X112614957Y-96157208D01*
X112566287Y-96149500D01*
X112353713Y-96149500D01*
X112305042Y-96157208D01*
X112143760Y-96182753D01*
X111941585Y-96248444D01*
X111752179Y-96344951D01*
X111580213Y-96469890D01*
X111429894Y-96620209D01*
X111383022Y-96684723D01*
X111327691Y-96727388D01*
X111258078Y-96733367D01*
X111196283Y-96700761D01*
X111182389Y-96684726D01*
X111064517Y-96522490D01*
X110897510Y-96355483D01*
X110706433Y-96216657D01*
X110639893Y-96182753D01*
X110495996Y-96109433D01*
X110271368Y-96036446D01*
X110038097Y-95999500D01*
X110038092Y-95999500D01*
X105672889Y-95999500D01*
X105605850Y-95979815D01*
X105585208Y-95963181D01*
X104135078Y-94513051D01*
X104101593Y-94451728D01*
X104099356Y-94413219D01*
X104100500Y-94401608D01*
X104100500Y-93198392D01*
X104085300Y-93044066D01*
X104025232Y-92846046D01*
X104015142Y-92827169D01*
X104000500Y-92768715D01*
X104000500Y-86172889D01*
X104020185Y-86105850D01*
X104036819Y-86085208D01*
X106585208Y-83536819D01*
X106646531Y-83503334D01*
X106672889Y-83500500D01*
X109118097Y-83500500D01*
X109351368Y-83463553D01*
X109575992Y-83390568D01*
X109628107Y-83364014D01*
X109684401Y-83350499D01*
X109897871Y-83350499D01*
X109897872Y-83350499D01*
X109957483Y-83344091D01*
X110092331Y-83293796D01*
X110207546Y-83207546D01*
X110293796Y-83092331D01*
X110344091Y-82957483D01*
X110350500Y-82897873D01*
X110350499Y-82684399D01*
X110364014Y-82628105D01*
X110390568Y-82575992D01*
X110463553Y-82351368D01*
X110500500Y-82118097D01*
X110500500Y-81881902D01*
X110463553Y-81648631D01*
X110390565Y-81424000D01*
X110364014Y-81371891D01*
X110350499Y-81315597D01*
X110350499Y-81102129D01*
X110350498Y-81102123D01*
X110344091Y-81042516D01*
X110293797Y-80907671D01*
X110293793Y-80907664D01*
X110207547Y-80792455D01*
X110207544Y-80792452D01*
X110092335Y-80706206D01*
X110092328Y-80706202D01*
X109960917Y-80657189D01*
X109904983Y-80615318D01*
X109880566Y-80549853D01*
X109895418Y-80481580D01*
X109916563Y-80453332D01*
X110030104Y-80339792D01*
X110057115Y-80302615D01*
X110155048Y-80167820D01*
X110155049Y-80167819D01*
X110155051Y-80167816D01*
X110251557Y-79978412D01*
X110317246Y-79776243D01*
X110350500Y-79566287D01*
X110350500Y-79353713D01*
X110317246Y-79143757D01*
X110251557Y-78941588D01*
X110155051Y-78752184D01*
X110155049Y-78752181D01*
X110155048Y-78752179D01*
X110030109Y-78580213D01*
X109879790Y-78429894D01*
X109879785Y-78429890D01*
X109815277Y-78383022D01*
X109772611Y-78327692D01*
X109766632Y-78258079D01*
X109799238Y-78196284D01*
X109815273Y-78182389D01*
X109977510Y-78064517D01*
X110144517Y-77897510D01*
X110283343Y-77706433D01*
X110390568Y-77495992D01*
X110463553Y-77271368D01*
X110500500Y-77038097D01*
X110500500Y-75172889D01*
X110520185Y-75105850D01*
X110536819Y-75085208D01*
X111662319Y-73959708D01*
X111723642Y-73926223D01*
X111793334Y-73931207D01*
X111837681Y-73959708D01*
X112963181Y-75085208D01*
X112996666Y-75146531D01*
X112999500Y-75172889D01*
X112999500Y-76618097D01*
X113036446Y-76851368D01*
X113109433Y-77075996D01*
X113183212Y-77220794D01*
X113216657Y-77286433D01*
X113355483Y-77477510D01*
X113522490Y-77644517D01*
X113557127Y-77669683D01*
X113599792Y-77725013D01*
X113605771Y-77794626D01*
X113573165Y-77856421D01*
X113557130Y-77870315D01*
X113539365Y-77883222D01*
X113522488Y-77895484D01*
X113355485Y-78062487D01*
X113355485Y-78062488D01*
X113355483Y-78062490D01*
X113354009Y-78064519D01*
X113216657Y-78253566D01*
X113109433Y-78464003D01*
X113036446Y-78688631D01*
X112999500Y-78921902D01*
X112999500Y-79158097D01*
X113036446Y-79391368D01*
X113109433Y-79615996D01*
X113191082Y-79776239D01*
X113216657Y-79826433D01*
X113355483Y-80017510D01*
X113522490Y-80184517D01*
X113713567Y-80323343D01*
X113802038Y-80368421D01*
X113924003Y-80430566D01*
X113924005Y-80430566D01*
X113924008Y-80430568D01*
X113994047Y-80453325D01*
X114148631Y-80503553D01*
X114381903Y-80540500D01*
X114381908Y-80540500D01*
X121118097Y-80540500D01*
X121351368Y-80503553D01*
X121363842Y-80499500D01*
X121575992Y-80430568D01*
X121786433Y-80323343D01*
X121977510Y-80184517D01*
X122144517Y-80017510D01*
X122283343Y-79826433D01*
X122390568Y-79615992D01*
X122463553Y-79391368D01*
X122469517Y-79353713D01*
X122500500Y-79158097D01*
X122500500Y-78921902D01*
X122463553Y-78688631D01*
X122390566Y-78464003D01*
X122334002Y-78352991D01*
X122283343Y-78253567D01*
X122144517Y-78062490D01*
X122119419Y-78037392D01*
X122085934Y-77976069D01*
X122090918Y-77906377D01*
X122132790Y-77850444D01*
X122137461Y-77847442D01*
X122184109Y-77812520D01*
X122257546Y-77757546D01*
X122343796Y-77642331D01*
X122394091Y-77507483D01*
X122400500Y-77447873D01*
X122400499Y-77065064D01*
X122406568Y-77026747D01*
X122408598Y-77020496D01*
X122463553Y-76851368D01*
X122479973Y-76747689D01*
X122500500Y-76618097D01*
X122500500Y-76381902D01*
X122463553Y-76148635D01*
X122463553Y-76148634D01*
X122463553Y-76148632D01*
X122406568Y-75973251D01*
X122400499Y-75934933D01*
X122400499Y-75552129D01*
X122400498Y-75552123D01*
X122394091Y-75492516D01*
X122343797Y-75357671D01*
X122343793Y-75357664D01*
X122257547Y-75242455D01*
X122257544Y-75242452D01*
X122142335Y-75156206D01*
X122142328Y-75156202D01*
X122007482Y-75105908D01*
X122007483Y-75105908D01*
X121947883Y-75099501D01*
X121947881Y-75099500D01*
X121947873Y-75099500D01*
X121947865Y-75099500D01*
X121565065Y-75099500D01*
X121526747Y-75093431D01*
X121351370Y-75036447D01*
X121118097Y-74999500D01*
X121118092Y-74999500D01*
X116124500Y-74999500D01*
X116057461Y-74979815D01*
X116011706Y-74927011D01*
X116000500Y-74875500D01*
X116000500Y-74381902D01*
X115963553Y-74148631D01*
X115929689Y-74044412D01*
X115890568Y-73924008D01*
X115890566Y-73924005D01*
X115890566Y-73924003D01*
X115783342Y-73713565D01*
X115644517Y-73522490D01*
X113959708Y-71837681D01*
X113926223Y-71776358D01*
X113931207Y-71706666D01*
X113959708Y-71662319D01*
X115085208Y-70536819D01*
X115146531Y-70503334D01*
X115172889Y-70500500D01*
X123618097Y-70500500D01*
X123851368Y-70463553D01*
X124075992Y-70390568D01*
X124286434Y-70283343D01*
X124477510Y-70144517D01*
X126835209Y-67786818D01*
X126896532Y-67753333D01*
X126922890Y-67750499D01*
X127550002Y-67750499D01*
X127550008Y-67750499D01*
X127652797Y-67739999D01*
X127819334Y-67684814D01*
X127968656Y-67592712D01*
X128092712Y-67468656D01*
X128184814Y-67319334D01*
X128239999Y-67152797D01*
X128250500Y-67050009D01*
X128250499Y-64949992D01*
X128239999Y-64847203D01*
X128184814Y-64680666D01*
X128092712Y-64531344D01*
X127968656Y-64407288D01*
X127867588Y-64344949D01*
X127819336Y-64315187D01*
X127819331Y-64315185D01*
X127816280Y-64314174D01*
X127652797Y-64260001D01*
X127652795Y-64260000D01*
X127550010Y-64249500D01*
X125449998Y-64249500D01*
X125449981Y-64249501D01*
X125347203Y-64260000D01*
X125347200Y-64260001D01*
X125180668Y-64315185D01*
X125180663Y-64315187D01*
X125031342Y-64407289D01*
X124907289Y-64531342D01*
X124815187Y-64680663D01*
X124815185Y-64680668D01*
X124813638Y-64685337D01*
X124760001Y-64847203D01*
X124760001Y-64847204D01*
X124760000Y-64847204D01*
X124749500Y-64949983D01*
X124749500Y-65577109D01*
X124729815Y-65644148D01*
X124713181Y-65664790D01*
X122914792Y-67463181D01*
X122853469Y-67496666D01*
X122827111Y-67499500D01*
X122594043Y-67499500D01*
X122527004Y-67479815D01*
X122481249Y-67427011D01*
X122478504Y-67412057D01*
X121667488Y-66601041D01*
X121727890Y-66576022D01*
X121834351Y-66504888D01*
X121924888Y-66414351D01*
X121996022Y-66307890D01*
X122021041Y-66247488D01*
X122821617Y-67048064D01*
X122878192Y-66974334D01*
X122878203Y-66974319D01*
X122992893Y-66775668D01*
X122992897Y-66775659D01*
X123080681Y-66563730D01*
X123140057Y-66342137D01*
X123169998Y-66114710D01*
X123170000Y-66114694D01*
X123170000Y-65885305D01*
X123169998Y-65885289D01*
X123140057Y-65657862D01*
X123080681Y-65436269D01*
X122992897Y-65224340D01*
X122992893Y-65224330D01*
X122878194Y-65025666D01*
X122821618Y-64951934D01*
X122821617Y-64951934D01*
X122021041Y-65752510D01*
X121996022Y-65692110D01*
X121924888Y-65585649D01*
X121834351Y-65495112D01*
X121727890Y-65423978D01*
X121667487Y-65398957D01*
X122468064Y-64598381D01*
X122468064Y-64598380D01*
X122394331Y-64541805D01*
X122394324Y-64541799D01*
X122195669Y-64427106D01*
X122195659Y-64427102D01*
X121983730Y-64339318D01*
X121762137Y-64279942D01*
X121534710Y-64250001D01*
X121534694Y-64250000D01*
X121305306Y-64250000D01*
X121305289Y-64250001D01*
X121077862Y-64279942D01*
X120856269Y-64339318D01*
X120644340Y-64427102D01*
X120644330Y-64427106D01*
X120445673Y-64541801D01*
X120445659Y-64541810D01*
X120371934Y-64598380D01*
X121172511Y-65398958D01*
X121112110Y-65423978D01*
X121005649Y-65495112D01*
X120915112Y-65585649D01*
X120843978Y-65692110D01*
X120818958Y-65752511D01*
X120018380Y-64951934D01*
X119961810Y-65025659D01*
X119961801Y-65025673D01*
X119847106Y-65224330D01*
X119847102Y-65224340D01*
X119759318Y-65436269D01*
X119699942Y-65657862D01*
X119670001Y-65885289D01*
X119670000Y-65885305D01*
X119670000Y-66114694D01*
X119670001Y-66114710D01*
X119699942Y-66342137D01*
X119759318Y-66563730D01*
X119847102Y-66775659D01*
X119847106Y-66775669D01*
X119961799Y-66974324D01*
X119961805Y-66974331D01*
X120018381Y-67048064D01*
X120818958Y-66247487D01*
X120843978Y-66307890D01*
X120915112Y-66414351D01*
X121005649Y-66504888D01*
X121112110Y-66576022D01*
X121172511Y-66601041D01*
X120359175Y-67414376D01*
X120354432Y-67435574D01*
X120304734Y-67484684D01*
X120245956Y-67499500D01*
X114381903Y-67499500D01*
X114148631Y-67536446D01*
X114009570Y-67581630D01*
X113975467Y-67592712D01*
X113975466Y-67592712D01*
X113924012Y-67609429D01*
X113713565Y-67716657D01*
X113522488Y-67855484D01*
X112562180Y-68815792D01*
X112542743Y-68826404D01*
X112526010Y-68840905D01*
X112512678Y-68842821D01*
X112500857Y-68849277D01*
X112478770Y-68847697D01*
X112456852Y-68850849D01*
X112444600Y-68845253D01*
X112431165Y-68844293D01*
X112413438Y-68831022D01*
X112393296Y-68821824D01*
X112386013Y-68810492D01*
X112375232Y-68802421D01*
X112367494Y-68781675D01*
X112355522Y-68763046D01*
X112352370Y-68741127D01*
X112350815Y-68736957D01*
X112350499Y-68728111D01*
X112350499Y-68724399D01*
X112364014Y-68668105D01*
X112390568Y-68615992D01*
X112463553Y-68391368D01*
X112469888Y-68351368D01*
X112500500Y-68158097D01*
X112500500Y-67921902D01*
X112463553Y-67688631D01*
X112414105Y-67536447D01*
X112390568Y-67464008D01*
X112390566Y-67464005D01*
X112390565Y-67464000D01*
X112364014Y-67411891D01*
X112350499Y-67355597D01*
X112350499Y-67142129D01*
X112350498Y-67142123D01*
X112344091Y-67082516D01*
X112293797Y-66947671D01*
X112293793Y-66947664D01*
X112207547Y-66832455D01*
X112207544Y-66832452D01*
X112092335Y-66746206D01*
X112092328Y-66746202D01*
X111960917Y-66697189D01*
X111904983Y-66655318D01*
X111880566Y-66589853D01*
X111895418Y-66521580D01*
X111916563Y-66493332D01*
X112030104Y-66379792D01*
X112057115Y-66342615D01*
X112155048Y-66207820D01*
X112155049Y-66207819D01*
X112155051Y-66207816D01*
X112251557Y-66018412D01*
X112317246Y-65816243D01*
X112350500Y-65606287D01*
X112350500Y-65393713D01*
X112317246Y-65183757D01*
X112251557Y-64981588D01*
X112155051Y-64792184D01*
X112149501Y-64784546D01*
X112102040Y-64719219D01*
X112030109Y-64620213D01*
X111879790Y-64469894D01*
X111879785Y-64469890D01*
X111815277Y-64423022D01*
X111772611Y-64367692D01*
X111766632Y-64298079D01*
X111799238Y-64236284D01*
X111815273Y-64222389D01*
X111977510Y-64104517D01*
X112144517Y-63937510D01*
X112283343Y-63746433D01*
X112390568Y-63535992D01*
X112463553Y-63311368D01*
X112500500Y-63078097D01*
X112500500Y-62841902D01*
X112463553Y-62608631D01*
X112390566Y-62384003D01*
X112283342Y-62173566D01*
X112144517Y-61982490D01*
X111977510Y-61815483D01*
X111786433Y-61676657D01*
X111575996Y-61569433D01*
X111351368Y-61496446D01*
X111118097Y-61459500D01*
X111118092Y-61459500D01*
X105921908Y-61459500D01*
X105921903Y-61459500D01*
X105688630Y-61496447D01*
X105536993Y-61545716D01*
X105536992Y-61545717D01*
X105464007Y-61569432D01*
X105464001Y-61569434D01*
X105253565Y-61676657D01*
X105062488Y-61815484D01*
X105062487Y-61815485D01*
X103164790Y-63713181D01*
X103103467Y-63746666D01*
X103077109Y-63749500D01*
X102449998Y-63749500D01*
X102449980Y-63749501D01*
X102347203Y-63760000D01*
X102347200Y-63760001D01*
X102180668Y-63815185D01*
X102180663Y-63815187D01*
X102031342Y-63907289D01*
X101907289Y-64031342D01*
X101815187Y-64180663D01*
X101815186Y-64180666D01*
X101760001Y-64347203D01*
X101760001Y-64347204D01*
X101760000Y-64347204D01*
X101749500Y-64449983D01*
X101749500Y-66550001D01*
X101749501Y-66550018D01*
X101760000Y-66652796D01*
X101760001Y-66652799D01*
X101800716Y-66775668D01*
X101815186Y-66819334D01*
X101907288Y-66968656D01*
X102031344Y-67092712D01*
X102180666Y-67184814D01*
X102347203Y-67239999D01*
X102449991Y-67250500D01*
X104550008Y-67250499D01*
X104652797Y-67239999D01*
X104819334Y-67184814D01*
X104968656Y-67092712D01*
X105092712Y-66968656D01*
X105184814Y-66819334D01*
X105239999Y-66652797D01*
X105250500Y-66550009D01*
X105250499Y-65922887D01*
X105270183Y-65855849D01*
X105286813Y-65835212D01*
X106625208Y-64496819D01*
X106686531Y-64463334D01*
X106712889Y-64460500D01*
X109842567Y-64460500D01*
X109909606Y-64480185D01*
X109955361Y-64532989D01*
X109965305Y-64602147D01*
X109942885Y-64657385D01*
X109844951Y-64792180D01*
X109748444Y-64981585D01*
X109682753Y-65183760D01*
X109652467Y-65374979D01*
X109649500Y-65393713D01*
X109649500Y-65606287D01*
X109682754Y-65816243D01*
X109748443Y-66018412D01*
X109835666Y-66189598D01*
X109844951Y-66207819D01*
X109942885Y-66342615D01*
X109966365Y-66408421D01*
X109950539Y-66476475D01*
X109900433Y-66525170D01*
X109842567Y-66539500D01*
X109341903Y-66539500D01*
X109108634Y-66576446D01*
X108884005Y-66649433D01*
X108673565Y-66756657D01*
X108482488Y-66895484D01*
X108482487Y-66895485D01*
X105914792Y-69463181D01*
X105853469Y-69496666D01*
X105827111Y-69499500D01*
X103381903Y-69499500D01*
X103148631Y-69536446D01*
X102924003Y-69609433D01*
X102713563Y-69716659D01*
X102522496Y-69855476D01*
X102522491Y-69855480D01*
X101355485Y-71022487D01*
X101355484Y-71022488D01*
X101216657Y-71213565D01*
X101146444Y-71351368D01*
X101109433Y-71424003D01*
X101036446Y-71648631D01*
X100999500Y-71881902D01*
X100999500Y-74375500D01*
X100979815Y-74442539D01*
X100927011Y-74488294D01*
X100875500Y-74499500D01*
X98080901Y-74499500D01*
X98042583Y-74493431D01*
X97874782Y-74438909D01*
X97683642Y-74408635D01*
X97625962Y-74399500D01*
X97374038Y-74399500D01*
X97249626Y-74419205D01*
X97125214Y-74438910D01*
X96885616Y-74516760D01*
X96661151Y-74631132D01*
X96457350Y-74779201D01*
X96457345Y-74779205D01*
X96279205Y-74957345D01*
X96279201Y-74957350D01*
X96131132Y-75161151D01*
X96016760Y-75385616D01*
X95938910Y-75625214D01*
X95899500Y-75874038D01*
X95899500Y-76125961D01*
X95938910Y-76374785D01*
X96016760Y-76614383D01*
X96131132Y-76838848D01*
X96279201Y-77042649D01*
X96279205Y-77042654D01*
X96457345Y-77220794D01*
X96457350Y-77220798D01*
X96635117Y-77349952D01*
X96661155Y-77368870D01*
X96804184Y-77441747D01*
X96885616Y-77483239D01*
X96885618Y-77483239D01*
X96885621Y-77483241D01*
X97125215Y-77561090D01*
X97374038Y-77600500D01*
X97374039Y-77600500D01*
X97625961Y-77600500D01*
X97625962Y-77600500D01*
X97874785Y-77561090D01*
X98023863Y-77512651D01*
X98042583Y-77506569D01*
X98080901Y-77500500D01*
X101919099Y-77500500D01*
X101957417Y-77506569D01*
X101984012Y-77515210D01*
X102125215Y-77561090D01*
X102374038Y-77600500D01*
X102374039Y-77600500D01*
X102625961Y-77600500D01*
X102625962Y-77600500D01*
X102874785Y-77561090D01*
X103114379Y-77483241D01*
X103338845Y-77368870D01*
X103542656Y-77220793D01*
X103720793Y-77042656D01*
X103868870Y-76838845D01*
X103983241Y-76614379D01*
X104061090Y-76374785D01*
X104100500Y-76125962D01*
X104100500Y-75874038D01*
X104061090Y-75625215D01*
X104061089Y-75625211D01*
X104061089Y-75625210D01*
X104006569Y-75457416D01*
X104000500Y-75419098D01*
X104000500Y-72672890D01*
X104009144Y-72643452D01*
X104015668Y-72613462D01*
X104019422Y-72608446D01*
X104020185Y-72605851D01*
X104036820Y-72585208D01*
X104085211Y-72536818D01*
X104146534Y-72503334D01*
X104172891Y-72500500D01*
X106618097Y-72500500D01*
X106851368Y-72463553D01*
X107075992Y-72390568D01*
X107286434Y-72283343D01*
X107477510Y-72144517D01*
X110045208Y-69576819D01*
X110106531Y-69543334D01*
X110132889Y-69540500D01*
X111118097Y-69540500D01*
X111351368Y-69503553D01*
X111363842Y-69499500D01*
X111575992Y-69430568D01*
X111628107Y-69404014D01*
X111641109Y-69400892D01*
X111649466Y-69395522D01*
X111684401Y-69390499D01*
X111688111Y-69390499D01*
X111755150Y-69410184D01*
X111800905Y-69462988D01*
X111810849Y-69532146D01*
X111781824Y-69595702D01*
X111775792Y-69602180D01*
X110772490Y-70605483D01*
X107855485Y-73522487D01*
X107855484Y-73522488D01*
X107716657Y-73713565D01*
X107609433Y-73924003D01*
X107536446Y-74148631D01*
X107499500Y-74381902D01*
X107499500Y-77038097D01*
X107536446Y-77271368D01*
X107609433Y-77495996D01*
X107662681Y-77600500D01*
X107716657Y-77706433D01*
X107855483Y-77897510D01*
X108022490Y-78064517D01*
X108184723Y-78182387D01*
X108227388Y-78237716D01*
X108233367Y-78307329D01*
X108200761Y-78369124D01*
X108184723Y-78383022D01*
X108120209Y-78429894D01*
X107969890Y-78580213D01*
X107844951Y-78752179D01*
X107748444Y-78941585D01*
X107682753Y-79143760D01*
X107649500Y-79353713D01*
X107649500Y-79566286D01*
X107682753Y-79776239D01*
X107748444Y-79978414D01*
X107844951Y-80167819D01*
X107942885Y-80302615D01*
X107966365Y-80368421D01*
X107950539Y-80436475D01*
X107900433Y-80485170D01*
X107842567Y-80499500D01*
X105881903Y-80499500D01*
X105648630Y-80536447D01*
X105496993Y-80585716D01*
X105496992Y-80585717D01*
X105424007Y-80609432D01*
X105424001Y-80609434D01*
X105213565Y-80716657D01*
X105022488Y-80855484D01*
X101355484Y-84522488D01*
X101216657Y-84713565D01*
X101109433Y-84924003D01*
X101036446Y-85148631D01*
X100999500Y-85381902D01*
X100999500Y-92175500D01*
X100979815Y-92242539D01*
X100927011Y-92288294D01*
X100875500Y-92299500D01*
X98531285Y-92299500D01*
X98472831Y-92284858D01*
X98453956Y-92274769D01*
X98453955Y-92274768D01*
X98453954Y-92274768D01*
X98255934Y-92214700D01*
X98255932Y-92214699D01*
X98255934Y-92214699D01*
X98136805Y-92202966D01*
X98101608Y-92199500D01*
X96898392Y-92199500D01*
X96860298Y-92203251D01*
X96744067Y-92214699D01*
X96546043Y-92274769D01*
X96435898Y-92333643D01*
X96363550Y-92372315D01*
X96363548Y-92372316D01*
X96363547Y-92372317D01*
X96203589Y-92503589D01*
X96072317Y-92663547D01*
X95974769Y-92846043D01*
X95914699Y-93044067D01*
X95899500Y-93198395D01*
X95899500Y-94401604D01*
X95914699Y-94555932D01*
X95974768Y-94753954D01*
X95984858Y-94772830D01*
X95999500Y-94831284D01*
X95999500Y-102215277D01*
X95979815Y-102282316D01*
X95949812Y-102314543D01*
X95872452Y-102372455D01*
X95786206Y-102487664D01*
X95786202Y-102487671D01*
X95735908Y-102622517D01*
X95729501Y-102682116D01*
X95729501Y-102682123D01*
X95729500Y-102682135D01*
X91000500Y-102682135D01*
X91000500Y-65385305D01*
X96670000Y-65385305D01*
X96670000Y-65614694D01*
X96670001Y-65614710D01*
X96699942Y-65842137D01*
X96759318Y-66063730D01*
X96847102Y-66275659D01*
X96847106Y-66275669D01*
X96961799Y-66474324D01*
X96961805Y-66474331D01*
X97018381Y-66548064D01*
X97818958Y-65747487D01*
X97843978Y-65807890D01*
X97915112Y-65914351D01*
X98005649Y-66004888D01*
X98112110Y-66076022D01*
X98172511Y-66101041D01*
X97371934Y-66901617D01*
X97371934Y-66901618D01*
X97445666Y-66958194D01*
X97644330Y-67072893D01*
X97644340Y-67072897D01*
X97856269Y-67160681D01*
X98077862Y-67220057D01*
X98305289Y-67249998D01*
X98305306Y-67250000D01*
X98534694Y-67250000D01*
X98534710Y-67249998D01*
X98762137Y-67220057D01*
X98983730Y-67160681D01*
X99195659Y-67072897D01*
X99195668Y-67072893D01*
X99394327Y-66958197D01*
X99394334Y-66958192D01*
X99468064Y-66901617D01*
X98667488Y-66101041D01*
X98727890Y-66076022D01*
X98834351Y-66004888D01*
X98924888Y-65914351D01*
X98996022Y-65807890D01*
X99021041Y-65747488D01*
X99821617Y-66548064D01*
X99878192Y-66474334D01*
X99878197Y-66474327D01*
X99992893Y-66275668D01*
X99992897Y-66275659D01*
X100080681Y-66063730D01*
X100140057Y-65842137D01*
X100169998Y-65614710D01*
X100170000Y-65614694D01*
X100170000Y-65385305D01*
X100169998Y-65385289D01*
X100140057Y-65157862D01*
X100080681Y-64936269D01*
X99992897Y-64724340D01*
X99992893Y-64724330D01*
X99878194Y-64525666D01*
X99821618Y-64451934D01*
X99821617Y-64451934D01*
X99021041Y-65252510D01*
X98996022Y-65192110D01*
X98924888Y-65085649D01*
X98834351Y-64995112D01*
X98727890Y-64923978D01*
X98667487Y-64898957D01*
X99468064Y-64098381D01*
X99468064Y-64098380D01*
X99394331Y-64041805D01*
X99394324Y-64041799D01*
X99195669Y-63927106D01*
X99195659Y-63927102D01*
X98983730Y-63839318D01*
X98762137Y-63779942D01*
X98534710Y-63750001D01*
X98534694Y-63750000D01*
X98305306Y-63750000D01*
X98305289Y-63750001D01*
X98077862Y-63779942D01*
X97856269Y-63839318D01*
X97644340Y-63927102D01*
X97644330Y-63927106D01*
X97445673Y-64041801D01*
X97445659Y-64041810D01*
X97371934Y-64098380D01*
X98172511Y-64898958D01*
X98112110Y-64923978D01*
X98005649Y-64995112D01*
X97915112Y-65085649D01*
X97843978Y-65192110D01*
X97818958Y-65252511D01*
X97018380Y-64451934D01*
X96961810Y-64525659D01*
X96961801Y-64525673D01*
X96847106Y-64724330D01*
X96847102Y-64724340D01*
X96759318Y-64936269D01*
X96699942Y-65157862D01*
X96670001Y-65385289D01*
X96670000Y-65385305D01*
X91000500Y-65385305D01*
X91000500Y-57124500D01*
X91020185Y-57057461D01*
X91072989Y-57011706D01*
X91124500Y-57000500D01*
X157375500Y-57000500D01*
X157442539Y-57020185D01*
G37*
%TD.AperFunction*%
%TD*%
M02*
