M48
; DRILL file KiCad 10.0.1 date 2026-06-02T20:11:43
; FORMAT={-:-/ absolute / metric / decimal}
; #@! TF.CreationDate,2026-06-02T20:11:43+05:30
; #@! TF.GenerationSoftware,Kicad,Pcbnew,10.0.1
; #@! TF.FileFunction,Plated,1,2,PTH
FMAT,2
METRIC
; #@! TA.AperFunction,Plated,PTH,ComponentDrill
T1C0.700
; #@! TA.AperFunction,Plated,PTH,ComponentDrill
T2C0.900
; #@! TA.AperFunction,Plated,PTH,ComponentDrill
T3C1.000
; #@! TA.AperFunction,Plated,PTH,ComponentDrill
T4C1.170
; #@! TA.AperFunction,Plated,PTH,ComponentDrill
T5C1.300
%
G90
G05
T1
X114.5Y-76.5
X114.5Y-79.04
X119.5Y-97.5
X119.5Y-100.04
X144.78Y-106.0
X147.32Y-106.0
T2
X121.0Y-76.5
X121.0Y-79.04
X126.0Y-96.5
X126.0Y-99.04
X144.96Y-111.5
X147.5Y-111.5
T3
X97.5Y-104.0
X97.5Y-121.78
X106.88Y-91.5
X109.0Y-76.92
X109.0Y-79.46
X109.0Y-82.0
X109.42Y-91.5
X109.92Y-97.5
X111.0Y-62.96
X111.0Y-65.5
X111.0Y-68.04
X111.96Y-91.5
X112.46Y-97.5
X114.5Y-91.5
X115.0Y-97.5
X117.04Y-91.5
X137.5Y-83.84
X137.5Y-86.38
X137.5Y-88.92
X137.5Y-91.46
X137.5Y-94.0
X138.14Y-104.0
X138.14Y-121.78
X144.96Y-101.0
X147.5Y-101.0
X150.04Y-101.0
X152.0Y-105.34
X152.0Y-107.88
X152.0Y-110.42
X152.0Y-112.96
X152.0Y-115.5
T4
X97.5Y-76.0
X97.5Y-93.8
X102.5Y-76.0
X102.5Y-93.8
T5
X98.42Y-65.5
X103.5Y-65.5
X121.42Y-66.0
X126.5Y-66.0
X134.92Y-66.0
X140.0Y-66.0
X145.5Y-122.5
X150.58Y-122.5
M30
