%TF.GenerationSoftware,KiCad,Pcbnew,10.0.1*%
%TF.CreationDate,2026-06-02T20:11:38+05:30*%
%TF.ProjectId,power,706f7765-722e-46b6-9963-61645f706362,rev?*%
%TF.SameCoordinates,Original*%
%TF.FileFunction,Copper,L2,Bot*%
%TF.FilePolarity,Positive*%
%FSLAX46Y46*%
G04 Gerber Fmt 4.6, Leading zero omitted, Abs format (unit mm)*
G04 Created by KiCad (PCBNEW 10.0.1) date 2026-06-02 20:11:38*
%MOMM*%
%LPD*%
G01*
G04 APERTURE LIST*
G04 Aperture macros list*
%AMRoundRect*
0 Rectangle with rounded corners*
0 $1 Rounding radius*
0 $2 $3 $4 $5 $6 $7 $8 $9 X,Y pos of 4 corners*
0 Add a 4 corners polygon primitive as box body*
4,1,4,$2,$3,$4,$5,$6,$7,$8,$9,$2,$3,0*
0 Add four circle primitives for the rounded corners*
1,1,$1+$1,$2,$3*
1,1,$1+$1,$4,$5*
1,1,$1+$1,$6,$7*
1,1,$1+$1,$8,$9*
0 Add four rect primitives between the rounded corners*
20,1,$1+$1,$2,$3,$4,$5,0*
20,1,$1+$1,$4,$5,$6,$7,0*
20,1,$1+$1,$6,$7,$8,$9,0*
20,1,$1+$1,$8,$9,$2,$3,0*%
G04 Aperture macros list end*
%TA.AperFunction,ComponentPad*%
%ADD10C,1.400000*%
%TD*%
%TA.AperFunction,ComponentPad*%
%ADD11RoundRect,0.250000X1.000000X1.000000X-1.000000X1.000000X-1.000000X-1.000000X1.000000X-1.000000X0*%
%TD*%
%TA.AperFunction,ComponentPad*%
%ADD12C,2.500000*%
%TD*%
%TA.AperFunction,ComponentPad*%
%ADD13R,1.700000X1.700000*%
%TD*%
%TA.AperFunction,ComponentPad*%
%ADD14C,1.700000*%
%TD*%
%TA.AperFunction,ComponentPad*%
%ADD15RoundRect,0.250000X-1.000000X-1.000000X1.000000X-1.000000X1.000000X1.000000X-1.000000X1.000000X0*%
%TD*%
%TA.AperFunction,ComponentPad*%
%ADD16R,2.540000X2.540000*%
%TD*%
%TA.AperFunction,ComponentPad*%
%ADD17C,2.540000*%
%TD*%
%TA.AperFunction,ComponentPad*%
%ADD18R,1.800000X1.800000*%
%TD*%
%TA.AperFunction,ComponentPad*%
%ADD19C,1.800000*%
%TD*%
%TA.AperFunction,ComponentPad*%
%ADD20RoundRect,0.550000X0.550000X-0.550000X0.550000X0.550000X-0.550000X0.550000X-0.550000X-0.550000X0*%
%TD*%
%TA.AperFunction,ComponentPad*%
%ADD21C,2.200000*%
%TD*%
G04 APERTURE END LIST*
D10*
%TO.P,R5,1*%
%TO.N,/5V-SW*%
X144780000Y-106000000D03*
%TO.P,R5,2*%
%TO.N,Net-(D3-A)*%
X147320000Y-106000000D03*
%TD*%
D11*
%TO.P,J1,1,Pin_1_1*%
%TO.N,Net-(J1-Pin_1)*%
X103500000Y-65500000D03*
D12*
%TO.P,J1,2,Pin_2_2*%
%TO.N,GND*%
X98420000Y-65500000D03*
%TD*%
D10*
%TO.P,R3,1*%
%TO.N,12V-SW-1*%
X119500000Y-97500000D03*
%TO.P,R3,2*%
%TO.N,Net-(D2-A)*%
X119500000Y-100040000D03*
%TD*%
D11*
%TO.P,J3,1,Pin_1_1*%
%TO.N,/12V-SW*%
X126500000Y-66000000D03*
D12*
%TO.P,J3,2,Pin_2_2*%
%TO.N,GND*%
X121420000Y-66000000D03*
%TD*%
D11*
%TO.P,J7,1,Pin_1_1*%
%TO.N,12V-SW-1*%
X140000000Y-66000000D03*
D12*
%TO.P,J7,2,Pin_2_2*%
%TO.N,GND*%
X134920000Y-66000000D03*
%TD*%
D13*
%TO.P,J4,1,Pin_1_1*%
%TO.N,12V-SW-1*%
X117040000Y-91500000D03*
D14*
%TO.P,J4,2,Pin_2_2*%
X114500000Y-91500000D03*
%TO.P,J4,3,Pin_3_3*%
X111960000Y-91500000D03*
%TO.P,J4,4,Pin_4_4*%
X109420000Y-91500000D03*
%TO.P,J4,5,Pin_5_5*%
X106880000Y-91500000D03*
%TD*%
D13*
%TO.P,SW6,1,B_1*%
%TO.N,+12V*%
X109000000Y-82000000D03*
D14*
%TO.P,SW6,2,C_2*%
%TO.N,unconnected-(SW6-C-Pad2)*%
X109000000Y-79460000D03*
%TO.P,SW6,3,A_3*%
%TO.N,/12V-SW*%
X109000000Y-76920000D03*
%TD*%
D15*
%TO.P,J2,1,Pin_1_1*%
%TO.N,/5V-SW*%
X145500000Y-122500000D03*
D12*
%TO.P,J2,2,Pin_2_2*%
%TO.N,GND*%
X150580000Y-122500000D03*
%TD*%
D16*
%TO.P,U1,1,Vin_1*%
%TO.N,+12V*%
X97500000Y-104000000D03*
D17*
%TO.P,U1,2,GND_2*%
%TO.N,GND*%
X97500000Y-121780000D03*
%TO.P,U1,3,GND_3*%
X138140000Y-121780000D03*
%TO.P,U1,4,Vout_4*%
%TO.N,/5V*%
X138140000Y-104000000D03*
%TD*%
D13*
%TO.P,SW5,1,B_1*%
%TO.N,/5V-SW*%
X144960000Y-101000000D03*
D14*
%TO.P,SW5,2,C_2*%
%TO.N,unconnected-(SW5-C-Pad2)*%
X147500000Y-101000000D03*
%TO.P,SW5,3,A_3*%
%TO.N,/5V*%
X150040000Y-101000000D03*
%TD*%
D18*
%TO.P,D2,1,K_1*%
%TO.N,12V-SW-1*%
X126000000Y-96500000D03*
D19*
%TO.P,D2,2,A_2*%
%TO.N,Net-(D2-A)*%
X126000000Y-99040000D03*
%TD*%
D18*
%TO.P,D1,1,K_1*%
%TO.N,/12V-SW*%
X121000000Y-76500000D03*
D19*
%TO.P,D1,2,A_2*%
%TO.N,Net-(D1-A)*%
X121000000Y-79040000D03*
%TD*%
D20*
%TO.P,F1,1*%
%TO.N,+12V*%
X97500000Y-93800000D03*
X102500000Y-93800000D03*
D21*
%TO.P,F1,2*%
%TO.N,Net-(SW4-B)*%
X97500000Y-76000000D03*
X102500000Y-76000000D03*
%TD*%
D13*
%TO.P,J5,1,Pin_1_1*%
%TO.N,GND*%
X137500000Y-94000000D03*
D14*
%TO.P,J5,2,Pin_2_2*%
X137500000Y-91460000D03*
%TO.P,J5,3,Pin_3_3*%
X137500000Y-88920000D03*
%TO.P,J5,4,Pin_4_4*%
X137500000Y-86380000D03*
%TO.P,J5,5,Pin_5_5*%
X137500000Y-83840000D03*
%TD*%
D13*
%TO.P,SW7,1,B_1*%
%TO.N,12V-SW-1*%
X115000000Y-97500000D03*
D14*
%TO.P,SW7,2,C_2*%
%TO.N,unconnected-(SW7-C-Pad2)*%
X112460000Y-97500000D03*
%TO.P,SW7,3,A_3*%
%TO.N,+12V*%
X109920000Y-97500000D03*
%TD*%
D13*
%TO.P,J6,1,Pin_1_1*%
%TO.N,/5V-SW*%
X152000000Y-115500000D03*
D14*
%TO.P,J6,2,Pin_2_2*%
X152000000Y-112960000D03*
%TO.P,J6,3,Pin_3_3*%
X152000000Y-110420000D03*
%TO.P,J6,4,Pin_4_4*%
X152000000Y-107880000D03*
%TO.P,J6,5,Pin_5_5*%
X152000000Y-105340000D03*
%TD*%
D18*
%TO.P,D3,1,K_1*%
%TO.N,/5V-SW*%
X144960000Y-111500000D03*
D19*
%TO.P,D3,2,A_2*%
%TO.N,Net-(D3-A)*%
X147500000Y-111500000D03*
%TD*%
D10*
%TO.P,R1,1*%
%TO.N,/12V-SW*%
X114500000Y-76500000D03*
%TO.P,R1,2*%
%TO.N,Net-(D1-A)*%
X114500000Y-79040000D03*
%TD*%
D13*
%TO.P,SW4,1,B_1*%
%TO.N,Net-(SW4-B)*%
X111000000Y-68040000D03*
D14*
%TO.P,SW4,2,C_2*%
%TO.N,unconnected-(SW4-C-Pad2)*%
X111000000Y-65500000D03*
%TO.P,SW4,3,A_3*%
%TO.N,Net-(J1-Pin_1)*%
X111000000Y-62960000D03*
%TD*%
M02*
