%TF.GenerationSoftware,KiCad,Pcbnew,10.0.1*%
%TF.CreationDate,2026-05-05T21:47:33+05:30*%
%TF.ProjectId,solenoid,736f6c65-6e6f-4696-942e-6b696361645f,rev?*%
%TF.SameCoordinates,Original*%
%TF.FileFunction,Copper,L2,Bot*%
%TF.FilePolarity,Positive*%
%FSLAX46Y46*%
G04 Gerber Fmt 4.6, Leading zero omitted, Abs format (unit mm)*
G04 Created by KiCad (PCBNEW 10.0.1) date 2026-05-05 21:47:33*
%MOMM*%
%LPD*%
G01*
G04 APERTURE LIST*
G04 Aperture macros list*
%AMRoundRect*
0 Rectangle with rounded corners*
0 $1 Rounding radius*
0 $2 $3 $4 $5 $6 $7 $8 $9 X,Y pos of 4 corners*
0 Add a 4 corners polygon primitive as box body*
4,1,4,$2,$3,$4,$5,$6,$7,$8,$9,$2,$3,0*
0 Add four circle primitives for the rounded corners*
1,1,$1+$1,$2,$3*
1,1,$1+$1,$4,$5*
1,1,$1+$1,$6,$7*
1,1,$1+$1,$8,$9*
0 Add four rect primitives between the rounded corners*
20,1,$1+$1,$2,$3,$4,$5,0*
20,1,$1+$1,$4,$5,$6,$7,0*
20,1,$1+$1,$6,$7,$8,$9,0*
20,1,$1+$1,$8,$9,$2,$3,0*%
G04 Aperture macros list end*
%TA.AperFunction,ComponentPad*%
%ADD10RoundRect,0.250001X-0.949999X0.949999X-0.949999X-0.949999X0.949999X-0.949999X0.949999X0.949999X0*%
%TD*%
%TA.AperFunction,ComponentPad*%
%ADD11C,2.400000*%
%TD*%
%TA.AperFunction,ComponentPad*%
%ADD12C,1.700000*%
%TD*%
%TA.AperFunction,ComponentPad*%
%ADD13R,1.700000X1.700000*%
%TD*%
%TA.AperFunction,ComponentPad*%
%ADD14C,2.000000*%
%TD*%
%TA.AperFunction,ComponentPad*%
%ADD15R,2.000000X2.000000*%
%TD*%
%TA.AperFunction,ComponentPad*%
%ADD16RoundRect,0.250001X0.949999X-0.949999X0.949999X0.949999X-0.949999X0.949999X-0.949999X-0.949999X0*%
%TD*%
%TA.AperFunction,ComponentPad*%
%ADD17RoundRect,0.250000X-0.750000X-0.750000X0.750000X-0.750000X0.750000X0.750000X-0.750000X0.750000X0*%
%TD*%
%TA.AperFunction,ComponentPad*%
%ADD18RoundRect,0.250000X0.750000X0.750000X-0.750000X0.750000X-0.750000X-0.750000X0.750000X-0.750000X0*%
%TD*%
%TA.AperFunction,ComponentPad*%
%ADD19RoundRect,0.250001X0.949999X0.949999X-0.949999X0.949999X-0.949999X-0.949999X0.949999X-0.949999X0*%
%TD*%
%TA.AperFunction,ViaPad*%
%ADD20C,0.600000*%
%TD*%
%TA.AperFunction,Conductor*%
%ADD21C,1.000000*%
%TD*%
%TA.AperFunction,Conductor*%
%ADD22C,0.300000*%
%TD*%
G04 APERTURE END LIST*
D10*
%TO.P,J19,1,Pin_1_1*%
%TO.N,+12V*%
X160500000Y-114500000D03*
D11*
%TO.P,J19,2,Pin_2_2*%
%TO.N,GND*%
X160500000Y-118000000D03*
%TD*%
%TO.P,J20,2,Pin_2_2*%
%TO.N,GND*%
X160500000Y-127400000D03*
D10*
%TO.P,J20,1,Pin_1_1*%
%TO.N,+12V*%
X160500000Y-123900000D03*
%TD*%
%TO.P,J21,1,Pin_1_1*%
%TO.N,+12V*%
X160500000Y-132950000D03*
D11*
%TO.P,J21,2,Pin_2_2*%
%TO.N,GND*%
X160500000Y-136450000D03*
%TD*%
D12*
%TO.P,J5,2,Pin_2_2*%
%TO.N,GND*%
X130040000Y-132320000D03*
D13*
%TO.P,J5,1,Pin_1_1*%
%TO.N,/GP16*%
X127500000Y-132320000D03*
%TD*%
D12*
%TO.P,J12,2,Pin_2_2*%
%TO.N,GND*%
X130265000Y-100140000D03*
D13*
%TO.P,J12,1,Pin_1_1*%
%TO.N,/GP25*%
X127725000Y-100140000D03*
%TD*%
D12*
%TO.P,J7,2,Pin_2_2*%
%TO.N,GND*%
X130040000Y-123140000D03*
D13*
%TO.P,J7,1,Pin_1_1*%
%TO.N,/GP18*%
X127500000Y-123140000D03*
%TD*%
D12*
%TO.P,J11,2,Pin_2_2*%
%TO.N,GND*%
X130265000Y-104730000D03*
D13*
%TO.P,J11,1,Pin_1_1*%
%TO.N,/GP23*%
X127725000Y-104730000D03*
%TD*%
D12*
%TO.P,J4,2,Pin_2_2*%
%TO.N,GND*%
X130040000Y-136910000D03*
D13*
%TO.P,J4,1,Pin_1_1*%
%TO.N,/GP14*%
X127500000Y-136910000D03*
%TD*%
D12*
%TO.P,J9,2,Pin_2_2*%
%TO.N,GND*%
X130265000Y-113910000D03*
D13*
%TO.P,J9,1,Pin_1_1*%
%TO.N,/GP21*%
X127725000Y-113910000D03*
%TD*%
D12*
%TO.P,J10,2,Pin_2_2*%
%TO.N,GND*%
X130265000Y-109320000D03*
D13*
%TO.P,J10,1,Pin_1_1*%
%TO.N,/GP22*%
X127725000Y-109320000D03*
%TD*%
D12*
%TO.P,J13,2,Pin_2_2*%
%TO.N,GND*%
X130540000Y-95820000D03*
D13*
%TO.P,J13,1,Pin_1_1*%
%TO.N,/GP26*%
X128000000Y-95820000D03*
%TD*%
D12*
%TO.P,J14,2,Pin_2_2*%
%TO.N,GND*%
X130540000Y-91230000D03*
D13*
%TO.P,J14,1,Pin_1_1*%
%TO.N,/GP27*%
X128000000Y-91230000D03*
%TD*%
D12*
%TO.P,J6,2,Pin_2_2*%
%TO.N,GND*%
X130040000Y-127730000D03*
D13*
%TO.P,J6,1,Pin_1_1*%
%TO.N,/GP17*%
X127500000Y-127730000D03*
%TD*%
D12*
%TO.P,J3,2,Pin_2_2*%
%TO.N,GND*%
X130040000Y-141500000D03*
D13*
%TO.P,J3,1,Pin_1_1*%
%TO.N,/GP13*%
X127500000Y-141500000D03*
%TD*%
D12*
%TO.P,J8,2,Pin_2_2*%
%TO.N,GND*%
X130265000Y-118500000D03*
D13*
%TO.P,J8,1,Pin_1_1*%
%TO.N,/GP19*%
X127725000Y-118500000D03*
%TD*%
D14*
%TO.P,U1,30,VIN_30*%
%TO.N,+5V*%
X116500000Y-100500000D03*
%TO.P,U1,29,GND_29*%
%TO.N,GND*%
X116500000Y-103040000D03*
%TO.P,U1,28,D13_28*%
%TO.N,/GP13*%
X116500000Y-105580000D03*
%TO.P,U1,27,D12_27*%
%TO.N,unconnected-(U1-D12-Pad27)*%
X116500000Y-108120000D03*
%TO.P,U1,26,D14_26*%
%TO.N,/GP14*%
X116500000Y-110660000D03*
%TO.P,U1,25,D27_25*%
%TO.N,/GP27*%
X116500000Y-113200000D03*
%TO.P,U1,24,D26_24*%
%TO.N,/GP26*%
X116500000Y-115740000D03*
%TO.P,U1,23,D25_23*%
%TO.N,/GP25*%
X116500000Y-118280000D03*
%TO.P,U1,22,D33_22*%
%TO.N,unconnected-(U1-D33-Pad22)*%
X116500000Y-120820000D03*
%TO.P,U1,21,D32_21*%
%TO.N,unconnected-(U1-D32-Pad21)*%
X116500000Y-123360000D03*
%TO.P,U1,20,D35_20*%
%TO.N,unconnected-(U1-D35-Pad20)*%
X116500000Y-125900000D03*
%TO.P,U1,19,D34_19*%
%TO.N,unconnected-(U1-D34-Pad19)*%
X116500000Y-128440000D03*
%TO.P,U1,18,VN_18*%
%TO.N,unconnected-(U1-VN-Pad18)*%
X116500000Y-130980000D03*
%TO.P,U1,17,VP_17*%
%TO.N,unconnected-(U1-VP-Pad17)*%
X116500000Y-133520000D03*
%TO.P,U1,16,EN_16*%
%TO.N,unconnected-(U1-EN-Pad16)*%
X116500000Y-136060000D03*
%TO.P,U1,15,D23_15*%
%TO.N,/GP23*%
X91100000Y-136060000D03*
%TO.P,U1,14,D22_14*%
%TO.N,/GP22*%
X91100000Y-133520000D03*
%TO.P,U1,13,TX0_13*%
%TO.N,Net-(J15-Pin_2)*%
X91100000Y-130980000D03*
%TO.P,U1,12,RX0_12*%
%TO.N,Net-(J15-Pin_1)*%
X91100000Y-128440000D03*
%TO.P,U1,11,D21_11*%
%TO.N,/GP21*%
X91100000Y-125900000D03*
%TO.P,U1,10,D19_10*%
%TO.N,/GP19*%
X91100000Y-123360000D03*
%TO.P,U1,9,D18_9*%
%TO.N,/GP18*%
X91100000Y-120820000D03*
%TO.P,U1,8,D5_8*%
%TO.N,unconnected-(U1-D5-Pad8)*%
X91100000Y-118280000D03*
%TO.P,U1,7,TX2_7*%
%TO.N,/GP17*%
X91100000Y-115740000D03*
%TO.P,U1,6,RX2_6*%
%TO.N,/GP16*%
X91100000Y-113200000D03*
%TO.P,U1,5,D4_5*%
%TO.N,unconnected-(U1-D4-Pad5)*%
X91100000Y-110660000D03*
%TO.P,U1,4,D2_4*%
%TO.N,unconnected-(U1-D2-Pad4)*%
X91100000Y-108120000D03*
%TO.P,U1,3,D15_3*%
%TO.N,unconnected-(U1-D15-Pad3)*%
X91100000Y-105580000D03*
%TO.P,U1,2,GND_2*%
%TO.N,GND*%
X91100000Y-103040000D03*
D15*
%TO.P,U1,1,3V3_1*%
%TO.N,unconnected-(U1-3V3-Pad1)*%
X91100000Y-100500000D03*
%TD*%
D11*
%TO.P,J22,2,Pin_2_2*%
%TO.N,GND*%
X171000000Y-132600000D03*
D16*
%TO.P,J22,1,Pin_1_1*%
%TO.N,+12V*%
X171000000Y-136100000D03*
%TD*%
D17*
%TO.P,C2,1*%
%TO.N,+12V*%
X170632300Y-78000000D03*
D14*
%TO.P,C2,2*%
%TO.N,GND*%
X175632300Y-78000000D03*
%TD*%
D18*
%TO.P,C1,1*%
%TO.N,+12V*%
X118867700Y-83500000D03*
D14*
%TO.P,C1,2*%
%TO.N,GND*%
X113867700Y-83500000D03*
%TD*%
D16*
%TO.P,J24,1,Pin_1_1*%
%TO.N,+12V*%
X171000000Y-118000000D03*
D11*
%TO.P,J24,2,Pin_2_2*%
%TO.N,GND*%
X171000000Y-114500000D03*
%TD*%
D10*
%TO.P,J16,1,Pin_1_1*%
%TO.N,+12V*%
X160500000Y-87400000D03*
D11*
%TO.P,J16,2,Pin_2_2*%
%TO.N,GND*%
X160500000Y-90900000D03*
%TD*%
D16*
%TO.P,J27,1,Pin_1_1*%
%TO.N,+12V*%
X171000000Y-91000000D03*
D11*
%TO.P,J27,2,Pin_2_2*%
%TO.N,GND*%
X171000000Y-87500000D03*
%TD*%
D16*
%TO.P,J26,1,Pin_1_1*%
%TO.N,+12V*%
X171000000Y-100050000D03*
D11*
%TO.P,J26,2,Pin_2_2*%
%TO.N,GND*%
X171000000Y-96550000D03*
%TD*%
D19*
%TO.P,J1,1,Pin_1_1*%
%TO.N,+12V*%
X108500000Y-73500000D03*
D11*
%TO.P,J1,2,Pin_2_2*%
%TO.N,GND*%
X105000000Y-73500000D03*
%TD*%
D16*
%TO.P,J25,1,Pin_1_1*%
%TO.N,+12V*%
X171000000Y-109100000D03*
D11*
%TO.P,J25,2,Pin_2_2*%
%TO.N,GND*%
X171000000Y-105600000D03*
%TD*%
D13*
%TO.P,J15,1,Pin_1_1*%
%TO.N,Net-(J15-Pin_1)*%
X86500000Y-128725000D03*
D12*
%TO.P,J15,2,Pin_2_2*%
%TO.N,Net-(J15-Pin_2)*%
X86500000Y-131265000D03*
%TD*%
D19*
%TO.P,J2,1,Pin_1_1*%
%TO.N,+5V*%
X97000000Y-73500000D03*
D11*
%TO.P,J2,2,Pin_2_2*%
%TO.N,GND*%
X93500000Y-73500000D03*
%TD*%
D10*
%TO.P,J18,1,Pin_1_1*%
%TO.N,+12V*%
X160500000Y-105500000D03*
D11*
%TO.P,J18,2,Pin_2_2*%
%TO.N,GND*%
X160500000Y-109000000D03*
%TD*%
D16*
%TO.P,J23,1,Pin_1_1*%
%TO.N,+12V*%
X171000000Y-127050000D03*
D11*
%TO.P,J23,2,Pin_2_2*%
%TO.N,GND*%
X171000000Y-123550000D03*
%TD*%
D10*
%TO.P,J17,1,Pin_1_1*%
%TO.N,+12V*%
X160500000Y-96450000D03*
D11*
%TO.P,J17,2,Pin_2_2*%
%TO.N,GND*%
X160500000Y-99950000D03*
%TD*%
D20*
%TO.N,GND*%
X130265000Y-107500000D03*
X130040000Y-134500000D03*
%TO.N,/GP23*%
X97440600Y-120259000D03*
%TD*%
%TO.N,GND*%
D21*
X130512081Y-89987919D02*
X133000000Y-87500000D01*
X130540000Y-91230000D02*
X130512081Y-91202081D01*
X130512081Y-91202081D02*
X130512081Y-89987919D01*
X133000000Y-87500000D02*
X148000000Y-87500000D01*
%TO.N,/GP17*%
D22*
X123770000Y-127730000D02*
X127500000Y-127730000D01*
X123000000Y-128500000D02*
X123770000Y-127730000D01*
X123000000Y-141000000D02*
X123000000Y-128500000D01*
X118500000Y-145500000D02*
X123000000Y-141000000D01*
X83500000Y-139500000D02*
X89500000Y-145500000D01*
X83500000Y-123340000D02*
X83500000Y-139500000D01*
X91100000Y-115740000D02*
X83500000Y-123340000D01*
X89500000Y-145500000D02*
X118500000Y-145500000D01*
%TO.N,/GP18*%
X121860000Y-123140000D02*
X127500000Y-123140000D01*
X119500000Y-125500000D02*
X121860000Y-123140000D01*
X119500000Y-142000000D02*
X119500000Y-125500000D01*
X117000000Y-144500000D02*
X119500000Y-142000000D01*
X89500000Y-144500000D02*
X117000000Y-144500000D01*
X84500000Y-139500000D02*
X89500000Y-144500000D01*
X84500000Y-123500000D02*
X84500000Y-139500000D01*
X87180000Y-120820000D02*
X84500000Y-123500000D01*
X91100000Y-120820000D02*
X87180000Y-120820000D01*
%TO.N,/GP13*%
X128401300Y-140298300D02*
X127500000Y-140298300D01*
X131296800Y-137402800D02*
X128401300Y-140298300D01*
X131296800Y-122630600D02*
X131296800Y-137402800D01*
X128837700Y-120171500D02*
X131296800Y-122630600D01*
X127172000Y-120171500D02*
X128837700Y-120171500D01*
X124549500Y-117549000D02*
X127172000Y-120171500D01*
X124549500Y-113629500D02*
X124549500Y-117549000D01*
X116500000Y-105580000D02*
X124549500Y-113629500D01*
X127500000Y-141500000D02*
X127500000Y-140298300D01*
%TO.N,/GP14*%
X127500000Y-136910000D02*
X127500000Y-135708300D01*
X128701700Y-134506600D02*
X127500000Y-135708300D01*
X128701700Y-122085600D02*
X128701700Y-134506600D01*
X127325900Y-120709800D02*
X128701700Y-122085600D01*
X126549800Y-120709800D02*
X127325900Y-120709800D01*
X116500000Y-110660000D02*
X126549800Y-120709800D01*
%TO.N,/GP23*%
X127725000Y-104730000D02*
X126523300Y-104730000D01*
X97440600Y-117614700D02*
X97440600Y-120259000D01*
X115926400Y-99128900D02*
X97440600Y-117614700D01*
X120922200Y-99128900D02*
X115926400Y-99128900D01*
X126523300Y-104730000D02*
X120922200Y-99128900D01*
%TO.N,/GP22*%
X127725000Y-109320000D02*
X127725000Y-108118300D01*
X128626300Y-108118300D02*
X127725000Y-108118300D01*
X131516300Y-105228300D02*
X128626300Y-108118300D01*
X131516300Y-104257600D02*
X131516300Y-105228300D01*
X130111400Y-102852700D02*
X131516300Y-104257600D01*
X126293000Y-102852700D02*
X130111400Y-102852700D01*
X122058200Y-98617900D02*
X126293000Y-102852700D01*
X115676000Y-98617900D02*
X122058200Y-98617900D01*
X94600700Y-119693200D02*
X115676000Y-98617900D01*
X94600700Y-130019300D02*
X94600700Y-119693200D01*
X91100000Y-133520000D02*
X94600700Y-130019300D01*
%TO.N,/GP21*%
X93243400Y-123756600D02*
X91100000Y-125900000D01*
X93243400Y-120341100D02*
X93243400Y-123756600D01*
X115496200Y-98088300D02*
X93243400Y-120341100D01*
X122885500Y-98088300D02*
X115496200Y-98088300D01*
X126732000Y-101934800D02*
X122885500Y-98088300D01*
X129902900Y-101934800D02*
X126732000Y-101934800D01*
X132052700Y-104084600D02*
X129902900Y-101934800D01*
X132052700Y-109281900D02*
X132052700Y-104084600D01*
X128626300Y-112708300D02*
X132052700Y-109281900D01*
X127725000Y-112708300D02*
X128626300Y-112708300D01*
X127725000Y-113910000D02*
X127725000Y-112708300D01*
%TO.N,GND*%
D21*
X178500000Y-87500000D02*
X180000000Y-89000000D01*
X171000000Y-87500000D02*
X178500000Y-87500000D01*
X180000000Y-89000000D02*
X180000000Y-79500000D01*
X178550000Y-96550000D02*
X180000000Y-98000000D01*
X180000000Y-107000000D02*
X180000000Y-98000000D01*
X171000000Y-96550000D02*
X178550000Y-96550000D01*
X178600000Y-105600000D02*
X180000000Y-107000000D01*
X171000000Y-105600000D02*
X178600000Y-105600000D01*
X180000000Y-98000000D02*
X180000000Y-89000000D01*
X178000000Y-114500000D02*
X180000000Y-116500000D01*
X171000000Y-114500000D02*
X178000000Y-114500000D01*
X180000000Y-116500000D02*
X180000000Y-107000000D01*
X171000000Y-123550000D02*
X178550000Y-123550000D01*
X180000000Y-125000000D02*
X180000000Y-116500000D01*
X178550000Y-123550000D02*
X180000000Y-125000000D01*
X180000000Y-134000000D02*
X180000000Y-125000000D01*
X178600000Y-132600000D02*
X180000000Y-134000000D01*
X171000000Y-132600000D02*
X178600000Y-132600000D01*
X153550000Y-136450000D02*
X152500000Y-137500000D01*
X160500000Y-136450000D02*
X153550000Y-136450000D01*
X152500000Y-137500000D02*
X152500000Y-138500000D01*
X153600000Y-127400000D02*
X152500000Y-128500000D01*
X160500000Y-127400000D02*
X153600000Y-127400000D01*
X152500000Y-128500000D02*
X152500000Y-137500000D01*
X152500000Y-119000000D02*
X152500000Y-128500000D01*
X153500000Y-118000000D02*
X152500000Y-119000000D01*
X160500000Y-118000000D02*
X153500000Y-118000000D01*
X160500000Y-109000000D02*
X153500000Y-109000000D01*
X152500000Y-110000000D02*
X152500000Y-119000000D01*
X153500000Y-109000000D02*
X152500000Y-110000000D01*
X154050000Y-99950000D02*
X152500000Y-101500000D01*
X160500000Y-99950000D02*
X154050000Y-99950000D01*
X152500000Y-101500000D02*
X152500000Y-110000000D01*
X152500000Y-92000000D02*
X152500000Y-101500000D01*
X153600000Y-90900000D02*
X160500000Y-90900000D01*
X152500000Y-92000000D02*
X153600000Y-90900000D01*
X178500000Y-78000000D02*
X175632000Y-78000000D01*
X178500000Y-78000000D02*
X175632000Y-78000000D01*
X180000000Y-79500000D02*
X178500000Y-78000000D01*
X180000000Y-89000000D02*
X180000000Y-79500000D01*
X180000000Y-137000000D02*
X180000000Y-134000000D01*
X175500000Y-141500000D02*
X180000000Y-137000000D01*
X155500000Y-141500000D02*
X175500000Y-141500000D01*
X148000000Y-87500000D02*
X152500000Y-92000000D01*
X180000000Y-137000000D02*
X180000000Y-134000000D01*
X175500000Y-141500000D02*
X180000000Y-137000000D01*
X155500000Y-141500000D02*
X175500000Y-141500000D01*
X152500000Y-138500000D02*
X155500000Y-141500000D01*
X152500000Y-137500000D02*
X152500000Y-138500000D01*
X113868000Y-85367700D02*
X116000000Y-87500000D01*
X113868000Y-83500000D02*
X113868000Y-85367700D01*
X116000000Y-87500000D02*
X133000000Y-87500000D01*
X110500000Y-83500000D02*
X113868000Y-83500000D01*
X105000000Y-78000000D02*
X110500000Y-83500000D01*
X148000000Y-87500000D02*
X152500000Y-92000000D01*
X116000000Y-87500000D02*
X148000000Y-87500000D01*
X113868000Y-85367700D02*
X116000000Y-87500000D01*
X113868000Y-83500000D02*
X113868000Y-85367700D01*
X110500000Y-83500000D02*
X113868000Y-83500000D01*
X105000000Y-78000000D02*
X110500000Y-83500000D01*
X105000000Y-73500000D02*
X105000000Y-78000000D01*
X103077500Y-71577500D02*
X105000000Y-73500000D01*
X95422500Y-71577500D02*
X103077500Y-71577500D01*
X93500000Y-73500000D02*
X95422500Y-71577500D01*
X130265000Y-104927600D02*
X130265000Y-104730000D01*
X128882400Y-106310200D02*
X130265000Y-104927600D01*
X119770200Y-106310200D02*
X128882400Y-106310200D01*
X116500000Y-103040000D02*
X119770200Y-106310200D01*
%TD*%
%TA.AperFunction,Conductor*%
%TO.N,GND*%
G36*
X115048820Y-101028938D02*
G01*
X115104753Y-101070810D01*
X115115969Y-101088822D01*
X115216657Y-101286433D01*
X115355483Y-101477510D01*
X115522490Y-101644517D01*
X115581716Y-101687547D01*
X115624381Y-101742875D01*
X115632448Y-101797593D01*
X115630893Y-101817340D01*
X116362425Y-102548871D01*
X116303147Y-102564755D01*
X116186853Y-102631898D01*
X116091898Y-102726853D01*
X116024755Y-102843147D01*
X116008871Y-102902425D01*
X115277340Y-102170894D01*
X115217084Y-102253830D01*
X115109897Y-102464197D01*
X115036934Y-102688752D01*
X115000000Y-102921947D01*
X115000000Y-103158052D01*
X115036934Y-103391247D01*
X115109897Y-103615802D01*
X115217087Y-103826174D01*
X115277338Y-103909104D01*
X115277340Y-103909105D01*
X116008871Y-103177574D01*
X116024755Y-103236853D01*
X116091898Y-103353147D01*
X116186853Y-103448102D01*
X116303147Y-103515245D01*
X116362425Y-103531128D01*
X115630893Y-104262658D01*
X115632448Y-104282405D01*
X115618084Y-104350783D01*
X115581717Y-104392451D01*
X115522490Y-104435482D01*
X115355485Y-104602487D01*
X115355485Y-104602488D01*
X115355483Y-104602490D01*
X115327574Y-104640904D01*
X115216657Y-104793566D01*
X115109433Y-105004003D01*
X115036446Y-105228631D01*
X114999500Y-105461902D01*
X114999500Y-105698097D01*
X115036446Y-105931368D01*
X115109433Y-106155996D01*
X115216657Y-106366433D01*
X115355483Y-106557510D01*
X115522490Y-106724517D01*
X115557127Y-106749683D01*
X115599792Y-106805013D01*
X115605771Y-106874626D01*
X115573165Y-106936421D01*
X115557130Y-106950315D01*
X115539365Y-106963222D01*
X115522488Y-106975484D01*
X115355485Y-107142487D01*
X115355485Y-107142488D01*
X115355483Y-107142490D01*
X115320966Y-107189999D01*
X115216657Y-107333566D01*
X115109433Y-107544003D01*
X115036446Y-107768631D01*
X114999500Y-108001902D01*
X114999500Y-108238097D01*
X115036446Y-108471368D01*
X115109433Y-108695996D01*
X115146330Y-108768409D01*
X115216657Y-108906433D01*
X115355483Y-109097510D01*
X115522490Y-109264517D01*
X115557127Y-109289683D01*
X115599792Y-109345013D01*
X115605771Y-109414626D01*
X115573165Y-109476421D01*
X115557130Y-109490315D01*
X115539365Y-109503222D01*
X115522488Y-109515484D01*
X115355485Y-109682487D01*
X115355485Y-109682488D01*
X115355483Y-109682490D01*
X115303890Y-109753502D01*
X115216657Y-109873566D01*
X115109433Y-110084003D01*
X115036446Y-110308631D01*
X114999500Y-110541902D01*
X114999500Y-110778097D01*
X115036446Y-111011368D01*
X115109433Y-111235996D01*
X115216657Y-111446433D01*
X115355483Y-111637510D01*
X115522490Y-111804517D01*
X115557127Y-111829683D01*
X115599792Y-111885013D01*
X115605771Y-111954626D01*
X115573165Y-112016421D01*
X115557130Y-112030315D01*
X115539365Y-112043222D01*
X115522488Y-112055484D01*
X115355485Y-112222487D01*
X115355485Y-112222488D01*
X115355483Y-112222490D01*
X115303799Y-112293627D01*
X115216657Y-112413566D01*
X115109433Y-112624003D01*
X115036446Y-112848631D01*
X114999500Y-113081902D01*
X114999500Y-113318096D01*
X115036446Y-113551368D01*
X115109433Y-113775996D01*
X115211252Y-113975826D01*
X115216657Y-113986433D01*
X115355483Y-114177510D01*
X115522490Y-114344517D01*
X115557127Y-114369683D01*
X115599792Y-114425013D01*
X115605771Y-114494626D01*
X115573165Y-114556421D01*
X115557130Y-114570315D01*
X115545189Y-114578991D01*
X115522488Y-114595484D01*
X115355485Y-114762487D01*
X115355485Y-114762488D01*
X115355483Y-114762490D01*
X115322511Y-114807872D01*
X115216657Y-114953566D01*
X115109433Y-115164003D01*
X115036446Y-115388631D01*
X114999500Y-115621902D01*
X114999500Y-115858097D01*
X115036446Y-116091368D01*
X115109433Y-116315996D01*
X115216657Y-116526433D01*
X115355483Y-116717510D01*
X115522490Y-116884517D01*
X115557127Y-116909683D01*
X115599792Y-116965013D01*
X115605771Y-117034626D01*
X115573165Y-117096421D01*
X115557130Y-117110315D01*
X115539365Y-117123222D01*
X115522488Y-117135484D01*
X115355485Y-117302487D01*
X115355485Y-117302488D01*
X115355483Y-117302490D01*
X115295862Y-117384550D01*
X115216657Y-117493566D01*
X115109433Y-117704003D01*
X115036446Y-117928631D01*
X114999500Y-118161902D01*
X114999500Y-118398097D01*
X115036446Y-118631368D01*
X115109433Y-118855996D01*
X115216657Y-119066433D01*
X115355483Y-119257510D01*
X115522490Y-119424517D01*
X115557127Y-119449683D01*
X115599792Y-119505013D01*
X115605771Y-119574626D01*
X115573165Y-119636421D01*
X115557130Y-119650315D01*
X115539365Y-119663222D01*
X115522488Y-119675484D01*
X115355485Y-119842487D01*
X115355485Y-119842488D01*
X115355483Y-119842490D01*
X115295862Y-119924550D01*
X115216657Y-120033566D01*
X115109433Y-120244003D01*
X115036446Y-120468631D01*
X114999500Y-120701902D01*
X114999500Y-120938097D01*
X115036446Y-121171368D01*
X115109433Y-121395996D01*
X115165901Y-121506819D01*
X115216657Y-121606433D01*
X115355483Y-121797510D01*
X115522490Y-121964517D01*
X115557127Y-121989683D01*
X115599792Y-122045013D01*
X115605771Y-122114626D01*
X115573165Y-122176421D01*
X115557130Y-122190315D01*
X115544489Y-122199500D01*
X115522488Y-122215484D01*
X115355485Y-122382487D01*
X115355485Y-122382488D01*
X115355483Y-122382490D01*
X115313074Y-122440861D01*
X115216657Y-122573566D01*
X115109433Y-122784003D01*
X115036446Y-123008631D01*
X114999500Y-123241902D01*
X114999500Y-123478097D01*
X115036446Y-123711368D01*
X115109433Y-123935996D01*
X115197640Y-124109111D01*
X115216657Y-124146433D01*
X115355483Y-124337510D01*
X115522490Y-124504517D01*
X115557127Y-124529683D01*
X115599792Y-124585013D01*
X115605771Y-124654626D01*
X115573165Y-124716421D01*
X115557130Y-124730315D01*
X115539365Y-124743222D01*
X115522488Y-124755484D01*
X115355485Y-124922487D01*
X115355485Y-124922488D01*
X115355483Y-124922490D01*
X115323486Y-124966530D01*
X115216657Y-125113566D01*
X115109433Y-125324003D01*
X115036446Y-125548631D01*
X114999500Y-125781902D01*
X114999500Y-126018097D01*
X115036446Y-126251368D01*
X115109433Y-126475996D01*
X115216657Y-126686433D01*
X115355483Y-126877510D01*
X115522490Y-127044517D01*
X115557127Y-127069683D01*
X115599792Y-127125013D01*
X115605771Y-127194626D01*
X115573165Y-127256421D01*
X115557130Y-127270315D01*
X115539365Y-127283222D01*
X115522488Y-127295484D01*
X115355485Y-127462487D01*
X115355485Y-127462488D01*
X115355483Y-127462490D01*
X115301343Y-127537007D01*
X115216657Y-127653566D01*
X115109433Y-127864003D01*
X115036446Y-128088631D01*
X114999500Y-128321902D01*
X114999500Y-128558097D01*
X115036446Y-128791368D01*
X115109433Y-129015996D01*
X115179234Y-129152987D01*
X115216657Y-129226433D01*
X115355483Y-129417510D01*
X115522490Y-129584517D01*
X115557127Y-129609683D01*
X115599792Y-129665013D01*
X115605771Y-129734626D01*
X115573165Y-129796421D01*
X115557130Y-129810315D01*
X115539365Y-129823222D01*
X115522488Y-129835484D01*
X115355485Y-130002487D01*
X115355485Y-130002488D01*
X115355483Y-130002490D01*
X115295736Y-130084725D01*
X115216659Y-130193564D01*
X115109433Y-130404003D01*
X115036446Y-130628631D01*
X114999500Y-130861902D01*
X114999500Y-131098097D01*
X115036446Y-131331368D01*
X115109433Y-131555996D01*
X115216657Y-131766433D01*
X115355483Y-131957510D01*
X115522490Y-132124517D01*
X115557127Y-132149683D01*
X115599792Y-132205013D01*
X115605771Y-132274626D01*
X115573165Y-132336421D01*
X115557130Y-132350315D01*
X115539365Y-132363222D01*
X115522488Y-132375484D01*
X115355485Y-132542487D01*
X115355485Y-132542488D01*
X115355483Y-132542490D01*
X115313700Y-132599999D01*
X115216657Y-132733566D01*
X115109433Y-132944003D01*
X115036446Y-133168631D01*
X114999500Y-133401902D01*
X114999500Y-133638097D01*
X115036446Y-133871368D01*
X115109433Y-134095996D01*
X115216657Y-134306433D01*
X115355483Y-134497510D01*
X115522490Y-134664517D01*
X115557127Y-134689683D01*
X115599792Y-134745013D01*
X115605771Y-134814626D01*
X115573165Y-134876421D01*
X115557130Y-134890315D01*
X115539365Y-134903222D01*
X115522488Y-134915484D01*
X115355485Y-135082487D01*
X115355485Y-135082488D01*
X115355483Y-135082490D01*
X115295862Y-135164550D01*
X115216657Y-135273566D01*
X115109433Y-135484003D01*
X115036446Y-135708631D01*
X114999500Y-135941902D01*
X114999500Y-136178097D01*
X115036446Y-136411368D01*
X115109433Y-136635996D01*
X115203649Y-136820904D01*
X115216657Y-136846433D01*
X115355483Y-137037510D01*
X115522490Y-137204517D01*
X115713567Y-137343343D01*
X115777513Y-137375925D01*
X115924003Y-137450566D01*
X115924005Y-137450566D01*
X115924008Y-137450568D01*
X116068662Y-137497569D01*
X116126337Y-137537007D01*
X116153535Y-137601366D01*
X116141620Y-137670212D01*
X116094376Y-137721688D01*
X116030343Y-137739500D01*
X115915258Y-137739500D01*
X115699474Y-137767910D01*
X115687762Y-137769452D01*
X115611079Y-137789999D01*
X115466112Y-137828842D01*
X115254123Y-137916650D01*
X115254109Y-137916657D01*
X115055382Y-138031392D01*
X114873338Y-138171081D01*
X114711081Y-138333338D01*
X114571392Y-138515382D01*
X114456657Y-138714109D01*
X114456650Y-138714123D01*
X114368842Y-138926112D01*
X114309453Y-139147759D01*
X114309451Y-139147770D01*
X114279500Y-139375258D01*
X114279500Y-139604741D01*
X114294917Y-139721835D01*
X114309452Y-139832238D01*
X114323223Y-139883631D01*
X114368842Y-140053887D01*
X114456650Y-140265876D01*
X114456657Y-140265890D01*
X114571392Y-140464617D01*
X114711081Y-140646661D01*
X114711089Y-140646670D01*
X114873330Y-140808911D01*
X114873338Y-140808918D01*
X115055382Y-140948607D01*
X115055385Y-140948608D01*
X115055388Y-140948611D01*
X115254112Y-141063344D01*
X115254117Y-141063346D01*
X115254123Y-141063349D01*
X115342368Y-141099901D01*
X115466113Y-141151158D01*
X115687762Y-141210548D01*
X115915266Y-141240500D01*
X115915273Y-141240500D01*
X116144727Y-141240500D01*
X116144734Y-141240500D01*
X116372238Y-141210548D01*
X116593887Y-141151158D01*
X116805888Y-141063344D01*
X117004612Y-140948611D01*
X117186661Y-140808919D01*
X117186665Y-140808914D01*
X117186670Y-140808911D01*
X117348911Y-140646670D01*
X117348914Y-140646665D01*
X117348919Y-140646661D01*
X117488611Y-140464612D01*
X117603344Y-140265888D01*
X117691158Y-140053887D01*
X117750548Y-139832238D01*
X117780500Y-139604734D01*
X117780500Y-139375266D01*
X117750548Y-139147762D01*
X117691158Y-138926113D01*
X117603344Y-138714112D01*
X117488611Y-138515388D01*
X117488608Y-138515385D01*
X117488607Y-138515382D01*
X117348918Y-138333338D01*
X117348911Y-138333330D01*
X117186670Y-138171089D01*
X117186661Y-138171081D01*
X117004617Y-138031392D01*
X116994013Y-138025270D01*
X116805888Y-137916656D01*
X116805876Y-137916650D01*
X116593887Y-137828842D01*
X116551464Y-137817475D01*
X116502197Y-137804274D01*
X116442538Y-137767910D01*
X116412009Y-137705063D01*
X116420304Y-137635688D01*
X116464789Y-137581810D01*
X116531341Y-137560535D01*
X116534292Y-137560500D01*
X116618097Y-137560500D01*
X116851368Y-137523553D01*
X116931338Y-137497569D01*
X117075992Y-137450568D01*
X117286433Y-137343343D01*
X117477510Y-137204517D01*
X117644517Y-137037510D01*
X117783343Y-136846433D01*
X117890568Y-136635992D01*
X117963553Y-136411368D01*
X117975082Y-136338575D01*
X118000500Y-136178097D01*
X118000500Y-135941902D01*
X117963553Y-135708631D01*
X117896905Y-135503511D01*
X117890568Y-135484008D01*
X117890566Y-135484005D01*
X117890566Y-135484003D01*
X117793566Y-135293631D01*
X117783343Y-135273567D01*
X117644517Y-135082490D01*
X117477510Y-134915483D01*
X117442872Y-134890317D01*
X117400207Y-134834989D01*
X117394228Y-134765375D01*
X117426833Y-134703580D01*
X117442873Y-134689682D01*
X117477510Y-134664517D01*
X117644517Y-134497510D01*
X117783343Y-134306433D01*
X117890568Y-134095992D01*
X117963553Y-133871368D01*
X117975728Y-133794499D01*
X118000500Y-133638097D01*
X118000500Y-133401902D01*
X117963553Y-133168631D01*
X117917197Y-133025963D01*
X117890568Y-132944008D01*
X117890566Y-132944005D01*
X117890566Y-132944003D01*
X117827383Y-132820000D01*
X117783343Y-132733567D01*
X117644517Y-132542490D01*
X117477510Y-132375483D01*
X117442872Y-132350317D01*
X117400207Y-132294989D01*
X117394228Y-132225375D01*
X117426833Y-132163580D01*
X117442873Y-132149682D01*
X117477510Y-132124517D01*
X117644517Y-131957510D01*
X117783343Y-131766433D01*
X117890568Y-131555992D01*
X117963553Y-131331368D01*
X117966116Y-131315186D01*
X118000500Y-131098097D01*
X118000500Y-130861902D01*
X117963553Y-130628631D01*
X117912423Y-130471272D01*
X117890568Y-130404008D01*
X117890566Y-130404005D01*
X117890566Y-130404003D01*
X117814355Y-130254432D01*
X117783343Y-130193567D01*
X117644517Y-130002490D01*
X117477510Y-129835483D01*
X117442872Y-129810317D01*
X117400207Y-129754989D01*
X117394228Y-129685375D01*
X117426833Y-129623580D01*
X117442873Y-129609682D01*
X117477510Y-129584517D01*
X117644517Y-129417510D01*
X117783343Y-129226433D01*
X117890568Y-129015992D01*
X117963553Y-128791368D01*
X117971689Y-128739998D01*
X118000500Y-128558097D01*
X118000500Y-128321902D01*
X117963553Y-128088631D01*
X117909733Y-127922993D01*
X117890568Y-127864008D01*
X117890566Y-127864005D01*
X117890566Y-127864003D01*
X117834002Y-127752991D01*
X117783343Y-127653567D01*
X117644517Y-127462490D01*
X117477510Y-127295483D01*
X117442872Y-127270317D01*
X117400207Y-127214989D01*
X117394228Y-127145375D01*
X117426833Y-127083580D01*
X117442873Y-127069682D01*
X117477510Y-127044517D01*
X117644517Y-126877510D01*
X117783343Y-126686433D01*
X117890568Y-126475992D01*
X117963553Y-126251368D01*
X117995448Y-126049992D01*
X118000500Y-126018097D01*
X118000500Y-125781902D01*
X117963553Y-125548631D01*
X117917197Y-125405963D01*
X117890568Y-125324008D01*
X117890566Y-125324005D01*
X117890566Y-125324003D01*
X117823242Y-125191873D01*
X117783343Y-125113567D01*
X117644517Y-124922490D01*
X117477510Y-124755483D01*
X117442872Y-124730317D01*
X117400207Y-124674989D01*
X117394228Y-124605375D01*
X117426833Y-124543580D01*
X117442873Y-124529682D01*
X117477510Y-124504517D01*
X117644517Y-124337510D01*
X117783343Y-124146433D01*
X117890568Y-123935992D01*
X117963553Y-123711368D01*
X117971463Y-123661424D01*
X118000500Y-123478097D01*
X118000500Y-123241902D01*
X117963553Y-123008631D01*
X117906484Y-122832993D01*
X117890568Y-122784008D01*
X117890566Y-122784005D01*
X117890566Y-122784003D01*
X117814505Y-122634726D01*
X117783343Y-122573567D01*
X117644517Y-122382490D01*
X117477510Y-122215483D01*
X117442872Y-122190317D01*
X117400207Y-122134989D01*
X117394228Y-122065375D01*
X117426833Y-122003580D01*
X117442873Y-121989682D01*
X117477510Y-121964517D01*
X117644517Y-121797510D01*
X117783343Y-121606433D01*
X117890568Y-121395992D01*
X117963553Y-121171368D01*
X117981271Y-121059500D01*
X118000500Y-120938097D01*
X118000500Y-120701902D01*
X117963553Y-120468631D01*
X117890566Y-120244003D01*
X117828066Y-120121341D01*
X117783343Y-120033567D01*
X117644517Y-119842490D01*
X117477510Y-119675483D01*
X117442872Y-119650317D01*
X117400207Y-119594989D01*
X117394228Y-119525375D01*
X117426833Y-119463580D01*
X117442873Y-119449682D01*
X117477510Y-119424517D01*
X117644517Y-119257510D01*
X117783343Y-119066433D01*
X117890568Y-118855992D01*
X117963553Y-118631368D01*
X117973934Y-118565826D01*
X118000500Y-118398097D01*
X118000500Y-118161902D01*
X117963553Y-117928631D01*
X117890566Y-117704003D01*
X117808284Y-117542517D01*
X117783343Y-117493567D01*
X117644517Y-117302490D01*
X117477510Y-117135483D01*
X117442872Y-117110317D01*
X117400207Y-117054989D01*
X117394228Y-116985375D01*
X117426833Y-116923580D01*
X117442873Y-116909682D01*
X117446935Y-116906731D01*
X117477510Y-116884517D01*
X117644517Y-116717510D01*
X117783343Y-116526433D01*
X117890568Y-116315992D01*
X117963553Y-116091368D01*
X118000500Y-115858097D01*
X118000500Y-115621902D01*
X117963553Y-115388631D01*
X117890566Y-115164003D01*
X117819877Y-115025269D01*
X117783343Y-114953567D01*
X117644517Y-114762490D01*
X117477510Y-114595483D01*
X117442872Y-114570317D01*
X117400207Y-114514989D01*
X117394228Y-114445375D01*
X117426833Y-114383580D01*
X117442873Y-114369682D01*
X117477510Y-114344517D01*
X117644517Y-114177510D01*
X117783343Y-113986433D01*
X117890568Y-113775992D01*
X117963553Y-113551368D01*
X117994923Y-113353306D01*
X118024852Y-113290171D01*
X118084164Y-113253240D01*
X118154026Y-113254238D01*
X118205077Y-113285023D01*
X126135124Y-121215071D01*
X126135131Y-121215077D01*
X126241671Y-121286264D01*
X126241670Y-121286264D01*
X126276344Y-121300626D01*
X126360056Y-121335301D01*
X126360060Y-121335301D01*
X126360061Y-121335302D01*
X126485728Y-121360300D01*
X126485731Y-121360300D01*
X127005092Y-121360300D01*
X127072131Y-121379985D01*
X127092773Y-121396619D01*
X127273973Y-121577819D01*
X127307458Y-121639142D01*
X127302474Y-121708834D01*
X127260602Y-121764767D01*
X127195138Y-121789184D01*
X127186292Y-121789500D01*
X126602129Y-121789500D01*
X126602123Y-121789501D01*
X126542516Y-121795908D01*
X126407671Y-121846202D01*
X126407664Y-121846206D01*
X126292455Y-121932452D01*
X126292452Y-121932455D01*
X126206206Y-122047664D01*
X126206202Y-122047671D01*
X126155908Y-122182517D01*
X126149501Y-122242116D01*
X126149500Y-122242135D01*
X126149500Y-122365500D01*
X126129815Y-122432539D01*
X126077011Y-122478294D01*
X126025500Y-122489500D01*
X121795929Y-122489500D01*
X121670261Y-122514497D01*
X121670255Y-122514499D01*
X121551874Y-122563534D01*
X121445326Y-122634726D01*
X118994727Y-125085325D01*
X118994721Y-125085332D01*
X118938594Y-125169333D01*
X118938595Y-125169334D01*
X118923534Y-125191874D01*
X118874499Y-125310255D01*
X118874497Y-125310261D01*
X118849500Y-125435928D01*
X118849500Y-141679192D01*
X118829815Y-141746231D01*
X118813181Y-141766873D01*
X116766873Y-143813181D01*
X116705550Y-143846666D01*
X116679192Y-143849500D01*
X89820808Y-143849500D01*
X89753769Y-143829815D01*
X89733127Y-143813181D01*
X87409946Y-141490000D01*
X94890000Y-141490000D01*
X112580000Y-141490000D01*
X112580000Y-135000000D01*
X94890000Y-135000000D01*
X94890000Y-141490000D01*
X87409946Y-141490000D01*
X85186819Y-139266873D01*
X85153334Y-139205550D01*
X85150500Y-139179192D01*
X85150500Y-132086813D01*
X85170185Y-132019774D01*
X85222989Y-131974019D01*
X85292147Y-131964075D01*
X85355703Y-131993100D01*
X85374816Y-132013924D01*
X85455167Y-132124519D01*
X85469896Y-132144792D01*
X85620213Y-132295109D01*
X85792179Y-132420048D01*
X85792181Y-132420049D01*
X85792184Y-132420051D01*
X85981588Y-132516557D01*
X86183757Y-132582246D01*
X86393713Y-132615500D01*
X86393714Y-132615500D01*
X86606286Y-132615500D01*
X86606287Y-132615500D01*
X86816243Y-132582246D01*
X87018412Y-132516557D01*
X87207816Y-132420051D01*
X87322924Y-132336421D01*
X87379786Y-132295109D01*
X87379788Y-132295106D01*
X87379792Y-132295104D01*
X87530104Y-132144792D01*
X87530106Y-132144788D01*
X87530109Y-132144786D01*
X87655048Y-131972820D01*
X87655047Y-131972820D01*
X87655051Y-131972816D01*
X87751557Y-131783412D01*
X87817246Y-131581243D01*
X87850500Y-131371287D01*
X87850500Y-131158713D01*
X87817246Y-130948757D01*
X87751557Y-130746588D01*
X87655051Y-130557184D01*
X87655049Y-130557181D01*
X87655048Y-130557179D01*
X87530109Y-130385213D01*
X87416569Y-130271673D01*
X87383084Y-130210350D01*
X87388068Y-130140658D01*
X87429940Y-130084725D01*
X87460915Y-130067810D01*
X87592331Y-130018796D01*
X87707546Y-129932546D01*
X87793796Y-129817331D01*
X87844091Y-129682483D01*
X87850500Y-129622873D01*
X87850499Y-127827128D01*
X87844091Y-127767517D01*
X87801590Y-127653567D01*
X87793797Y-127632671D01*
X87793793Y-127632664D01*
X87707547Y-127517455D01*
X87707544Y-127517452D01*
X87592335Y-127431206D01*
X87592328Y-127431202D01*
X87457482Y-127380908D01*
X87457483Y-127380908D01*
X87397883Y-127374501D01*
X87397881Y-127374500D01*
X87397873Y-127374500D01*
X87397864Y-127374500D01*
X85602129Y-127374500D01*
X85602123Y-127374501D01*
X85542516Y-127380908D01*
X85407671Y-127431202D01*
X85407668Y-127431204D01*
X85348811Y-127475265D01*
X85283347Y-127499682D01*
X85215074Y-127484830D01*
X85165668Y-127435425D01*
X85150500Y-127375998D01*
X85150500Y-123820808D01*
X85170185Y-123753769D01*
X85186819Y-123733127D01*
X87413127Y-121506819D01*
X87474450Y-121473334D01*
X87500808Y-121470500D01*
X89671408Y-121470500D01*
X89738447Y-121490185D01*
X89781893Y-121538205D01*
X89802223Y-121578105D01*
X89816657Y-121606433D01*
X89955483Y-121797510D01*
X90122490Y-121964517D01*
X90157127Y-121989683D01*
X90199792Y-122045013D01*
X90205771Y-122114626D01*
X90173165Y-122176421D01*
X90157130Y-122190315D01*
X90144489Y-122199500D01*
X90122488Y-122215484D01*
X89955485Y-122382487D01*
X89955485Y-122382488D01*
X89955483Y-122382490D01*
X89913074Y-122440861D01*
X89816657Y-122573566D01*
X89709433Y-122784003D01*
X89636446Y-123008631D01*
X89599500Y-123241902D01*
X89599500Y-123478097D01*
X89636446Y-123711368D01*
X89709433Y-123935996D01*
X89797640Y-124109111D01*
X89816657Y-124146433D01*
X89955483Y-124337510D01*
X90122490Y-124504517D01*
X90157127Y-124529683D01*
X90199792Y-124585013D01*
X90205771Y-124654626D01*
X90173165Y-124716421D01*
X90157130Y-124730315D01*
X90139365Y-124743222D01*
X90122488Y-124755484D01*
X89955485Y-124922487D01*
X89955485Y-124922488D01*
X89955483Y-124922490D01*
X89923486Y-124966530D01*
X89816657Y-125113566D01*
X89709433Y-125324003D01*
X89636446Y-125548631D01*
X89599500Y-125781902D01*
X89599500Y-126018097D01*
X89636446Y-126251368D01*
X89709433Y-126475996D01*
X89816657Y-126686433D01*
X89955483Y-126877510D01*
X90122490Y-127044517D01*
X90157127Y-127069683D01*
X90199792Y-127125013D01*
X90205771Y-127194626D01*
X90173165Y-127256421D01*
X90157130Y-127270315D01*
X90139365Y-127283222D01*
X90122488Y-127295484D01*
X89955485Y-127462487D01*
X89955485Y-127462488D01*
X89955483Y-127462490D01*
X89901343Y-127537007D01*
X89816657Y-127653566D01*
X89709433Y-127864003D01*
X89636446Y-128088631D01*
X89599500Y-128321902D01*
X89599500Y-128558097D01*
X89636446Y-128791368D01*
X89709433Y-129015996D01*
X89779234Y-129152987D01*
X89816657Y-129226433D01*
X89955483Y-129417510D01*
X90122490Y-129584517D01*
X90157127Y-129609683D01*
X90199792Y-129665013D01*
X90205771Y-129734626D01*
X90173165Y-129796421D01*
X90157130Y-129810315D01*
X90139365Y-129823222D01*
X90122488Y-129835484D01*
X89955485Y-130002487D01*
X89955485Y-130002488D01*
X89955483Y-130002490D01*
X89895736Y-130084725D01*
X89816659Y-130193564D01*
X89709433Y-130404003D01*
X89636446Y-130628631D01*
X89599500Y-130861902D01*
X89599500Y-131098097D01*
X89636446Y-131331368D01*
X89709433Y-131555996D01*
X89816657Y-131766433D01*
X89955483Y-131957510D01*
X90122490Y-132124517D01*
X90157127Y-132149683D01*
X90199792Y-132205013D01*
X90205771Y-132274626D01*
X90173165Y-132336421D01*
X90157130Y-132350315D01*
X90139365Y-132363222D01*
X90122488Y-132375484D01*
X89955485Y-132542487D01*
X89955485Y-132542488D01*
X89955483Y-132542490D01*
X89913700Y-132599999D01*
X89816657Y-132733566D01*
X89709433Y-132944003D01*
X89636446Y-133168631D01*
X89599500Y-133401902D01*
X89599500Y-133638097D01*
X89636446Y-133871368D01*
X89709433Y-134095996D01*
X89816657Y-134306433D01*
X89955483Y-134497510D01*
X90122490Y-134664517D01*
X90157127Y-134689683D01*
X90199792Y-134745013D01*
X90205771Y-134814626D01*
X90173165Y-134876421D01*
X90157130Y-134890315D01*
X90139365Y-134903222D01*
X90122488Y-134915484D01*
X89955485Y-135082487D01*
X89955485Y-135082488D01*
X89955483Y-135082490D01*
X89895862Y-135164550D01*
X89816657Y-135273566D01*
X89709433Y-135484003D01*
X89636446Y-135708631D01*
X89599500Y-135941902D01*
X89599500Y-136178097D01*
X89636446Y-136411368D01*
X89709433Y-136635996D01*
X89803649Y-136820904D01*
X89816657Y-136846433D01*
X89955483Y-137037510D01*
X90122490Y-137204517D01*
X90313567Y-137343343D01*
X90377513Y-137375925D01*
X90524003Y-137450566D01*
X90524005Y-137450566D01*
X90524008Y-137450568D01*
X90644412Y-137489689D01*
X90748631Y-137523553D01*
X90981903Y-137560500D01*
X91015708Y-137560500D01*
X91082747Y-137580185D01*
X91128502Y-137632989D01*
X91138446Y-137702147D01*
X91109421Y-137765703D01*
X91050643Y-137803477D01*
X91047835Y-137804265D01*
X90998536Y-137817475D01*
X90956112Y-137828842D01*
X90744123Y-137916650D01*
X90744109Y-137916657D01*
X90545382Y-138031392D01*
X90363338Y-138171081D01*
X90201081Y-138333338D01*
X90061392Y-138515382D01*
X89946657Y-138714109D01*
X89946650Y-138714123D01*
X89858842Y-138926112D01*
X89799453Y-139147759D01*
X89799451Y-139147770D01*
X89769500Y-139375258D01*
X89769500Y-139604741D01*
X89784917Y-139721835D01*
X89799452Y-139832238D01*
X89813223Y-139883631D01*
X89858842Y-140053887D01*
X89946650Y-140265876D01*
X89946657Y-140265890D01*
X90061392Y-140464617D01*
X90201081Y-140646661D01*
X90201089Y-140646670D01*
X90363330Y-140808911D01*
X90363338Y-140808918D01*
X90545382Y-140948607D01*
X90545385Y-140948608D01*
X90545388Y-140948611D01*
X90744112Y-141063344D01*
X90744117Y-141063346D01*
X90744123Y-141063349D01*
X90832368Y-141099901D01*
X90956113Y-141151158D01*
X91177762Y-141210548D01*
X91405266Y-141240500D01*
X91405273Y-141240500D01*
X91634727Y-141240500D01*
X91634734Y-141240500D01*
X91862238Y-141210548D01*
X92083887Y-141151158D01*
X92295888Y-141063344D01*
X92494612Y-140948611D01*
X92676661Y-140808919D01*
X92676665Y-140808914D01*
X92676670Y-140808911D01*
X92838911Y-140646670D01*
X92838914Y-140646665D01*
X92838919Y-140646661D01*
X92978611Y-140464612D01*
X93093344Y-140265888D01*
X93181158Y-140053887D01*
X93240548Y-139832238D01*
X93270500Y-139604734D01*
X93270500Y-139375266D01*
X93240548Y-139147762D01*
X93181158Y-138926113D01*
X93093344Y-138714112D01*
X92978611Y-138515388D01*
X92978608Y-138515385D01*
X92978607Y-138515382D01*
X92838918Y-138333338D01*
X92838911Y-138333330D01*
X92676670Y-138171089D01*
X92676661Y-138171081D01*
X92494617Y-138031392D01*
X92484013Y-138025270D01*
X92295888Y-137916656D01*
X92295876Y-137916650D01*
X92083887Y-137828842D01*
X92041464Y-137817475D01*
X91862238Y-137769452D01*
X91824215Y-137764446D01*
X91634741Y-137739500D01*
X91634734Y-137739500D01*
X91569657Y-137739500D01*
X91502618Y-137719815D01*
X91456863Y-137667011D01*
X91446919Y-137597853D01*
X91475944Y-137534297D01*
X91531338Y-137497569D01*
X91675992Y-137450568D01*
X91886433Y-137343343D01*
X92077510Y-137204517D01*
X92244517Y-137037510D01*
X92383343Y-136846433D01*
X92490568Y-136635992D01*
X92563553Y-136411368D01*
X92575082Y-136338575D01*
X92600500Y-136178097D01*
X92600500Y-135941902D01*
X92563553Y-135708631D01*
X92496905Y-135503511D01*
X92490568Y-135484008D01*
X92490566Y-135484005D01*
X92490566Y-135484003D01*
X92393566Y-135293631D01*
X92383343Y-135273567D01*
X92244517Y-135082490D01*
X92077510Y-134915483D01*
X92036755Y-134885872D01*
X92031230Y-134880725D01*
X92017111Y-134856911D01*
X92000207Y-134834989D01*
X91999544Y-134827279D01*
X91995599Y-134820624D01*
X91996596Y-134792954D01*
X91994228Y-134765375D01*
X91997838Y-134758532D01*
X91998117Y-134750799D01*
X92013914Y-134728063D01*
X92026833Y-134703580D01*
X92037121Y-134694665D01*
X92037986Y-134693421D01*
X92039080Y-134692968D01*
X92042873Y-134689682D01*
X92077510Y-134664517D01*
X92244517Y-134497510D01*
X92383343Y-134306433D01*
X92490568Y-134095992D01*
X92563553Y-133871368D01*
X92575728Y-133794499D01*
X92600500Y-133638097D01*
X92600500Y-133401902D01*
X92571352Y-133217876D01*
X92563553Y-133168632D01*
X92539888Y-133095802D01*
X92537894Y-133025963D01*
X92570137Y-132969807D01*
X95105976Y-130433970D01*
X95177165Y-130327427D01*
X95226201Y-130209044D01*
X95229280Y-130193567D01*
X95231653Y-130181640D01*
X95251200Y-130083371D01*
X95251200Y-120014008D01*
X95270885Y-119946969D01*
X95287519Y-119926327D01*
X96578419Y-118635427D01*
X96639742Y-118601942D01*
X96709434Y-118606926D01*
X96765367Y-118648798D01*
X96789784Y-118714262D01*
X96790100Y-118723108D01*
X96790100Y-119754064D01*
X96770415Y-119821103D01*
X96769203Y-119822954D01*
X96731208Y-119879817D01*
X96731202Y-119879828D01*
X96670864Y-120025498D01*
X96670861Y-120025510D01*
X96640100Y-120180153D01*
X96640100Y-120337846D01*
X96670861Y-120492489D01*
X96670864Y-120492501D01*
X96731202Y-120638172D01*
X96731209Y-120638185D01*
X96818810Y-120769288D01*
X96818813Y-120769292D01*
X96930307Y-120880786D01*
X96930311Y-120880789D01*
X97061414Y-120968390D01*
X97061427Y-120968397D01*
X97104109Y-120986076D01*
X97207103Y-121028737D01*
X97361753Y-121059499D01*
X97361756Y-121059500D01*
X97361758Y-121059500D01*
X97519444Y-121059500D01*
X97519445Y-121059499D01*
X97674097Y-121028737D01*
X97819779Y-120968394D01*
X97950889Y-120880789D01*
X98062389Y-120769289D01*
X98149994Y-120638179D01*
X98210337Y-120492497D01*
X98241100Y-120337842D01*
X98241100Y-120180158D01*
X98241100Y-120180155D01*
X98241099Y-120180153D01*
X98235846Y-120153744D01*
X98210337Y-120025503D01*
X98182302Y-119957819D01*
X98149997Y-119879828D01*
X98149996Y-119879827D01*
X98149994Y-119879821D01*
X98111996Y-119822953D01*
X98091120Y-119756276D01*
X98091100Y-119754064D01*
X98091100Y-117935507D01*
X98110785Y-117868468D01*
X98127414Y-117847831D01*
X114917807Y-101057437D01*
X114979128Y-101023954D01*
X115048820Y-101028938D01*
G37*
%TD.AperFunction*%
%TA.AperFunction,Conductor*%
G36*
X129516997Y-133570046D02*
G01*
X129517146Y-133569589D01*
X129723870Y-133636757D01*
X129933754Y-133670000D01*
X130146246Y-133670000D01*
X130356126Y-133636758D01*
X130483981Y-133595215D01*
X130553822Y-133593220D01*
X130613655Y-133629300D01*
X130644484Y-133692001D01*
X130646300Y-133713146D01*
X130646300Y-135516853D01*
X130626615Y-135583892D01*
X130573811Y-135629647D01*
X130504653Y-135639591D01*
X130483982Y-135634784D01*
X130356129Y-135593242D01*
X130146246Y-135560000D01*
X129933754Y-135560000D01*
X129723872Y-135593242D01*
X129723869Y-135593242D01*
X129521782Y-135658904D01*
X129332439Y-135755380D01*
X129278282Y-135794727D01*
X129278282Y-135794728D01*
X129910591Y-136427037D01*
X129847007Y-136444075D01*
X129732993Y-136509901D01*
X129639901Y-136602993D01*
X129574075Y-136717007D01*
X129557037Y-136780591D01*
X128886818Y-136110372D01*
X128853333Y-136049049D01*
X128850499Y-136022691D01*
X128850499Y-136012129D01*
X128850498Y-136012123D01*
X128850497Y-136012116D01*
X128844091Y-135952517D01*
X128821105Y-135890889D01*
X128793797Y-135817671D01*
X128793793Y-135817664D01*
X128742123Y-135748643D01*
X128707546Y-135702454D01*
X128660972Y-135667588D01*
X128619102Y-135611656D01*
X128614118Y-135541964D01*
X128647603Y-135480642D01*
X129206971Y-134921275D01*
X129206971Y-134921274D01*
X129206976Y-134921270D01*
X129250786Y-134855703D01*
X129278164Y-134814729D01*
X129278207Y-134814626D01*
X129327201Y-134696344D01*
X129338409Y-134639998D01*
X129352200Y-134570671D01*
X129352200Y-133686431D01*
X129371885Y-133619392D01*
X129424689Y-133573637D01*
X129493847Y-133563693D01*
X129516997Y-133570046D01*
G37*
%TD.AperFunction*%
%TA.AperFunction,Conductor*%
G36*
X131321534Y-106445525D02*
G01*
X131377467Y-106487397D01*
X131401884Y-106552861D01*
X131402200Y-106561707D01*
X131402200Y-108484990D01*
X131382515Y-108552029D01*
X131365881Y-108572671D01*
X130747962Y-109190590D01*
X130730925Y-109127007D01*
X130665099Y-109012993D01*
X130572007Y-108919901D01*
X130457993Y-108854075D01*
X130394408Y-108837037D01*
X131026716Y-108204728D01*
X130972550Y-108165375D01*
X130783217Y-108068904D01*
X130581129Y-108003242D01*
X130371246Y-107970000D01*
X130158753Y-107970000D01*
X129984117Y-107997659D01*
X129914824Y-107988704D01*
X129861372Y-107943708D01*
X129840733Y-107876956D01*
X129859458Y-107809643D01*
X129877035Y-107787509D01*
X131190519Y-106474026D01*
X131251842Y-106440541D01*
X131321534Y-106445525D01*
G37*
%TD.AperFunction*%
%TA.AperFunction,Conductor*%
G36*
X129444956Y-103522885D02*
G01*
X129490711Y-103575689D01*
X129496393Y-103607839D01*
X130135591Y-104247037D01*
X130072007Y-104264075D01*
X129957993Y-104329901D01*
X129864901Y-104422993D01*
X129799075Y-104537007D01*
X129782037Y-104600591D01*
X129111818Y-103930372D01*
X129078993Y-103871917D01*
X129075499Y-103857510D01*
X129075499Y-103832128D01*
X129069091Y-103772517D01*
X129028474Y-103663617D01*
X129026730Y-103656426D01*
X129028056Y-103628614D01*
X129026070Y-103600841D01*
X129029697Y-103594197D01*
X129030058Y-103586636D01*
X129046209Y-103563957D01*
X129059555Y-103539518D01*
X129066200Y-103535889D01*
X129070591Y-103529725D01*
X129096438Y-103519379D01*
X129120879Y-103506034D01*
X129133047Y-103504725D01*
X129135457Y-103503761D01*
X129137806Y-103504213D01*
X129147236Y-103503200D01*
X129377917Y-103503200D01*
X129444956Y-103522885D01*
G37*
%TD.AperFunction*%
%TA.AperFunction,Conductor*%
G36*
X129799075Y-100332993D02*
G01*
X129864901Y-100447007D01*
X129957993Y-100540099D01*
X130072007Y-100605925D01*
X130135591Y-100622962D01*
X129510572Y-101247981D01*
X129483644Y-101262684D01*
X129457826Y-101279277D01*
X129451625Y-101280168D01*
X129449249Y-101281466D01*
X129422891Y-101284300D01*
X129178006Y-101284300D01*
X129110967Y-101264615D01*
X129065212Y-101211811D01*
X129055268Y-101142653D01*
X129061824Y-101116966D01*
X129069090Y-101097485D01*
X129069089Y-101097485D01*
X129069091Y-101097483D01*
X129075500Y-101037873D01*
X129075499Y-101027312D01*
X129095179Y-100960275D01*
X129111818Y-100939626D01*
X129782037Y-100269408D01*
X129799075Y-100332993D01*
G37*
%TD.AperFunction*%
%TA.AperFunction,Conductor*%
G36*
X179504043Y-66500765D02*
G01*
X179752895Y-66517075D01*
X179768953Y-66519190D01*
X179976105Y-66560395D01*
X180009535Y-66567045D01*
X180025202Y-66571243D01*
X180194947Y-66628863D01*
X180257481Y-66650091D01*
X180272458Y-66656294D01*
X180481799Y-66759529D01*
X180492460Y-66764787D01*
X180506506Y-66772897D01*
X180710460Y-66909174D01*
X180723329Y-66919048D01*
X180907749Y-67080781D01*
X180919218Y-67092250D01*
X181080951Y-67276670D01*
X181090825Y-67289539D01*
X181227102Y-67493493D01*
X181235212Y-67507539D01*
X181343702Y-67727534D01*
X181349909Y-67742520D01*
X181428756Y-67974797D01*
X181432954Y-67990464D01*
X181480807Y-68231035D01*
X181482925Y-68247116D01*
X181499235Y-68495956D01*
X181499500Y-68504066D01*
X181499500Y-153495933D01*
X181499235Y-153504043D01*
X181482925Y-153752883D01*
X181480807Y-153768964D01*
X181432954Y-154009535D01*
X181428756Y-154025202D01*
X181349909Y-154257479D01*
X181343702Y-154272465D01*
X181235212Y-154492460D01*
X181227102Y-154506506D01*
X181090825Y-154710460D01*
X181080951Y-154723329D01*
X180919218Y-154907749D01*
X180907749Y-154919218D01*
X180723329Y-155080951D01*
X180710460Y-155090825D01*
X180506506Y-155227102D01*
X180492460Y-155235212D01*
X180272465Y-155343702D01*
X180257479Y-155349909D01*
X180025202Y-155428756D01*
X180009535Y-155432954D01*
X179768964Y-155480807D01*
X179752883Y-155482925D01*
X179504043Y-155499235D01*
X179495933Y-155499500D01*
X84504067Y-155499500D01*
X84495957Y-155499235D01*
X84247116Y-155482925D01*
X84231035Y-155480807D01*
X83990464Y-155432954D01*
X83974797Y-155428756D01*
X83742520Y-155349909D01*
X83727534Y-155343702D01*
X83507539Y-155235212D01*
X83493493Y-155227102D01*
X83289539Y-155090825D01*
X83276670Y-155080951D01*
X83092250Y-154919218D01*
X83080781Y-154907749D01*
X82919048Y-154723329D01*
X82909174Y-154710460D01*
X82772897Y-154506506D01*
X82764787Y-154492460D01*
X82658855Y-154277652D01*
X82656294Y-154272458D01*
X82650090Y-154257479D01*
X82571243Y-154025202D01*
X82567045Y-154009535D01*
X82559186Y-153970026D01*
X82519190Y-153768953D01*
X82517075Y-153752895D01*
X82500765Y-153504043D01*
X82500500Y-153495933D01*
X82500500Y-123275928D01*
X82849500Y-123275928D01*
X82849500Y-123275931D01*
X82849500Y-139564069D01*
X82866156Y-139647800D01*
X82874499Y-139689744D01*
X82923535Y-139808127D01*
X82994723Y-139914669D01*
X82994726Y-139914673D01*
X89085324Y-146005271D01*
X89085331Y-146005277D01*
X89191871Y-146076464D01*
X89191870Y-146076464D01*
X89226544Y-146090826D01*
X89310256Y-146125501D01*
X89310260Y-146125501D01*
X89310261Y-146125502D01*
X89435928Y-146150500D01*
X89435931Y-146150500D01*
X118564071Y-146150500D01*
X118648615Y-146133682D01*
X118689744Y-146125501D01*
X118808127Y-146076465D01*
X118914669Y-146005277D01*
X123505277Y-141414669D01*
X123576465Y-141308127D01*
X123625501Y-141189744D01*
X123633176Y-141151158D01*
X123650500Y-141064069D01*
X123650500Y-128820808D01*
X123670185Y-128753769D01*
X123686819Y-128733127D01*
X124003127Y-128416819D01*
X124064450Y-128383334D01*
X124090808Y-128380500D01*
X126025501Y-128380500D01*
X126092540Y-128400185D01*
X126138295Y-128452989D01*
X126149501Y-128504500D01*
X126149501Y-128627876D01*
X126155908Y-128687483D01*
X126206202Y-128822328D01*
X126206206Y-128822335D01*
X126292452Y-128937544D01*
X126292455Y-128937547D01*
X126407664Y-129023793D01*
X126407671Y-129023797D01*
X126542517Y-129074091D01*
X126542516Y-129074091D01*
X126549444Y-129074835D01*
X126602127Y-129080500D01*
X127927200Y-129080499D01*
X127994239Y-129100184D01*
X128039994Y-129152987D01*
X128051200Y-129204499D01*
X128051200Y-130845500D01*
X128031515Y-130912539D01*
X127978711Y-130958294D01*
X127927200Y-130969500D01*
X126602129Y-130969500D01*
X126602123Y-130969501D01*
X126542516Y-130975908D01*
X126407671Y-131026202D01*
X126407664Y-131026206D01*
X126292455Y-131112452D01*
X126292452Y-131112455D01*
X126206206Y-131227664D01*
X126206202Y-131227671D01*
X126155908Y-131362517D01*
X126149501Y-131422116D01*
X126149500Y-131422135D01*
X126149500Y-133217870D01*
X126149501Y-133217876D01*
X126155908Y-133277483D01*
X126206202Y-133412328D01*
X126206206Y-133412335D01*
X126292452Y-133527544D01*
X126292455Y-133527547D01*
X126407664Y-133613793D01*
X126407671Y-133613797D01*
X126542517Y-133664091D01*
X126542516Y-133664091D01*
X126549444Y-133664835D01*
X126602127Y-133670500D01*
X127927200Y-133670499D01*
X127994239Y-133690184D01*
X128039994Y-133742987D01*
X128051200Y-133794499D01*
X128051200Y-134185791D01*
X128031515Y-134252830D01*
X128014881Y-134273472D01*
X126994727Y-135293625D01*
X126994726Y-135293626D01*
X126923533Y-135400174D01*
X126889246Y-135482953D01*
X126845405Y-135537356D01*
X126779111Y-135559421D01*
X126774686Y-135559500D01*
X126602130Y-135559500D01*
X126602123Y-135559501D01*
X126542516Y-135565908D01*
X126407671Y-135616202D01*
X126407664Y-135616206D01*
X126292455Y-135702452D01*
X126292452Y-135702455D01*
X126206206Y-135817664D01*
X126206202Y-135817671D01*
X126155908Y-135952517D01*
X126149501Y-136012116D01*
X126149501Y-136012123D01*
X126149500Y-136012135D01*
X126149500Y-137807870D01*
X126149501Y-137807876D01*
X126155908Y-137867483D01*
X126206202Y-138002328D01*
X126206206Y-138002335D01*
X126292452Y-138117544D01*
X126292455Y-138117547D01*
X126407664Y-138203793D01*
X126407671Y-138203797D01*
X126542517Y-138254091D01*
X126542516Y-138254091D01*
X126549444Y-138254835D01*
X126602127Y-138260500D01*
X128397872Y-138260499D01*
X128457483Y-138254091D01*
X128592331Y-138203796D01*
X128707546Y-138117546D01*
X128793796Y-138002331D01*
X128844091Y-137867483D01*
X128850500Y-137807873D01*
X128850499Y-137797312D01*
X128870179Y-137730275D01*
X128886818Y-137709626D01*
X129557037Y-137039408D01*
X129574075Y-137102993D01*
X129639901Y-137217007D01*
X129732993Y-137310099D01*
X129847007Y-137375925D01*
X129910589Y-137392962D01*
X129278282Y-138025269D01*
X129278282Y-138025270D01*
X129332449Y-138064624D01*
X129433823Y-138116277D01*
X129484619Y-138164252D01*
X129501414Y-138232073D01*
X129478877Y-138298207D01*
X129465209Y-138314443D01*
X128168173Y-139611481D01*
X128106850Y-139644966D01*
X128080492Y-139647800D01*
X127435929Y-139647800D01*
X127310261Y-139672797D01*
X127310255Y-139672799D01*
X127191875Y-139721833D01*
X127191866Y-139721838D01*
X127085331Y-139793023D01*
X127085327Y-139793026D01*
X126994726Y-139883627D01*
X126994723Y-139883631D01*
X126923538Y-139990166D01*
X126923533Y-139990176D01*
X126889246Y-140072953D01*
X126845405Y-140127356D01*
X126779111Y-140149421D01*
X126774686Y-140149500D01*
X126602130Y-140149500D01*
X126602123Y-140149501D01*
X126542516Y-140155908D01*
X126407671Y-140206202D01*
X126407664Y-140206206D01*
X126292455Y-140292452D01*
X126292452Y-140292455D01*
X126206206Y-140407664D01*
X126206202Y-140407671D01*
X126155908Y-140542517D01*
X126149501Y-140602116D01*
X126149500Y-140602135D01*
X126149500Y-142397870D01*
X126149501Y-142397876D01*
X126155908Y-142457483D01*
X126206202Y-142592328D01*
X126206206Y-142592335D01*
X126292452Y-142707544D01*
X126292455Y-142707547D01*
X126407664Y-142793793D01*
X126407671Y-142793797D01*
X126542517Y-142844091D01*
X126542516Y-142844091D01*
X126549444Y-142844835D01*
X126602127Y-142850500D01*
X128397872Y-142850499D01*
X128457483Y-142844091D01*
X128592331Y-142793796D01*
X128707546Y-142707546D01*
X128793796Y-142592331D01*
X128844091Y-142457483D01*
X128850500Y-142397873D01*
X128850499Y-142373979D01*
X128853330Y-142360963D01*
X128863940Y-142341525D01*
X128870179Y-142320275D01*
X128886803Y-142299643D01*
X128886808Y-142299636D01*
X128886811Y-142299634D01*
X128886818Y-142299626D01*
X129557037Y-141629408D01*
X129574075Y-141692993D01*
X129639901Y-141807007D01*
X129732993Y-141900099D01*
X129847007Y-141965925D01*
X129910590Y-141982962D01*
X129278282Y-142615269D01*
X129278282Y-142615270D01*
X129332449Y-142654624D01*
X129521782Y-142751095D01*
X129723870Y-142816757D01*
X129933754Y-142850000D01*
X130146246Y-142850000D01*
X130356127Y-142816757D01*
X130356130Y-142816757D01*
X130558217Y-142751095D01*
X130747554Y-142654622D01*
X130801716Y-142615270D01*
X130801717Y-142615270D01*
X130169408Y-141982962D01*
X130232993Y-141965925D01*
X130347007Y-141900099D01*
X130440099Y-141807007D01*
X130505925Y-141692993D01*
X130522962Y-141629409D01*
X131155270Y-142261717D01*
X131155270Y-142261716D01*
X131194622Y-142207554D01*
X131291095Y-142018217D01*
X131356757Y-141816130D01*
X131356757Y-141816127D01*
X131390000Y-141606246D01*
X131390000Y-141393753D01*
X131356757Y-141183872D01*
X131356757Y-141183869D01*
X131291095Y-140981782D01*
X131194624Y-140792449D01*
X131155270Y-140738282D01*
X131155269Y-140738282D01*
X130522962Y-141370590D01*
X130505925Y-141307007D01*
X130440099Y-141192993D01*
X130347007Y-141099901D01*
X130232993Y-141034075D01*
X130169408Y-141017037D01*
X130801716Y-140384728D01*
X130747550Y-140345375D01*
X130558217Y-140248904D01*
X130356129Y-140183242D01*
X130146246Y-140150000D01*
X129933753Y-140150000D01*
X129759117Y-140177659D01*
X129689824Y-140168704D01*
X129636372Y-140123708D01*
X129615733Y-140056956D01*
X129634458Y-139989643D01*
X129652034Y-139967511D01*
X131802076Y-137817470D01*
X131873265Y-137710927D01*
X131922301Y-137592544D01*
X131931205Y-137547782D01*
X131947300Y-137466869D01*
X131947300Y-131949984D01*
X158799500Y-131949984D01*
X158799500Y-133950015D01*
X158810000Y-134052795D01*
X158810001Y-134052797D01*
X158824316Y-134095996D01*
X158865186Y-134219335D01*
X158865187Y-134219337D01*
X158957286Y-134368651D01*
X158957289Y-134368655D01*
X159081344Y-134492710D01*
X159081348Y-134492713D01*
X159230662Y-134584812D01*
X159230664Y-134584813D01*
X159230666Y-134584814D01*
X159397203Y-134639999D01*
X159499992Y-134650500D01*
X159499997Y-134650500D01*
X159778674Y-134650500D01*
X159845713Y-134670185D01*
X159891468Y-134722989D01*
X159901412Y-134792147D01*
X159872387Y-134855703D01*
X159826127Y-134889061D01*
X159746497Y-134922045D01*
X159746479Y-134922054D01*
X159553511Y-135033462D01*
X159487595Y-135084042D01*
X160288941Y-135885387D01*
X160268409Y-135890889D01*
X160131592Y-135969881D01*
X160019881Y-136081592D01*
X159940889Y-136218409D01*
X159935387Y-136238940D01*
X159134042Y-135437595D01*
X159083462Y-135503511D01*
X158972054Y-135696479D01*
X158972045Y-135696497D01*
X158886763Y-135902381D01*
X158829088Y-136117632D01*
X158829085Y-136117645D01*
X158800000Y-136338575D01*
X158800000Y-136561424D01*
X158829085Y-136782354D01*
X158829088Y-136782367D01*
X158886763Y-136997618D01*
X158972045Y-137203502D01*
X158972054Y-137203520D01*
X159083464Y-137396491D01*
X159083473Y-137396504D01*
X159134040Y-137462403D01*
X159134043Y-137462403D01*
X159935387Y-136661059D01*
X159940889Y-136681591D01*
X160019881Y-136818408D01*
X160131592Y-136930119D01*
X160268409Y-137009111D01*
X160288940Y-137014612D01*
X159487595Y-137815955D01*
X159487595Y-137815956D01*
X159553507Y-137866533D01*
X159746485Y-137977949D01*
X159746497Y-137977954D01*
X159952381Y-138063236D01*
X160167632Y-138120911D01*
X160167645Y-138120914D01*
X160388575Y-138150000D01*
X160611425Y-138150000D01*
X160832354Y-138120914D01*
X160832367Y-138120911D01*
X161047618Y-138063236D01*
X161253502Y-137977954D01*
X161253514Y-137977949D01*
X161446498Y-137866530D01*
X161512403Y-137815957D01*
X161512404Y-137815956D01*
X160711059Y-137014612D01*
X160731591Y-137009111D01*
X160868408Y-136930119D01*
X160980119Y-136818408D01*
X161059111Y-136681591D01*
X161064612Y-136661059D01*
X161865956Y-137462404D01*
X161865957Y-137462403D01*
X161916530Y-137396498D01*
X162027949Y-137203514D01*
X162027954Y-137203502D01*
X162113236Y-136997618D01*
X162170911Y-136782367D01*
X162170914Y-136782354D01*
X162200000Y-136561424D01*
X162200000Y-136338575D01*
X162170914Y-136117645D01*
X162170911Y-136117632D01*
X162113236Y-135902381D01*
X162027954Y-135696497D01*
X162027949Y-135696485D01*
X161916533Y-135503507D01*
X161865956Y-135437595D01*
X161865955Y-135437595D01*
X161064612Y-136238939D01*
X161059111Y-136218409D01*
X160980119Y-136081592D01*
X160868408Y-135969881D01*
X160731591Y-135890889D01*
X160711058Y-135885387D01*
X161496462Y-135099984D01*
X169299500Y-135099984D01*
X169299500Y-137100015D01*
X169310000Y-137202795D01*
X169310001Y-137202796D01*
X169365186Y-137369335D01*
X169365187Y-137369337D01*
X169457286Y-137518651D01*
X169457289Y-137518655D01*
X169581344Y-137642710D01*
X169581348Y-137642713D01*
X169730662Y-137734812D01*
X169730664Y-137734813D01*
X169730666Y-137734814D01*
X169897203Y-137789999D01*
X169999992Y-137800500D01*
X169999997Y-137800500D01*
X172000003Y-137800500D01*
X172000008Y-137800500D01*
X172102797Y-137789999D01*
X172269334Y-137734814D01*
X172418655Y-137642711D01*
X172542711Y-137518655D01*
X172634814Y-137369334D01*
X172689999Y-137202797D01*
X172700500Y-137100008D01*
X172700500Y-135099992D01*
X172689999Y-134997203D01*
X172634814Y-134830666D01*
X172624920Y-134814626D01*
X172542713Y-134681348D01*
X172542710Y-134681344D01*
X172418655Y-134557289D01*
X172418651Y-134557286D01*
X172269337Y-134465187D01*
X172269335Y-134465186D01*
X172186065Y-134437593D01*
X172102797Y-134410001D01*
X172102795Y-134410000D01*
X172000015Y-134399500D01*
X172000008Y-134399500D01*
X171721326Y-134399500D01*
X171654287Y-134379815D01*
X171608532Y-134327011D01*
X171598588Y-134257853D01*
X171627613Y-134194297D01*
X171673873Y-134160939D01*
X171753502Y-134127954D01*
X171753514Y-134127949D01*
X171946498Y-134016530D01*
X172012403Y-133965957D01*
X172012404Y-133965956D01*
X171211059Y-133164612D01*
X171231591Y-133159111D01*
X171368408Y-133080119D01*
X171480119Y-132968408D01*
X171559111Y-132831591D01*
X171564612Y-132811060D01*
X172365956Y-133612404D01*
X172365957Y-133612403D01*
X172416530Y-133546498D01*
X172527949Y-133353514D01*
X172527954Y-133353502D01*
X172613236Y-133147618D01*
X172670911Y-132932367D01*
X172670914Y-132932354D01*
X172700000Y-132711424D01*
X172700000Y-132488575D01*
X172670914Y-132267645D01*
X172670911Y-132267632D01*
X172613236Y-132052381D01*
X172527954Y-131846497D01*
X172527949Y-131846485D01*
X172416533Y-131653507D01*
X172365956Y-131587595D01*
X172365955Y-131587595D01*
X171564612Y-132388939D01*
X171559111Y-132368409D01*
X171480119Y-132231592D01*
X171368408Y-132119881D01*
X171231591Y-132040889D01*
X171211058Y-132035387D01*
X172012403Y-131234043D01*
X172012403Y-131234040D01*
X171946504Y-131183473D01*
X171946491Y-131183464D01*
X171753520Y-131072054D01*
X171753502Y-131072045D01*
X171547618Y-130986763D01*
X171332367Y-130929088D01*
X171332354Y-130929085D01*
X171111425Y-130900000D01*
X170888575Y-130900000D01*
X170667645Y-130929085D01*
X170667632Y-130929088D01*
X170452381Y-130986763D01*
X170246497Y-131072045D01*
X170246479Y-131072054D01*
X170053511Y-131183462D01*
X169987595Y-131234042D01*
X170788941Y-132035387D01*
X170768409Y-132040889D01*
X170631592Y-132119881D01*
X170519881Y-132231592D01*
X170440889Y-132368409D01*
X170435387Y-132388940D01*
X169634042Y-131587595D01*
X169583462Y-131653511D01*
X169472054Y-131846479D01*
X169472045Y-131846497D01*
X169386763Y-132052381D01*
X169329088Y-132267632D01*
X169329085Y-132267645D01*
X169300000Y-132488575D01*
X169300000Y-132711424D01*
X169329085Y-132932354D01*
X169329088Y-132932367D01*
X169386763Y-133147618D01*
X169472045Y-133353502D01*
X169472054Y-133353520D01*
X169583464Y-133546491D01*
X169583473Y-133546504D01*
X169634040Y-133612403D01*
X169634043Y-133612403D01*
X170435387Y-132811059D01*
X170440889Y-132831591D01*
X170519881Y-132968408D01*
X170631592Y-133080119D01*
X170768409Y-133159111D01*
X170788940Y-133164612D01*
X169987595Y-133965955D01*
X169987595Y-133965956D01*
X170053507Y-134016533D01*
X170246485Y-134127949D01*
X170246497Y-134127954D01*
X170326127Y-134160939D01*
X170380531Y-134204780D01*
X170402595Y-134271075D01*
X170385315Y-134338774D01*
X170334178Y-134386384D01*
X170278674Y-134399500D01*
X169999984Y-134399500D01*
X169897204Y-134410000D01*
X169897203Y-134410001D01*
X169730664Y-134465186D01*
X169730662Y-134465187D01*
X169581348Y-134557286D01*
X169581344Y-134557289D01*
X169457289Y-134681344D01*
X169457286Y-134681348D01*
X169365187Y-134830662D01*
X169365186Y-134830664D01*
X169310001Y-134997203D01*
X169310000Y-134997204D01*
X169299500Y-135099984D01*
X161496462Y-135099984D01*
X161512403Y-135084043D01*
X161512403Y-135084040D01*
X161446504Y-135033473D01*
X161446491Y-135033464D01*
X161253520Y-134922054D01*
X161253502Y-134922045D01*
X161173873Y-134889061D01*
X161119469Y-134845220D01*
X161097405Y-134778925D01*
X161114685Y-134711226D01*
X161165822Y-134663616D01*
X161221326Y-134650500D01*
X161500003Y-134650500D01*
X161500008Y-134650500D01*
X161602797Y-134639999D01*
X161769334Y-134584814D01*
X161918655Y-134492711D01*
X162042711Y-134368655D01*
X162134814Y-134219334D01*
X162189999Y-134052797D01*
X162200500Y-133950008D01*
X162200500Y-131949992D01*
X162189999Y-131847203D01*
X162134814Y-131680666D01*
X162118064Y-131653511D01*
X162042713Y-131531348D01*
X162042710Y-131531344D01*
X161918654Y-131407288D01*
X161886626Y-131387533D01*
X161886624Y-131387531D01*
X161769337Y-131315187D01*
X161769335Y-131315186D01*
X161686065Y-131287593D01*
X161602797Y-131260001D01*
X161602795Y-131260000D01*
X161500015Y-131249500D01*
X161500008Y-131249500D01*
X159499992Y-131249500D01*
X159499984Y-131249500D01*
X159397204Y-131260000D01*
X159397203Y-131260001D01*
X159230664Y-131315186D01*
X159230662Y-131315187D01*
X159081348Y-131407286D01*
X159081344Y-131407289D01*
X158957289Y-131531344D01*
X158957286Y-131531348D01*
X158865187Y-131680662D01*
X158865186Y-131680664D01*
X158810001Y-131847203D01*
X158810000Y-131847204D01*
X158799500Y-131949984D01*
X131947300Y-131949984D01*
X131947300Y-122899984D01*
X158799500Y-122899984D01*
X158799500Y-124900015D01*
X158810000Y-125002795D01*
X158810001Y-125002797D01*
X158845836Y-125110939D01*
X158865186Y-125169334D01*
X158957286Y-125318651D01*
X158957289Y-125318655D01*
X159081344Y-125442710D01*
X159081348Y-125442713D01*
X159230662Y-125534812D01*
X159230664Y-125534813D01*
X159230666Y-125534814D01*
X159397203Y-125589999D01*
X159499992Y-125600500D01*
X159499997Y-125600500D01*
X159778674Y-125600500D01*
X159845713Y-125620185D01*
X159891468Y-125672989D01*
X159901412Y-125742147D01*
X159872387Y-125805703D01*
X159826127Y-125839061D01*
X159746497Y-125872045D01*
X159746479Y-125872054D01*
X159553511Y-125983462D01*
X159487595Y-126034042D01*
X160288941Y-126835387D01*
X160268409Y-126840889D01*
X160131592Y-126919881D01*
X160019881Y-127031592D01*
X159940889Y-127168409D01*
X159935387Y-127188940D01*
X159134042Y-126387595D01*
X159083462Y-126453511D01*
X158972054Y-126646479D01*
X158972045Y-126646497D01*
X158886763Y-126852381D01*
X158829088Y-127067632D01*
X158829085Y-127067645D01*
X158800000Y-127288575D01*
X158800000Y-127511424D01*
X158829085Y-127732354D01*
X158829088Y-127732367D01*
X158886763Y-127947618D01*
X158972045Y-128153502D01*
X158972054Y-128153520D01*
X159083464Y-128346491D01*
X159083473Y-128346504D01*
X159134040Y-128412403D01*
X159134043Y-128412403D01*
X159935387Y-127611059D01*
X159940889Y-127631591D01*
X160019881Y-127768408D01*
X160131592Y-127880119D01*
X160268409Y-127959111D01*
X160288940Y-127964612D01*
X159487595Y-128765955D01*
X159487595Y-128765956D01*
X159553507Y-128816533D01*
X159746485Y-128927949D01*
X159746497Y-128927954D01*
X159952381Y-129013236D01*
X160167632Y-129070911D01*
X160167645Y-129070914D01*
X160388575Y-129100000D01*
X160611425Y-129100000D01*
X160832354Y-129070914D01*
X160832367Y-129070911D01*
X161047618Y-129013236D01*
X161253502Y-128927954D01*
X161253514Y-128927949D01*
X161446498Y-128816530D01*
X161512403Y-128765957D01*
X161512404Y-128765956D01*
X160711059Y-127964612D01*
X160731591Y-127959111D01*
X160868408Y-127880119D01*
X160980119Y-127768408D01*
X161059111Y-127631591D01*
X161064612Y-127611059D01*
X161865956Y-128412404D01*
X161865957Y-128412403D01*
X161916530Y-128346498D01*
X162027949Y-128153514D01*
X162027954Y-128153502D01*
X162113236Y-127947618D01*
X162170911Y-127732367D01*
X162170914Y-127732354D01*
X162200000Y-127511424D01*
X162200000Y-127288575D01*
X162170914Y-127067645D01*
X162170911Y-127067632D01*
X162113236Y-126852381D01*
X162027954Y-126646497D01*
X162027949Y-126646485D01*
X161916533Y-126453507D01*
X161865956Y-126387595D01*
X161865955Y-126387595D01*
X161064612Y-127188939D01*
X161059111Y-127168409D01*
X160980119Y-127031592D01*
X160868408Y-126919881D01*
X160731591Y-126840889D01*
X160711058Y-126835387D01*
X161496462Y-126049984D01*
X169299500Y-126049984D01*
X169299500Y-128050015D01*
X169310000Y-128152795D01*
X169310001Y-128152796D01*
X169365186Y-128319335D01*
X169365187Y-128319337D01*
X169457286Y-128468651D01*
X169457289Y-128468655D01*
X169581344Y-128592710D01*
X169581348Y-128592713D01*
X169730662Y-128684812D01*
X169730664Y-128684813D01*
X169730666Y-128684814D01*
X169897203Y-128739999D01*
X169999992Y-128750500D01*
X169999997Y-128750500D01*
X172000003Y-128750500D01*
X172000008Y-128750500D01*
X172102797Y-128739999D01*
X172269334Y-128684814D01*
X172418655Y-128592711D01*
X172542711Y-128468655D01*
X172634814Y-128319334D01*
X172689999Y-128152797D01*
X172700500Y-128050008D01*
X172700500Y-126049992D01*
X172689999Y-125947203D01*
X172634814Y-125780666D01*
X172627893Y-125769446D01*
X172542713Y-125631348D01*
X172542710Y-125631344D01*
X172418655Y-125507289D01*
X172418651Y-125507286D01*
X172269337Y-125415187D01*
X172269335Y-125415186D01*
X172186065Y-125387593D01*
X172102797Y-125360001D01*
X172102795Y-125360000D01*
X172000015Y-125349500D01*
X172000008Y-125349500D01*
X171721326Y-125349500D01*
X171654287Y-125329815D01*
X171608532Y-125277011D01*
X171598588Y-125207853D01*
X171627613Y-125144297D01*
X171673873Y-125110939D01*
X171753502Y-125077954D01*
X171753514Y-125077949D01*
X171946498Y-124966530D01*
X172012403Y-124915957D01*
X172012404Y-124915956D01*
X171211059Y-124114612D01*
X171231591Y-124109111D01*
X171368408Y-124030119D01*
X171480119Y-123918408D01*
X171559111Y-123781591D01*
X171564612Y-123761060D01*
X172365956Y-124562404D01*
X172365957Y-124562403D01*
X172416530Y-124496498D01*
X172527949Y-124303514D01*
X172527954Y-124303502D01*
X172613236Y-124097618D01*
X172670911Y-123882367D01*
X172670914Y-123882354D01*
X172700000Y-123661424D01*
X172700000Y-123438575D01*
X172670914Y-123217645D01*
X172670911Y-123217632D01*
X172613236Y-123002381D01*
X172527954Y-122796497D01*
X172527949Y-122796485D01*
X172416533Y-122603507D01*
X172365956Y-122537595D01*
X172365955Y-122537595D01*
X171564612Y-123338939D01*
X171559111Y-123318409D01*
X171480119Y-123181592D01*
X171368408Y-123069881D01*
X171231591Y-122990889D01*
X171211058Y-122985387D01*
X172012403Y-122184043D01*
X172012403Y-122184040D01*
X171946504Y-122133473D01*
X171946491Y-122133464D01*
X171753520Y-122022054D01*
X171753502Y-122022045D01*
X171547618Y-121936763D01*
X171332367Y-121879088D01*
X171332354Y-121879085D01*
X171111425Y-121850000D01*
X170888575Y-121850000D01*
X170667645Y-121879085D01*
X170667632Y-121879088D01*
X170452381Y-121936763D01*
X170246497Y-122022045D01*
X170246479Y-122022054D01*
X170053511Y-122133462D01*
X169987595Y-122184042D01*
X170788941Y-122985387D01*
X170768409Y-122990889D01*
X170631592Y-123069881D01*
X170519881Y-123181592D01*
X170440889Y-123318409D01*
X170435387Y-123338940D01*
X169634042Y-122537595D01*
X169583462Y-122603511D01*
X169472054Y-122796479D01*
X169472045Y-122796497D01*
X169386763Y-123002381D01*
X169329088Y-123217632D01*
X169329085Y-123217645D01*
X169300000Y-123438575D01*
X169300000Y-123661424D01*
X169329085Y-123882354D01*
X169329088Y-123882367D01*
X169386763Y-124097618D01*
X169472045Y-124303502D01*
X169472054Y-124303520D01*
X169583464Y-124496491D01*
X169583473Y-124496504D01*
X169634040Y-124562403D01*
X169634043Y-124562403D01*
X170435387Y-123761059D01*
X170440889Y-123781591D01*
X170519881Y-123918408D01*
X170631592Y-124030119D01*
X170768409Y-124109111D01*
X170788940Y-124114612D01*
X169987595Y-124915955D01*
X169987595Y-124915956D01*
X170053507Y-124966533D01*
X170246485Y-125077949D01*
X170246497Y-125077954D01*
X170326127Y-125110939D01*
X170380531Y-125154780D01*
X170402595Y-125221075D01*
X170385315Y-125288774D01*
X170334178Y-125336384D01*
X170278674Y-125349500D01*
X169999984Y-125349500D01*
X169897204Y-125360000D01*
X169897203Y-125360001D01*
X169730664Y-125415186D01*
X169730662Y-125415187D01*
X169581348Y-125507286D01*
X169581344Y-125507289D01*
X169457289Y-125631344D01*
X169457286Y-125631348D01*
X169365187Y-125780662D01*
X169365186Y-125780664D01*
X169310001Y-125947203D01*
X169310000Y-125947204D01*
X169299500Y-126049984D01*
X161496462Y-126049984D01*
X161512403Y-126034043D01*
X161512403Y-126034040D01*
X161446504Y-125983473D01*
X161446491Y-125983464D01*
X161253520Y-125872054D01*
X161253502Y-125872045D01*
X161173873Y-125839061D01*
X161119469Y-125795220D01*
X161097405Y-125728925D01*
X161114685Y-125661226D01*
X161165822Y-125613616D01*
X161221326Y-125600500D01*
X161500003Y-125600500D01*
X161500008Y-125600500D01*
X161602797Y-125589999D01*
X161769334Y-125534814D01*
X161918655Y-125442711D01*
X162042711Y-125318655D01*
X162134814Y-125169334D01*
X162189999Y-125002797D01*
X162200500Y-124900008D01*
X162200500Y-122899992D01*
X162189999Y-122797203D01*
X162134814Y-122630666D01*
X162118064Y-122603511D01*
X162042713Y-122481348D01*
X162042710Y-122481344D01*
X161918654Y-122357288D01*
X161886626Y-122337533D01*
X161886624Y-122337531D01*
X161769337Y-122265187D01*
X161769335Y-122265186D01*
X161686065Y-122237593D01*
X161602797Y-122210001D01*
X161602795Y-122210000D01*
X161500015Y-122199500D01*
X161500008Y-122199500D01*
X159499992Y-122199500D01*
X159499984Y-122199500D01*
X159397204Y-122210000D01*
X159397203Y-122210001D01*
X159230664Y-122265186D01*
X159230662Y-122265187D01*
X159081348Y-122357286D01*
X159081344Y-122357289D01*
X158957289Y-122481344D01*
X158957286Y-122481348D01*
X158865187Y-122630662D01*
X158865186Y-122630664D01*
X158810001Y-122797203D01*
X158810000Y-122797204D01*
X158799500Y-122899984D01*
X131947300Y-122899984D01*
X131947300Y-122566531D01*
X131947300Y-122566528D01*
X131922302Y-122440861D01*
X131922301Y-122440860D01*
X131922301Y-122440856D01*
X131898125Y-122382490D01*
X131898124Y-122382488D01*
X131873269Y-122322481D01*
X131873268Y-122322480D01*
X131873266Y-122322474D01*
X131834988Y-122265187D01*
X131802078Y-122215932D01*
X131802072Y-122215925D01*
X129465391Y-119879244D01*
X129431906Y-119817921D01*
X129436890Y-119748229D01*
X129478762Y-119692296D01*
X129544226Y-119667879D01*
X129609367Y-119681078D01*
X129746782Y-119751095D01*
X129948870Y-119816757D01*
X130158754Y-119850000D01*
X130371246Y-119850000D01*
X130581127Y-119816757D01*
X130581130Y-119816757D01*
X130783217Y-119751095D01*
X130972554Y-119654622D01*
X131026716Y-119615270D01*
X131026717Y-119615270D01*
X130394408Y-118982962D01*
X130457993Y-118965925D01*
X130572007Y-118900099D01*
X130665099Y-118807007D01*
X130730925Y-118692993D01*
X130747962Y-118629409D01*
X131380270Y-119261717D01*
X131380272Y-119261716D01*
X131392333Y-119245117D01*
X131419620Y-119207557D01*
X131516095Y-119018217D01*
X131581757Y-118816130D01*
X131581757Y-118816127D01*
X131615000Y-118606246D01*
X131615000Y-118393753D01*
X131581757Y-118183872D01*
X131581757Y-118183869D01*
X131516095Y-117981782D01*
X131495220Y-117940812D01*
X131419624Y-117792450D01*
X131380270Y-117738282D01*
X131380269Y-117738282D01*
X130747962Y-118370590D01*
X130730925Y-118307007D01*
X130665099Y-118192993D01*
X130572007Y-118099901D01*
X130457993Y-118034075D01*
X130394409Y-118017037D01*
X131026716Y-117384728D01*
X130972550Y-117345375D01*
X130783217Y-117248904D01*
X130581129Y-117183242D01*
X130371246Y-117150000D01*
X130158754Y-117150000D01*
X129948872Y-117183242D01*
X129948869Y-117183242D01*
X129746782Y-117248904D01*
X129557439Y-117345380D01*
X129503282Y-117384727D01*
X129503282Y-117384728D01*
X130135591Y-118017037D01*
X130072007Y-118034075D01*
X129957993Y-118099901D01*
X129864901Y-118192993D01*
X129799075Y-118307007D01*
X129782037Y-118370591D01*
X129111818Y-117700372D01*
X129078333Y-117639049D01*
X129078330Y-117639036D01*
X129075499Y-117626015D01*
X129075499Y-117602128D01*
X129069091Y-117542517D01*
X129040926Y-117467002D01*
X129018798Y-117407673D01*
X129018793Y-117407664D01*
X128932547Y-117292455D01*
X128932544Y-117292452D01*
X128817335Y-117206206D01*
X128817328Y-117206202D01*
X128682482Y-117155908D01*
X128682483Y-117155908D01*
X128622883Y-117149501D01*
X128622881Y-117149500D01*
X128622873Y-117149500D01*
X128622864Y-117149500D01*
X126827129Y-117149500D01*
X126827123Y-117149501D01*
X126767516Y-117155908D01*
X126632671Y-117206202D01*
X126632664Y-117206206D01*
X126517455Y-117292452D01*
X126517452Y-117292455D01*
X126431206Y-117407664D01*
X126431202Y-117407671D01*
X126380908Y-117542517D01*
X126374501Y-117602116D01*
X126374500Y-117602135D01*
X126374500Y-118154692D01*
X126354815Y-118221731D01*
X126302011Y-118267486D01*
X126232853Y-118277430D01*
X126169297Y-118248405D01*
X126162819Y-118242373D01*
X125236319Y-117315873D01*
X125202834Y-117254550D01*
X125200000Y-117228192D01*
X125200000Y-113565428D01*
X125175002Y-113439761D01*
X125175001Y-113439760D01*
X125175001Y-113439756D01*
X125125965Y-113321373D01*
X125123773Y-113318092D01*
X125065357Y-113230666D01*
X125054775Y-113214828D01*
X125054772Y-113214825D01*
X117970139Y-106130193D01*
X117936654Y-106068870D01*
X117939888Y-106004197D01*
X117963553Y-105931368D01*
X117972871Y-105872533D01*
X118000500Y-105698097D01*
X118000500Y-105461902D01*
X117963553Y-105228631D01*
X117890566Y-105004003D01*
X117783342Y-104793566D01*
X117644517Y-104602490D01*
X117477510Y-104435483D01*
X117418282Y-104392451D01*
X117375617Y-104337122D01*
X117367550Y-104282404D01*
X117369104Y-104262657D01*
X116637574Y-103531128D01*
X116696853Y-103515245D01*
X116813147Y-103448102D01*
X116908102Y-103353147D01*
X116975245Y-103236853D01*
X116991128Y-103177575D01*
X117722658Y-103909105D01*
X117722658Y-103909104D01*
X117782914Y-103826169D01*
X117782918Y-103826163D01*
X117890102Y-103615802D01*
X117963065Y-103391247D01*
X118000000Y-103158052D01*
X118000000Y-102921947D01*
X117963065Y-102688752D01*
X117890102Y-102464197D01*
X117782914Y-102253828D01*
X117722658Y-102170894D01*
X117722658Y-102170893D01*
X116991128Y-102902424D01*
X116975245Y-102843147D01*
X116908102Y-102726853D01*
X116813147Y-102631898D01*
X116696853Y-102564755D01*
X116637574Y-102548871D01*
X117369105Y-101817340D01*
X117367551Y-101797594D01*
X117381915Y-101729216D01*
X117418284Y-101687547D01*
X117477510Y-101644517D01*
X117644517Y-101477510D01*
X117783343Y-101286433D01*
X117890568Y-101075992D01*
X117963553Y-100851368D01*
X117986971Y-100703514D01*
X118000500Y-100618097D01*
X118000500Y-100381902D01*
X117963553Y-100148631D01*
X117924679Y-100028991D01*
X117896321Y-99941716D01*
X117894327Y-99871878D01*
X117930407Y-99812045D01*
X117993108Y-99781216D01*
X118014253Y-99779400D01*
X120601392Y-99779400D01*
X120668431Y-99799085D01*
X120689073Y-99815719D01*
X126108625Y-105235272D01*
X126108632Y-105235278D01*
X126215168Y-105306462D01*
X126215174Y-105306466D01*
X126284521Y-105335189D01*
X126284522Y-105335189D01*
X126297961Y-105340756D01*
X126352361Y-105384601D01*
X126374421Y-105450897D01*
X126374500Y-105455313D01*
X126374500Y-105627869D01*
X126374501Y-105627876D01*
X126380908Y-105687483D01*
X126431202Y-105822328D01*
X126431206Y-105822335D01*
X126517452Y-105937544D01*
X126517455Y-105937547D01*
X126632664Y-106023793D01*
X126632671Y-106023797D01*
X126767517Y-106074091D01*
X126767516Y-106074091D01*
X126774444Y-106074835D01*
X126827127Y-106080500D01*
X128622872Y-106080499D01*
X128682483Y-106074091D01*
X128817331Y-106023796D01*
X128932546Y-105937546D01*
X129018796Y-105822331D01*
X129069091Y-105687483D01*
X129075500Y-105627873D01*
X129075499Y-105617312D01*
X129095179Y-105550275D01*
X129111818Y-105529626D01*
X129782037Y-104859408D01*
X129799075Y-104922993D01*
X129864901Y-105037007D01*
X129957993Y-105130099D01*
X130072007Y-105195925D01*
X130135589Y-105212962D01*
X129503282Y-105845269D01*
X129503282Y-105845270D01*
X129557449Y-105884624D01*
X129658823Y-105936277D01*
X129709619Y-105984252D01*
X129726414Y-106052073D01*
X129703877Y-106118207D01*
X129690209Y-106134443D01*
X128393173Y-107431481D01*
X128331850Y-107464966D01*
X128305492Y-107467800D01*
X127660929Y-107467800D01*
X127535261Y-107492797D01*
X127535255Y-107492799D01*
X127416875Y-107541833D01*
X127416866Y-107541838D01*
X127310331Y-107613023D01*
X127310327Y-107613026D01*
X127219726Y-107703627D01*
X127219723Y-107703631D01*
X127148538Y-107810166D01*
X127148533Y-107810176D01*
X127114246Y-107892953D01*
X127070405Y-107947356D01*
X127004111Y-107969421D01*
X126999686Y-107969500D01*
X126827130Y-107969500D01*
X126827123Y-107969501D01*
X126767516Y-107975908D01*
X126632671Y-108026202D01*
X126632664Y-108026206D01*
X126517455Y-108112452D01*
X126517452Y-108112455D01*
X126431206Y-108227664D01*
X126431202Y-108227671D01*
X126380908Y-108362517D01*
X126374501Y-108422116D01*
X126374500Y-108422135D01*
X126374500Y-110217870D01*
X126374501Y-110217876D01*
X126380908Y-110277483D01*
X126431202Y-110412328D01*
X126431206Y-110412335D01*
X126517452Y-110527544D01*
X126517455Y-110527547D01*
X126632664Y-110613793D01*
X126632671Y-110613797D01*
X126767517Y-110664091D01*
X126767516Y-110664091D01*
X126774444Y-110664835D01*
X126827127Y-110670500D01*
X128622872Y-110670499D01*
X128682483Y-110664091D01*
X128817331Y-110613796D01*
X128932546Y-110527546D01*
X129018796Y-110412331D01*
X129069091Y-110277483D01*
X129075500Y-110217873D01*
X129075499Y-110207312D01*
X129095179Y-110140275D01*
X129111818Y-110119626D01*
X129782037Y-109449408D01*
X129799075Y-109512993D01*
X129864901Y-109627007D01*
X129957993Y-109720099D01*
X130072007Y-109785925D01*
X130135590Y-109802962D01*
X129503282Y-110435269D01*
X129503282Y-110435270D01*
X129557449Y-110474624D01*
X129658823Y-110526277D01*
X129709619Y-110574252D01*
X129726414Y-110642073D01*
X129703877Y-110708207D01*
X129690209Y-110724443D01*
X128393173Y-112021481D01*
X128331850Y-112054966D01*
X128305492Y-112057800D01*
X127660929Y-112057800D01*
X127535261Y-112082797D01*
X127535255Y-112082799D01*
X127416875Y-112131833D01*
X127416866Y-112131838D01*
X127310331Y-112203023D01*
X127310327Y-112203026D01*
X127219726Y-112293627D01*
X127219723Y-112293631D01*
X127148538Y-112400166D01*
X127148533Y-112400176D01*
X127114246Y-112482953D01*
X127070405Y-112537356D01*
X127004111Y-112559421D01*
X126999686Y-112559500D01*
X126827130Y-112559500D01*
X126827123Y-112559501D01*
X126767516Y-112565908D01*
X126632671Y-112616202D01*
X126632664Y-112616206D01*
X126517455Y-112702452D01*
X126517452Y-112702455D01*
X126431206Y-112817664D01*
X126431202Y-112817671D01*
X126380908Y-112952517D01*
X126374501Y-113012116D01*
X126374500Y-113012135D01*
X126374500Y-114807870D01*
X126374501Y-114807876D01*
X126380908Y-114867483D01*
X126431202Y-115002328D01*
X126431206Y-115002335D01*
X126517452Y-115117544D01*
X126517455Y-115117547D01*
X126632664Y-115203793D01*
X126632671Y-115203797D01*
X126767517Y-115254091D01*
X126767516Y-115254091D01*
X126774444Y-115254835D01*
X126827127Y-115260500D01*
X128622872Y-115260499D01*
X128682483Y-115254091D01*
X128817331Y-115203796D01*
X128932546Y-115117546D01*
X129018796Y-115002331D01*
X129069091Y-114867483D01*
X129075500Y-114807873D01*
X129075499Y-114783979D01*
X129078330Y-114770963D01*
X129088940Y-114751525D01*
X129095179Y-114730275D01*
X129111803Y-114709643D01*
X129111808Y-114709636D01*
X129111811Y-114709634D01*
X129111818Y-114709626D01*
X129782037Y-114039408D01*
X129799075Y-114102993D01*
X129864901Y-114217007D01*
X129957993Y-114310099D01*
X130072007Y-114375925D01*
X130135590Y-114392962D01*
X129503282Y-115025269D01*
X129503282Y-115025270D01*
X129557449Y-115064624D01*
X129746782Y-115161095D01*
X129948870Y-115226757D01*
X130158754Y-115260000D01*
X130371246Y-115260000D01*
X130581127Y-115226757D01*
X130581130Y-115226757D01*
X130783217Y-115161095D01*
X130972554Y-115064622D01*
X131026716Y-115025270D01*
X131026717Y-115025270D01*
X130394408Y-114392962D01*
X130457993Y-114375925D01*
X130572007Y-114310099D01*
X130665099Y-114217007D01*
X130730925Y-114102993D01*
X130747962Y-114039409D01*
X131380270Y-114671717D01*
X131380270Y-114671716D01*
X131419622Y-114617554D01*
X131516095Y-114428217D01*
X131581757Y-114226130D01*
X131581757Y-114226127D01*
X131615000Y-114016246D01*
X131615000Y-113803753D01*
X131581757Y-113593872D01*
X131581757Y-113593869D01*
X131562679Y-113535153D01*
X131551252Y-113499984D01*
X158799500Y-113499984D01*
X158799500Y-115500015D01*
X158810000Y-115602795D01*
X158810001Y-115602796D01*
X158865186Y-115769335D01*
X158865187Y-115769337D01*
X158957286Y-115918651D01*
X158957289Y-115918655D01*
X159081344Y-116042710D01*
X159081348Y-116042713D01*
X159230662Y-116134812D01*
X159230664Y-116134813D01*
X159230666Y-116134814D01*
X159397203Y-116189999D01*
X159499992Y-116200500D01*
X159499997Y-116200500D01*
X159778674Y-116200500D01*
X159845713Y-116220185D01*
X159891468Y-116272989D01*
X159901412Y-116342147D01*
X159872387Y-116405703D01*
X159826127Y-116439061D01*
X159746497Y-116472045D01*
X159746479Y-116472054D01*
X159553511Y-116583462D01*
X159487595Y-116634042D01*
X160288941Y-117435387D01*
X160268409Y-117440889D01*
X160131592Y-117519881D01*
X160019881Y-117631592D01*
X159940889Y-117768409D01*
X159935387Y-117788940D01*
X159134042Y-116987595D01*
X159083462Y-117053511D01*
X158972054Y-117246479D01*
X158972045Y-117246497D01*
X158886763Y-117452381D01*
X158829088Y-117667632D01*
X158829085Y-117667645D01*
X158800000Y-117888575D01*
X158800000Y-118111424D01*
X158829085Y-118332354D01*
X158829088Y-118332367D01*
X158886763Y-118547618D01*
X158972045Y-118753502D01*
X158972054Y-118753520D01*
X159083464Y-118946491D01*
X159083473Y-118946504D01*
X159134040Y-119012403D01*
X159134043Y-119012403D01*
X159935387Y-118211059D01*
X159940889Y-118231591D01*
X160019881Y-118368408D01*
X160131592Y-118480119D01*
X160268409Y-118559111D01*
X160288940Y-118564612D01*
X159487595Y-119365955D01*
X159487595Y-119365956D01*
X159553507Y-119416533D01*
X159746485Y-119527949D01*
X159746497Y-119527954D01*
X159952381Y-119613236D01*
X160167632Y-119670911D01*
X160167645Y-119670914D01*
X160388575Y-119700000D01*
X160611425Y-119700000D01*
X160832354Y-119670914D01*
X160832367Y-119670911D01*
X161047618Y-119613236D01*
X161253502Y-119527954D01*
X161253514Y-119527949D01*
X161446498Y-119416530D01*
X161512403Y-119365957D01*
X161512404Y-119365956D01*
X160711059Y-118564612D01*
X160731591Y-118559111D01*
X160868408Y-118480119D01*
X160980119Y-118368408D01*
X161059111Y-118231591D01*
X161064612Y-118211059D01*
X161865956Y-119012404D01*
X161865957Y-119012403D01*
X161916530Y-118946498D01*
X162027949Y-118753514D01*
X162027954Y-118753502D01*
X162113236Y-118547618D01*
X162170911Y-118332367D01*
X162170914Y-118332354D01*
X162200000Y-118111424D01*
X162200000Y-117888575D01*
X162170914Y-117667645D01*
X162170911Y-117667632D01*
X162113236Y-117452381D01*
X162027954Y-117246497D01*
X162027949Y-117246485D01*
X161919610Y-117058835D01*
X161916533Y-117053506D01*
X161875463Y-116999984D01*
X169299500Y-116999984D01*
X169299500Y-119000015D01*
X169310000Y-119102795D01*
X169310001Y-119102796D01*
X169365186Y-119269335D01*
X169365187Y-119269337D01*
X169457286Y-119418651D01*
X169457289Y-119418655D01*
X169581344Y-119542710D01*
X169581348Y-119542713D01*
X169730662Y-119634812D01*
X169730664Y-119634813D01*
X169730666Y-119634814D01*
X169897203Y-119689999D01*
X169999992Y-119700500D01*
X169999997Y-119700500D01*
X172000003Y-119700500D01*
X172000008Y-119700500D01*
X172102797Y-119689999D01*
X172269334Y-119634814D01*
X172418655Y-119542711D01*
X172542711Y-119418655D01*
X172634814Y-119269334D01*
X172689999Y-119102797D01*
X172700500Y-119000008D01*
X172700500Y-116999992D01*
X172689999Y-116897203D01*
X172634814Y-116730666D01*
X172626700Y-116717512D01*
X172542713Y-116581348D01*
X172542710Y-116581344D01*
X172418655Y-116457289D01*
X172418651Y-116457286D01*
X172269337Y-116365187D01*
X172269335Y-116365186D01*
X172186065Y-116337593D01*
X172102797Y-116310001D01*
X172102795Y-116310000D01*
X172000015Y-116299500D01*
X172000008Y-116299500D01*
X171721326Y-116299500D01*
X171654287Y-116279815D01*
X171608532Y-116227011D01*
X171598588Y-116157853D01*
X171627613Y-116094297D01*
X171673873Y-116060939D01*
X171753502Y-116027954D01*
X171753514Y-116027949D01*
X171946498Y-115916530D01*
X172012403Y-115865957D01*
X172012404Y-115865956D01*
X171211059Y-115064612D01*
X171231591Y-115059111D01*
X171368408Y-114980119D01*
X171480119Y-114868408D01*
X171559111Y-114731591D01*
X171564612Y-114711060D01*
X172365956Y-115512404D01*
X172365957Y-115512403D01*
X172416530Y-115446498D01*
X172527949Y-115253514D01*
X172527954Y-115253502D01*
X172613236Y-115047618D01*
X172670911Y-114832367D01*
X172670914Y-114832354D01*
X172700000Y-114611424D01*
X172700000Y-114388575D01*
X172670914Y-114167645D01*
X172670911Y-114167632D01*
X172613236Y-113952381D01*
X172527954Y-113746497D01*
X172527949Y-113746485D01*
X172416533Y-113553507D01*
X172365956Y-113487595D01*
X172365955Y-113487595D01*
X171564612Y-114288939D01*
X171559111Y-114268409D01*
X171480119Y-114131592D01*
X171368408Y-114019881D01*
X171231591Y-113940889D01*
X171211058Y-113935387D01*
X172012403Y-113134043D01*
X172012403Y-113134040D01*
X171946504Y-113083473D01*
X171946491Y-113083464D01*
X171753520Y-112972054D01*
X171753502Y-112972045D01*
X171547618Y-112886763D01*
X171332367Y-112829088D01*
X171332354Y-112829085D01*
X171111425Y-112800000D01*
X170888575Y-112800000D01*
X170667645Y-112829085D01*
X170667632Y-112829088D01*
X170452381Y-112886763D01*
X170246497Y-112972045D01*
X170246479Y-112972054D01*
X170053511Y-113083462D01*
X169987595Y-113134042D01*
X170788941Y-113935387D01*
X170768409Y-113940889D01*
X170631592Y-114019881D01*
X170519881Y-114131592D01*
X170440889Y-114268409D01*
X170435387Y-114288940D01*
X169634042Y-113487595D01*
X169583462Y-113553511D01*
X169472054Y-113746479D01*
X169472045Y-113746497D01*
X169386763Y-113952381D01*
X169329088Y-114167632D01*
X169329085Y-114167645D01*
X169300000Y-114388575D01*
X169300000Y-114611424D01*
X169329085Y-114832354D01*
X169329088Y-114832367D01*
X169386763Y-115047618D01*
X169472045Y-115253502D01*
X169472054Y-115253520D01*
X169583464Y-115446491D01*
X169583473Y-115446504D01*
X169634040Y-115512403D01*
X169634043Y-115512403D01*
X170435387Y-114711059D01*
X170440889Y-114731591D01*
X170519881Y-114868408D01*
X170631592Y-114980119D01*
X170768409Y-115059111D01*
X170788940Y-115064612D01*
X169987595Y-115865955D01*
X169987595Y-115865956D01*
X170053507Y-115916533D01*
X170246485Y-116027949D01*
X170246497Y-116027954D01*
X170326127Y-116060939D01*
X170380531Y-116104780D01*
X170402595Y-116171075D01*
X170385315Y-116238774D01*
X170334178Y-116286384D01*
X170278674Y-116299500D01*
X169999984Y-116299500D01*
X169897204Y-116310000D01*
X169897203Y-116310001D01*
X169730664Y-116365186D01*
X169730662Y-116365187D01*
X169581348Y-116457286D01*
X169581344Y-116457289D01*
X169457289Y-116581344D01*
X169457286Y-116581348D01*
X169365187Y-116730662D01*
X169365186Y-116730664D01*
X169310001Y-116897203D01*
X169310000Y-116897204D01*
X169299500Y-116999984D01*
X161875463Y-116999984D01*
X161865956Y-116987595D01*
X161865955Y-116987595D01*
X161064612Y-117788939D01*
X161059111Y-117768409D01*
X160980119Y-117631592D01*
X160868408Y-117519881D01*
X160731591Y-117440889D01*
X160711058Y-117435387D01*
X161512403Y-116634043D01*
X161512403Y-116634040D01*
X161446504Y-116583473D01*
X161446491Y-116583464D01*
X161253520Y-116472054D01*
X161253502Y-116472045D01*
X161173873Y-116439061D01*
X161119469Y-116395220D01*
X161097405Y-116328925D01*
X161114685Y-116261226D01*
X161165822Y-116213616D01*
X161221326Y-116200500D01*
X161500003Y-116200500D01*
X161500008Y-116200500D01*
X161602797Y-116189999D01*
X161769334Y-116134814D01*
X161918655Y-116042711D01*
X162042711Y-115918655D01*
X162134814Y-115769334D01*
X162189999Y-115602797D01*
X162200500Y-115500008D01*
X162200500Y-113499992D01*
X162189999Y-113397203D01*
X162134814Y-113230666D01*
X162125043Y-113214825D01*
X162042713Y-113081348D01*
X162042710Y-113081344D01*
X161918655Y-112957289D01*
X161918651Y-112957286D01*
X161769337Y-112865187D01*
X161769335Y-112865186D01*
X161686065Y-112837593D01*
X161602797Y-112810001D01*
X161602795Y-112810000D01*
X161500015Y-112799500D01*
X161500008Y-112799500D01*
X159499992Y-112799500D01*
X159499984Y-112799500D01*
X159397204Y-112810000D01*
X159397203Y-112810001D01*
X159230664Y-112865186D01*
X159230662Y-112865187D01*
X159081348Y-112957286D01*
X159081344Y-112957289D01*
X158957289Y-113081344D01*
X158957286Y-113081348D01*
X158865187Y-113230662D01*
X158865186Y-113230664D01*
X158810001Y-113397203D01*
X158810000Y-113397204D01*
X158799500Y-113499984D01*
X131551252Y-113499984D01*
X131516095Y-113391782D01*
X131419624Y-113202449D01*
X131380270Y-113148282D01*
X131380269Y-113148282D01*
X130747962Y-113780590D01*
X130730925Y-113717007D01*
X130665099Y-113602993D01*
X130572007Y-113509901D01*
X130457993Y-113444075D01*
X130394408Y-113427037D01*
X131026716Y-112794728D01*
X130972550Y-112755375D01*
X130783217Y-112658904D01*
X130581129Y-112593242D01*
X130371246Y-112560000D01*
X130158753Y-112560000D01*
X129984117Y-112587659D01*
X129914824Y-112578704D01*
X129861372Y-112533708D01*
X129840733Y-112466956D01*
X129859458Y-112399643D01*
X129877034Y-112377510D01*
X132557976Y-109696570D01*
X132604456Y-109627007D01*
X132629164Y-109590029D01*
X132629165Y-109590027D01*
X132678201Y-109471644D01*
X132689543Y-109414626D01*
X132695621Y-109384071D01*
X132695621Y-109384068D01*
X132703200Y-109345969D01*
X132703200Y-104499984D01*
X158799500Y-104499984D01*
X158799500Y-106500015D01*
X158810000Y-106602795D01*
X158810001Y-106602797D01*
X158837593Y-106686065D01*
X158865186Y-106769335D01*
X158865187Y-106769337D01*
X158957286Y-106918651D01*
X158957289Y-106918655D01*
X159081344Y-107042710D01*
X159081348Y-107042713D01*
X159230662Y-107134812D01*
X159230664Y-107134813D01*
X159230666Y-107134814D01*
X159397203Y-107189999D01*
X159499992Y-107200500D01*
X159499997Y-107200500D01*
X159778674Y-107200500D01*
X159845713Y-107220185D01*
X159891468Y-107272989D01*
X159901412Y-107342147D01*
X159872387Y-107405703D01*
X159826127Y-107439061D01*
X159746497Y-107472045D01*
X159746479Y-107472054D01*
X159553511Y-107583462D01*
X159487595Y-107634042D01*
X160288941Y-108435387D01*
X160268409Y-108440889D01*
X160131592Y-108519881D01*
X160019881Y-108631592D01*
X159940889Y-108768409D01*
X159935387Y-108788940D01*
X159134042Y-107987595D01*
X159083462Y-108053511D01*
X158972054Y-108246479D01*
X158972045Y-108246497D01*
X158886763Y-108452381D01*
X158829088Y-108667632D01*
X158829085Y-108667645D01*
X158800000Y-108888575D01*
X158800000Y-109111424D01*
X158829085Y-109332354D01*
X158829088Y-109332367D01*
X158886763Y-109547618D01*
X158972045Y-109753502D01*
X158972054Y-109753520D01*
X159083464Y-109946491D01*
X159083473Y-109946504D01*
X159134040Y-110012403D01*
X159134043Y-110012403D01*
X159935387Y-109211059D01*
X159940889Y-109231591D01*
X160019881Y-109368408D01*
X160131592Y-109480119D01*
X160268409Y-109559111D01*
X160288940Y-109564612D01*
X159487595Y-110365955D01*
X159487595Y-110365956D01*
X159553507Y-110416533D01*
X159746485Y-110527949D01*
X159746497Y-110527954D01*
X159952381Y-110613236D01*
X160167632Y-110670911D01*
X160167645Y-110670914D01*
X160388575Y-110700000D01*
X160611425Y-110700000D01*
X160832354Y-110670914D01*
X160832367Y-110670911D01*
X161047618Y-110613236D01*
X161253502Y-110527954D01*
X161253514Y-110527949D01*
X161446498Y-110416530D01*
X161512403Y-110365957D01*
X161512404Y-110365956D01*
X160711059Y-109564612D01*
X160731591Y-109559111D01*
X160868408Y-109480119D01*
X160980119Y-109368408D01*
X161059111Y-109231591D01*
X161064612Y-109211059D01*
X161865956Y-110012404D01*
X161865957Y-110012403D01*
X161916530Y-109946498D01*
X162027949Y-109753514D01*
X162027954Y-109753502D01*
X162113236Y-109547618D01*
X162170911Y-109332367D01*
X162170914Y-109332354D01*
X162200000Y-109111424D01*
X162200000Y-108888575D01*
X162170914Y-108667645D01*
X162170911Y-108667632D01*
X162113236Y-108452381D01*
X162027954Y-108246497D01*
X162027949Y-108246486D01*
X161977344Y-108158835D01*
X161977343Y-108158834D01*
X161943366Y-108099984D01*
X169299500Y-108099984D01*
X169299500Y-110100015D01*
X169310000Y-110202795D01*
X169310001Y-110202797D01*
X169314997Y-110217873D01*
X169365186Y-110369335D01*
X169365187Y-110369337D01*
X169457286Y-110518651D01*
X169457289Y-110518655D01*
X169581344Y-110642710D01*
X169581348Y-110642713D01*
X169730662Y-110734812D01*
X169730664Y-110734813D01*
X169730666Y-110734814D01*
X169897203Y-110789999D01*
X169999992Y-110800500D01*
X169999997Y-110800500D01*
X172000003Y-110800500D01*
X172000008Y-110800500D01*
X172102797Y-110789999D01*
X172269334Y-110734814D01*
X172418655Y-110642711D01*
X172542711Y-110518655D01*
X172634814Y-110369334D01*
X172689999Y-110202797D01*
X172700500Y-110100008D01*
X172700500Y-108099992D01*
X172689999Y-107997203D01*
X172634814Y-107830666D01*
X172622169Y-107810166D01*
X172542713Y-107681348D01*
X172542710Y-107681344D01*
X172418655Y-107557289D01*
X172418651Y-107557286D01*
X172269337Y-107465187D01*
X172269335Y-107465186D01*
X172167619Y-107431481D01*
X172102797Y-107410001D01*
X172102795Y-107410000D01*
X172000015Y-107399500D01*
X172000008Y-107399500D01*
X171721326Y-107399500D01*
X171654287Y-107379815D01*
X171608532Y-107327011D01*
X171598588Y-107257853D01*
X171627613Y-107194297D01*
X171673873Y-107160939D01*
X171753502Y-107127954D01*
X171753514Y-107127949D01*
X171946498Y-107016530D01*
X172012403Y-106965957D01*
X172012404Y-106965956D01*
X171211059Y-106164612D01*
X171231591Y-106159111D01*
X171368408Y-106080119D01*
X171480119Y-105968408D01*
X171559111Y-105831591D01*
X171564612Y-105811060D01*
X172365956Y-106612404D01*
X172365957Y-106612403D01*
X172416530Y-106546498D01*
X172527949Y-106353514D01*
X172527954Y-106353502D01*
X172613236Y-106147618D01*
X172670911Y-105932367D01*
X172670914Y-105932354D01*
X172700000Y-105711424D01*
X172700000Y-105488575D01*
X172670914Y-105267645D01*
X172670911Y-105267632D01*
X172613236Y-105052381D01*
X172527954Y-104846497D01*
X172527949Y-104846485D01*
X172416533Y-104653507D01*
X172365956Y-104587595D01*
X172365955Y-104587595D01*
X171564612Y-105388939D01*
X171559111Y-105368409D01*
X171480119Y-105231592D01*
X171368408Y-105119881D01*
X171231591Y-105040889D01*
X171211058Y-105035387D01*
X172012403Y-104234043D01*
X172012403Y-104234040D01*
X171946504Y-104183473D01*
X171946491Y-104183464D01*
X171753520Y-104072054D01*
X171753502Y-104072045D01*
X171547618Y-103986763D01*
X171332367Y-103929088D01*
X171332354Y-103929085D01*
X171111425Y-103900000D01*
X170888575Y-103900000D01*
X170667645Y-103929085D01*
X170667632Y-103929088D01*
X170452381Y-103986763D01*
X170246497Y-104072045D01*
X170246479Y-104072054D01*
X170053511Y-104183462D01*
X169987595Y-104234042D01*
X170788941Y-105035387D01*
X170768409Y-105040889D01*
X170631592Y-105119881D01*
X170519881Y-105231592D01*
X170440889Y-105368409D01*
X170435387Y-105388940D01*
X169634042Y-104587595D01*
X169583462Y-104653511D01*
X169472054Y-104846479D01*
X169472045Y-104846497D01*
X169386763Y-105052381D01*
X169329088Y-105267632D01*
X169329085Y-105267645D01*
X169300000Y-105488575D01*
X169300000Y-105711424D01*
X169329085Y-105932354D01*
X169329088Y-105932367D01*
X169386763Y-106147618D01*
X169472045Y-106353502D01*
X169472054Y-106353520D01*
X169583464Y-106546491D01*
X169583473Y-106546504D01*
X169634040Y-106612403D01*
X169634043Y-106612403D01*
X170435387Y-105811059D01*
X170440889Y-105831591D01*
X170519881Y-105968408D01*
X170631592Y-106080119D01*
X170768409Y-106159111D01*
X170788940Y-106164612D01*
X169987595Y-106965955D01*
X169987595Y-106965956D01*
X170053507Y-107016533D01*
X170246485Y-107127949D01*
X170246497Y-107127954D01*
X170326127Y-107160939D01*
X170380531Y-107204780D01*
X170402595Y-107271075D01*
X170385315Y-107338774D01*
X170334178Y-107386384D01*
X170278674Y-107399500D01*
X169999984Y-107399500D01*
X169897204Y-107410000D01*
X169897203Y-107410001D01*
X169730664Y-107465186D01*
X169730662Y-107465187D01*
X169581348Y-107557286D01*
X169581344Y-107557289D01*
X169457289Y-107681344D01*
X169457286Y-107681348D01*
X169365187Y-107830662D01*
X169365186Y-107830664D01*
X169310001Y-107997203D01*
X169310000Y-107997204D01*
X169299500Y-108099984D01*
X161943366Y-108099984D01*
X161916531Y-108053504D01*
X161865956Y-107987595D01*
X161865955Y-107987595D01*
X161064612Y-108788939D01*
X161059111Y-108768409D01*
X160980119Y-108631592D01*
X160868408Y-108519881D01*
X160731591Y-108440889D01*
X160711058Y-108435387D01*
X161512403Y-107634043D01*
X161512403Y-107634040D01*
X161446504Y-107583473D01*
X161446491Y-107583464D01*
X161253520Y-107472054D01*
X161253502Y-107472045D01*
X161173873Y-107439061D01*
X161119469Y-107395220D01*
X161097405Y-107328925D01*
X161114685Y-107261226D01*
X161165822Y-107213616D01*
X161221326Y-107200500D01*
X161500003Y-107200500D01*
X161500008Y-107200500D01*
X161602797Y-107189999D01*
X161769334Y-107134814D01*
X161918655Y-107042711D01*
X162042711Y-106918655D01*
X162134814Y-106769334D01*
X162189999Y-106602797D01*
X162200500Y-106500008D01*
X162200500Y-104499992D01*
X162189999Y-104397203D01*
X162134814Y-104230666D01*
X162134403Y-104230000D01*
X162042713Y-104081348D01*
X162042710Y-104081344D01*
X161918655Y-103957289D01*
X161918651Y-103957286D01*
X161769337Y-103865187D01*
X161769335Y-103865186D01*
X161669572Y-103832128D01*
X161602797Y-103810001D01*
X161602795Y-103810000D01*
X161500015Y-103799500D01*
X161500008Y-103799500D01*
X159499992Y-103799500D01*
X159499984Y-103799500D01*
X159397204Y-103810000D01*
X159397203Y-103810001D01*
X159230664Y-103865186D01*
X159230662Y-103865187D01*
X159081348Y-103957286D01*
X159081344Y-103957289D01*
X158957289Y-104081344D01*
X158957286Y-104081348D01*
X158865187Y-104230662D01*
X158865186Y-104230664D01*
X158810001Y-104397203D01*
X158810000Y-104397204D01*
X158799500Y-104499984D01*
X132703200Y-104499984D01*
X132703200Y-104020528D01*
X132678202Y-103894861D01*
X132678201Y-103894860D01*
X132678201Y-103894856D01*
X132629165Y-103776473D01*
X132627406Y-103773840D01*
X132626523Y-103772518D01*
X132626523Y-103772519D01*
X132626522Y-103772517D01*
X132557976Y-103669930D01*
X132557974Y-103669927D01*
X132557973Y-103669926D01*
X130545841Y-101657795D01*
X130512356Y-101596472D01*
X130517340Y-101526780D01*
X130559212Y-101470847D01*
X130595205Y-101452183D01*
X130783215Y-101391096D01*
X130972554Y-101294622D01*
X131026717Y-101255270D01*
X130394408Y-100622962D01*
X130457993Y-100605925D01*
X130572007Y-100540099D01*
X130665099Y-100447007D01*
X130730925Y-100332993D01*
X130747962Y-100269409D01*
X131380270Y-100901717D01*
X131380270Y-100901716D01*
X131419622Y-100847554D01*
X131516095Y-100658217D01*
X131581757Y-100456130D01*
X131581757Y-100456127D01*
X131615000Y-100246246D01*
X131615000Y-100033753D01*
X131586516Y-99853915D01*
X131586516Y-99853914D01*
X131581758Y-99823874D01*
X131581757Y-99823869D01*
X131516095Y-99621782D01*
X131419624Y-99432449D01*
X131380270Y-99378282D01*
X131380269Y-99378282D01*
X130747962Y-100010590D01*
X130730925Y-99947007D01*
X130665099Y-99832993D01*
X130572007Y-99739901D01*
X130457993Y-99674075D01*
X130394409Y-99657037D01*
X131026716Y-99024728D01*
X130972550Y-98985375D01*
X130783217Y-98888904D01*
X130581129Y-98823242D01*
X130371246Y-98790000D01*
X130158754Y-98790000D01*
X129948872Y-98823242D01*
X129948869Y-98823242D01*
X129746782Y-98888904D01*
X129557439Y-98985380D01*
X129503282Y-99024727D01*
X129503282Y-99024728D01*
X130135591Y-99657037D01*
X130072007Y-99674075D01*
X129957993Y-99739901D01*
X129864901Y-99832993D01*
X129799075Y-99947007D01*
X129782037Y-100010591D01*
X129111818Y-99340372D01*
X129078333Y-99279049D01*
X129078330Y-99279036D01*
X129075499Y-99266015D01*
X129075499Y-99242128D01*
X129069091Y-99182517D01*
X129040926Y-99107002D01*
X129018798Y-99047673D01*
X129018793Y-99047664D01*
X128932547Y-98932455D01*
X128932544Y-98932452D01*
X128817335Y-98846206D01*
X128817328Y-98846202D01*
X128682482Y-98795908D01*
X128682483Y-98795908D01*
X128622883Y-98789501D01*
X128622881Y-98789500D01*
X128622873Y-98789500D01*
X128622864Y-98789500D01*
X126827129Y-98789500D01*
X126827123Y-98789501D01*
X126767516Y-98795908D01*
X126632671Y-98846202D01*
X126632664Y-98846206D01*
X126517455Y-98932452D01*
X126517452Y-98932455D01*
X126431206Y-99047664D01*
X126431202Y-99047671D01*
X126380908Y-99182517D01*
X126374501Y-99242116D01*
X126374500Y-99242135D01*
X126374500Y-100357991D01*
X126354815Y-100425030D01*
X126302011Y-100470785D01*
X126232853Y-100480729D01*
X126169297Y-100451704D01*
X126162819Y-100445672D01*
X123300173Y-97583026D01*
X123269310Y-97562404D01*
X123193627Y-97511835D01*
X123156600Y-97496498D01*
X123075244Y-97462799D01*
X123075238Y-97462797D01*
X122949571Y-97437800D01*
X122949569Y-97437800D01*
X115432131Y-97437800D01*
X115432129Y-97437800D01*
X115306461Y-97462797D01*
X115306451Y-97462800D01*
X115257420Y-97483110D01*
X115188081Y-97511830D01*
X115188063Y-97511840D01*
X115081532Y-97583021D01*
X115081525Y-97583027D01*
X92738124Y-119926429D01*
X92724533Y-119946769D01*
X92724527Y-119946779D01*
X92721792Y-119950873D01*
X92666935Y-120032973D01*
X92639800Y-120098480D01*
X92636264Y-120104813D01*
X92616286Y-120124412D01*
X92598724Y-120146206D01*
X92591684Y-120148548D01*
X92586389Y-120153744D01*
X92558985Y-120159431D01*
X92532429Y-120168270D01*
X92525241Y-120166435D01*
X92517977Y-120167943D01*
X92491848Y-120157912D01*
X92464730Y-120150990D01*
X92459617Y-120145537D01*
X92452749Y-120142901D01*
X92436929Y-120121341D01*
X92417520Y-120100643D01*
X92383344Y-120033568D01*
X92333015Y-119964297D01*
X92244517Y-119842490D01*
X92077510Y-119675483D01*
X92042872Y-119650317D01*
X92000207Y-119594989D01*
X91994228Y-119525375D01*
X92026833Y-119463580D01*
X92042873Y-119449682D01*
X92077510Y-119424517D01*
X92244517Y-119257510D01*
X92383343Y-119066433D01*
X92490568Y-118855992D01*
X92563553Y-118631368D01*
X92573934Y-118565826D01*
X92600500Y-118398097D01*
X92600500Y-118161902D01*
X92563553Y-117928631D01*
X92490566Y-117704003D01*
X92408284Y-117542517D01*
X92383343Y-117493567D01*
X92244517Y-117302490D01*
X92077510Y-117135483D01*
X92042872Y-117110317D01*
X92000207Y-117054989D01*
X91994228Y-116985375D01*
X92026833Y-116923580D01*
X92042873Y-116909682D01*
X92046935Y-116906731D01*
X92077510Y-116884517D01*
X92244517Y-116717510D01*
X92383343Y-116526433D01*
X92490568Y-116315992D01*
X92563553Y-116091368D01*
X92600500Y-115858097D01*
X92600500Y-115621902D01*
X92563553Y-115388631D01*
X92490566Y-115164003D01*
X92419877Y-115025269D01*
X92383343Y-114953567D01*
X92244517Y-114762490D01*
X92077510Y-114595483D01*
X92042872Y-114570317D01*
X92000207Y-114514989D01*
X91994228Y-114445375D01*
X92026833Y-114383580D01*
X92042873Y-114369682D01*
X92077510Y-114344517D01*
X92244517Y-114177510D01*
X92383343Y-113986433D01*
X92490568Y-113775992D01*
X92563553Y-113551368D01*
X92571690Y-113499992D01*
X92600500Y-113318096D01*
X92600500Y-113081902D01*
X92563553Y-112848631D01*
X92490566Y-112624003D01*
X92383342Y-112413566D01*
X92244517Y-112222490D01*
X92077510Y-112055483D01*
X92076798Y-112054966D01*
X92042873Y-112030318D01*
X92000207Y-111974989D01*
X91994228Y-111905375D01*
X92026833Y-111843580D01*
X92042873Y-111829682D01*
X92077510Y-111804517D01*
X92244517Y-111637510D01*
X92383343Y-111446433D01*
X92490568Y-111235992D01*
X92563553Y-111011368D01*
X92563554Y-111011360D01*
X92600500Y-110778097D01*
X92600500Y-110541902D01*
X92563553Y-110308631D01*
X92495769Y-110100015D01*
X92490568Y-110084008D01*
X92490566Y-110084005D01*
X92490566Y-110084003D01*
X92420503Y-109946498D01*
X92383343Y-109873567D01*
X92244517Y-109682490D01*
X92077510Y-109515483D01*
X92042872Y-109490317D01*
X92000207Y-109434989D01*
X91994228Y-109365375D01*
X92026833Y-109303580D01*
X92042873Y-109289682D01*
X92077510Y-109264517D01*
X92244517Y-109097510D01*
X92383343Y-108906433D01*
X92490568Y-108695992D01*
X92563553Y-108471368D01*
X92571354Y-108422116D01*
X92600500Y-108238097D01*
X92600500Y-108001902D01*
X92563553Y-107768631D01*
X92490566Y-107544003D01*
X92422288Y-107410001D01*
X92383343Y-107333567D01*
X92244517Y-107142490D01*
X92077510Y-106975483D01*
X92042872Y-106950317D01*
X92000207Y-106894989D01*
X91994228Y-106825375D01*
X92026833Y-106763580D01*
X92042873Y-106749682D01*
X92077510Y-106724517D01*
X92244517Y-106557510D01*
X92383343Y-106366433D01*
X92490568Y-106155992D01*
X92563553Y-105931368D01*
X92563554Y-105931360D01*
X92600500Y-105698097D01*
X92600500Y-105461902D01*
X92563553Y-105228631D01*
X92490566Y-105004003D01*
X92383342Y-104793566D01*
X92244517Y-104602490D01*
X92077510Y-104435483D01*
X92018282Y-104392451D01*
X91975617Y-104337122D01*
X91967550Y-104282404D01*
X91969104Y-104262657D01*
X91237574Y-103531128D01*
X91296853Y-103515245D01*
X91413147Y-103448102D01*
X91508102Y-103353147D01*
X91575245Y-103236853D01*
X91591128Y-103177575D01*
X92322658Y-103909105D01*
X92322658Y-103909104D01*
X92382914Y-103826169D01*
X92382918Y-103826163D01*
X92490102Y-103615802D01*
X92563065Y-103391247D01*
X92600000Y-103158052D01*
X92600000Y-102921947D01*
X92563065Y-102688752D01*
X92490102Y-102464197D01*
X92382914Y-102253828D01*
X92292964Y-102130023D01*
X92269484Y-102064216D01*
X92285309Y-101996162D01*
X92334640Y-101948220D01*
X92334546Y-101948047D01*
X92335169Y-101947706D01*
X92335415Y-101947468D01*
X92336480Y-101946990D01*
X92342326Y-101943797D01*
X92342331Y-101943796D01*
X92457546Y-101857546D01*
X92543796Y-101742331D01*
X92594091Y-101607483D01*
X92600500Y-101547873D01*
X92600499Y-99452128D01*
X92594091Y-99392517D01*
X92578233Y-99350000D01*
X92543797Y-99257671D01*
X92543793Y-99257664D01*
X92457547Y-99142455D01*
X92457544Y-99142452D01*
X92342335Y-99056206D01*
X92342328Y-99056202D01*
X92207482Y-99005908D01*
X92207483Y-99005908D01*
X92147883Y-98999501D01*
X92147881Y-98999500D01*
X92147873Y-98999500D01*
X92147864Y-98999500D01*
X90052129Y-98999500D01*
X90052123Y-98999501D01*
X89992516Y-99005908D01*
X89857671Y-99056202D01*
X89857664Y-99056206D01*
X89742455Y-99142452D01*
X89742452Y-99142455D01*
X89656206Y-99257664D01*
X89656202Y-99257671D01*
X89605908Y-99392517D01*
X89599501Y-99452116D01*
X89599501Y-99452123D01*
X89599500Y-99452135D01*
X89599500Y-101547870D01*
X89599501Y-101547876D01*
X89605908Y-101607483D01*
X89656202Y-101742328D01*
X89656206Y-101742335D01*
X89742452Y-101857544D01*
X89742455Y-101857547D01*
X89857664Y-101943793D01*
X89865454Y-101948047D01*
X89863725Y-101951211D01*
X89905915Y-101982734D01*
X89930393Y-102048175D01*
X89915604Y-102116462D01*
X89907036Y-102130021D01*
X89817084Y-102253829D01*
X89709897Y-102464197D01*
X89636934Y-102688752D01*
X89600000Y-102921947D01*
X89600000Y-103158052D01*
X89636934Y-103391247D01*
X89709897Y-103615802D01*
X89817087Y-103826174D01*
X89877338Y-103909104D01*
X89877340Y-103909105D01*
X90608871Y-103177574D01*
X90624755Y-103236853D01*
X90691898Y-103353147D01*
X90786853Y-103448102D01*
X90903147Y-103515245D01*
X90962425Y-103531128D01*
X90230893Y-104262658D01*
X90232448Y-104282405D01*
X90218084Y-104350783D01*
X90181717Y-104392451D01*
X90122490Y-104435482D01*
X89955485Y-104602487D01*
X89955485Y-104602488D01*
X89955483Y-104602490D01*
X89927574Y-104640904D01*
X89816657Y-104793566D01*
X89709433Y-105004003D01*
X89636446Y-105228631D01*
X89599500Y-105461902D01*
X89599500Y-105698097D01*
X89636446Y-105931368D01*
X89709433Y-106155996D01*
X89816657Y-106366433D01*
X89955483Y-106557510D01*
X90122490Y-106724517D01*
X90157127Y-106749683D01*
X90199792Y-106805013D01*
X90205771Y-106874626D01*
X90173165Y-106936421D01*
X90157130Y-106950315D01*
X90139365Y-106963222D01*
X90122488Y-106975484D01*
X89955485Y-107142487D01*
X89955485Y-107142488D01*
X89955483Y-107142490D01*
X89920966Y-107189999D01*
X89816657Y-107333566D01*
X89709433Y-107544003D01*
X89636446Y-107768631D01*
X89599500Y-108001902D01*
X89599500Y-108238097D01*
X89636446Y-108471368D01*
X89709433Y-108695996D01*
X89746330Y-108768409D01*
X89816657Y-108906433D01*
X89955483Y-109097510D01*
X90122490Y-109264517D01*
X90157127Y-109289683D01*
X90199792Y-109345013D01*
X90205771Y-109414626D01*
X90173165Y-109476421D01*
X90157130Y-109490315D01*
X90139365Y-109503222D01*
X90122488Y-109515484D01*
X89955485Y-109682487D01*
X89955485Y-109682488D01*
X89955483Y-109682490D01*
X89903890Y-109753502D01*
X89816657Y-109873566D01*
X89709433Y-110084003D01*
X89636446Y-110308631D01*
X89599500Y-110541902D01*
X89599500Y-110778097D01*
X89636446Y-111011368D01*
X89709433Y-111235996D01*
X89816657Y-111446433D01*
X89955483Y-111637510D01*
X90122490Y-111804517D01*
X90157127Y-111829683D01*
X90199792Y-111885013D01*
X90205771Y-111954626D01*
X90173165Y-112016421D01*
X90157130Y-112030315D01*
X90139365Y-112043222D01*
X90122488Y-112055484D01*
X89955485Y-112222487D01*
X89955485Y-112222488D01*
X89955483Y-112222490D01*
X89903799Y-112293627D01*
X89816657Y-112413566D01*
X89709433Y-112624003D01*
X89636446Y-112848631D01*
X89599500Y-113081902D01*
X89599500Y-113318096D01*
X89636446Y-113551368D01*
X89709433Y-113775996D01*
X89811252Y-113975826D01*
X89816657Y-113986433D01*
X89955483Y-114177510D01*
X90122490Y-114344517D01*
X90157127Y-114369683D01*
X90199792Y-114425013D01*
X90205771Y-114494626D01*
X90173165Y-114556421D01*
X90157130Y-114570315D01*
X90145189Y-114578991D01*
X90122488Y-114595484D01*
X89955485Y-114762487D01*
X89955485Y-114762488D01*
X89955483Y-114762490D01*
X89922511Y-114807872D01*
X89816657Y-114953566D01*
X89709433Y-115164003D01*
X89636446Y-115388631D01*
X89599500Y-115621902D01*
X89599500Y-115858097D01*
X89636447Y-116091369D01*
X89636447Y-116091372D01*
X89660109Y-116164194D01*
X89662104Y-116234035D01*
X89629859Y-116290193D01*
X82994727Y-122925325D01*
X82994721Y-122925332D01*
X82948356Y-122994723D01*
X82948357Y-122994724D01*
X82923534Y-123031874D01*
X82874499Y-123150255D01*
X82874497Y-123150261D01*
X82849500Y-123275928D01*
X82500500Y-123275928D01*
X82500500Y-94922135D01*
X126649500Y-94922135D01*
X126649500Y-96717870D01*
X126649501Y-96717876D01*
X126655908Y-96777483D01*
X126706202Y-96912328D01*
X126706206Y-96912335D01*
X126792452Y-97027544D01*
X126792455Y-97027547D01*
X126907664Y-97113793D01*
X126907671Y-97113797D01*
X127042517Y-97164091D01*
X127042516Y-97164091D01*
X127049444Y-97164835D01*
X127102127Y-97170500D01*
X128897872Y-97170499D01*
X128957483Y-97164091D01*
X129092331Y-97113796D01*
X129207546Y-97027546D01*
X129293796Y-96912331D01*
X129344091Y-96777483D01*
X129350500Y-96717873D01*
X129350499Y-96693979D01*
X129353330Y-96680963D01*
X129363940Y-96661525D01*
X129370179Y-96640275D01*
X129386803Y-96619643D01*
X129386808Y-96619636D01*
X129386811Y-96619634D01*
X129386818Y-96619626D01*
X130057037Y-95949408D01*
X130074075Y-96012993D01*
X130139901Y-96127007D01*
X130232993Y-96220099D01*
X130347007Y-96285925D01*
X130410590Y-96302962D01*
X129778282Y-96935269D01*
X129778282Y-96935270D01*
X129832449Y-96974624D01*
X130021782Y-97071095D01*
X130223870Y-97136757D01*
X130433754Y-97170000D01*
X130646246Y-97170000D01*
X130856127Y-97136757D01*
X130856130Y-97136757D01*
X131058217Y-97071095D01*
X131247554Y-96974622D01*
X131301716Y-96935270D01*
X131301717Y-96935270D01*
X130669408Y-96302962D01*
X130732993Y-96285925D01*
X130847007Y-96220099D01*
X130940099Y-96127007D01*
X131005925Y-96012993D01*
X131022962Y-95949408D01*
X131655270Y-96581717D01*
X131655270Y-96581716D01*
X131694622Y-96527554D01*
X131791095Y-96338217D01*
X131856757Y-96136130D01*
X131856757Y-96136127D01*
X131890000Y-95926246D01*
X131890000Y-95713753D01*
X131856757Y-95503872D01*
X131856756Y-95503865D01*
X131850676Y-95485152D01*
X131839249Y-95449984D01*
X158799500Y-95449984D01*
X158799500Y-97450015D01*
X158810000Y-97552795D01*
X158810001Y-97552797D01*
X158820016Y-97583021D01*
X158865186Y-97719335D01*
X158865187Y-97719337D01*
X158957286Y-97868651D01*
X158957289Y-97868655D01*
X159081344Y-97992710D01*
X159081348Y-97992713D01*
X159230662Y-98084812D01*
X159230664Y-98084813D01*
X159230666Y-98084814D01*
X159397203Y-98139999D01*
X159499992Y-98150500D01*
X159499997Y-98150500D01*
X159778674Y-98150500D01*
X159845713Y-98170185D01*
X159891468Y-98222989D01*
X159901412Y-98292147D01*
X159872387Y-98355703D01*
X159826127Y-98389061D01*
X159746497Y-98422045D01*
X159746479Y-98422054D01*
X159553511Y-98533462D01*
X159487595Y-98584042D01*
X160288941Y-99385387D01*
X160268409Y-99390889D01*
X160131592Y-99469881D01*
X160019881Y-99581592D01*
X159940889Y-99718409D01*
X159935387Y-99738940D01*
X159134042Y-98937595D01*
X159083462Y-99003511D01*
X158972054Y-99196479D01*
X158972045Y-99196497D01*
X158886763Y-99402381D01*
X158829088Y-99617632D01*
X158829085Y-99617645D01*
X158800000Y-99838575D01*
X158800000Y-100061424D01*
X158829085Y-100282354D01*
X158829088Y-100282367D01*
X158886763Y-100497618D01*
X158972045Y-100703502D01*
X158972054Y-100703520D01*
X159083464Y-100896491D01*
X159083473Y-100896504D01*
X159134040Y-100962403D01*
X159134043Y-100962403D01*
X159935387Y-100161059D01*
X159940889Y-100181591D01*
X160019881Y-100318408D01*
X160131592Y-100430119D01*
X160268409Y-100509111D01*
X160288940Y-100514612D01*
X159487595Y-101315955D01*
X159487595Y-101315956D01*
X159553507Y-101366533D01*
X159746485Y-101477949D01*
X159746497Y-101477954D01*
X159952381Y-101563236D01*
X160167632Y-101620911D01*
X160167645Y-101620914D01*
X160388575Y-101650000D01*
X160611425Y-101650000D01*
X160832354Y-101620914D01*
X160832367Y-101620911D01*
X161047618Y-101563236D01*
X161253502Y-101477954D01*
X161253514Y-101477949D01*
X161446498Y-101366530D01*
X161512403Y-101315957D01*
X161512404Y-101315956D01*
X160711059Y-100514612D01*
X160731591Y-100509111D01*
X160868408Y-100430119D01*
X160980119Y-100318408D01*
X161059111Y-100181591D01*
X161064612Y-100161059D01*
X161865956Y-100962404D01*
X161865957Y-100962403D01*
X161916530Y-100896498D01*
X162027949Y-100703514D01*
X162027954Y-100703502D01*
X162113236Y-100497618D01*
X162170911Y-100282367D01*
X162170914Y-100282354D01*
X162200000Y-100061424D01*
X162200000Y-99838575D01*
X162170914Y-99617645D01*
X162170911Y-99617632D01*
X162113236Y-99402381D01*
X162027954Y-99196497D01*
X162027949Y-99196486D01*
X161977344Y-99108835D01*
X161977343Y-99108834D01*
X161943366Y-99049984D01*
X169299500Y-99049984D01*
X169299500Y-101050015D01*
X169310000Y-101152795D01*
X169310001Y-101152796D01*
X169365186Y-101319335D01*
X169365187Y-101319337D01*
X169457286Y-101468651D01*
X169457289Y-101468655D01*
X169581344Y-101592710D01*
X169581348Y-101592713D01*
X169730662Y-101684812D01*
X169730664Y-101684813D01*
X169730666Y-101684814D01*
X169897203Y-101739999D01*
X169999992Y-101750500D01*
X169999997Y-101750500D01*
X172000003Y-101750500D01*
X172000008Y-101750500D01*
X172102797Y-101739999D01*
X172269334Y-101684814D01*
X172418655Y-101592711D01*
X172542711Y-101468655D01*
X172634814Y-101319334D01*
X172689999Y-101152797D01*
X172700500Y-101050008D01*
X172700500Y-99049992D01*
X172689999Y-98947203D01*
X172634814Y-98780666D01*
X172542711Y-98631345D01*
X172418655Y-98507289D01*
X172418651Y-98507286D01*
X172269337Y-98415187D01*
X172269335Y-98415186D01*
X172186065Y-98387593D01*
X172102797Y-98360001D01*
X172102795Y-98360000D01*
X172000015Y-98349500D01*
X172000008Y-98349500D01*
X171721326Y-98349500D01*
X171654287Y-98329815D01*
X171608532Y-98277011D01*
X171598588Y-98207853D01*
X171627613Y-98144297D01*
X171673873Y-98110939D01*
X171753502Y-98077954D01*
X171753514Y-98077949D01*
X171946498Y-97966530D01*
X172012403Y-97915957D01*
X172012404Y-97915956D01*
X171211059Y-97114612D01*
X171231591Y-97109111D01*
X171368408Y-97030119D01*
X171480119Y-96918408D01*
X171559111Y-96781591D01*
X171564612Y-96761060D01*
X172365956Y-97562404D01*
X172365957Y-97562403D01*
X172416530Y-97496498D01*
X172527949Y-97303514D01*
X172527954Y-97303502D01*
X172613236Y-97097618D01*
X172670911Y-96882367D01*
X172670914Y-96882354D01*
X172700000Y-96661424D01*
X172700000Y-96438575D01*
X172670914Y-96217645D01*
X172670911Y-96217632D01*
X172613236Y-96002381D01*
X172527954Y-95796497D01*
X172527949Y-95796485D01*
X172416533Y-95603507D01*
X172365956Y-95537595D01*
X172365955Y-95537595D01*
X171564612Y-96338939D01*
X171559111Y-96318409D01*
X171480119Y-96181592D01*
X171368408Y-96069881D01*
X171231591Y-95990889D01*
X171211058Y-95985387D01*
X172012403Y-95184043D01*
X172012403Y-95184040D01*
X171946504Y-95133473D01*
X171946491Y-95133464D01*
X171753520Y-95022054D01*
X171753502Y-95022045D01*
X171547618Y-94936763D01*
X171332367Y-94879088D01*
X171332354Y-94879085D01*
X171111425Y-94850000D01*
X170888575Y-94850000D01*
X170667645Y-94879085D01*
X170667632Y-94879088D01*
X170452381Y-94936763D01*
X170246497Y-95022045D01*
X170246479Y-95022054D01*
X170053511Y-95133462D01*
X169987595Y-95184042D01*
X170788941Y-95985387D01*
X170768409Y-95990889D01*
X170631592Y-96069881D01*
X170519881Y-96181592D01*
X170440889Y-96318409D01*
X170435387Y-96338940D01*
X169634042Y-95537595D01*
X169583462Y-95603511D01*
X169472054Y-95796479D01*
X169472045Y-95796497D01*
X169386763Y-96002381D01*
X169329088Y-96217632D01*
X169329085Y-96217645D01*
X169300000Y-96438575D01*
X169300000Y-96661424D01*
X169329085Y-96882354D01*
X169329088Y-96882367D01*
X169386763Y-97097618D01*
X169472045Y-97303502D01*
X169472054Y-97303520D01*
X169583464Y-97496491D01*
X169583473Y-97496504D01*
X169634040Y-97562403D01*
X169634043Y-97562403D01*
X170435387Y-96761059D01*
X170440889Y-96781591D01*
X170519881Y-96918408D01*
X170631592Y-97030119D01*
X170768409Y-97109111D01*
X170788940Y-97114612D01*
X169987595Y-97915955D01*
X169987595Y-97915956D01*
X170053507Y-97966533D01*
X170246485Y-98077949D01*
X170246497Y-98077954D01*
X170326127Y-98110939D01*
X170380531Y-98154780D01*
X170402595Y-98221075D01*
X170385315Y-98288774D01*
X170334178Y-98336384D01*
X170278674Y-98349500D01*
X169999984Y-98349500D01*
X169897204Y-98360000D01*
X169897203Y-98360001D01*
X169730664Y-98415186D01*
X169730662Y-98415187D01*
X169581348Y-98507286D01*
X169581344Y-98507289D01*
X169457289Y-98631344D01*
X169457286Y-98631348D01*
X169365187Y-98780662D01*
X169365186Y-98780664D01*
X169310001Y-98947203D01*
X169310000Y-98947204D01*
X169299500Y-99049984D01*
X161943366Y-99049984D01*
X161916531Y-99003504D01*
X161865956Y-98937595D01*
X161865955Y-98937595D01*
X161064612Y-99738939D01*
X161059111Y-99718409D01*
X160980119Y-99581592D01*
X160868408Y-99469881D01*
X160731591Y-99390889D01*
X160711058Y-99385387D01*
X161512403Y-98584043D01*
X161512403Y-98584040D01*
X161446504Y-98533473D01*
X161446491Y-98533464D01*
X161253520Y-98422054D01*
X161253502Y-98422045D01*
X161173873Y-98389061D01*
X161119469Y-98345220D01*
X161097405Y-98278925D01*
X161114685Y-98211226D01*
X161165822Y-98163616D01*
X161221326Y-98150500D01*
X161500003Y-98150500D01*
X161500008Y-98150500D01*
X161602797Y-98139999D01*
X161769334Y-98084814D01*
X161918655Y-97992711D01*
X162042711Y-97868655D01*
X162134814Y-97719334D01*
X162189999Y-97552797D01*
X162200500Y-97450008D01*
X162200500Y-95449992D01*
X162189999Y-95347203D01*
X162134814Y-95180666D01*
X162105699Y-95133464D01*
X162042713Y-95031348D01*
X162042710Y-95031344D01*
X161918655Y-94907289D01*
X161918651Y-94907286D01*
X161769337Y-94815187D01*
X161769335Y-94815186D01*
X161684280Y-94787002D01*
X161602797Y-94760001D01*
X161602795Y-94760000D01*
X161500015Y-94749500D01*
X161500008Y-94749500D01*
X159499992Y-94749500D01*
X159499984Y-94749500D01*
X159397204Y-94760000D01*
X159397203Y-94760001D01*
X159230664Y-94815186D01*
X159230662Y-94815187D01*
X159081348Y-94907286D01*
X159081344Y-94907289D01*
X158957289Y-95031344D01*
X158957286Y-95031348D01*
X158865187Y-95180662D01*
X158865186Y-95180664D01*
X158810001Y-95347203D01*
X158810000Y-95347204D01*
X158799500Y-95449984D01*
X131839249Y-95449984D01*
X131791095Y-95301782D01*
X131694624Y-95112449D01*
X131655270Y-95058282D01*
X131655269Y-95058282D01*
X131022962Y-95690590D01*
X131005925Y-95627007D01*
X130940099Y-95512993D01*
X130847007Y-95419901D01*
X130732993Y-95354075D01*
X130669409Y-95337037D01*
X131301716Y-94704728D01*
X131247550Y-94665375D01*
X131058217Y-94568904D01*
X130856129Y-94503242D01*
X130646246Y-94470000D01*
X130433754Y-94470000D01*
X130223872Y-94503242D01*
X130223869Y-94503242D01*
X130021782Y-94568904D01*
X129832439Y-94665380D01*
X129778282Y-94704727D01*
X129778282Y-94704728D01*
X130410591Y-95337037D01*
X130347007Y-95354075D01*
X130232993Y-95419901D01*
X130139901Y-95512993D01*
X130074075Y-95627007D01*
X130057037Y-95690591D01*
X129386818Y-95020372D01*
X129353333Y-94959049D01*
X129353330Y-94959036D01*
X129350499Y-94946015D01*
X129350499Y-94922128D01*
X129344091Y-94862517D01*
X129305855Y-94760000D01*
X129293798Y-94727673D01*
X129293793Y-94727664D01*
X129207547Y-94612455D01*
X129207544Y-94612452D01*
X129092335Y-94526206D01*
X129092328Y-94526202D01*
X128957482Y-94475908D01*
X128957483Y-94475908D01*
X128897883Y-94469501D01*
X128897881Y-94469500D01*
X128897873Y-94469500D01*
X128897864Y-94469500D01*
X127102129Y-94469500D01*
X127102123Y-94469501D01*
X127042516Y-94475908D01*
X126907671Y-94526202D01*
X126907664Y-94526206D01*
X126792455Y-94612452D01*
X126792452Y-94612455D01*
X126706206Y-94727664D01*
X126706202Y-94727671D01*
X126655908Y-94862517D01*
X126649501Y-94922116D01*
X126649500Y-94922135D01*
X82500500Y-94922135D01*
X82500500Y-92425258D01*
X89769500Y-92425258D01*
X89769500Y-92654741D01*
X89775525Y-92700500D01*
X89799452Y-92882238D01*
X89799453Y-92882240D01*
X89858842Y-93103887D01*
X89946650Y-93315876D01*
X89946657Y-93315890D01*
X90061392Y-93514617D01*
X90201081Y-93696661D01*
X90201089Y-93696670D01*
X90363330Y-93858911D01*
X90363338Y-93858918D01*
X90545382Y-93998607D01*
X90545385Y-93998608D01*
X90545388Y-93998611D01*
X90744112Y-94113344D01*
X90744117Y-94113346D01*
X90744123Y-94113349D01*
X90835480Y-94151190D01*
X90956113Y-94201158D01*
X91177762Y-94260548D01*
X91405266Y-94290500D01*
X91405273Y-94290500D01*
X91634727Y-94290500D01*
X91634734Y-94290500D01*
X91862238Y-94260548D01*
X92083887Y-94201158D01*
X92295888Y-94113344D01*
X92494612Y-93998611D01*
X92676661Y-93858919D01*
X92676665Y-93858914D01*
X92676670Y-93858911D01*
X92838911Y-93696670D01*
X92838914Y-93696665D01*
X92838919Y-93696661D01*
X92978611Y-93514612D01*
X93093344Y-93315888D01*
X93181158Y-93103887D01*
X93240548Y-92882238D01*
X93270500Y-92654734D01*
X93270500Y-92425266D01*
X93270499Y-92425258D01*
X114279500Y-92425258D01*
X114279500Y-92654741D01*
X114285525Y-92700500D01*
X114309452Y-92882238D01*
X114309453Y-92882240D01*
X114368842Y-93103887D01*
X114456650Y-93315876D01*
X114456657Y-93315890D01*
X114571392Y-93514617D01*
X114711081Y-93696661D01*
X114711089Y-93696670D01*
X114873330Y-93858911D01*
X114873338Y-93858918D01*
X115055382Y-93998607D01*
X115055385Y-93998608D01*
X115055388Y-93998611D01*
X115254112Y-94113344D01*
X115254117Y-94113346D01*
X115254123Y-94113349D01*
X115345480Y-94151190D01*
X115466113Y-94201158D01*
X115687762Y-94260548D01*
X115915266Y-94290500D01*
X115915273Y-94290500D01*
X116144727Y-94290500D01*
X116144734Y-94290500D01*
X116372238Y-94260548D01*
X116593887Y-94201158D01*
X116805888Y-94113344D01*
X117004612Y-93998611D01*
X117186661Y-93858919D01*
X117186665Y-93858914D01*
X117186670Y-93858911D01*
X117348911Y-93696670D01*
X117348914Y-93696665D01*
X117348919Y-93696661D01*
X117488611Y-93514612D01*
X117603344Y-93315888D01*
X117691158Y-93103887D01*
X117750548Y-92882238D01*
X117780500Y-92654734D01*
X117780500Y-92425266D01*
X117750548Y-92197762D01*
X117691158Y-91976113D01*
X117603344Y-91764112D01*
X117488611Y-91565388D01*
X117488608Y-91565385D01*
X117488607Y-91565382D01*
X117348918Y-91383338D01*
X117348911Y-91383330D01*
X117186670Y-91221089D01*
X117186661Y-91221081D01*
X117004617Y-91081392D01*
X116805890Y-90966657D01*
X116805876Y-90966650D01*
X116593887Y-90878842D01*
X116584945Y-90876446D01*
X116372238Y-90819452D01*
X116334215Y-90814446D01*
X116144741Y-90789500D01*
X116144734Y-90789500D01*
X115915266Y-90789500D01*
X115915258Y-90789500D01*
X115698715Y-90818009D01*
X115687762Y-90819452D01*
X115594076Y-90844554D01*
X115466112Y-90878842D01*
X115254123Y-90966650D01*
X115254109Y-90966657D01*
X115055382Y-91081392D01*
X114873338Y-91221081D01*
X114711081Y-91383338D01*
X114571392Y-91565382D01*
X114456657Y-91764109D01*
X114456650Y-91764123D01*
X114368842Y-91976112D01*
X114343277Y-92071525D01*
X114328179Y-92127873D01*
X114309453Y-92197759D01*
X114309451Y-92197770D01*
X114279500Y-92425258D01*
X93270499Y-92425258D01*
X93240548Y-92197762D01*
X93181158Y-91976113D01*
X93093344Y-91764112D01*
X92978611Y-91565388D01*
X92978608Y-91565385D01*
X92978607Y-91565382D01*
X92838918Y-91383338D01*
X92838911Y-91383330D01*
X92676670Y-91221089D01*
X92676661Y-91221081D01*
X92494617Y-91081392D01*
X92295890Y-90966657D01*
X92295876Y-90966650D01*
X92083887Y-90878842D01*
X92074945Y-90876446D01*
X91862238Y-90819452D01*
X91824215Y-90814446D01*
X91634741Y-90789500D01*
X91634734Y-90789500D01*
X91405266Y-90789500D01*
X91405258Y-90789500D01*
X91188715Y-90818009D01*
X91177762Y-90819452D01*
X91084076Y-90844554D01*
X90956112Y-90878842D01*
X90744123Y-90966650D01*
X90744109Y-90966657D01*
X90545382Y-91081392D01*
X90363338Y-91221081D01*
X90201081Y-91383338D01*
X90061392Y-91565382D01*
X89946657Y-91764109D01*
X89946650Y-91764123D01*
X89858842Y-91976112D01*
X89833277Y-92071525D01*
X89818179Y-92127873D01*
X89799453Y-92197759D01*
X89799451Y-92197770D01*
X89769500Y-92425258D01*
X82500500Y-92425258D01*
X82500500Y-90332135D01*
X126649500Y-90332135D01*
X126649500Y-92127870D01*
X126649501Y-92127876D01*
X126655908Y-92187483D01*
X126706202Y-92322328D01*
X126706206Y-92322335D01*
X126792452Y-92437544D01*
X126792455Y-92437547D01*
X126907664Y-92523793D01*
X126907671Y-92523797D01*
X127042517Y-92574091D01*
X127042516Y-92574091D01*
X127049444Y-92574835D01*
X127102127Y-92580500D01*
X128897872Y-92580499D01*
X128957483Y-92574091D01*
X129092331Y-92523796D01*
X129207546Y-92437546D01*
X129293796Y-92322331D01*
X129344091Y-92187483D01*
X129350500Y-92127873D01*
X129350499Y-92103979D01*
X129353330Y-92090963D01*
X129363940Y-92071525D01*
X129370179Y-92050275D01*
X129386803Y-92029643D01*
X129386808Y-92029636D01*
X129386811Y-92029634D01*
X129386818Y-92029626D01*
X130057037Y-91359408D01*
X130074075Y-91422993D01*
X130139901Y-91537007D01*
X130232993Y-91630099D01*
X130347007Y-91695925D01*
X130410590Y-91712962D01*
X129778282Y-92345269D01*
X129778282Y-92345270D01*
X129832449Y-92384624D01*
X130021782Y-92481095D01*
X130223870Y-92546757D01*
X130433754Y-92580000D01*
X130646246Y-92580000D01*
X130856127Y-92546757D01*
X130856130Y-92546757D01*
X131058217Y-92481095D01*
X131247554Y-92384622D01*
X131301716Y-92345270D01*
X131301717Y-92345270D01*
X131262131Y-92305684D01*
X130669408Y-91712962D01*
X130732993Y-91695925D01*
X130847007Y-91630099D01*
X130940099Y-91537007D01*
X131005925Y-91422993D01*
X131022962Y-91359408D01*
X131655270Y-91991717D01*
X131655270Y-91991716D01*
X131694622Y-91937554D01*
X131791095Y-91748217D01*
X131856757Y-91546130D01*
X131856757Y-91546127D01*
X131890000Y-91336246D01*
X131890000Y-91123753D01*
X131856757Y-90913872D01*
X131856757Y-90913869D01*
X131827178Y-90822835D01*
X131791095Y-90711782D01*
X131694624Y-90522449D01*
X131655270Y-90468282D01*
X131655269Y-90468282D01*
X131022962Y-91100590D01*
X131005925Y-91037007D01*
X130940099Y-90922993D01*
X130847007Y-90829901D01*
X130732993Y-90764075D01*
X130669409Y-90747037D01*
X131301716Y-90114728D01*
X131247550Y-90075375D01*
X131058217Y-89978904D01*
X130856129Y-89913242D01*
X130646246Y-89880000D01*
X130433754Y-89880000D01*
X130223872Y-89913242D01*
X130223869Y-89913242D01*
X130021782Y-89978904D01*
X129832439Y-90075380D01*
X129778282Y-90114727D01*
X129778282Y-90114728D01*
X130410591Y-90747037D01*
X130347007Y-90764075D01*
X130232993Y-90829901D01*
X130139901Y-90922993D01*
X130074075Y-91037007D01*
X130057037Y-91100591D01*
X129386818Y-90430372D01*
X129353333Y-90369049D01*
X129353330Y-90369036D01*
X129350499Y-90356015D01*
X129350499Y-90332128D01*
X129344091Y-90272517D01*
X129297082Y-90146479D01*
X129293798Y-90137673D01*
X129293793Y-90137664D01*
X129207547Y-90022455D01*
X129207544Y-90022452D01*
X129092335Y-89936206D01*
X129092328Y-89936202D01*
X128957482Y-89885908D01*
X128957483Y-89885908D01*
X128897883Y-89879501D01*
X128897881Y-89879500D01*
X128897873Y-89879500D01*
X128897864Y-89879500D01*
X127102129Y-89879500D01*
X127102123Y-89879501D01*
X127042516Y-89885908D01*
X126907671Y-89936202D01*
X126907664Y-89936206D01*
X126792455Y-90022452D01*
X126792452Y-90022455D01*
X126706206Y-90137664D01*
X126706202Y-90137671D01*
X126655908Y-90272517D01*
X126649501Y-90332116D01*
X126649500Y-90332135D01*
X82500500Y-90332135D01*
X82500500Y-86399984D01*
X158799500Y-86399984D01*
X158799500Y-88400015D01*
X158810000Y-88502795D01*
X158810001Y-88502797D01*
X158837593Y-88586065D01*
X158865186Y-88669335D01*
X158865187Y-88669337D01*
X158957286Y-88818651D01*
X158957289Y-88818655D01*
X159081344Y-88942710D01*
X159081348Y-88942713D01*
X159230662Y-89034812D01*
X159230664Y-89034813D01*
X159230666Y-89034814D01*
X159397203Y-89089999D01*
X159499992Y-89100500D01*
X159499997Y-89100500D01*
X159778674Y-89100500D01*
X159845713Y-89120185D01*
X159891468Y-89172989D01*
X159901412Y-89242147D01*
X159872387Y-89305703D01*
X159826127Y-89339061D01*
X159746497Y-89372045D01*
X159746479Y-89372054D01*
X159553511Y-89483462D01*
X159487595Y-89534042D01*
X160288941Y-90335387D01*
X160268409Y-90340889D01*
X160131592Y-90419881D01*
X160019881Y-90531592D01*
X159940889Y-90668409D01*
X159935387Y-90688940D01*
X159134042Y-89887595D01*
X159083462Y-89953511D01*
X158972054Y-90146479D01*
X158972045Y-90146497D01*
X158886763Y-90352381D01*
X158829088Y-90567632D01*
X158829085Y-90567645D01*
X158800000Y-90788575D01*
X158800000Y-91011424D01*
X158829085Y-91232354D01*
X158829088Y-91232367D01*
X158886763Y-91447618D01*
X158972045Y-91653502D01*
X158972054Y-91653520D01*
X159083464Y-91846491D01*
X159083473Y-91846504D01*
X159134040Y-91912403D01*
X159134043Y-91912403D01*
X159935387Y-91111059D01*
X159940889Y-91131591D01*
X160019881Y-91268408D01*
X160131592Y-91380119D01*
X160268409Y-91459111D01*
X160288940Y-91464612D01*
X159487595Y-92265955D01*
X159487595Y-92265956D01*
X159553507Y-92316533D01*
X159746485Y-92427949D01*
X159746497Y-92427954D01*
X159952381Y-92513236D01*
X160167632Y-92570911D01*
X160167645Y-92570914D01*
X160388575Y-92600000D01*
X160611425Y-92600000D01*
X160832354Y-92570914D01*
X160832367Y-92570911D01*
X161047618Y-92513236D01*
X161253502Y-92427954D01*
X161253514Y-92427949D01*
X161446498Y-92316530D01*
X161512403Y-92265957D01*
X161512404Y-92265956D01*
X160711059Y-91464612D01*
X160731591Y-91459111D01*
X160868408Y-91380119D01*
X160980119Y-91268408D01*
X161059111Y-91131591D01*
X161064612Y-91111059D01*
X161865956Y-91912404D01*
X161865957Y-91912403D01*
X161916530Y-91846498D01*
X162027949Y-91653514D01*
X162027954Y-91653502D01*
X162113236Y-91447618D01*
X162170911Y-91232367D01*
X162170914Y-91232354D01*
X162200000Y-91011424D01*
X162200000Y-90788575D01*
X162170914Y-90567645D01*
X162170911Y-90567632D01*
X162113236Y-90352381D01*
X162027954Y-90146497D01*
X162027949Y-90146486D01*
X161977344Y-90058835D01*
X161977343Y-90058834D01*
X161943366Y-89999984D01*
X169299500Y-89999984D01*
X169299500Y-92000015D01*
X169310000Y-92102795D01*
X169310001Y-92102797D01*
X169337593Y-92186065D01*
X169365186Y-92269335D01*
X169365187Y-92269337D01*
X169457286Y-92418651D01*
X169457289Y-92418655D01*
X169581344Y-92542710D01*
X169581348Y-92542713D01*
X169730662Y-92634812D01*
X169730664Y-92634813D01*
X169730666Y-92634814D01*
X169897203Y-92689999D01*
X169999992Y-92700500D01*
X169999997Y-92700500D01*
X172000003Y-92700500D01*
X172000008Y-92700500D01*
X172102797Y-92689999D01*
X172269334Y-92634814D01*
X172418655Y-92542711D01*
X172542711Y-92418655D01*
X172634814Y-92269334D01*
X172689999Y-92102797D01*
X172700500Y-92000008D01*
X172700500Y-89999992D01*
X172689999Y-89897203D01*
X172634814Y-89730666D01*
X172542711Y-89581345D01*
X172418655Y-89457289D01*
X172418651Y-89457286D01*
X172269337Y-89365187D01*
X172269335Y-89365186D01*
X172186065Y-89337593D01*
X172102797Y-89310001D01*
X172102795Y-89310000D01*
X172000015Y-89299500D01*
X172000008Y-89299500D01*
X171721326Y-89299500D01*
X171654287Y-89279815D01*
X171608532Y-89227011D01*
X171598588Y-89157853D01*
X171627613Y-89094297D01*
X171673873Y-89060939D01*
X171753502Y-89027954D01*
X171753514Y-89027949D01*
X171946498Y-88916530D01*
X172012403Y-88865957D01*
X172012404Y-88865956D01*
X171211059Y-88064612D01*
X171231591Y-88059111D01*
X171368408Y-87980119D01*
X171480119Y-87868408D01*
X171559111Y-87731591D01*
X171564612Y-87711060D01*
X172365956Y-88512404D01*
X172365957Y-88512403D01*
X172416530Y-88446498D01*
X172527949Y-88253514D01*
X172527954Y-88253502D01*
X172613236Y-88047618D01*
X172670911Y-87832367D01*
X172670914Y-87832354D01*
X172700000Y-87611424D01*
X172700000Y-87388575D01*
X172670914Y-87167645D01*
X172670911Y-87167632D01*
X172613236Y-86952381D01*
X172527954Y-86746497D01*
X172527949Y-86746485D01*
X172416533Y-86553507D01*
X172365956Y-86487595D01*
X172365955Y-86487595D01*
X171564612Y-87288939D01*
X171559111Y-87268409D01*
X171480119Y-87131592D01*
X171368408Y-87019881D01*
X171231591Y-86940889D01*
X171211058Y-86935387D01*
X172012403Y-86134043D01*
X172012403Y-86134040D01*
X171946504Y-86083473D01*
X171946491Y-86083464D01*
X171753520Y-85972054D01*
X171753502Y-85972045D01*
X171547618Y-85886763D01*
X171332367Y-85829088D01*
X171332354Y-85829085D01*
X171111425Y-85800000D01*
X170888575Y-85800000D01*
X170667645Y-85829085D01*
X170667632Y-85829088D01*
X170452381Y-85886763D01*
X170246497Y-85972045D01*
X170246479Y-85972054D01*
X170053511Y-86083462D01*
X169987595Y-86134042D01*
X170788941Y-86935387D01*
X170768409Y-86940889D01*
X170631592Y-87019881D01*
X170519881Y-87131592D01*
X170440889Y-87268409D01*
X170435387Y-87288940D01*
X169634042Y-86487595D01*
X169583462Y-86553511D01*
X169472054Y-86746479D01*
X169472045Y-86746497D01*
X169386763Y-86952381D01*
X169329088Y-87167632D01*
X169329085Y-87167645D01*
X169300000Y-87388575D01*
X169300000Y-87611424D01*
X169329085Y-87832354D01*
X169329088Y-87832367D01*
X169386763Y-88047618D01*
X169472045Y-88253502D01*
X169472054Y-88253520D01*
X169583464Y-88446491D01*
X169583473Y-88446504D01*
X169634040Y-88512403D01*
X169634043Y-88512403D01*
X170435387Y-87711059D01*
X170440889Y-87731591D01*
X170519881Y-87868408D01*
X170631592Y-87980119D01*
X170768409Y-88059111D01*
X170788940Y-88064612D01*
X169987595Y-88865955D01*
X169987595Y-88865956D01*
X170053507Y-88916533D01*
X170246485Y-89027949D01*
X170246497Y-89027954D01*
X170326127Y-89060939D01*
X170380531Y-89104780D01*
X170402595Y-89171075D01*
X170385315Y-89238774D01*
X170334178Y-89286384D01*
X170278674Y-89299500D01*
X169999984Y-89299500D01*
X169897204Y-89310000D01*
X169897203Y-89310001D01*
X169730664Y-89365186D01*
X169730662Y-89365187D01*
X169581348Y-89457286D01*
X169581344Y-89457289D01*
X169457289Y-89581344D01*
X169457286Y-89581348D01*
X169365187Y-89730662D01*
X169365186Y-89730664D01*
X169310001Y-89897203D01*
X169310000Y-89897204D01*
X169299500Y-89999984D01*
X161943366Y-89999984D01*
X161916531Y-89953504D01*
X161865956Y-89887595D01*
X161865955Y-89887595D01*
X161064612Y-90688939D01*
X161059111Y-90668409D01*
X160980119Y-90531592D01*
X160868408Y-90419881D01*
X160731591Y-90340889D01*
X160711058Y-90335387D01*
X161512403Y-89534043D01*
X161512403Y-89534040D01*
X161446504Y-89483473D01*
X161446491Y-89483464D01*
X161253520Y-89372054D01*
X161253502Y-89372045D01*
X161173873Y-89339061D01*
X161119469Y-89295220D01*
X161097405Y-89228925D01*
X161114685Y-89161226D01*
X161165822Y-89113616D01*
X161221326Y-89100500D01*
X161500003Y-89100500D01*
X161500008Y-89100500D01*
X161602797Y-89089999D01*
X161769334Y-89034814D01*
X161918655Y-88942711D01*
X162042711Y-88818655D01*
X162134814Y-88669334D01*
X162189999Y-88502797D01*
X162200500Y-88400008D01*
X162200500Y-86399992D01*
X162189999Y-86297203D01*
X162134814Y-86130666D01*
X162105699Y-86083464D01*
X162042713Y-85981348D01*
X162042710Y-85981344D01*
X161918655Y-85857289D01*
X161918651Y-85857286D01*
X161769337Y-85765187D01*
X161769335Y-85765186D01*
X161686065Y-85737593D01*
X161602797Y-85710001D01*
X161602795Y-85710000D01*
X161500015Y-85699500D01*
X161500008Y-85699500D01*
X159499992Y-85699500D01*
X159499984Y-85699500D01*
X159397204Y-85710000D01*
X159397203Y-85710001D01*
X159230664Y-85765186D01*
X159230662Y-85765187D01*
X159081348Y-85857286D01*
X159081344Y-85857289D01*
X158957289Y-85981344D01*
X158957286Y-85981348D01*
X158865187Y-86130662D01*
X158865186Y-86130664D01*
X158810001Y-86297203D01*
X158810000Y-86297204D01*
X158799500Y-86399984D01*
X82500500Y-86399984D01*
X82500500Y-83381947D01*
X112367700Y-83381947D01*
X112367700Y-83618052D01*
X112404634Y-83851247D01*
X112477597Y-84075802D01*
X112584787Y-84286174D01*
X112645038Y-84369104D01*
X112645040Y-84369105D01*
X113384737Y-83629408D01*
X113401775Y-83692993D01*
X113467601Y-83807007D01*
X113560693Y-83900099D01*
X113674707Y-83965925D01*
X113738290Y-83982962D01*
X112998593Y-84722658D01*
X113081528Y-84782914D01*
X113291897Y-84890102D01*
X113516452Y-84963065D01*
X113516451Y-84963065D01*
X113749648Y-85000000D01*
X113985752Y-85000000D01*
X114218947Y-84963065D01*
X114443502Y-84890102D01*
X114653863Y-84782918D01*
X114653869Y-84782914D01*
X114736804Y-84722658D01*
X114736805Y-84722658D01*
X113997108Y-83982962D01*
X114060693Y-83965925D01*
X114174707Y-83900099D01*
X114267799Y-83807007D01*
X114333625Y-83692993D01*
X114350662Y-83629409D01*
X115090358Y-84369105D01*
X115090358Y-84369104D01*
X115150614Y-84286169D01*
X115150618Y-84286163D01*
X115257802Y-84075802D01*
X115330765Y-83851247D01*
X115367700Y-83618052D01*
X115367700Y-83381947D01*
X115330765Y-83148752D01*
X115257802Y-82924197D01*
X115170639Y-82753129D01*
X115170638Y-82753127D01*
X115150616Y-82713830D01*
X115140555Y-82699983D01*
X117367200Y-82699983D01*
X117367200Y-84300001D01*
X117367201Y-84300018D01*
X117377700Y-84402796D01*
X117377701Y-84402799D01*
X117432885Y-84569331D01*
X117432886Y-84569334D01*
X117524988Y-84718656D01*
X117649044Y-84842712D01*
X117798366Y-84934814D01*
X117964903Y-84989999D01*
X118067691Y-85000500D01*
X119667708Y-85000499D01*
X119770497Y-84989999D01*
X119937034Y-84934814D01*
X120086356Y-84842712D01*
X120210412Y-84718656D01*
X120302514Y-84569334D01*
X120357699Y-84402797D01*
X120368200Y-84300009D01*
X120368199Y-82699992D01*
X120361140Y-82630893D01*
X120357699Y-82597203D01*
X120357698Y-82597200D01*
X120302514Y-82430666D01*
X120210412Y-82281344D01*
X120086356Y-82157288D01*
X119937034Y-82065186D01*
X119770497Y-82010001D01*
X119770495Y-82010000D01*
X119667710Y-81999500D01*
X118067698Y-81999500D01*
X118067681Y-81999501D01*
X117964903Y-82010000D01*
X117964900Y-82010001D01*
X117798368Y-82065185D01*
X117798363Y-82065187D01*
X117649042Y-82157289D01*
X117524989Y-82281342D01*
X117432887Y-82430663D01*
X117432886Y-82430666D01*
X117377701Y-82597203D01*
X117377701Y-82597204D01*
X117377700Y-82597204D01*
X117367200Y-82699983D01*
X115140555Y-82699983D01*
X115090358Y-82630894D01*
X115090358Y-82630893D01*
X114350662Y-83370590D01*
X114333625Y-83307007D01*
X114267799Y-83192993D01*
X114174707Y-83099901D01*
X114060693Y-83034075D01*
X113997109Y-83017037D01*
X114736805Y-82277340D01*
X114736804Y-82277338D01*
X114653874Y-82217087D01*
X114443502Y-82109897D01*
X114218947Y-82036934D01*
X114218948Y-82036934D01*
X113985752Y-82000000D01*
X113749648Y-82000000D01*
X113516452Y-82036934D01*
X113291897Y-82109897D01*
X113081530Y-82217084D01*
X112998594Y-82277340D01*
X113738291Y-83017037D01*
X113674707Y-83034075D01*
X113560693Y-83099901D01*
X113467601Y-83192993D01*
X113401775Y-83307007D01*
X113384737Y-83370591D01*
X112645040Y-82630894D01*
X112584784Y-82713830D01*
X112477597Y-82924197D01*
X112404634Y-83148752D01*
X112367700Y-83381947D01*
X82500500Y-83381947D01*
X82500500Y-77199983D01*
X169131800Y-77199983D01*
X169131800Y-78800001D01*
X169131801Y-78800018D01*
X169142300Y-78902796D01*
X169142301Y-78902799D01*
X169197485Y-79069331D01*
X169197486Y-79069334D01*
X169289588Y-79218656D01*
X169413644Y-79342712D01*
X169562966Y-79434814D01*
X169729503Y-79489999D01*
X169832291Y-79500500D01*
X171432308Y-79500499D01*
X171535097Y-79489999D01*
X171701634Y-79434814D01*
X171850956Y-79342712D01*
X171975012Y-79218656D01*
X172067114Y-79069334D01*
X172122299Y-78902797D01*
X172132800Y-78800009D01*
X172132799Y-77881947D01*
X174132300Y-77881947D01*
X174132300Y-78118052D01*
X174169234Y-78351247D01*
X174242197Y-78575802D01*
X174349387Y-78786174D01*
X174409638Y-78869104D01*
X174409640Y-78869105D01*
X175149337Y-78129408D01*
X175166375Y-78192993D01*
X175232201Y-78307007D01*
X175325293Y-78400099D01*
X175439307Y-78465925D01*
X175502890Y-78482962D01*
X174763193Y-79222658D01*
X174846128Y-79282914D01*
X175056497Y-79390102D01*
X175281052Y-79463065D01*
X175281051Y-79463065D01*
X175514248Y-79500000D01*
X175750352Y-79500000D01*
X175983547Y-79463065D01*
X176208102Y-79390102D01*
X176418463Y-79282918D01*
X176418469Y-79282914D01*
X176501404Y-79222658D01*
X176501405Y-79222658D01*
X175761708Y-78482962D01*
X175825293Y-78465925D01*
X175939307Y-78400099D01*
X176032399Y-78307007D01*
X176098225Y-78192993D01*
X176115262Y-78129409D01*
X176854958Y-78869105D01*
X176854958Y-78869104D01*
X176915214Y-78786169D01*
X176915218Y-78786163D01*
X177022402Y-78575802D01*
X177095365Y-78351247D01*
X177132300Y-78118052D01*
X177132300Y-77881947D01*
X177095365Y-77648752D01*
X177022402Y-77424197D01*
X176915214Y-77213828D01*
X176854958Y-77130894D01*
X176854958Y-77130893D01*
X176115262Y-77870590D01*
X176098225Y-77807007D01*
X176032399Y-77692993D01*
X175939307Y-77599901D01*
X175825293Y-77534075D01*
X175761709Y-77517037D01*
X176501405Y-76777340D01*
X176501404Y-76777338D01*
X176418474Y-76717087D01*
X176208102Y-76609897D01*
X175983547Y-76536934D01*
X175983548Y-76536934D01*
X175750352Y-76500000D01*
X175514248Y-76500000D01*
X175281052Y-76536934D01*
X175056497Y-76609897D01*
X174846130Y-76717084D01*
X174763194Y-76777340D01*
X175502891Y-77517037D01*
X175439307Y-77534075D01*
X175325293Y-77599901D01*
X175232201Y-77692993D01*
X175166375Y-77807007D01*
X175149337Y-77870590D01*
X174409640Y-77130894D01*
X174349384Y-77213830D01*
X174242197Y-77424197D01*
X174169234Y-77648752D01*
X174132300Y-77881947D01*
X172132799Y-77881947D01*
X172132799Y-77199992D01*
X172125740Y-77130893D01*
X172122299Y-77097203D01*
X172122298Y-77097200D01*
X172067114Y-76930666D01*
X171975012Y-76781344D01*
X171850956Y-76657288D01*
X171701634Y-76565186D01*
X171535097Y-76510001D01*
X171535095Y-76510000D01*
X171432310Y-76499500D01*
X169832298Y-76499500D01*
X169832281Y-76499501D01*
X169729503Y-76510000D01*
X169729500Y-76510001D01*
X169562968Y-76565185D01*
X169562963Y-76565187D01*
X169413642Y-76657289D01*
X169289589Y-76781342D01*
X169197487Y-76930663D01*
X169197486Y-76930666D01*
X169142301Y-77097203D01*
X169142301Y-77097204D01*
X169142300Y-77097204D01*
X169131800Y-77199983D01*
X82500500Y-77199983D01*
X82500500Y-73388575D01*
X91800000Y-73388575D01*
X91800000Y-73611424D01*
X91829085Y-73832354D01*
X91829088Y-73832367D01*
X91886763Y-74047618D01*
X91972045Y-74253502D01*
X91972054Y-74253520D01*
X92083464Y-74446491D01*
X92083473Y-74446504D01*
X92134040Y-74512403D01*
X92134043Y-74512403D01*
X92935387Y-73711059D01*
X92940889Y-73731591D01*
X93019881Y-73868408D01*
X93131592Y-73980119D01*
X93268409Y-74059111D01*
X93288940Y-74064612D01*
X92487595Y-74865955D01*
X92487595Y-74865956D01*
X92553507Y-74916533D01*
X92746485Y-75027949D01*
X92746497Y-75027954D01*
X92952381Y-75113236D01*
X93167632Y-75170911D01*
X93167645Y-75170914D01*
X93388575Y-75200000D01*
X93611425Y-75200000D01*
X93832354Y-75170914D01*
X93832367Y-75170911D01*
X94047618Y-75113236D01*
X94253502Y-75027954D01*
X94253514Y-75027949D01*
X94446498Y-74916530D01*
X94512403Y-74865957D01*
X94512404Y-74865956D01*
X93711059Y-74064612D01*
X93731591Y-74059111D01*
X93868408Y-73980119D01*
X93980119Y-73868408D01*
X94059111Y-73731591D01*
X94064612Y-73711059D01*
X94865956Y-74512404D01*
X94865957Y-74512403D01*
X94916530Y-74446498D01*
X95027949Y-74253514D01*
X95027954Y-74253502D01*
X95060939Y-74173873D01*
X95104780Y-74119469D01*
X95171075Y-74097405D01*
X95238774Y-74114685D01*
X95286384Y-74165822D01*
X95299500Y-74221326D01*
X95299500Y-74500015D01*
X95310000Y-74602795D01*
X95310001Y-74602796D01*
X95365186Y-74769335D01*
X95365187Y-74769337D01*
X95457286Y-74918651D01*
X95457289Y-74918655D01*
X95581344Y-75042710D01*
X95581348Y-75042713D01*
X95730662Y-75134812D01*
X95730664Y-75134813D01*
X95730666Y-75134814D01*
X95897203Y-75189999D01*
X95999992Y-75200500D01*
X95999997Y-75200500D01*
X98000003Y-75200500D01*
X98000008Y-75200500D01*
X98102797Y-75189999D01*
X98269334Y-75134814D01*
X98418655Y-75042711D01*
X98542711Y-74918655D01*
X98634814Y-74769334D01*
X98689999Y-74602797D01*
X98700500Y-74500008D01*
X98700500Y-73388575D01*
X103300000Y-73388575D01*
X103300000Y-73611424D01*
X103329085Y-73832354D01*
X103329088Y-73832367D01*
X103386763Y-74047618D01*
X103472045Y-74253502D01*
X103472054Y-74253520D01*
X103583464Y-74446491D01*
X103583473Y-74446504D01*
X103634040Y-74512403D01*
X103634043Y-74512403D01*
X104435387Y-73711059D01*
X104440889Y-73731591D01*
X104519881Y-73868408D01*
X104631592Y-73980119D01*
X104768409Y-74059111D01*
X104788940Y-74064612D01*
X103987595Y-74865955D01*
X103987595Y-74865956D01*
X104053507Y-74916533D01*
X104246485Y-75027949D01*
X104246497Y-75027954D01*
X104452381Y-75113236D01*
X104667632Y-75170911D01*
X104667645Y-75170914D01*
X104888575Y-75200000D01*
X105111425Y-75200000D01*
X105332354Y-75170914D01*
X105332367Y-75170911D01*
X105547618Y-75113236D01*
X105753502Y-75027954D01*
X105753514Y-75027949D01*
X105946498Y-74916530D01*
X106012403Y-74865957D01*
X106012404Y-74865956D01*
X105211059Y-74064612D01*
X105231591Y-74059111D01*
X105368408Y-73980119D01*
X105480119Y-73868408D01*
X105559111Y-73731591D01*
X105564612Y-73711059D01*
X106365956Y-74512404D01*
X106365957Y-74512403D01*
X106416530Y-74446498D01*
X106527949Y-74253514D01*
X106527954Y-74253502D01*
X106560939Y-74173873D01*
X106604780Y-74119469D01*
X106671075Y-74097405D01*
X106738774Y-74114685D01*
X106786384Y-74165822D01*
X106799500Y-74221326D01*
X106799500Y-74500015D01*
X106810000Y-74602795D01*
X106810001Y-74602796D01*
X106865186Y-74769335D01*
X106865187Y-74769337D01*
X106957286Y-74918651D01*
X106957289Y-74918655D01*
X107081344Y-75042710D01*
X107081348Y-75042713D01*
X107230662Y-75134812D01*
X107230664Y-75134813D01*
X107230666Y-75134814D01*
X107397203Y-75189999D01*
X107499992Y-75200500D01*
X107499997Y-75200500D01*
X109500003Y-75200500D01*
X109500008Y-75200500D01*
X109602797Y-75189999D01*
X109769334Y-75134814D01*
X109918655Y-75042711D01*
X110042711Y-74918655D01*
X110134814Y-74769334D01*
X110189999Y-74602797D01*
X110200500Y-74500008D01*
X110200500Y-72499992D01*
X110189999Y-72397203D01*
X110134814Y-72230666D01*
X110042711Y-72081345D01*
X109918655Y-71957289D01*
X109918651Y-71957286D01*
X109769337Y-71865187D01*
X109769335Y-71865186D01*
X109686065Y-71837593D01*
X109602797Y-71810001D01*
X109602795Y-71810000D01*
X109500015Y-71799500D01*
X109500008Y-71799500D01*
X107499992Y-71799500D01*
X107499984Y-71799500D01*
X107397204Y-71810000D01*
X107397203Y-71810001D01*
X107230664Y-71865186D01*
X107230662Y-71865187D01*
X107081348Y-71957286D01*
X107081344Y-71957289D01*
X106957289Y-72081344D01*
X106957286Y-72081348D01*
X106865187Y-72230662D01*
X106865186Y-72230664D01*
X106810001Y-72397203D01*
X106810000Y-72397204D01*
X106799500Y-72499984D01*
X106799500Y-72778673D01*
X106779815Y-72845712D01*
X106727011Y-72891467D01*
X106657853Y-72901411D01*
X106594297Y-72872386D01*
X106560939Y-72826127D01*
X106527952Y-72746492D01*
X106527949Y-72746485D01*
X106416533Y-72553507D01*
X106365956Y-72487595D01*
X106365955Y-72487595D01*
X105564612Y-73288939D01*
X105559111Y-73268409D01*
X105480119Y-73131592D01*
X105368408Y-73019881D01*
X105231591Y-72940889D01*
X105211058Y-72935387D01*
X106012403Y-72134043D01*
X106012403Y-72134040D01*
X105946504Y-72083473D01*
X105946491Y-72083464D01*
X105753520Y-71972054D01*
X105753502Y-71972045D01*
X105547618Y-71886763D01*
X105332367Y-71829088D01*
X105332354Y-71829085D01*
X105111425Y-71800000D01*
X104888575Y-71800000D01*
X104667645Y-71829085D01*
X104667632Y-71829088D01*
X104452381Y-71886763D01*
X104246497Y-71972045D01*
X104246479Y-71972054D01*
X104053511Y-72083462D01*
X103987595Y-72134042D01*
X104788941Y-72935387D01*
X104768409Y-72940889D01*
X104631592Y-73019881D01*
X104519881Y-73131592D01*
X104440889Y-73268409D01*
X104435387Y-73288940D01*
X103634042Y-72487595D01*
X103583462Y-72553511D01*
X103472054Y-72746479D01*
X103472045Y-72746497D01*
X103386763Y-72952381D01*
X103329088Y-73167632D01*
X103329085Y-73167645D01*
X103300000Y-73388575D01*
X98700500Y-73388575D01*
X98700500Y-72499992D01*
X98689999Y-72397203D01*
X98634814Y-72230666D01*
X98542711Y-72081345D01*
X98418655Y-71957289D01*
X98418651Y-71957286D01*
X98269337Y-71865187D01*
X98269335Y-71865186D01*
X98186065Y-71837593D01*
X98102797Y-71810001D01*
X98102795Y-71810000D01*
X98000015Y-71799500D01*
X98000008Y-71799500D01*
X95999992Y-71799500D01*
X95999984Y-71799500D01*
X95897204Y-71810000D01*
X95897203Y-71810001D01*
X95730664Y-71865186D01*
X95730662Y-71865187D01*
X95581348Y-71957286D01*
X95581344Y-71957289D01*
X95457289Y-72081344D01*
X95457286Y-72081348D01*
X95365187Y-72230662D01*
X95365186Y-72230664D01*
X95310001Y-72397203D01*
X95310000Y-72397204D01*
X95299500Y-72499984D01*
X95299500Y-72778673D01*
X95279815Y-72845712D01*
X95227011Y-72891467D01*
X95157853Y-72901411D01*
X95094297Y-72872386D01*
X95060939Y-72826127D01*
X95027952Y-72746492D01*
X95027949Y-72746485D01*
X94916533Y-72553507D01*
X94865956Y-72487595D01*
X94865955Y-72487595D01*
X94064612Y-73288939D01*
X94059111Y-73268409D01*
X93980119Y-73131592D01*
X93868408Y-73019881D01*
X93731591Y-72940889D01*
X93711058Y-72935387D01*
X94512403Y-72134043D01*
X94512403Y-72134040D01*
X94446504Y-72083473D01*
X94446491Y-72083464D01*
X94253520Y-71972054D01*
X94253502Y-71972045D01*
X94047618Y-71886763D01*
X93832367Y-71829088D01*
X93832354Y-71829085D01*
X93611425Y-71800000D01*
X93388575Y-71800000D01*
X93167645Y-71829085D01*
X93167632Y-71829088D01*
X92952381Y-71886763D01*
X92746497Y-71972045D01*
X92746479Y-71972054D01*
X92553511Y-72083462D01*
X92487595Y-72134042D01*
X93288941Y-72935387D01*
X93268409Y-72940889D01*
X93131592Y-73019881D01*
X93019881Y-73131592D01*
X92940889Y-73268409D01*
X92935387Y-73288940D01*
X92134042Y-72487595D01*
X92083462Y-72553511D01*
X91972054Y-72746479D01*
X91972045Y-72746497D01*
X91886763Y-72952381D01*
X91829088Y-73167632D01*
X91829085Y-73167645D01*
X91800000Y-73388575D01*
X82500500Y-73388575D01*
X82500500Y-68504066D01*
X82500765Y-68495956D01*
X82504819Y-68434108D01*
X82517075Y-68247102D01*
X82519190Y-68231048D01*
X82567045Y-67990462D01*
X82571243Y-67974797D01*
X82594337Y-67906762D01*
X82650093Y-67742512D01*
X82656291Y-67727547D01*
X82764790Y-67507533D01*
X82772897Y-67493493D01*
X82909174Y-67289539D01*
X82919039Y-67276681D01*
X83080786Y-67092244D01*
X83092244Y-67080786D01*
X83276681Y-66919039D01*
X83289534Y-66909177D01*
X83493493Y-66772897D01*
X83507533Y-66764790D01*
X83727547Y-66656291D01*
X83742512Y-66650093D01*
X83906762Y-66594337D01*
X83974797Y-66571243D01*
X83990464Y-66567045D01*
X84231048Y-66519190D01*
X84247102Y-66517075D01*
X84495957Y-66500765D01*
X84504067Y-66500500D01*
X84565892Y-66500500D01*
X179434108Y-66500500D01*
X179495933Y-66500500D01*
X179504043Y-66500765D01*
G37*
%TD.AperFunction*%
%TD*%
M02*
