%TF.GenerationSoftware,KiCad,Pcbnew,10.0.1*%
%TF.CreationDate,2026-05-05T21:47:33+05:30*%
%TF.ProjectId,solenoid,736f6c65-6e6f-4696-942e-6b696361645f,rev?*%
%TF.SameCoordinates,Original*%
%TF.FileFunction,Legend,Top*%
%TF.FilePolarity,Positive*%
%FSLAX46Y46*%
G04 Gerber Fmt 4.6, Leading zero omitted, Abs format (unit mm)*
G04 Created by KiCad (PCBNEW 10.0.1) date 2026-05-05 21:47:33*
%MOMM*%
%LPD*%
G01*
G04 APERTURE LIST*
%ADD10C,0.100000*%
%ADD11C,0.150000*%
%ADD12C,0.120000*%
%ADD13C,0.200000*%
%ADD14C,0.127000*%
G04 APERTURE END LIST*
D10*
X130420038Y-86672306D02*
X130372419Y-86767544D01*
X130372419Y-86767544D02*
X130372419Y-86910401D01*
X130372419Y-86910401D02*
X130420038Y-87053258D01*
X130420038Y-87053258D02*
X130515276Y-87148496D01*
X130515276Y-87148496D02*
X130610514Y-87196115D01*
X130610514Y-87196115D02*
X130800990Y-87243734D01*
X130800990Y-87243734D02*
X130943847Y-87243734D01*
X130943847Y-87243734D02*
X131134323Y-87196115D01*
X131134323Y-87196115D02*
X131229561Y-87148496D01*
X131229561Y-87148496D02*
X131324800Y-87053258D01*
X131324800Y-87053258D02*
X131372419Y-86910401D01*
X131372419Y-86910401D02*
X131372419Y-86815163D01*
X131372419Y-86815163D02*
X131324800Y-86672306D01*
X131324800Y-86672306D02*
X131277180Y-86624687D01*
X131277180Y-86624687D02*
X130943847Y-86624687D01*
X130943847Y-86624687D02*
X130943847Y-86815163D01*
X131372419Y-86196115D02*
X130372419Y-86196115D01*
X130372419Y-86196115D02*
X131372419Y-85624687D01*
X131372419Y-85624687D02*
X130372419Y-85624687D01*
X131372419Y-85148496D02*
X130372419Y-85148496D01*
X130372419Y-85148496D02*
X130372419Y-84910401D01*
X130372419Y-84910401D02*
X130420038Y-84767544D01*
X130420038Y-84767544D02*
X130515276Y-84672306D01*
X130515276Y-84672306D02*
X130610514Y-84624687D01*
X130610514Y-84624687D02*
X130800990Y-84577068D01*
X130800990Y-84577068D02*
X130943847Y-84577068D01*
X130943847Y-84577068D02*
X131134323Y-84624687D01*
X131134323Y-84624687D02*
X131229561Y-84672306D01*
X131229561Y-84672306D02*
X131324800Y-84767544D01*
X131324800Y-84767544D02*
X131372419Y-84910401D01*
X131372419Y-84910401D02*
X131372419Y-85148496D01*
X128099800Y-86153734D02*
X128147419Y-86010877D01*
X128147419Y-86010877D02*
X128147419Y-85772782D01*
X128147419Y-85772782D02*
X128099800Y-85677544D01*
X128099800Y-85677544D02*
X128052180Y-85629925D01*
X128052180Y-85629925D02*
X127956942Y-85582306D01*
X127956942Y-85582306D02*
X127861704Y-85582306D01*
X127861704Y-85582306D02*
X127766466Y-85629925D01*
X127766466Y-85629925D02*
X127718847Y-85677544D01*
X127718847Y-85677544D02*
X127671228Y-85772782D01*
X127671228Y-85772782D02*
X127623609Y-85963258D01*
X127623609Y-85963258D02*
X127575990Y-86058496D01*
X127575990Y-86058496D02*
X127528371Y-86106115D01*
X127528371Y-86106115D02*
X127433133Y-86153734D01*
X127433133Y-86153734D02*
X127337895Y-86153734D01*
X127337895Y-86153734D02*
X127242657Y-86106115D01*
X127242657Y-86106115D02*
X127195038Y-86058496D01*
X127195038Y-86058496D02*
X127147419Y-85963258D01*
X127147419Y-85963258D02*
X127147419Y-85725163D01*
X127147419Y-85725163D02*
X127195038Y-85582306D01*
X123597419Y-120606115D02*
X122597419Y-120606115D01*
X122597419Y-120606115D02*
X122597419Y-120225163D01*
X122597419Y-120225163D02*
X122645038Y-120129925D01*
X122645038Y-120129925D02*
X122692657Y-120082306D01*
X122692657Y-120082306D02*
X122787895Y-120034687D01*
X122787895Y-120034687D02*
X122930752Y-120034687D01*
X122930752Y-120034687D02*
X123025990Y-120082306D01*
X123025990Y-120082306D02*
X123073609Y-120129925D01*
X123073609Y-120129925D02*
X123121228Y-120225163D01*
X123121228Y-120225163D02*
X123121228Y-120606115D01*
X122597419Y-119701353D02*
X123597419Y-119463258D01*
X123597419Y-119463258D02*
X122883133Y-119272782D01*
X122883133Y-119272782D02*
X123597419Y-119082306D01*
X123597419Y-119082306D02*
X122597419Y-118844211D01*
X123597419Y-118463258D02*
X122597419Y-118463258D01*
X122597419Y-118463258D02*
X123311704Y-118129925D01*
X123311704Y-118129925D02*
X122597419Y-117796592D01*
X122597419Y-117796592D02*
X123597419Y-117796592D01*
X123549800Y-116606115D02*
X123597419Y-116463258D01*
X123597419Y-116463258D02*
X123597419Y-116225163D01*
X123597419Y-116225163D02*
X123549800Y-116129925D01*
X123549800Y-116129925D02*
X123502180Y-116082306D01*
X123502180Y-116082306D02*
X123406942Y-116034687D01*
X123406942Y-116034687D02*
X123311704Y-116034687D01*
X123311704Y-116034687D02*
X123216466Y-116082306D01*
X123216466Y-116082306D02*
X123168847Y-116129925D01*
X123168847Y-116129925D02*
X123121228Y-116225163D01*
X123121228Y-116225163D02*
X123073609Y-116415639D01*
X123073609Y-116415639D02*
X123025990Y-116510877D01*
X123025990Y-116510877D02*
X122978371Y-116558496D01*
X122978371Y-116558496D02*
X122883133Y-116606115D01*
X122883133Y-116606115D02*
X122787895Y-116606115D01*
X122787895Y-116606115D02*
X122692657Y-116558496D01*
X122692657Y-116558496D02*
X122645038Y-116510877D01*
X122645038Y-116510877D02*
X122597419Y-116415639D01*
X122597419Y-116415639D02*
X122597419Y-116177544D01*
X122597419Y-116177544D02*
X122645038Y-116034687D01*
X123597419Y-115606115D02*
X122930752Y-115606115D01*
X122597419Y-115606115D02*
X122645038Y-115653734D01*
X122645038Y-115653734D02*
X122692657Y-115606115D01*
X122692657Y-115606115D02*
X122645038Y-115558496D01*
X122645038Y-115558496D02*
X122597419Y-115606115D01*
X122597419Y-115606115D02*
X122692657Y-115606115D01*
X122930752Y-114701354D02*
X123740276Y-114701354D01*
X123740276Y-114701354D02*
X123835514Y-114748973D01*
X123835514Y-114748973D02*
X123883133Y-114796592D01*
X123883133Y-114796592D02*
X123930752Y-114891830D01*
X123930752Y-114891830D02*
X123930752Y-115034687D01*
X123930752Y-115034687D02*
X123883133Y-115129925D01*
X123549800Y-114701354D02*
X123597419Y-114796592D01*
X123597419Y-114796592D02*
X123597419Y-114987068D01*
X123597419Y-114987068D02*
X123549800Y-115082306D01*
X123549800Y-115082306D02*
X123502180Y-115129925D01*
X123502180Y-115129925D02*
X123406942Y-115177544D01*
X123406942Y-115177544D02*
X123121228Y-115177544D01*
X123121228Y-115177544D02*
X123025990Y-115129925D01*
X123025990Y-115129925D02*
X122978371Y-115082306D01*
X122978371Y-115082306D02*
X122930752Y-114987068D01*
X122930752Y-114987068D02*
X122930752Y-114796592D01*
X122930752Y-114796592D02*
X122978371Y-114701354D01*
X122930752Y-114225163D02*
X123597419Y-114225163D01*
X123025990Y-114225163D02*
X122978371Y-114177544D01*
X122978371Y-114177544D02*
X122930752Y-114082306D01*
X122930752Y-114082306D02*
X122930752Y-113939449D01*
X122930752Y-113939449D02*
X122978371Y-113844211D01*
X122978371Y-113844211D02*
X123073609Y-113796592D01*
X123073609Y-113796592D02*
X123597419Y-113796592D01*
X123597419Y-112891830D02*
X123073609Y-112891830D01*
X123073609Y-112891830D02*
X122978371Y-112939449D01*
X122978371Y-112939449D02*
X122930752Y-113034687D01*
X122930752Y-113034687D02*
X122930752Y-113225163D01*
X122930752Y-113225163D02*
X122978371Y-113320401D01*
X123549800Y-112891830D02*
X123597419Y-112987068D01*
X123597419Y-112987068D02*
X123597419Y-113225163D01*
X123597419Y-113225163D02*
X123549800Y-113320401D01*
X123549800Y-113320401D02*
X123454561Y-113368020D01*
X123454561Y-113368020D02*
X123359323Y-113368020D01*
X123359323Y-113368020D02*
X123264085Y-113320401D01*
X123264085Y-113320401D02*
X123216466Y-113225163D01*
X123216466Y-113225163D02*
X123216466Y-112987068D01*
X123216466Y-112987068D02*
X123168847Y-112891830D01*
X123597419Y-112272782D02*
X123549800Y-112368020D01*
X123549800Y-112368020D02*
X123454561Y-112415639D01*
X123454561Y-112415639D02*
X122597419Y-112415639D01*
X94780074Y-79372419D02*
X94303884Y-79372419D01*
X94303884Y-79372419D02*
X94256265Y-79848609D01*
X94256265Y-79848609D02*
X94303884Y-79800990D01*
X94303884Y-79800990D02*
X94399122Y-79753371D01*
X94399122Y-79753371D02*
X94637217Y-79753371D01*
X94637217Y-79753371D02*
X94732455Y-79800990D01*
X94732455Y-79800990D02*
X94780074Y-79848609D01*
X94780074Y-79848609D02*
X94827693Y-79943847D01*
X94827693Y-79943847D02*
X94827693Y-80181942D01*
X94827693Y-80181942D02*
X94780074Y-80277180D01*
X94780074Y-80277180D02*
X94732455Y-80324800D01*
X94732455Y-80324800D02*
X94637217Y-80372419D01*
X94637217Y-80372419D02*
X94399122Y-80372419D01*
X94399122Y-80372419D02*
X94303884Y-80324800D01*
X94303884Y-80324800D02*
X94256265Y-80277180D01*
X95113408Y-79372419D02*
X95446741Y-80372419D01*
X95446741Y-80372419D02*
X95780074Y-79372419D01*
X106827693Y-80372419D02*
X106256265Y-80372419D01*
X106541979Y-80372419D02*
X106541979Y-79372419D01*
X106541979Y-79372419D02*
X106446741Y-79515276D01*
X106446741Y-79515276D02*
X106351503Y-79610514D01*
X106351503Y-79610514D02*
X106256265Y-79658133D01*
X107208646Y-79467657D02*
X107256265Y-79420038D01*
X107256265Y-79420038D02*
X107351503Y-79372419D01*
X107351503Y-79372419D02*
X107589598Y-79372419D01*
X107589598Y-79372419D02*
X107684836Y-79420038D01*
X107684836Y-79420038D02*
X107732455Y-79467657D01*
X107732455Y-79467657D02*
X107780074Y-79562895D01*
X107780074Y-79562895D02*
X107780074Y-79658133D01*
X107780074Y-79658133D02*
X107732455Y-79800990D01*
X107732455Y-79800990D02*
X107161027Y-80372419D01*
X107161027Y-80372419D02*
X107780074Y-80372419D01*
X108065789Y-79372419D02*
X108399122Y-80372419D01*
X108399122Y-80372419D02*
X108732455Y-79372419D01*
X86824800Y-123968734D02*
X86872419Y-123825877D01*
X86872419Y-123825877D02*
X86872419Y-123587782D01*
X86872419Y-123587782D02*
X86824800Y-123492544D01*
X86824800Y-123492544D02*
X86777180Y-123444925D01*
X86777180Y-123444925D02*
X86681942Y-123397306D01*
X86681942Y-123397306D02*
X86586704Y-123397306D01*
X86586704Y-123397306D02*
X86491466Y-123444925D01*
X86491466Y-123444925D02*
X86443847Y-123492544D01*
X86443847Y-123492544D02*
X86396228Y-123587782D01*
X86396228Y-123587782D02*
X86348609Y-123778258D01*
X86348609Y-123778258D02*
X86300990Y-123873496D01*
X86300990Y-123873496D02*
X86253371Y-123921115D01*
X86253371Y-123921115D02*
X86158133Y-123968734D01*
X86158133Y-123968734D02*
X86062895Y-123968734D01*
X86062895Y-123968734D02*
X85967657Y-123921115D01*
X85967657Y-123921115D02*
X85920038Y-123873496D01*
X85920038Y-123873496D02*
X85872419Y-123778258D01*
X85872419Y-123778258D02*
X85872419Y-123540163D01*
X85872419Y-123540163D02*
X85920038Y-123397306D01*
X86824800Y-122587782D02*
X86872419Y-122683020D01*
X86872419Y-122683020D02*
X86872419Y-122873496D01*
X86872419Y-122873496D02*
X86824800Y-122968734D01*
X86824800Y-122968734D02*
X86729561Y-123016353D01*
X86729561Y-123016353D02*
X86348609Y-123016353D01*
X86348609Y-123016353D02*
X86253371Y-122968734D01*
X86253371Y-122968734D02*
X86205752Y-122873496D01*
X86205752Y-122873496D02*
X86205752Y-122683020D01*
X86205752Y-122683020D02*
X86253371Y-122587782D01*
X86253371Y-122587782D02*
X86348609Y-122540163D01*
X86348609Y-122540163D02*
X86443847Y-122540163D01*
X86443847Y-122540163D02*
X86539085Y-123016353D01*
X86872419Y-122111591D02*
X86205752Y-122111591D01*
X86396228Y-122111591D02*
X86300990Y-122063972D01*
X86300990Y-122063972D02*
X86253371Y-122016353D01*
X86253371Y-122016353D02*
X86205752Y-121921115D01*
X86205752Y-121921115D02*
X86205752Y-121825877D01*
X86872419Y-121492543D02*
X86205752Y-121492543D01*
X85872419Y-121492543D02*
X85920038Y-121540162D01*
X85920038Y-121540162D02*
X85967657Y-121492543D01*
X85967657Y-121492543D02*
X85920038Y-121444924D01*
X85920038Y-121444924D02*
X85872419Y-121492543D01*
X85872419Y-121492543D02*
X85967657Y-121492543D01*
X86872419Y-120587782D02*
X86348609Y-120587782D01*
X86348609Y-120587782D02*
X86253371Y-120635401D01*
X86253371Y-120635401D02*
X86205752Y-120730639D01*
X86205752Y-120730639D02*
X86205752Y-120921115D01*
X86205752Y-120921115D02*
X86253371Y-121016353D01*
X86824800Y-120587782D02*
X86872419Y-120683020D01*
X86872419Y-120683020D02*
X86872419Y-120921115D01*
X86872419Y-120921115D02*
X86824800Y-121016353D01*
X86824800Y-121016353D02*
X86729561Y-121063972D01*
X86729561Y-121063972D02*
X86634323Y-121063972D01*
X86634323Y-121063972D02*
X86539085Y-121016353D01*
X86539085Y-121016353D02*
X86491466Y-120921115D01*
X86491466Y-120921115D02*
X86491466Y-120683020D01*
X86491466Y-120683020D02*
X86443847Y-120587782D01*
X86872419Y-119968734D02*
X86824800Y-120063972D01*
X86824800Y-120063972D02*
X86729561Y-120111591D01*
X86729561Y-120111591D02*
X85872419Y-120111591D01*
X86777180Y-118254448D02*
X86824800Y-118302067D01*
X86824800Y-118302067D02*
X86872419Y-118444924D01*
X86872419Y-118444924D02*
X86872419Y-118540162D01*
X86872419Y-118540162D02*
X86824800Y-118683019D01*
X86824800Y-118683019D02*
X86729561Y-118778257D01*
X86729561Y-118778257D02*
X86634323Y-118825876D01*
X86634323Y-118825876D02*
X86443847Y-118873495D01*
X86443847Y-118873495D02*
X86300990Y-118873495D01*
X86300990Y-118873495D02*
X86110514Y-118825876D01*
X86110514Y-118825876D02*
X86015276Y-118778257D01*
X86015276Y-118778257D02*
X85920038Y-118683019D01*
X85920038Y-118683019D02*
X85872419Y-118540162D01*
X85872419Y-118540162D02*
X85872419Y-118444924D01*
X85872419Y-118444924D02*
X85920038Y-118302067D01*
X85920038Y-118302067D02*
X85967657Y-118254448D01*
X86872419Y-117683019D02*
X86824800Y-117778257D01*
X86824800Y-117778257D02*
X86777180Y-117825876D01*
X86777180Y-117825876D02*
X86681942Y-117873495D01*
X86681942Y-117873495D02*
X86396228Y-117873495D01*
X86396228Y-117873495D02*
X86300990Y-117825876D01*
X86300990Y-117825876D02*
X86253371Y-117778257D01*
X86253371Y-117778257D02*
X86205752Y-117683019D01*
X86205752Y-117683019D02*
X86205752Y-117540162D01*
X86205752Y-117540162D02*
X86253371Y-117444924D01*
X86253371Y-117444924D02*
X86300990Y-117397305D01*
X86300990Y-117397305D02*
X86396228Y-117349686D01*
X86396228Y-117349686D02*
X86681942Y-117349686D01*
X86681942Y-117349686D02*
X86777180Y-117397305D01*
X86777180Y-117397305D02*
X86824800Y-117444924D01*
X86824800Y-117444924D02*
X86872419Y-117540162D01*
X86872419Y-117540162D02*
X86872419Y-117683019D01*
X86205752Y-116921114D02*
X86872419Y-116921114D01*
X86300990Y-116921114D02*
X86253371Y-116873495D01*
X86253371Y-116873495D02*
X86205752Y-116778257D01*
X86205752Y-116778257D02*
X86205752Y-116635400D01*
X86205752Y-116635400D02*
X86253371Y-116540162D01*
X86253371Y-116540162D02*
X86348609Y-116492543D01*
X86348609Y-116492543D02*
X86872419Y-116492543D01*
X86205752Y-116016352D02*
X86872419Y-116016352D01*
X86300990Y-116016352D02*
X86253371Y-115968733D01*
X86253371Y-115968733D02*
X86205752Y-115873495D01*
X86205752Y-115873495D02*
X86205752Y-115730638D01*
X86205752Y-115730638D02*
X86253371Y-115635400D01*
X86253371Y-115635400D02*
X86348609Y-115587781D01*
X86348609Y-115587781D02*
X86872419Y-115587781D01*
X86824800Y-114730638D02*
X86872419Y-114825876D01*
X86872419Y-114825876D02*
X86872419Y-115016352D01*
X86872419Y-115016352D02*
X86824800Y-115111590D01*
X86824800Y-115111590D02*
X86729561Y-115159209D01*
X86729561Y-115159209D02*
X86348609Y-115159209D01*
X86348609Y-115159209D02*
X86253371Y-115111590D01*
X86253371Y-115111590D02*
X86205752Y-115016352D01*
X86205752Y-115016352D02*
X86205752Y-114825876D01*
X86205752Y-114825876D02*
X86253371Y-114730638D01*
X86253371Y-114730638D02*
X86348609Y-114683019D01*
X86348609Y-114683019D02*
X86443847Y-114683019D01*
X86443847Y-114683019D02*
X86539085Y-115159209D01*
X86824800Y-113825876D02*
X86872419Y-113921114D01*
X86872419Y-113921114D02*
X86872419Y-114111590D01*
X86872419Y-114111590D02*
X86824800Y-114206828D01*
X86824800Y-114206828D02*
X86777180Y-114254447D01*
X86777180Y-114254447D02*
X86681942Y-114302066D01*
X86681942Y-114302066D02*
X86396228Y-114302066D01*
X86396228Y-114302066D02*
X86300990Y-114254447D01*
X86300990Y-114254447D02*
X86253371Y-114206828D01*
X86253371Y-114206828D02*
X86205752Y-114111590D01*
X86205752Y-114111590D02*
X86205752Y-113921114D01*
X86205752Y-113921114D02*
X86253371Y-113825876D01*
X86205752Y-113540161D02*
X86205752Y-113159209D01*
X85872419Y-113397304D02*
X86729561Y-113397304D01*
X86729561Y-113397304D02*
X86824800Y-113349685D01*
X86824800Y-113349685D02*
X86872419Y-113254447D01*
X86872419Y-113254447D02*
X86872419Y-113159209D01*
X86872419Y-112825875D02*
X86205752Y-112825875D01*
X85872419Y-112825875D02*
X85920038Y-112873494D01*
X85920038Y-112873494D02*
X85967657Y-112825875D01*
X85967657Y-112825875D02*
X85920038Y-112778256D01*
X85920038Y-112778256D02*
X85872419Y-112825875D01*
X85872419Y-112825875D02*
X85967657Y-112825875D01*
X86872419Y-112206828D02*
X86824800Y-112302066D01*
X86824800Y-112302066D02*
X86777180Y-112349685D01*
X86777180Y-112349685D02*
X86681942Y-112397304D01*
X86681942Y-112397304D02*
X86396228Y-112397304D01*
X86396228Y-112397304D02*
X86300990Y-112349685D01*
X86300990Y-112349685D02*
X86253371Y-112302066D01*
X86253371Y-112302066D02*
X86205752Y-112206828D01*
X86205752Y-112206828D02*
X86205752Y-112063971D01*
X86205752Y-112063971D02*
X86253371Y-111968733D01*
X86253371Y-111968733D02*
X86300990Y-111921114D01*
X86300990Y-111921114D02*
X86396228Y-111873495D01*
X86396228Y-111873495D02*
X86681942Y-111873495D01*
X86681942Y-111873495D02*
X86777180Y-111921114D01*
X86777180Y-111921114D02*
X86824800Y-111968733D01*
X86824800Y-111968733D02*
X86872419Y-112063971D01*
X86872419Y-112063971D02*
X86872419Y-112206828D01*
X86205752Y-111444923D02*
X86872419Y-111444923D01*
X86300990Y-111444923D02*
X86253371Y-111397304D01*
X86253371Y-111397304D02*
X86205752Y-111302066D01*
X86205752Y-111302066D02*
X86205752Y-111159209D01*
X86205752Y-111159209D02*
X86253371Y-111063971D01*
X86253371Y-111063971D02*
X86348609Y-111016352D01*
X86348609Y-111016352D02*
X86872419Y-111016352D01*
X178872419Y-114672306D02*
X178872419Y-115243734D01*
X178872419Y-114958020D02*
X177872419Y-114958020D01*
X177872419Y-114958020D02*
X178015276Y-115053258D01*
X178015276Y-115053258D02*
X178110514Y-115148496D01*
X178110514Y-115148496D02*
X178158133Y-115243734D01*
X177967657Y-114291353D02*
X177920038Y-114243734D01*
X177920038Y-114243734D02*
X177872419Y-114148496D01*
X177872419Y-114148496D02*
X177872419Y-113910401D01*
X177872419Y-113910401D02*
X177920038Y-113815163D01*
X177920038Y-113815163D02*
X177967657Y-113767544D01*
X177967657Y-113767544D02*
X178062895Y-113719925D01*
X178062895Y-113719925D02*
X178158133Y-113719925D01*
X178158133Y-113719925D02*
X178300990Y-113767544D01*
X178300990Y-113767544D02*
X178872419Y-114338972D01*
X178872419Y-114338972D02*
X178872419Y-113719925D01*
X177872419Y-113434210D02*
X178872419Y-113100877D01*
X178872419Y-113100877D02*
X177872419Y-112767544D01*
X178205752Y-111815162D02*
X178205752Y-111434210D01*
X178872419Y-111672305D02*
X178015276Y-111672305D01*
X178015276Y-111672305D02*
X177920038Y-111624686D01*
X177920038Y-111624686D02*
X177872419Y-111529448D01*
X177872419Y-111529448D02*
X177872419Y-111434210D01*
X178872419Y-110958019D02*
X178824800Y-111053257D01*
X178824800Y-111053257D02*
X178777180Y-111100876D01*
X178777180Y-111100876D02*
X178681942Y-111148495D01*
X178681942Y-111148495D02*
X178396228Y-111148495D01*
X178396228Y-111148495D02*
X178300990Y-111100876D01*
X178300990Y-111100876D02*
X178253371Y-111053257D01*
X178253371Y-111053257D02*
X178205752Y-110958019D01*
X178205752Y-110958019D02*
X178205752Y-110815162D01*
X178205752Y-110815162D02*
X178253371Y-110719924D01*
X178253371Y-110719924D02*
X178300990Y-110672305D01*
X178300990Y-110672305D02*
X178396228Y-110624686D01*
X178396228Y-110624686D02*
X178681942Y-110624686D01*
X178681942Y-110624686D02*
X178777180Y-110672305D01*
X178777180Y-110672305D02*
X178824800Y-110719924D01*
X178824800Y-110719924D02*
X178872419Y-110815162D01*
X178872419Y-110815162D02*
X178872419Y-110958019D01*
X178872419Y-110196114D02*
X178205752Y-110196114D01*
X178396228Y-110196114D02*
X178300990Y-110148495D01*
X178300990Y-110148495D02*
X178253371Y-110100876D01*
X178253371Y-110100876D02*
X178205752Y-110005638D01*
X178205752Y-110005638D02*
X178205752Y-109910400D01*
X178824800Y-108862780D02*
X178872419Y-108767542D01*
X178872419Y-108767542D02*
X178872419Y-108577066D01*
X178872419Y-108577066D02*
X178824800Y-108481828D01*
X178824800Y-108481828D02*
X178729561Y-108434209D01*
X178729561Y-108434209D02*
X178681942Y-108434209D01*
X178681942Y-108434209D02*
X178586704Y-108481828D01*
X178586704Y-108481828D02*
X178539085Y-108577066D01*
X178539085Y-108577066D02*
X178539085Y-108719923D01*
X178539085Y-108719923D02*
X178491466Y-108815161D01*
X178491466Y-108815161D02*
X178396228Y-108862780D01*
X178396228Y-108862780D02*
X178348609Y-108862780D01*
X178348609Y-108862780D02*
X178253371Y-108815161D01*
X178253371Y-108815161D02*
X178205752Y-108719923D01*
X178205752Y-108719923D02*
X178205752Y-108577066D01*
X178205752Y-108577066D02*
X178253371Y-108481828D01*
X178872419Y-107862780D02*
X178824800Y-107958018D01*
X178824800Y-107958018D02*
X178777180Y-108005637D01*
X178777180Y-108005637D02*
X178681942Y-108053256D01*
X178681942Y-108053256D02*
X178396228Y-108053256D01*
X178396228Y-108053256D02*
X178300990Y-108005637D01*
X178300990Y-108005637D02*
X178253371Y-107958018D01*
X178253371Y-107958018D02*
X178205752Y-107862780D01*
X178205752Y-107862780D02*
X178205752Y-107719923D01*
X178205752Y-107719923D02*
X178253371Y-107624685D01*
X178253371Y-107624685D02*
X178300990Y-107577066D01*
X178300990Y-107577066D02*
X178396228Y-107529447D01*
X178396228Y-107529447D02*
X178681942Y-107529447D01*
X178681942Y-107529447D02*
X178777180Y-107577066D01*
X178777180Y-107577066D02*
X178824800Y-107624685D01*
X178824800Y-107624685D02*
X178872419Y-107719923D01*
X178872419Y-107719923D02*
X178872419Y-107862780D01*
X178872419Y-106958018D02*
X178824800Y-107053256D01*
X178824800Y-107053256D02*
X178729561Y-107100875D01*
X178729561Y-107100875D02*
X177872419Y-107100875D01*
X178824800Y-106196113D02*
X178872419Y-106291351D01*
X178872419Y-106291351D02*
X178872419Y-106481827D01*
X178872419Y-106481827D02*
X178824800Y-106577065D01*
X178824800Y-106577065D02*
X178729561Y-106624684D01*
X178729561Y-106624684D02*
X178348609Y-106624684D01*
X178348609Y-106624684D02*
X178253371Y-106577065D01*
X178253371Y-106577065D02*
X178205752Y-106481827D01*
X178205752Y-106481827D02*
X178205752Y-106291351D01*
X178205752Y-106291351D02*
X178253371Y-106196113D01*
X178253371Y-106196113D02*
X178348609Y-106148494D01*
X178348609Y-106148494D02*
X178443847Y-106148494D01*
X178443847Y-106148494D02*
X178539085Y-106624684D01*
X178205752Y-105719922D02*
X178872419Y-105719922D01*
X178300990Y-105719922D02*
X178253371Y-105672303D01*
X178253371Y-105672303D02*
X178205752Y-105577065D01*
X178205752Y-105577065D02*
X178205752Y-105434208D01*
X178205752Y-105434208D02*
X178253371Y-105338970D01*
X178253371Y-105338970D02*
X178348609Y-105291351D01*
X178348609Y-105291351D02*
X178872419Y-105291351D01*
X178872419Y-104672303D02*
X178824800Y-104767541D01*
X178824800Y-104767541D02*
X178777180Y-104815160D01*
X178777180Y-104815160D02*
X178681942Y-104862779D01*
X178681942Y-104862779D02*
X178396228Y-104862779D01*
X178396228Y-104862779D02*
X178300990Y-104815160D01*
X178300990Y-104815160D02*
X178253371Y-104767541D01*
X178253371Y-104767541D02*
X178205752Y-104672303D01*
X178205752Y-104672303D02*
X178205752Y-104529446D01*
X178205752Y-104529446D02*
X178253371Y-104434208D01*
X178253371Y-104434208D02*
X178300990Y-104386589D01*
X178300990Y-104386589D02*
X178396228Y-104338970D01*
X178396228Y-104338970D02*
X178681942Y-104338970D01*
X178681942Y-104338970D02*
X178777180Y-104386589D01*
X178777180Y-104386589D02*
X178824800Y-104434208D01*
X178824800Y-104434208D02*
X178872419Y-104529446D01*
X178872419Y-104529446D02*
X178872419Y-104672303D01*
X178872419Y-103910398D02*
X178205752Y-103910398D01*
X177872419Y-103910398D02*
X177920038Y-103958017D01*
X177920038Y-103958017D02*
X177967657Y-103910398D01*
X177967657Y-103910398D02*
X177920038Y-103862779D01*
X177920038Y-103862779D02*
X177872419Y-103910398D01*
X177872419Y-103910398D02*
X177967657Y-103910398D01*
X178872419Y-103005637D02*
X177872419Y-103005637D01*
X178824800Y-103005637D02*
X178872419Y-103100875D01*
X178872419Y-103100875D02*
X178872419Y-103291351D01*
X178872419Y-103291351D02*
X178824800Y-103386589D01*
X178824800Y-103386589D02*
X178777180Y-103434208D01*
X178777180Y-103434208D02*
X178681942Y-103481827D01*
X178681942Y-103481827D02*
X178396228Y-103481827D01*
X178396228Y-103481827D02*
X178300990Y-103434208D01*
X178300990Y-103434208D02*
X178253371Y-103386589D01*
X178253371Y-103386589D02*
X178205752Y-103291351D01*
X178205752Y-103291351D02*
X178205752Y-103100875D01*
X178205752Y-103100875D02*
X178253371Y-103005637D01*
X178824800Y-102577065D02*
X178872419Y-102481827D01*
X178872419Y-102481827D02*
X178872419Y-102291351D01*
X178872419Y-102291351D02*
X178824800Y-102196113D01*
X178824800Y-102196113D02*
X178729561Y-102148494D01*
X178729561Y-102148494D02*
X178681942Y-102148494D01*
X178681942Y-102148494D02*
X178586704Y-102196113D01*
X178586704Y-102196113D02*
X178539085Y-102291351D01*
X178539085Y-102291351D02*
X178539085Y-102434208D01*
X178539085Y-102434208D02*
X178491466Y-102529446D01*
X178491466Y-102529446D02*
X178396228Y-102577065D01*
X178396228Y-102577065D02*
X178348609Y-102577065D01*
X178348609Y-102577065D02*
X178253371Y-102529446D01*
X178253371Y-102529446D02*
X178205752Y-102434208D01*
X178205752Y-102434208D02*
X178205752Y-102291351D01*
X178205752Y-102291351D02*
X178253371Y-102196113D01*
D11*
X164174819Y-117059523D02*
X164889104Y-117059523D01*
X164889104Y-117059523D02*
X165031961Y-117107142D01*
X165031961Y-117107142D02*
X165127200Y-117202380D01*
X165127200Y-117202380D02*
X165174819Y-117345237D01*
X165174819Y-117345237D02*
X165174819Y-117440475D01*
X165174819Y-116059523D02*
X165174819Y-116630951D01*
X165174819Y-116345237D02*
X164174819Y-116345237D01*
X164174819Y-116345237D02*
X164317676Y-116440475D01*
X164317676Y-116440475D02*
X164412914Y-116535713D01*
X164412914Y-116535713D02*
X164460533Y-116630951D01*
X165174819Y-115583332D02*
X165174819Y-115392856D01*
X165174819Y-115392856D02*
X165127200Y-115297618D01*
X165127200Y-115297618D02*
X165079580Y-115249999D01*
X165079580Y-115249999D02*
X164936723Y-115154761D01*
X164936723Y-115154761D02*
X164746247Y-115107142D01*
X164746247Y-115107142D02*
X164365295Y-115107142D01*
X164365295Y-115107142D02*
X164270057Y-115154761D01*
X164270057Y-115154761D02*
X164222438Y-115202380D01*
X164222438Y-115202380D02*
X164174819Y-115297618D01*
X164174819Y-115297618D02*
X164174819Y-115488094D01*
X164174819Y-115488094D02*
X164222438Y-115583332D01*
X164222438Y-115583332D02*
X164270057Y-115630951D01*
X164270057Y-115630951D02*
X164365295Y-115678570D01*
X164365295Y-115678570D02*
X164603390Y-115678570D01*
X164603390Y-115678570D02*
X164698628Y-115630951D01*
X164698628Y-115630951D02*
X164746247Y-115583332D01*
X164746247Y-115583332D02*
X164793866Y-115488094D01*
X164793866Y-115488094D02*
X164793866Y-115297618D01*
X164793866Y-115297618D02*
X164746247Y-115202380D01*
X164746247Y-115202380D02*
X164698628Y-115154761D01*
X164698628Y-115154761D02*
X164603390Y-115107142D01*
X164174819Y-126459523D02*
X164889104Y-126459523D01*
X164889104Y-126459523D02*
X165031961Y-126507142D01*
X165031961Y-126507142D02*
X165127200Y-126602380D01*
X165127200Y-126602380D02*
X165174819Y-126745237D01*
X165174819Y-126745237D02*
X165174819Y-126840475D01*
X164270057Y-126030951D02*
X164222438Y-125983332D01*
X164222438Y-125983332D02*
X164174819Y-125888094D01*
X164174819Y-125888094D02*
X164174819Y-125649999D01*
X164174819Y-125649999D02*
X164222438Y-125554761D01*
X164222438Y-125554761D02*
X164270057Y-125507142D01*
X164270057Y-125507142D02*
X164365295Y-125459523D01*
X164365295Y-125459523D02*
X164460533Y-125459523D01*
X164460533Y-125459523D02*
X164603390Y-125507142D01*
X164603390Y-125507142D02*
X165174819Y-126078570D01*
X165174819Y-126078570D02*
X165174819Y-125459523D01*
X164174819Y-124840475D02*
X164174819Y-124745237D01*
X164174819Y-124745237D02*
X164222438Y-124649999D01*
X164222438Y-124649999D02*
X164270057Y-124602380D01*
X164270057Y-124602380D02*
X164365295Y-124554761D01*
X164365295Y-124554761D02*
X164555771Y-124507142D01*
X164555771Y-124507142D02*
X164793866Y-124507142D01*
X164793866Y-124507142D02*
X164984342Y-124554761D01*
X164984342Y-124554761D02*
X165079580Y-124602380D01*
X165079580Y-124602380D02*
X165127200Y-124649999D01*
X165127200Y-124649999D02*
X165174819Y-124745237D01*
X165174819Y-124745237D02*
X165174819Y-124840475D01*
X165174819Y-124840475D02*
X165127200Y-124935713D01*
X165127200Y-124935713D02*
X165079580Y-124983332D01*
X165079580Y-124983332D02*
X164984342Y-125030951D01*
X164984342Y-125030951D02*
X164793866Y-125078570D01*
X164793866Y-125078570D02*
X164555771Y-125078570D01*
X164555771Y-125078570D02*
X164365295Y-125030951D01*
X164365295Y-125030951D02*
X164270057Y-124983332D01*
X164270057Y-124983332D02*
X164222438Y-124935713D01*
X164222438Y-124935713D02*
X164174819Y-124840475D01*
X164174819Y-135509523D02*
X164889104Y-135509523D01*
X164889104Y-135509523D02*
X165031961Y-135557142D01*
X165031961Y-135557142D02*
X165127200Y-135652380D01*
X165127200Y-135652380D02*
X165174819Y-135795237D01*
X165174819Y-135795237D02*
X165174819Y-135890475D01*
X164270057Y-135080951D02*
X164222438Y-135033332D01*
X164222438Y-135033332D02*
X164174819Y-134938094D01*
X164174819Y-134938094D02*
X164174819Y-134699999D01*
X164174819Y-134699999D02*
X164222438Y-134604761D01*
X164222438Y-134604761D02*
X164270057Y-134557142D01*
X164270057Y-134557142D02*
X164365295Y-134509523D01*
X164365295Y-134509523D02*
X164460533Y-134509523D01*
X164460533Y-134509523D02*
X164603390Y-134557142D01*
X164603390Y-134557142D02*
X165174819Y-135128570D01*
X165174819Y-135128570D02*
X165174819Y-134509523D01*
X165174819Y-133557142D02*
X165174819Y-134128570D01*
X165174819Y-133842856D02*
X164174819Y-133842856D01*
X164174819Y-133842856D02*
X164317676Y-133938094D01*
X164317676Y-133938094D02*
X164412914Y-134033332D01*
X164412914Y-134033332D02*
X164460533Y-134128570D01*
X124574819Y-132653333D02*
X125289104Y-132653333D01*
X125289104Y-132653333D02*
X125431961Y-132700952D01*
X125431961Y-132700952D02*
X125527200Y-132796190D01*
X125527200Y-132796190D02*
X125574819Y-132939047D01*
X125574819Y-132939047D02*
X125574819Y-133034285D01*
X124574819Y-131700952D02*
X124574819Y-132177142D01*
X124574819Y-132177142D02*
X125051009Y-132224761D01*
X125051009Y-132224761D02*
X125003390Y-132177142D01*
X125003390Y-132177142D02*
X124955771Y-132081904D01*
X124955771Y-132081904D02*
X124955771Y-131843809D01*
X124955771Y-131843809D02*
X125003390Y-131748571D01*
X125003390Y-131748571D02*
X125051009Y-131700952D01*
X125051009Y-131700952D02*
X125146247Y-131653333D01*
X125146247Y-131653333D02*
X125384342Y-131653333D01*
X125384342Y-131653333D02*
X125479580Y-131700952D01*
X125479580Y-131700952D02*
X125527200Y-131748571D01*
X125527200Y-131748571D02*
X125574819Y-131843809D01*
X125574819Y-131843809D02*
X125574819Y-132081904D01*
X125574819Y-132081904D02*
X125527200Y-132177142D01*
X125527200Y-132177142D02*
X125479580Y-132224761D01*
X124799819Y-100949523D02*
X125514104Y-100949523D01*
X125514104Y-100949523D02*
X125656961Y-100997142D01*
X125656961Y-100997142D02*
X125752200Y-101092380D01*
X125752200Y-101092380D02*
X125799819Y-101235237D01*
X125799819Y-101235237D02*
X125799819Y-101330475D01*
X125799819Y-99949523D02*
X125799819Y-100520951D01*
X125799819Y-100235237D02*
X124799819Y-100235237D01*
X124799819Y-100235237D02*
X124942676Y-100330475D01*
X124942676Y-100330475D02*
X125037914Y-100425713D01*
X125037914Y-100425713D02*
X125085533Y-100520951D01*
X124895057Y-99568570D02*
X124847438Y-99520951D01*
X124847438Y-99520951D02*
X124799819Y-99425713D01*
X124799819Y-99425713D02*
X124799819Y-99187618D01*
X124799819Y-99187618D02*
X124847438Y-99092380D01*
X124847438Y-99092380D02*
X124895057Y-99044761D01*
X124895057Y-99044761D02*
X124990295Y-98997142D01*
X124990295Y-98997142D02*
X125085533Y-98997142D01*
X125085533Y-98997142D02*
X125228390Y-99044761D01*
X125228390Y-99044761D02*
X125799819Y-99616189D01*
X125799819Y-99616189D02*
X125799819Y-98997142D01*
X124574819Y-123473333D02*
X125289104Y-123473333D01*
X125289104Y-123473333D02*
X125431961Y-123520952D01*
X125431961Y-123520952D02*
X125527200Y-123616190D01*
X125527200Y-123616190D02*
X125574819Y-123759047D01*
X125574819Y-123759047D02*
X125574819Y-123854285D01*
X124574819Y-123092380D02*
X124574819Y-122425714D01*
X124574819Y-122425714D02*
X125574819Y-122854285D01*
X124799819Y-105539523D02*
X125514104Y-105539523D01*
X125514104Y-105539523D02*
X125656961Y-105587142D01*
X125656961Y-105587142D02*
X125752200Y-105682380D01*
X125752200Y-105682380D02*
X125799819Y-105825237D01*
X125799819Y-105825237D02*
X125799819Y-105920475D01*
X125799819Y-104539523D02*
X125799819Y-105110951D01*
X125799819Y-104825237D02*
X124799819Y-104825237D01*
X124799819Y-104825237D02*
X124942676Y-104920475D01*
X124942676Y-104920475D02*
X125037914Y-105015713D01*
X125037914Y-105015713D02*
X125085533Y-105110951D01*
X125799819Y-103587142D02*
X125799819Y-104158570D01*
X125799819Y-103872856D02*
X124799819Y-103872856D01*
X124799819Y-103872856D02*
X124942676Y-103968094D01*
X124942676Y-103968094D02*
X125037914Y-104063332D01*
X125037914Y-104063332D02*
X125085533Y-104158570D01*
X124574819Y-137243333D02*
X125289104Y-137243333D01*
X125289104Y-137243333D02*
X125431961Y-137290952D01*
X125431961Y-137290952D02*
X125527200Y-137386190D01*
X125527200Y-137386190D02*
X125574819Y-137529047D01*
X125574819Y-137529047D02*
X125574819Y-137624285D01*
X124908152Y-136338571D02*
X125574819Y-136338571D01*
X124527200Y-136576666D02*
X125241485Y-136814761D01*
X125241485Y-136814761D02*
X125241485Y-136195714D01*
X124799819Y-114243333D02*
X125514104Y-114243333D01*
X125514104Y-114243333D02*
X125656961Y-114290952D01*
X125656961Y-114290952D02*
X125752200Y-114386190D01*
X125752200Y-114386190D02*
X125799819Y-114529047D01*
X125799819Y-114529047D02*
X125799819Y-114624285D01*
X125799819Y-113719523D02*
X125799819Y-113529047D01*
X125799819Y-113529047D02*
X125752200Y-113433809D01*
X125752200Y-113433809D02*
X125704580Y-113386190D01*
X125704580Y-113386190D02*
X125561723Y-113290952D01*
X125561723Y-113290952D02*
X125371247Y-113243333D01*
X125371247Y-113243333D02*
X124990295Y-113243333D01*
X124990295Y-113243333D02*
X124895057Y-113290952D01*
X124895057Y-113290952D02*
X124847438Y-113338571D01*
X124847438Y-113338571D02*
X124799819Y-113433809D01*
X124799819Y-113433809D02*
X124799819Y-113624285D01*
X124799819Y-113624285D02*
X124847438Y-113719523D01*
X124847438Y-113719523D02*
X124895057Y-113767142D01*
X124895057Y-113767142D02*
X124990295Y-113814761D01*
X124990295Y-113814761D02*
X125228390Y-113814761D01*
X125228390Y-113814761D02*
X125323628Y-113767142D01*
X125323628Y-113767142D02*
X125371247Y-113719523D01*
X125371247Y-113719523D02*
X125418866Y-113624285D01*
X125418866Y-113624285D02*
X125418866Y-113433809D01*
X125418866Y-113433809D02*
X125371247Y-113338571D01*
X125371247Y-113338571D02*
X125323628Y-113290952D01*
X125323628Y-113290952D02*
X125228390Y-113243333D01*
X124799819Y-110129523D02*
X125514104Y-110129523D01*
X125514104Y-110129523D02*
X125656961Y-110177142D01*
X125656961Y-110177142D02*
X125752200Y-110272380D01*
X125752200Y-110272380D02*
X125799819Y-110415237D01*
X125799819Y-110415237D02*
X125799819Y-110510475D01*
X125799819Y-109129523D02*
X125799819Y-109700951D01*
X125799819Y-109415237D02*
X124799819Y-109415237D01*
X124799819Y-109415237D02*
X124942676Y-109510475D01*
X124942676Y-109510475D02*
X125037914Y-109605713D01*
X125037914Y-109605713D02*
X125085533Y-109700951D01*
X124799819Y-108510475D02*
X124799819Y-108415237D01*
X124799819Y-108415237D02*
X124847438Y-108319999D01*
X124847438Y-108319999D02*
X124895057Y-108272380D01*
X124895057Y-108272380D02*
X124990295Y-108224761D01*
X124990295Y-108224761D02*
X125180771Y-108177142D01*
X125180771Y-108177142D02*
X125418866Y-108177142D01*
X125418866Y-108177142D02*
X125609342Y-108224761D01*
X125609342Y-108224761D02*
X125704580Y-108272380D01*
X125704580Y-108272380D02*
X125752200Y-108319999D01*
X125752200Y-108319999D02*
X125799819Y-108415237D01*
X125799819Y-108415237D02*
X125799819Y-108510475D01*
X125799819Y-108510475D02*
X125752200Y-108605713D01*
X125752200Y-108605713D02*
X125704580Y-108653332D01*
X125704580Y-108653332D02*
X125609342Y-108700951D01*
X125609342Y-108700951D02*
X125418866Y-108748570D01*
X125418866Y-108748570D02*
X125180771Y-108748570D01*
X125180771Y-108748570D02*
X124990295Y-108700951D01*
X124990295Y-108700951D02*
X124895057Y-108653332D01*
X124895057Y-108653332D02*
X124847438Y-108605713D01*
X124847438Y-108605713D02*
X124799819Y-108510475D01*
X125074819Y-96629523D02*
X125789104Y-96629523D01*
X125789104Y-96629523D02*
X125931961Y-96677142D01*
X125931961Y-96677142D02*
X126027200Y-96772380D01*
X126027200Y-96772380D02*
X126074819Y-96915237D01*
X126074819Y-96915237D02*
X126074819Y-97010475D01*
X126074819Y-95629523D02*
X126074819Y-96200951D01*
X126074819Y-95915237D02*
X125074819Y-95915237D01*
X125074819Y-95915237D02*
X125217676Y-96010475D01*
X125217676Y-96010475D02*
X125312914Y-96105713D01*
X125312914Y-96105713D02*
X125360533Y-96200951D01*
X125074819Y-95296189D02*
X125074819Y-94677142D01*
X125074819Y-94677142D02*
X125455771Y-95010475D01*
X125455771Y-95010475D02*
X125455771Y-94867618D01*
X125455771Y-94867618D02*
X125503390Y-94772380D01*
X125503390Y-94772380D02*
X125551009Y-94724761D01*
X125551009Y-94724761D02*
X125646247Y-94677142D01*
X125646247Y-94677142D02*
X125884342Y-94677142D01*
X125884342Y-94677142D02*
X125979580Y-94724761D01*
X125979580Y-94724761D02*
X126027200Y-94772380D01*
X126027200Y-94772380D02*
X126074819Y-94867618D01*
X126074819Y-94867618D02*
X126074819Y-95153332D01*
X126074819Y-95153332D02*
X126027200Y-95248570D01*
X126027200Y-95248570D02*
X125979580Y-95296189D01*
X125074819Y-92039523D02*
X125789104Y-92039523D01*
X125789104Y-92039523D02*
X125931961Y-92087142D01*
X125931961Y-92087142D02*
X126027200Y-92182380D01*
X126027200Y-92182380D02*
X126074819Y-92325237D01*
X126074819Y-92325237D02*
X126074819Y-92420475D01*
X126074819Y-91039523D02*
X126074819Y-91610951D01*
X126074819Y-91325237D02*
X125074819Y-91325237D01*
X125074819Y-91325237D02*
X125217676Y-91420475D01*
X125217676Y-91420475D02*
X125312914Y-91515713D01*
X125312914Y-91515713D02*
X125360533Y-91610951D01*
X125408152Y-90182380D02*
X126074819Y-90182380D01*
X125027200Y-90420475D02*
X125741485Y-90658570D01*
X125741485Y-90658570D02*
X125741485Y-90039523D01*
X124574819Y-128063333D02*
X125289104Y-128063333D01*
X125289104Y-128063333D02*
X125431961Y-128110952D01*
X125431961Y-128110952D02*
X125527200Y-128206190D01*
X125527200Y-128206190D02*
X125574819Y-128349047D01*
X125574819Y-128349047D02*
X125574819Y-128444285D01*
X124574819Y-127158571D02*
X124574819Y-127349047D01*
X124574819Y-127349047D02*
X124622438Y-127444285D01*
X124622438Y-127444285D02*
X124670057Y-127491904D01*
X124670057Y-127491904D02*
X124812914Y-127587142D01*
X124812914Y-127587142D02*
X125003390Y-127634761D01*
X125003390Y-127634761D02*
X125384342Y-127634761D01*
X125384342Y-127634761D02*
X125479580Y-127587142D01*
X125479580Y-127587142D02*
X125527200Y-127539523D01*
X125527200Y-127539523D02*
X125574819Y-127444285D01*
X125574819Y-127444285D02*
X125574819Y-127253809D01*
X125574819Y-127253809D02*
X125527200Y-127158571D01*
X125527200Y-127158571D02*
X125479580Y-127110952D01*
X125479580Y-127110952D02*
X125384342Y-127063333D01*
X125384342Y-127063333D02*
X125146247Y-127063333D01*
X125146247Y-127063333D02*
X125051009Y-127110952D01*
X125051009Y-127110952D02*
X125003390Y-127158571D01*
X125003390Y-127158571D02*
X124955771Y-127253809D01*
X124955771Y-127253809D02*
X124955771Y-127444285D01*
X124955771Y-127444285D02*
X125003390Y-127539523D01*
X125003390Y-127539523D02*
X125051009Y-127587142D01*
X125051009Y-127587142D02*
X125146247Y-127634761D01*
X124574819Y-141833333D02*
X125289104Y-141833333D01*
X125289104Y-141833333D02*
X125431961Y-141880952D01*
X125431961Y-141880952D02*
X125527200Y-141976190D01*
X125527200Y-141976190D02*
X125574819Y-142119047D01*
X125574819Y-142119047D02*
X125574819Y-142214285D01*
X124574819Y-141452380D02*
X124574819Y-140833333D01*
X124574819Y-140833333D02*
X124955771Y-141166666D01*
X124955771Y-141166666D02*
X124955771Y-141023809D01*
X124955771Y-141023809D02*
X125003390Y-140928571D01*
X125003390Y-140928571D02*
X125051009Y-140880952D01*
X125051009Y-140880952D02*
X125146247Y-140833333D01*
X125146247Y-140833333D02*
X125384342Y-140833333D01*
X125384342Y-140833333D02*
X125479580Y-140880952D01*
X125479580Y-140880952D02*
X125527200Y-140928571D01*
X125527200Y-140928571D02*
X125574819Y-141023809D01*
X125574819Y-141023809D02*
X125574819Y-141309523D01*
X125574819Y-141309523D02*
X125527200Y-141404761D01*
X125527200Y-141404761D02*
X125479580Y-141452380D01*
X124799819Y-118833333D02*
X125514104Y-118833333D01*
X125514104Y-118833333D02*
X125656961Y-118880952D01*
X125656961Y-118880952D02*
X125752200Y-118976190D01*
X125752200Y-118976190D02*
X125799819Y-119119047D01*
X125799819Y-119119047D02*
X125799819Y-119214285D01*
X125228390Y-118214285D02*
X125180771Y-118309523D01*
X125180771Y-118309523D02*
X125133152Y-118357142D01*
X125133152Y-118357142D02*
X125037914Y-118404761D01*
X125037914Y-118404761D02*
X124990295Y-118404761D01*
X124990295Y-118404761D02*
X124895057Y-118357142D01*
X124895057Y-118357142D02*
X124847438Y-118309523D01*
X124847438Y-118309523D02*
X124799819Y-118214285D01*
X124799819Y-118214285D02*
X124799819Y-118023809D01*
X124799819Y-118023809D02*
X124847438Y-117928571D01*
X124847438Y-117928571D02*
X124895057Y-117880952D01*
X124895057Y-117880952D02*
X124990295Y-117833333D01*
X124990295Y-117833333D02*
X125037914Y-117833333D01*
X125037914Y-117833333D02*
X125133152Y-117880952D01*
X125133152Y-117880952D02*
X125180771Y-117928571D01*
X125180771Y-117928571D02*
X125228390Y-118023809D01*
X125228390Y-118023809D02*
X125228390Y-118214285D01*
X125228390Y-118214285D02*
X125276009Y-118309523D01*
X125276009Y-118309523D02*
X125323628Y-118357142D01*
X125323628Y-118357142D02*
X125418866Y-118404761D01*
X125418866Y-118404761D02*
X125609342Y-118404761D01*
X125609342Y-118404761D02*
X125704580Y-118357142D01*
X125704580Y-118357142D02*
X125752200Y-118309523D01*
X125752200Y-118309523D02*
X125799819Y-118214285D01*
X125799819Y-118214285D02*
X125799819Y-118023809D01*
X125799819Y-118023809D02*
X125752200Y-117928571D01*
X125752200Y-117928571D02*
X125704580Y-117880952D01*
X125704580Y-117880952D02*
X125609342Y-117833333D01*
X125609342Y-117833333D02*
X125418866Y-117833333D01*
X125418866Y-117833333D02*
X125323628Y-117880952D01*
X125323628Y-117880952D02*
X125276009Y-117928571D01*
X125276009Y-117928571D02*
X125228390Y-118023809D01*
X91683095Y-88109819D02*
X91683095Y-88919342D01*
X91683095Y-88919342D02*
X91730714Y-89014580D01*
X91730714Y-89014580D02*
X91778333Y-89062200D01*
X91778333Y-89062200D02*
X91873571Y-89109819D01*
X91873571Y-89109819D02*
X92064047Y-89109819D01*
X92064047Y-89109819D02*
X92159285Y-89062200D01*
X92159285Y-89062200D02*
X92206904Y-89014580D01*
X92206904Y-89014580D02*
X92254523Y-88919342D01*
X92254523Y-88919342D02*
X92254523Y-88109819D01*
X93254523Y-89109819D02*
X92683095Y-89109819D01*
X92968809Y-89109819D02*
X92968809Y-88109819D01*
X92968809Y-88109819D02*
X92873571Y-88252676D01*
X92873571Y-88252676D02*
X92778333Y-88347914D01*
X92778333Y-88347914D02*
X92683095Y-88395533D01*
X166234819Y-135159523D02*
X166949104Y-135159523D01*
X166949104Y-135159523D02*
X167091961Y-135207142D01*
X167091961Y-135207142D02*
X167187200Y-135302380D01*
X167187200Y-135302380D02*
X167234819Y-135445237D01*
X167234819Y-135445237D02*
X167234819Y-135540475D01*
X166330057Y-134730951D02*
X166282438Y-134683332D01*
X166282438Y-134683332D02*
X166234819Y-134588094D01*
X166234819Y-134588094D02*
X166234819Y-134349999D01*
X166234819Y-134349999D02*
X166282438Y-134254761D01*
X166282438Y-134254761D02*
X166330057Y-134207142D01*
X166330057Y-134207142D02*
X166425295Y-134159523D01*
X166425295Y-134159523D02*
X166520533Y-134159523D01*
X166520533Y-134159523D02*
X166663390Y-134207142D01*
X166663390Y-134207142D02*
X167234819Y-134778570D01*
X167234819Y-134778570D02*
X167234819Y-134159523D01*
X166330057Y-133778570D02*
X166282438Y-133730951D01*
X166282438Y-133730951D02*
X166234819Y-133635713D01*
X166234819Y-133635713D02*
X166234819Y-133397618D01*
X166234819Y-133397618D02*
X166282438Y-133302380D01*
X166282438Y-133302380D02*
X166330057Y-133254761D01*
X166330057Y-133254761D02*
X166425295Y-133207142D01*
X166425295Y-133207142D02*
X166520533Y-133207142D01*
X166520533Y-133207142D02*
X166663390Y-133254761D01*
X166663390Y-133254761D02*
X167234819Y-133826189D01*
X167234819Y-133826189D02*
X167234819Y-133207142D01*
X172965633Y-72109580D02*
X172918014Y-72157200D01*
X172918014Y-72157200D02*
X172775157Y-72204819D01*
X172775157Y-72204819D02*
X172679919Y-72204819D01*
X172679919Y-72204819D02*
X172537062Y-72157200D01*
X172537062Y-72157200D02*
X172441824Y-72061961D01*
X172441824Y-72061961D02*
X172394205Y-71966723D01*
X172394205Y-71966723D02*
X172346586Y-71776247D01*
X172346586Y-71776247D02*
X172346586Y-71633390D01*
X172346586Y-71633390D02*
X172394205Y-71442914D01*
X172394205Y-71442914D02*
X172441824Y-71347676D01*
X172441824Y-71347676D02*
X172537062Y-71252438D01*
X172537062Y-71252438D02*
X172679919Y-71204819D01*
X172679919Y-71204819D02*
X172775157Y-71204819D01*
X172775157Y-71204819D02*
X172918014Y-71252438D01*
X172918014Y-71252438D02*
X172965633Y-71300057D01*
X173346586Y-71300057D02*
X173394205Y-71252438D01*
X173394205Y-71252438D02*
X173489443Y-71204819D01*
X173489443Y-71204819D02*
X173727538Y-71204819D01*
X173727538Y-71204819D02*
X173822776Y-71252438D01*
X173822776Y-71252438D02*
X173870395Y-71300057D01*
X173870395Y-71300057D02*
X173918014Y-71395295D01*
X173918014Y-71395295D02*
X173918014Y-71490533D01*
X173918014Y-71490533D02*
X173870395Y-71633390D01*
X173870395Y-71633390D02*
X173298967Y-72204819D01*
X173298967Y-72204819D02*
X173918014Y-72204819D01*
X116201033Y-90109580D02*
X116153414Y-90157200D01*
X116153414Y-90157200D02*
X116010557Y-90204819D01*
X116010557Y-90204819D02*
X115915319Y-90204819D01*
X115915319Y-90204819D02*
X115772462Y-90157200D01*
X115772462Y-90157200D02*
X115677224Y-90061961D01*
X115677224Y-90061961D02*
X115629605Y-89966723D01*
X115629605Y-89966723D02*
X115581986Y-89776247D01*
X115581986Y-89776247D02*
X115581986Y-89633390D01*
X115581986Y-89633390D02*
X115629605Y-89442914D01*
X115629605Y-89442914D02*
X115677224Y-89347676D01*
X115677224Y-89347676D02*
X115772462Y-89252438D01*
X115772462Y-89252438D02*
X115915319Y-89204819D01*
X115915319Y-89204819D02*
X116010557Y-89204819D01*
X116010557Y-89204819D02*
X116153414Y-89252438D01*
X116153414Y-89252438D02*
X116201033Y-89300057D01*
X117153414Y-90204819D02*
X116581986Y-90204819D01*
X116867700Y-90204819D02*
X116867700Y-89204819D01*
X116867700Y-89204819D02*
X116772462Y-89347676D01*
X116772462Y-89347676D02*
X116677224Y-89442914D01*
X116677224Y-89442914D02*
X116581986Y-89490533D01*
X166234819Y-117059523D02*
X166949104Y-117059523D01*
X166949104Y-117059523D02*
X167091961Y-117107142D01*
X167091961Y-117107142D02*
X167187200Y-117202380D01*
X167187200Y-117202380D02*
X167234819Y-117345237D01*
X167234819Y-117345237D02*
X167234819Y-117440475D01*
X166330057Y-116630951D02*
X166282438Y-116583332D01*
X166282438Y-116583332D02*
X166234819Y-116488094D01*
X166234819Y-116488094D02*
X166234819Y-116249999D01*
X166234819Y-116249999D02*
X166282438Y-116154761D01*
X166282438Y-116154761D02*
X166330057Y-116107142D01*
X166330057Y-116107142D02*
X166425295Y-116059523D01*
X166425295Y-116059523D02*
X166520533Y-116059523D01*
X166520533Y-116059523D02*
X166663390Y-116107142D01*
X166663390Y-116107142D02*
X167234819Y-116678570D01*
X167234819Y-116678570D02*
X167234819Y-116059523D01*
X166568152Y-115202380D02*
X167234819Y-115202380D01*
X166187200Y-115440475D02*
X166901485Y-115678570D01*
X166901485Y-115678570D02*
X166901485Y-115059523D01*
X164454819Y-89959523D02*
X165169104Y-89959523D01*
X165169104Y-89959523D02*
X165311961Y-90007142D01*
X165311961Y-90007142D02*
X165407200Y-90102380D01*
X165407200Y-90102380D02*
X165454819Y-90245237D01*
X165454819Y-90245237D02*
X165454819Y-90340475D01*
X165454819Y-88959523D02*
X165454819Y-89530951D01*
X165454819Y-89245237D02*
X164454819Y-89245237D01*
X164454819Y-89245237D02*
X164597676Y-89340475D01*
X164597676Y-89340475D02*
X164692914Y-89435713D01*
X164692914Y-89435713D02*
X164740533Y-89530951D01*
X164454819Y-88102380D02*
X164454819Y-88292856D01*
X164454819Y-88292856D02*
X164502438Y-88388094D01*
X164502438Y-88388094D02*
X164550057Y-88435713D01*
X164550057Y-88435713D02*
X164692914Y-88530951D01*
X164692914Y-88530951D02*
X164883390Y-88578570D01*
X164883390Y-88578570D02*
X165264342Y-88578570D01*
X165264342Y-88578570D02*
X165359580Y-88530951D01*
X165359580Y-88530951D02*
X165407200Y-88483332D01*
X165407200Y-88483332D02*
X165454819Y-88388094D01*
X165454819Y-88388094D02*
X165454819Y-88197618D01*
X165454819Y-88197618D02*
X165407200Y-88102380D01*
X165407200Y-88102380D02*
X165359580Y-88054761D01*
X165359580Y-88054761D02*
X165264342Y-88007142D01*
X165264342Y-88007142D02*
X165026247Y-88007142D01*
X165026247Y-88007142D02*
X164931009Y-88054761D01*
X164931009Y-88054761D02*
X164883390Y-88102380D01*
X164883390Y-88102380D02*
X164835771Y-88197618D01*
X164835771Y-88197618D02*
X164835771Y-88388094D01*
X164835771Y-88388094D02*
X164883390Y-88483332D01*
X164883390Y-88483332D02*
X164931009Y-88530951D01*
X164931009Y-88530951D02*
X165026247Y-88578570D01*
X166234819Y-90059523D02*
X166949104Y-90059523D01*
X166949104Y-90059523D02*
X167091961Y-90107142D01*
X167091961Y-90107142D02*
X167187200Y-90202380D01*
X167187200Y-90202380D02*
X167234819Y-90345237D01*
X167234819Y-90345237D02*
X167234819Y-90440475D01*
X166330057Y-89630951D02*
X166282438Y-89583332D01*
X166282438Y-89583332D02*
X166234819Y-89488094D01*
X166234819Y-89488094D02*
X166234819Y-89249999D01*
X166234819Y-89249999D02*
X166282438Y-89154761D01*
X166282438Y-89154761D02*
X166330057Y-89107142D01*
X166330057Y-89107142D02*
X166425295Y-89059523D01*
X166425295Y-89059523D02*
X166520533Y-89059523D01*
X166520533Y-89059523D02*
X166663390Y-89107142D01*
X166663390Y-89107142D02*
X167234819Y-89678570D01*
X167234819Y-89678570D02*
X167234819Y-89059523D01*
X166234819Y-88726189D02*
X166234819Y-88059523D01*
X166234819Y-88059523D02*
X167234819Y-88488094D01*
X166234819Y-99109523D02*
X166949104Y-99109523D01*
X166949104Y-99109523D02*
X167091961Y-99157142D01*
X167091961Y-99157142D02*
X167187200Y-99252380D01*
X167187200Y-99252380D02*
X167234819Y-99395237D01*
X167234819Y-99395237D02*
X167234819Y-99490475D01*
X166330057Y-98680951D02*
X166282438Y-98633332D01*
X166282438Y-98633332D02*
X166234819Y-98538094D01*
X166234819Y-98538094D02*
X166234819Y-98299999D01*
X166234819Y-98299999D02*
X166282438Y-98204761D01*
X166282438Y-98204761D02*
X166330057Y-98157142D01*
X166330057Y-98157142D02*
X166425295Y-98109523D01*
X166425295Y-98109523D02*
X166520533Y-98109523D01*
X166520533Y-98109523D02*
X166663390Y-98157142D01*
X166663390Y-98157142D02*
X167234819Y-98728570D01*
X167234819Y-98728570D02*
X167234819Y-98109523D01*
X166234819Y-97252380D02*
X166234819Y-97442856D01*
X166234819Y-97442856D02*
X166282438Y-97538094D01*
X166282438Y-97538094D02*
X166330057Y-97585713D01*
X166330057Y-97585713D02*
X166472914Y-97680951D01*
X166472914Y-97680951D02*
X166663390Y-97728570D01*
X166663390Y-97728570D02*
X167044342Y-97728570D01*
X167044342Y-97728570D02*
X167139580Y-97680951D01*
X167139580Y-97680951D02*
X167187200Y-97633332D01*
X167187200Y-97633332D02*
X167234819Y-97538094D01*
X167234819Y-97538094D02*
X167234819Y-97347618D01*
X167234819Y-97347618D02*
X167187200Y-97252380D01*
X167187200Y-97252380D02*
X167139580Y-97204761D01*
X167139580Y-97204761D02*
X167044342Y-97157142D01*
X167044342Y-97157142D02*
X166806247Y-97157142D01*
X166806247Y-97157142D02*
X166711009Y-97204761D01*
X166711009Y-97204761D02*
X166663390Y-97252380D01*
X166663390Y-97252380D02*
X166615771Y-97347618D01*
X166615771Y-97347618D02*
X166615771Y-97538094D01*
X166615771Y-97538094D02*
X166663390Y-97633332D01*
X166663390Y-97633332D02*
X166711009Y-97680951D01*
X166711009Y-97680951D02*
X166806247Y-97728570D01*
X106416666Y-77174819D02*
X106416666Y-77889104D01*
X106416666Y-77889104D02*
X106369047Y-78031961D01*
X106369047Y-78031961D02*
X106273809Y-78127200D01*
X106273809Y-78127200D02*
X106130952Y-78174819D01*
X106130952Y-78174819D02*
X106035714Y-78174819D01*
X107416666Y-78174819D02*
X106845238Y-78174819D01*
X107130952Y-78174819D02*
X107130952Y-77174819D01*
X107130952Y-77174819D02*
X107035714Y-77317676D01*
X107035714Y-77317676D02*
X106940476Y-77412914D01*
X106940476Y-77412914D02*
X106845238Y-77460533D01*
X166234819Y-108159523D02*
X166949104Y-108159523D01*
X166949104Y-108159523D02*
X167091961Y-108207142D01*
X167091961Y-108207142D02*
X167187200Y-108302380D01*
X167187200Y-108302380D02*
X167234819Y-108445237D01*
X167234819Y-108445237D02*
X167234819Y-108540475D01*
X166330057Y-107730951D02*
X166282438Y-107683332D01*
X166282438Y-107683332D02*
X166234819Y-107588094D01*
X166234819Y-107588094D02*
X166234819Y-107349999D01*
X166234819Y-107349999D02*
X166282438Y-107254761D01*
X166282438Y-107254761D02*
X166330057Y-107207142D01*
X166330057Y-107207142D02*
X166425295Y-107159523D01*
X166425295Y-107159523D02*
X166520533Y-107159523D01*
X166520533Y-107159523D02*
X166663390Y-107207142D01*
X166663390Y-107207142D02*
X167234819Y-107778570D01*
X167234819Y-107778570D02*
X167234819Y-107159523D01*
X166234819Y-106254761D02*
X166234819Y-106730951D01*
X166234819Y-106730951D02*
X166711009Y-106778570D01*
X166711009Y-106778570D02*
X166663390Y-106730951D01*
X166663390Y-106730951D02*
X166615771Y-106635713D01*
X166615771Y-106635713D02*
X166615771Y-106397618D01*
X166615771Y-106397618D02*
X166663390Y-106302380D01*
X166663390Y-106302380D02*
X166711009Y-106254761D01*
X166711009Y-106254761D02*
X166806247Y-106207142D01*
X166806247Y-106207142D02*
X167044342Y-106207142D01*
X167044342Y-106207142D02*
X167139580Y-106254761D01*
X167139580Y-106254761D02*
X167187200Y-106302380D01*
X167187200Y-106302380D02*
X167234819Y-106397618D01*
X167234819Y-106397618D02*
X167234819Y-106635713D01*
X167234819Y-106635713D02*
X167187200Y-106730951D01*
X167187200Y-106730951D02*
X167139580Y-106778570D01*
X85690476Y-125799819D02*
X85690476Y-126514104D01*
X85690476Y-126514104D02*
X85642857Y-126656961D01*
X85642857Y-126656961D02*
X85547619Y-126752200D01*
X85547619Y-126752200D02*
X85404762Y-126799819D01*
X85404762Y-126799819D02*
X85309524Y-126799819D01*
X86690476Y-126799819D02*
X86119048Y-126799819D01*
X86404762Y-126799819D02*
X86404762Y-125799819D01*
X86404762Y-125799819D02*
X86309524Y-125942676D01*
X86309524Y-125942676D02*
X86214286Y-126037914D01*
X86214286Y-126037914D02*
X86119048Y-126085533D01*
X87595238Y-125799819D02*
X87119048Y-125799819D01*
X87119048Y-125799819D02*
X87071429Y-126276009D01*
X87071429Y-126276009D02*
X87119048Y-126228390D01*
X87119048Y-126228390D02*
X87214286Y-126180771D01*
X87214286Y-126180771D02*
X87452381Y-126180771D01*
X87452381Y-126180771D02*
X87547619Y-126228390D01*
X87547619Y-126228390D02*
X87595238Y-126276009D01*
X87595238Y-126276009D02*
X87642857Y-126371247D01*
X87642857Y-126371247D02*
X87642857Y-126609342D01*
X87642857Y-126609342D02*
X87595238Y-126704580D01*
X87595238Y-126704580D02*
X87547619Y-126752200D01*
X87547619Y-126752200D02*
X87452381Y-126799819D01*
X87452381Y-126799819D02*
X87214286Y-126799819D01*
X87214286Y-126799819D02*
X87119048Y-126752200D01*
X87119048Y-126752200D02*
X87071429Y-126704580D01*
X94916666Y-77174819D02*
X94916666Y-77889104D01*
X94916666Y-77889104D02*
X94869047Y-78031961D01*
X94869047Y-78031961D02*
X94773809Y-78127200D01*
X94773809Y-78127200D02*
X94630952Y-78174819D01*
X94630952Y-78174819D02*
X94535714Y-78174819D01*
X95345238Y-77270057D02*
X95392857Y-77222438D01*
X95392857Y-77222438D02*
X95488095Y-77174819D01*
X95488095Y-77174819D02*
X95726190Y-77174819D01*
X95726190Y-77174819D02*
X95821428Y-77222438D01*
X95821428Y-77222438D02*
X95869047Y-77270057D01*
X95869047Y-77270057D02*
X95916666Y-77365295D01*
X95916666Y-77365295D02*
X95916666Y-77460533D01*
X95916666Y-77460533D02*
X95869047Y-77603390D01*
X95869047Y-77603390D02*
X95297619Y-78174819D01*
X95297619Y-78174819D02*
X95916666Y-78174819D01*
X164454819Y-108059523D02*
X165169104Y-108059523D01*
X165169104Y-108059523D02*
X165311961Y-108107142D01*
X165311961Y-108107142D02*
X165407200Y-108202380D01*
X165407200Y-108202380D02*
X165454819Y-108345237D01*
X165454819Y-108345237D02*
X165454819Y-108440475D01*
X165454819Y-107059523D02*
X165454819Y-107630951D01*
X165454819Y-107345237D02*
X164454819Y-107345237D01*
X164454819Y-107345237D02*
X164597676Y-107440475D01*
X164597676Y-107440475D02*
X164692914Y-107535713D01*
X164692914Y-107535713D02*
X164740533Y-107630951D01*
X164883390Y-106488094D02*
X164835771Y-106583332D01*
X164835771Y-106583332D02*
X164788152Y-106630951D01*
X164788152Y-106630951D02*
X164692914Y-106678570D01*
X164692914Y-106678570D02*
X164645295Y-106678570D01*
X164645295Y-106678570D02*
X164550057Y-106630951D01*
X164550057Y-106630951D02*
X164502438Y-106583332D01*
X164502438Y-106583332D02*
X164454819Y-106488094D01*
X164454819Y-106488094D02*
X164454819Y-106297618D01*
X164454819Y-106297618D02*
X164502438Y-106202380D01*
X164502438Y-106202380D02*
X164550057Y-106154761D01*
X164550057Y-106154761D02*
X164645295Y-106107142D01*
X164645295Y-106107142D02*
X164692914Y-106107142D01*
X164692914Y-106107142D02*
X164788152Y-106154761D01*
X164788152Y-106154761D02*
X164835771Y-106202380D01*
X164835771Y-106202380D02*
X164883390Y-106297618D01*
X164883390Y-106297618D02*
X164883390Y-106488094D01*
X164883390Y-106488094D02*
X164931009Y-106583332D01*
X164931009Y-106583332D02*
X164978628Y-106630951D01*
X164978628Y-106630951D02*
X165073866Y-106678570D01*
X165073866Y-106678570D02*
X165264342Y-106678570D01*
X165264342Y-106678570D02*
X165359580Y-106630951D01*
X165359580Y-106630951D02*
X165407200Y-106583332D01*
X165407200Y-106583332D02*
X165454819Y-106488094D01*
X165454819Y-106488094D02*
X165454819Y-106297618D01*
X165454819Y-106297618D02*
X165407200Y-106202380D01*
X165407200Y-106202380D02*
X165359580Y-106154761D01*
X165359580Y-106154761D02*
X165264342Y-106107142D01*
X165264342Y-106107142D02*
X165073866Y-106107142D01*
X165073866Y-106107142D02*
X164978628Y-106154761D01*
X164978628Y-106154761D02*
X164931009Y-106202380D01*
X164931009Y-106202380D02*
X164883390Y-106297618D01*
X166234819Y-126109523D02*
X166949104Y-126109523D01*
X166949104Y-126109523D02*
X167091961Y-126157142D01*
X167091961Y-126157142D02*
X167187200Y-126252380D01*
X167187200Y-126252380D02*
X167234819Y-126395237D01*
X167234819Y-126395237D02*
X167234819Y-126490475D01*
X166330057Y-125680951D02*
X166282438Y-125633332D01*
X166282438Y-125633332D02*
X166234819Y-125538094D01*
X166234819Y-125538094D02*
X166234819Y-125299999D01*
X166234819Y-125299999D02*
X166282438Y-125204761D01*
X166282438Y-125204761D02*
X166330057Y-125157142D01*
X166330057Y-125157142D02*
X166425295Y-125109523D01*
X166425295Y-125109523D02*
X166520533Y-125109523D01*
X166520533Y-125109523D02*
X166663390Y-125157142D01*
X166663390Y-125157142D02*
X167234819Y-125728570D01*
X167234819Y-125728570D02*
X167234819Y-125109523D01*
X166234819Y-124776189D02*
X166234819Y-124157142D01*
X166234819Y-124157142D02*
X166615771Y-124490475D01*
X166615771Y-124490475D02*
X166615771Y-124347618D01*
X166615771Y-124347618D02*
X166663390Y-124252380D01*
X166663390Y-124252380D02*
X166711009Y-124204761D01*
X166711009Y-124204761D02*
X166806247Y-124157142D01*
X166806247Y-124157142D02*
X167044342Y-124157142D01*
X167044342Y-124157142D02*
X167139580Y-124204761D01*
X167139580Y-124204761D02*
X167187200Y-124252380D01*
X167187200Y-124252380D02*
X167234819Y-124347618D01*
X167234819Y-124347618D02*
X167234819Y-124633332D01*
X167234819Y-124633332D02*
X167187200Y-124728570D01*
X167187200Y-124728570D02*
X167139580Y-124776189D01*
X164454819Y-99009523D02*
X165169104Y-99009523D01*
X165169104Y-99009523D02*
X165311961Y-99057142D01*
X165311961Y-99057142D02*
X165407200Y-99152380D01*
X165407200Y-99152380D02*
X165454819Y-99295237D01*
X165454819Y-99295237D02*
X165454819Y-99390475D01*
X165454819Y-98009523D02*
X165454819Y-98580951D01*
X165454819Y-98295237D02*
X164454819Y-98295237D01*
X164454819Y-98295237D02*
X164597676Y-98390475D01*
X164597676Y-98390475D02*
X164692914Y-98485713D01*
X164692914Y-98485713D02*
X164740533Y-98580951D01*
X164454819Y-97676189D02*
X164454819Y-97009523D01*
X164454819Y-97009523D02*
X165454819Y-97438094D01*
%TO.C,J19*%
D12*
X163720000Y-119870000D02*
X155880000Y-119870000D01*
X163720000Y-112630000D02*
X163720000Y-119870000D01*
X157500000Y-112630000D02*
X157500000Y-119870000D01*
X156400000Y-112630000D02*
X156400000Y-119870000D01*
X155880000Y-119870000D02*
X155880000Y-114800000D01*
X155880000Y-114200000D02*
X155880000Y-112630000D01*
X155880000Y-112630000D02*
X163720000Y-112630000D01*
X155880000Y-114500000D02*
X155270000Y-114940000D01*
X155270000Y-114060000D01*
X155880000Y-114500000D01*
G36*
X155880000Y-114500000D02*
G01*
X155270000Y-114940000D01*
X155270000Y-114060000D01*
X155880000Y-114500000D01*
G37*
%TO.C,J20*%
X155880000Y-123900000D02*
X155270000Y-124340000D01*
X155270000Y-123460000D01*
X155880000Y-123900000D01*
G36*
X155880000Y-123900000D02*
G01*
X155270000Y-124340000D01*
X155270000Y-123460000D01*
X155880000Y-123900000D01*
G37*
X155880000Y-122030000D02*
X163720000Y-122030000D01*
X155880000Y-123600000D02*
X155880000Y-122030000D01*
X155880000Y-129270000D02*
X155880000Y-124200000D01*
X156400000Y-122030000D02*
X156400000Y-129270000D01*
X157500000Y-122030000D02*
X157500000Y-129270000D01*
X163720000Y-122030000D02*
X163720000Y-129270000D01*
X163720000Y-129270000D02*
X155880000Y-129270000D01*
%TO.C,J21*%
X163720000Y-138320000D02*
X155880000Y-138320000D01*
X163720000Y-131080000D02*
X163720000Y-138320000D01*
X157500000Y-131080000D02*
X157500000Y-138320000D01*
X156400000Y-131080000D02*
X156400000Y-138320000D01*
X155880000Y-138320000D02*
X155880000Y-133250000D01*
X155880000Y-132650000D02*
X155880000Y-131080000D01*
X155880000Y-131080000D02*
X163720000Y-131080000D01*
X155880000Y-132950000D02*
X155270000Y-133390000D01*
X155270000Y-132510000D01*
X155880000Y-132950000D01*
G36*
X155880000Y-132950000D02*
G01*
X155270000Y-133390000D01*
X155270000Y-132510000D01*
X155880000Y-132950000D01*
G37*
%TO.C,J5*%
X128770000Y-130940000D02*
X131420000Y-130940000D01*
X131420000Y-133700000D02*
X131420000Y-130940000D01*
X128770000Y-133700000D02*
X128770000Y-130940000D01*
X128770000Y-133700000D02*
X131420000Y-133700000D01*
X127500000Y-133700000D02*
X126120000Y-133700000D01*
X126120000Y-133700000D02*
X126120000Y-132320000D01*
%TO.C,J12*%
X128995000Y-98760000D02*
X131645000Y-98760000D01*
X131645000Y-101520000D02*
X131645000Y-98760000D01*
X128995000Y-101520000D02*
X128995000Y-98760000D01*
X128995000Y-101520000D02*
X131645000Y-101520000D01*
X127725000Y-101520000D02*
X126345000Y-101520000D01*
X126345000Y-101520000D02*
X126345000Y-100140000D01*
%TO.C,J7*%
X128770000Y-121760000D02*
X131420000Y-121760000D01*
X131420000Y-124520000D02*
X131420000Y-121760000D01*
X128770000Y-124520000D02*
X128770000Y-121760000D01*
X128770000Y-124520000D02*
X131420000Y-124520000D01*
X127500000Y-124520000D02*
X126120000Y-124520000D01*
X126120000Y-124520000D02*
X126120000Y-123140000D01*
%TO.C,J11*%
X128995000Y-103350000D02*
X131645000Y-103350000D01*
X131645000Y-106110000D02*
X131645000Y-103350000D01*
X128995000Y-106110000D02*
X128995000Y-103350000D01*
X128995000Y-106110000D02*
X131645000Y-106110000D01*
X127725000Y-106110000D02*
X126345000Y-106110000D01*
X126345000Y-106110000D02*
X126345000Y-104730000D01*
%TO.C,J4*%
X128770000Y-135530000D02*
X131420000Y-135530000D01*
X131420000Y-138290000D02*
X131420000Y-135530000D01*
X128770000Y-138290000D02*
X128770000Y-135530000D01*
X128770000Y-138290000D02*
X131420000Y-138290000D01*
X127500000Y-138290000D02*
X126120000Y-138290000D01*
X126120000Y-138290000D02*
X126120000Y-136910000D01*
%TO.C,J9*%
X128995000Y-112530000D02*
X131645000Y-112530000D01*
X131645000Y-115290000D02*
X131645000Y-112530000D01*
X128995000Y-115290000D02*
X128995000Y-112530000D01*
X128995000Y-115290000D02*
X131645000Y-115290000D01*
X127725000Y-115290000D02*
X126345000Y-115290000D01*
X126345000Y-115290000D02*
X126345000Y-113910000D01*
%TO.C,J10*%
X128995000Y-107940000D02*
X131645000Y-107940000D01*
X131645000Y-110700000D02*
X131645000Y-107940000D01*
X128995000Y-110700000D02*
X128995000Y-107940000D01*
X128995000Y-110700000D02*
X131645000Y-110700000D01*
X127725000Y-110700000D02*
X126345000Y-110700000D01*
X126345000Y-110700000D02*
X126345000Y-109320000D01*
%TO.C,J13*%
X129270000Y-94440000D02*
X131920000Y-94440000D01*
X131920000Y-97200000D02*
X131920000Y-94440000D01*
X129270000Y-97200000D02*
X129270000Y-94440000D01*
X129270000Y-97200000D02*
X131920000Y-97200000D01*
X128000000Y-97200000D02*
X126620000Y-97200000D01*
X126620000Y-97200000D02*
X126620000Y-95820000D01*
%TO.C,J14*%
X129270000Y-89850000D02*
X131920000Y-89850000D01*
X131920000Y-92610000D02*
X131920000Y-89850000D01*
X129270000Y-92610000D02*
X129270000Y-89850000D01*
X129270000Y-92610000D02*
X131920000Y-92610000D01*
X128000000Y-92610000D02*
X126620000Y-92610000D01*
X126620000Y-92610000D02*
X126620000Y-91230000D01*
%TO.C,J6*%
X128770000Y-126350000D02*
X131420000Y-126350000D01*
X131420000Y-129110000D02*
X131420000Y-126350000D01*
X128770000Y-129110000D02*
X128770000Y-126350000D01*
X128770000Y-129110000D02*
X131420000Y-129110000D01*
X127500000Y-129110000D02*
X126120000Y-129110000D01*
X126120000Y-129110000D02*
X126120000Y-127730000D01*
%TO.C,J3*%
X128770000Y-140120000D02*
X131420000Y-140120000D01*
X131420000Y-142880000D02*
X131420000Y-140120000D01*
X128770000Y-142880000D02*
X128770000Y-140120000D01*
X128770000Y-142880000D02*
X131420000Y-142880000D01*
X127500000Y-142880000D02*
X126120000Y-142880000D01*
X126120000Y-142880000D02*
X126120000Y-141500000D01*
%TO.C,J8*%
X128995000Y-117120000D02*
X131645000Y-117120000D01*
X131645000Y-119880000D02*
X131645000Y-117120000D01*
X128995000Y-119880000D02*
X128995000Y-117120000D01*
X128995000Y-119880000D02*
X131645000Y-119880000D01*
X127725000Y-119880000D02*
X126345000Y-119880000D01*
X126345000Y-119880000D02*
X126345000Y-118500000D01*
%TO.C,U1*%
D13*
X89050000Y-100500000D02*
G75*
G02*
X88850000Y-100500000I-100000J0D01*
G01*
X88850000Y-100500000D02*
G75*
G02*
X89050000Y-100500000I100000J0D01*
G01*
D14*
X118030000Y-141490000D02*
X89520000Y-141490000D01*
X118030000Y-90540000D02*
X118030000Y-141490000D01*
X118030000Y-90540000D02*
X118030000Y-141490000D01*
X112580000Y-141490000D02*
X118030000Y-141490000D01*
X107300000Y-90540000D02*
X118030000Y-90540000D01*
X100589000Y-90540000D02*
X107300000Y-90540000D01*
X94890000Y-141490000D02*
X112580000Y-141490000D01*
X89520000Y-141490000D02*
X94890000Y-141490000D01*
X89520000Y-141490000D02*
X89520000Y-90540000D01*
X89520000Y-141490000D02*
X89520000Y-90540000D01*
X89520000Y-90540000D02*
X118030000Y-90540000D01*
X89520000Y-90540000D02*
X100589000Y-90540000D01*
D12*
%TO.C,J22*%
X176230000Y-136540000D02*
X175620000Y-136100000D01*
X176230000Y-135660000D01*
X176230000Y-136540000D01*
G36*
X176230000Y-136540000D02*
G01*
X175620000Y-136100000D01*
X176230000Y-135660000D01*
X176230000Y-136540000D01*
G37*
X175620000Y-137970000D02*
X167780000Y-137970000D01*
X175620000Y-136400000D02*
X175620000Y-137970000D01*
X175620000Y-130730000D02*
X175620000Y-135800000D01*
X175100000Y-137970000D02*
X175100000Y-130730000D01*
X174000000Y-137970000D02*
X174000000Y-130730000D01*
X167780000Y-137970000D02*
X167780000Y-130730000D01*
X167780000Y-130730000D02*
X175620000Y-130730000D01*
%TO.C,C2*%
X167652654Y-75125000D02*
X168652654Y-75125000D01*
X168152654Y-74625000D02*
X168152654Y-75625000D01*
X173132300Y-72920000D02*
X173132300Y-83080000D01*
X173172300Y-72920000D02*
X173172300Y-83080000D01*
X173212300Y-72921000D02*
X173212300Y-83079000D01*
X173252300Y-72921000D02*
X173252300Y-83079000D01*
X173292300Y-72923000D02*
X173292300Y-83077000D01*
X173332300Y-72924000D02*
X173332300Y-83076000D01*
X173372300Y-72926000D02*
X173372300Y-83074000D01*
X173412300Y-72928000D02*
X173412300Y-83072000D01*
X173452300Y-72930000D02*
X173452300Y-83070000D01*
X173492300Y-72933000D02*
X173492300Y-83067000D01*
X173532300Y-72936000D02*
X173532300Y-83064000D01*
X173572300Y-72939000D02*
X173572300Y-83061000D01*
X173612300Y-72943000D02*
X173612300Y-83057000D01*
X173652300Y-72946000D02*
X173652300Y-83054000D01*
X173692300Y-72951000D02*
X173692300Y-83049000D01*
X173732300Y-72955000D02*
X173732300Y-83045000D01*
X173772300Y-72960000D02*
X173772300Y-83040000D01*
X173812300Y-72965000D02*
X173812300Y-83035000D01*
X173852300Y-72971000D02*
X173852300Y-83029000D01*
X173892300Y-72977000D02*
X173892300Y-83023000D01*
X173932300Y-72983000D02*
X173932300Y-83017000D01*
X173972300Y-72989000D02*
X173972300Y-83011000D01*
X174012300Y-72996000D02*
X174012300Y-83004000D01*
X174052300Y-73003000D02*
X174052300Y-82997000D01*
X174092300Y-73011000D02*
X174092300Y-82989000D01*
X174132300Y-73019000D02*
X174132300Y-82981000D01*
X174172300Y-73027000D02*
X174172300Y-82973000D01*
X174212300Y-73035000D02*
X174212300Y-82965000D01*
X174252300Y-73044000D02*
X174252300Y-82956000D01*
X174292300Y-73053000D02*
X174292300Y-82947000D01*
X174332300Y-73063000D02*
X174332300Y-82937000D01*
X174372300Y-73072000D02*
X174372300Y-82928000D01*
X174412300Y-73083000D02*
X174412300Y-76760000D01*
X174412300Y-79240000D02*
X174412300Y-82917000D01*
X174452300Y-73093000D02*
X174452300Y-76760000D01*
X174452300Y-79240000D02*
X174452300Y-82907000D01*
X174492300Y-73104000D02*
X174492300Y-76760000D01*
X174492300Y-79240000D02*
X174492300Y-82896000D01*
X174532300Y-73115000D02*
X174532300Y-76760000D01*
X174532300Y-79240000D02*
X174532300Y-82885000D01*
X174572300Y-73127000D02*
X174572300Y-76760000D01*
X174572300Y-79240000D02*
X174572300Y-82873000D01*
X174612300Y-73139000D02*
X174612300Y-76760000D01*
X174612300Y-79240000D02*
X174612300Y-82861000D01*
X174652300Y-73151000D02*
X174652300Y-76760000D01*
X174652300Y-79240000D02*
X174652300Y-82849000D01*
X174692300Y-73163000D02*
X174692300Y-76760000D01*
X174692300Y-79240000D02*
X174692300Y-82837000D01*
X174732300Y-73176000D02*
X174732300Y-76760000D01*
X174732300Y-79240000D02*
X174732300Y-82824000D01*
X174772300Y-73190000D02*
X174772300Y-76760000D01*
X174772300Y-79240000D02*
X174772300Y-82810000D01*
X174812300Y-73203000D02*
X174812300Y-76760000D01*
X174812300Y-79240000D02*
X174812300Y-82797000D01*
X174852300Y-73218000D02*
X174852300Y-76760000D01*
X174852300Y-79240000D02*
X174852300Y-82782000D01*
X174892300Y-73232000D02*
X174892300Y-76760000D01*
X174892300Y-79240000D02*
X174892300Y-82768000D01*
X174932300Y-73247000D02*
X174932300Y-76760000D01*
X174932300Y-79240000D02*
X174932300Y-82753000D01*
X174972300Y-73262000D02*
X174972300Y-76760000D01*
X174972300Y-79240000D02*
X174972300Y-82738000D01*
X175012300Y-73278000D02*
X175012300Y-76760000D01*
X175012300Y-79240000D02*
X175012300Y-82722000D01*
X175052300Y-73294000D02*
X175052300Y-76760000D01*
X175052300Y-79240000D02*
X175052300Y-82706000D01*
X175092300Y-73310000D02*
X175092300Y-76760000D01*
X175092300Y-79240000D02*
X175092300Y-82690000D01*
X175132300Y-73327000D02*
X175132300Y-76760000D01*
X175132300Y-79240000D02*
X175132300Y-82673000D01*
X175172300Y-73344000D02*
X175172300Y-76760000D01*
X175172300Y-79240000D02*
X175172300Y-82656000D01*
X175212300Y-73362000D02*
X175212300Y-76760000D01*
X175212300Y-79240000D02*
X175212300Y-82638000D01*
X175252300Y-73380000D02*
X175252300Y-76760000D01*
X175252300Y-79240000D02*
X175252300Y-82620000D01*
X175292300Y-73398000D02*
X175292300Y-76760000D01*
X175292300Y-79240000D02*
X175292300Y-82602000D01*
X175332300Y-73417000D02*
X175332300Y-76760000D01*
X175332300Y-79240000D02*
X175332300Y-82583000D01*
X175372300Y-73436000D02*
X175372300Y-76760000D01*
X175372300Y-79240000D02*
X175372300Y-82564000D01*
X175412300Y-73456000D02*
X175412300Y-76760000D01*
X175412300Y-79240000D02*
X175412300Y-82544000D01*
X175452300Y-73476000D02*
X175452300Y-76760000D01*
X175452300Y-79240000D02*
X175452300Y-82524000D01*
X175492300Y-73496000D02*
X175492300Y-76760000D01*
X175492300Y-79240000D02*
X175492300Y-82504000D01*
X175532300Y-73517000D02*
X175532300Y-76760000D01*
X175532300Y-79240000D02*
X175532300Y-82483000D01*
X175572300Y-73539000D02*
X175572300Y-76760000D01*
X175572300Y-79240000D02*
X175572300Y-82461000D01*
X175612300Y-73561000D02*
X175612300Y-76760000D01*
X175612300Y-79240000D02*
X175612300Y-82439000D01*
X175652300Y-73583000D02*
X175652300Y-76760000D01*
X175652300Y-79240000D02*
X175652300Y-82417000D01*
X175692300Y-73606000D02*
X175692300Y-76760000D01*
X175692300Y-79240000D02*
X175692300Y-82394000D01*
X175732300Y-73629000D02*
X175732300Y-76760000D01*
X175732300Y-79240000D02*
X175732300Y-82371000D01*
X175772300Y-73653000D02*
X175772300Y-76760000D01*
X175772300Y-79240000D02*
X175772300Y-82347000D01*
X175812300Y-73677000D02*
X175812300Y-76760000D01*
X175812300Y-79240000D02*
X175812300Y-82323000D01*
X175852300Y-73702000D02*
X175852300Y-76760000D01*
X175852300Y-79240000D02*
X175852300Y-82298000D01*
X175892300Y-73728000D02*
X175892300Y-76760000D01*
X175892300Y-79240000D02*
X175892300Y-82272000D01*
X175932300Y-73753000D02*
X175932300Y-76760000D01*
X175932300Y-79240000D02*
X175932300Y-82247000D01*
X175972300Y-73780000D02*
X175972300Y-76760000D01*
X175972300Y-79240000D02*
X175972300Y-82220000D01*
X176012300Y-73807000D02*
X176012300Y-76760000D01*
X176012300Y-79240000D02*
X176012300Y-82193000D01*
X176052300Y-73834000D02*
X176052300Y-76760000D01*
X176052300Y-79240000D02*
X176052300Y-82166000D01*
X176092300Y-73862000D02*
X176092300Y-76760000D01*
X176092300Y-79240000D02*
X176092300Y-82138000D01*
X176132300Y-73891000D02*
X176132300Y-76760000D01*
X176132300Y-79240000D02*
X176132300Y-82109000D01*
X176172300Y-73920000D02*
X176172300Y-76760000D01*
X176172300Y-79240000D02*
X176172300Y-82080000D01*
X176212300Y-73950000D02*
X176212300Y-76760000D01*
X176212300Y-79240000D02*
X176212300Y-82050000D01*
X176252300Y-73980000D02*
X176252300Y-76760000D01*
X176252300Y-79240000D02*
X176252300Y-82020000D01*
X176292300Y-74012000D02*
X176292300Y-76760000D01*
X176292300Y-79240000D02*
X176292300Y-81988000D01*
X176332300Y-74043000D02*
X176332300Y-76760000D01*
X176332300Y-79240000D02*
X176332300Y-81957000D01*
X176372300Y-74076000D02*
X176372300Y-76760000D01*
X176372300Y-79240000D02*
X176372300Y-81924000D01*
X176412300Y-74109000D02*
X176412300Y-76760000D01*
X176412300Y-79240000D02*
X176412300Y-81891000D01*
X176452300Y-74142000D02*
X176452300Y-76760000D01*
X176452300Y-79240000D02*
X176452300Y-81858000D01*
X176492300Y-74177000D02*
X176492300Y-76760000D01*
X176492300Y-79240000D02*
X176492300Y-81823000D01*
X176532300Y-74212000D02*
X176532300Y-76760000D01*
X176532300Y-79240000D02*
X176532300Y-81788000D01*
X176572300Y-74248000D02*
X176572300Y-76760000D01*
X176572300Y-79240000D02*
X176572300Y-81752000D01*
X176612300Y-74284000D02*
X176612300Y-76760000D01*
X176612300Y-79240000D02*
X176612300Y-81716000D01*
X176652300Y-74322000D02*
X176652300Y-76760000D01*
X176652300Y-79240000D02*
X176652300Y-81678000D01*
X176692300Y-74360000D02*
X176692300Y-76760000D01*
X176692300Y-79240000D02*
X176692300Y-81640000D01*
X176732300Y-74399000D02*
X176732300Y-76760000D01*
X176732300Y-79240000D02*
X176732300Y-81601000D01*
X176772300Y-74439000D02*
X176772300Y-76760000D01*
X176772300Y-79240000D02*
X176772300Y-81561000D01*
X176812300Y-74480000D02*
X176812300Y-76760000D01*
X176812300Y-79240000D02*
X176812300Y-81520000D01*
X176852300Y-74522000D02*
X176852300Y-76760000D01*
X176852300Y-79240000D02*
X176852300Y-81478000D01*
X176892300Y-74565000D02*
X176892300Y-81435000D01*
X176932300Y-74609000D02*
X176932300Y-81391000D01*
X176972300Y-74653000D02*
X176972300Y-81347000D01*
X177012300Y-74699000D02*
X177012300Y-81301000D01*
X177052300Y-74746000D02*
X177052300Y-81254000D01*
X177092300Y-74795000D02*
X177092300Y-81205000D01*
X177132300Y-74844000D02*
X177132300Y-81156000D01*
X177172300Y-74895000D02*
X177172300Y-81105000D01*
X177212300Y-74947000D02*
X177212300Y-81053000D01*
X177252300Y-75000000D02*
X177252300Y-81000000D01*
X177292300Y-75055000D02*
X177292300Y-80945000D01*
X177332300Y-75112000D02*
X177332300Y-80888000D01*
X177372300Y-75170000D02*
X177372300Y-80830000D01*
X177412300Y-75230000D02*
X177412300Y-80770000D01*
X177452300Y-75292000D02*
X177452300Y-80708000D01*
X177492300Y-75356000D02*
X177492300Y-80644000D01*
X177532300Y-75422000D02*
X177532300Y-80578000D01*
X177572300Y-75490000D02*
X177572300Y-80510000D01*
X177612300Y-75561000D02*
X177612300Y-80439000D01*
X177652300Y-75635000D02*
X177652300Y-80365000D01*
X177692300Y-75712000D02*
X177692300Y-80288000D01*
X177732300Y-75792000D02*
X177732300Y-80208000D01*
X177772300Y-75876000D02*
X177772300Y-80124000D01*
X177812300Y-75963000D02*
X177812300Y-80037000D01*
X177852300Y-76056000D02*
X177852300Y-79944000D01*
X177892300Y-76154000D02*
X177892300Y-79846000D01*
X177932300Y-76258000D02*
X177932300Y-79742000D01*
X177972300Y-76370000D02*
X177972300Y-79630000D01*
X178012300Y-76491000D02*
X178012300Y-79509000D01*
X178052300Y-76623000D02*
X178052300Y-79377000D01*
X178092300Y-76770000D02*
X178092300Y-79230000D01*
X178132300Y-76938000D02*
X178132300Y-79062000D01*
X178172300Y-77138000D02*
X178172300Y-78862000D01*
X178212300Y-77401000D02*
X178212300Y-78599000D01*
X178252300Y-78000000D02*
G75*
G02*
X168012300Y-78000000I-5120000J0D01*
G01*
X168012300Y-78000000D02*
G75*
G02*
X178252300Y-78000000I5120000J0D01*
G01*
%TO.C,C1*%
X121847346Y-86375000D02*
X120847346Y-86375000D01*
X121347346Y-86875000D02*
X121347346Y-85875000D01*
X116367700Y-88580000D02*
X116367700Y-78420000D01*
X116327700Y-88580000D02*
X116327700Y-78420000D01*
X116287700Y-88579000D02*
X116287700Y-78421000D01*
X116247700Y-88579000D02*
X116247700Y-78421000D01*
X116207700Y-88577000D02*
X116207700Y-78423000D01*
X116167700Y-88576000D02*
X116167700Y-78424000D01*
X116127700Y-88574000D02*
X116127700Y-78426000D01*
X116087700Y-88572000D02*
X116087700Y-78428000D01*
X116047700Y-88570000D02*
X116047700Y-78430000D01*
X116007700Y-88567000D02*
X116007700Y-78433000D01*
X115967700Y-88564000D02*
X115967700Y-78436000D01*
X115927700Y-88561000D02*
X115927700Y-78439000D01*
X115887700Y-88557000D02*
X115887700Y-78443000D01*
X115847700Y-88554000D02*
X115847700Y-78446000D01*
X115807700Y-88549000D02*
X115807700Y-78451000D01*
X115767700Y-88545000D02*
X115767700Y-78455000D01*
X115727700Y-88540000D02*
X115727700Y-78460000D01*
X115687700Y-88535000D02*
X115687700Y-78465000D01*
X115647700Y-88529000D02*
X115647700Y-78471000D01*
X115607700Y-88523000D02*
X115607700Y-78477000D01*
X115567700Y-88517000D02*
X115567700Y-78483000D01*
X115527700Y-88511000D02*
X115527700Y-78489000D01*
X115487700Y-88504000D02*
X115487700Y-78496000D01*
X115447700Y-88497000D02*
X115447700Y-78503000D01*
X115407700Y-88489000D02*
X115407700Y-78511000D01*
X115367700Y-88481000D02*
X115367700Y-78519000D01*
X115327700Y-88473000D02*
X115327700Y-78527000D01*
X115287700Y-88465000D02*
X115287700Y-78535000D01*
X115247700Y-88456000D02*
X115247700Y-78544000D01*
X115207700Y-88447000D02*
X115207700Y-78553000D01*
X115167700Y-88437000D02*
X115167700Y-78563000D01*
X115127700Y-88428000D02*
X115127700Y-78572000D01*
X115087700Y-88417000D02*
X115087700Y-84740000D01*
X115087700Y-82260000D02*
X115087700Y-78583000D01*
X115047700Y-88407000D02*
X115047700Y-84740000D01*
X115047700Y-82260000D02*
X115047700Y-78593000D01*
X115007700Y-88396000D02*
X115007700Y-84740000D01*
X115007700Y-82260000D02*
X115007700Y-78604000D01*
X114967700Y-88385000D02*
X114967700Y-84740000D01*
X114967700Y-82260000D02*
X114967700Y-78615000D01*
X114927700Y-88373000D02*
X114927700Y-84740000D01*
X114927700Y-82260000D02*
X114927700Y-78627000D01*
X114887700Y-88361000D02*
X114887700Y-84740000D01*
X114887700Y-82260000D02*
X114887700Y-78639000D01*
X114847700Y-88349000D02*
X114847700Y-84740000D01*
X114847700Y-82260000D02*
X114847700Y-78651000D01*
X114807700Y-88337000D02*
X114807700Y-84740000D01*
X114807700Y-82260000D02*
X114807700Y-78663000D01*
X114767700Y-88324000D02*
X114767700Y-84740000D01*
X114767700Y-82260000D02*
X114767700Y-78676000D01*
X114727700Y-88310000D02*
X114727700Y-84740000D01*
X114727700Y-82260000D02*
X114727700Y-78690000D01*
X114687700Y-88297000D02*
X114687700Y-84740000D01*
X114687700Y-82260000D02*
X114687700Y-78703000D01*
X114647700Y-88282000D02*
X114647700Y-84740000D01*
X114647700Y-82260000D02*
X114647700Y-78718000D01*
X114607700Y-88268000D02*
X114607700Y-84740000D01*
X114607700Y-82260000D02*
X114607700Y-78732000D01*
X114567700Y-88253000D02*
X114567700Y-84740000D01*
X114567700Y-82260000D02*
X114567700Y-78747000D01*
X114527700Y-88238000D02*
X114527700Y-84740000D01*
X114527700Y-82260000D02*
X114527700Y-78762000D01*
X114487700Y-88222000D02*
X114487700Y-84740000D01*
X114487700Y-82260000D02*
X114487700Y-78778000D01*
X114447700Y-88206000D02*
X114447700Y-84740000D01*
X114447700Y-82260000D02*
X114447700Y-78794000D01*
X114407700Y-88190000D02*
X114407700Y-84740000D01*
X114407700Y-82260000D02*
X114407700Y-78810000D01*
X114367700Y-88173000D02*
X114367700Y-84740000D01*
X114367700Y-82260000D02*
X114367700Y-78827000D01*
X114327700Y-88156000D02*
X114327700Y-84740000D01*
X114327700Y-82260000D02*
X114327700Y-78844000D01*
X114287700Y-88138000D02*
X114287700Y-84740000D01*
X114287700Y-82260000D02*
X114287700Y-78862000D01*
X114247700Y-88120000D02*
X114247700Y-84740000D01*
X114247700Y-82260000D02*
X114247700Y-78880000D01*
X114207700Y-88102000D02*
X114207700Y-84740000D01*
X114207700Y-82260000D02*
X114207700Y-78898000D01*
X114167700Y-88083000D02*
X114167700Y-84740000D01*
X114167700Y-82260000D02*
X114167700Y-78917000D01*
X114127700Y-88064000D02*
X114127700Y-84740000D01*
X114127700Y-82260000D02*
X114127700Y-78936000D01*
X114087700Y-88044000D02*
X114087700Y-84740000D01*
X114087700Y-82260000D02*
X114087700Y-78956000D01*
X114047700Y-88024000D02*
X114047700Y-84740000D01*
X114047700Y-82260000D02*
X114047700Y-78976000D01*
X114007700Y-88004000D02*
X114007700Y-84740000D01*
X114007700Y-82260000D02*
X114007700Y-78996000D01*
X113967700Y-87983000D02*
X113967700Y-84740000D01*
X113967700Y-82260000D02*
X113967700Y-79017000D01*
X113927700Y-87961000D02*
X113927700Y-84740000D01*
X113927700Y-82260000D02*
X113927700Y-79039000D01*
X113887700Y-87939000D02*
X113887700Y-84740000D01*
X113887700Y-82260000D02*
X113887700Y-79061000D01*
X113847700Y-87917000D02*
X113847700Y-84740000D01*
X113847700Y-82260000D02*
X113847700Y-79083000D01*
X113807700Y-87894000D02*
X113807700Y-84740000D01*
X113807700Y-82260000D02*
X113807700Y-79106000D01*
X113767700Y-87871000D02*
X113767700Y-84740000D01*
X113767700Y-82260000D02*
X113767700Y-79129000D01*
X113727700Y-87847000D02*
X113727700Y-84740000D01*
X113727700Y-82260000D02*
X113727700Y-79153000D01*
X113687700Y-87823000D02*
X113687700Y-84740000D01*
X113687700Y-82260000D02*
X113687700Y-79177000D01*
X113647700Y-87798000D02*
X113647700Y-84740000D01*
X113647700Y-82260000D02*
X113647700Y-79202000D01*
X113607700Y-87772000D02*
X113607700Y-84740000D01*
X113607700Y-82260000D02*
X113607700Y-79228000D01*
X113567700Y-87747000D02*
X113567700Y-84740000D01*
X113567700Y-82260000D02*
X113567700Y-79253000D01*
X113527700Y-87720000D02*
X113527700Y-84740000D01*
X113527700Y-82260000D02*
X113527700Y-79280000D01*
X113487700Y-87693000D02*
X113487700Y-84740000D01*
X113487700Y-82260000D02*
X113487700Y-79307000D01*
X113447700Y-87666000D02*
X113447700Y-84740000D01*
X113447700Y-82260000D02*
X113447700Y-79334000D01*
X113407700Y-87638000D02*
X113407700Y-84740000D01*
X113407700Y-82260000D02*
X113407700Y-79362000D01*
X113367700Y-87609000D02*
X113367700Y-84740000D01*
X113367700Y-82260000D02*
X113367700Y-79391000D01*
X113327700Y-87580000D02*
X113327700Y-84740000D01*
X113327700Y-82260000D02*
X113327700Y-79420000D01*
X113287700Y-87550000D02*
X113287700Y-84740000D01*
X113287700Y-82260000D02*
X113287700Y-79450000D01*
X113247700Y-87520000D02*
X113247700Y-84740000D01*
X113247700Y-82260000D02*
X113247700Y-79480000D01*
X113207700Y-87488000D02*
X113207700Y-84740000D01*
X113207700Y-82260000D02*
X113207700Y-79512000D01*
X113167700Y-87457000D02*
X113167700Y-84740000D01*
X113167700Y-82260000D02*
X113167700Y-79543000D01*
X113127700Y-87424000D02*
X113127700Y-84740000D01*
X113127700Y-82260000D02*
X113127700Y-79576000D01*
X113087700Y-87391000D02*
X113087700Y-84740000D01*
X113087700Y-82260000D02*
X113087700Y-79609000D01*
X113047700Y-87358000D02*
X113047700Y-84740000D01*
X113047700Y-82260000D02*
X113047700Y-79642000D01*
X113007700Y-87323000D02*
X113007700Y-84740000D01*
X113007700Y-82260000D02*
X113007700Y-79677000D01*
X112967700Y-87288000D02*
X112967700Y-84740000D01*
X112967700Y-82260000D02*
X112967700Y-79712000D01*
X112927700Y-87252000D02*
X112927700Y-84740000D01*
X112927700Y-82260000D02*
X112927700Y-79748000D01*
X112887700Y-87216000D02*
X112887700Y-84740000D01*
X112887700Y-82260000D02*
X112887700Y-79784000D01*
X112847700Y-87178000D02*
X112847700Y-84740000D01*
X112847700Y-82260000D02*
X112847700Y-79822000D01*
X112807700Y-87140000D02*
X112807700Y-84740000D01*
X112807700Y-82260000D02*
X112807700Y-79860000D01*
X112767700Y-87101000D02*
X112767700Y-84740000D01*
X112767700Y-82260000D02*
X112767700Y-79899000D01*
X112727700Y-87061000D02*
X112727700Y-84740000D01*
X112727700Y-82260000D02*
X112727700Y-79939000D01*
X112687700Y-87020000D02*
X112687700Y-84740000D01*
X112687700Y-82260000D02*
X112687700Y-79980000D01*
X112647700Y-86978000D02*
X112647700Y-84740000D01*
X112647700Y-82260000D02*
X112647700Y-80022000D01*
X112607700Y-86935000D02*
X112607700Y-80065000D01*
X112567700Y-86891000D02*
X112567700Y-80109000D01*
X112527700Y-86847000D02*
X112527700Y-80153000D01*
X112487700Y-86801000D02*
X112487700Y-80199000D01*
X112447700Y-86754000D02*
X112447700Y-80246000D01*
X112407700Y-86705000D02*
X112407700Y-80295000D01*
X112367700Y-86656000D02*
X112367700Y-80344000D01*
X112327700Y-86605000D02*
X112327700Y-80395000D01*
X112287700Y-86553000D02*
X112287700Y-80447000D01*
X112247700Y-86500000D02*
X112247700Y-80500000D01*
X112207700Y-86445000D02*
X112207700Y-80555000D01*
X112167700Y-86388000D02*
X112167700Y-80612000D01*
X112127700Y-86330000D02*
X112127700Y-80670000D01*
X112087700Y-86270000D02*
X112087700Y-80730000D01*
X112047700Y-86208000D02*
X112047700Y-80792000D01*
X112007700Y-86144000D02*
X112007700Y-80856000D01*
X111967700Y-86078000D02*
X111967700Y-80922000D01*
X111927700Y-86010000D02*
X111927700Y-80990000D01*
X111887700Y-85939000D02*
X111887700Y-81061000D01*
X111847700Y-85865000D02*
X111847700Y-81135000D01*
X111807700Y-85788000D02*
X111807700Y-81212000D01*
X111767700Y-85708000D02*
X111767700Y-81292000D01*
X111727700Y-85624000D02*
X111727700Y-81376000D01*
X111687700Y-85537000D02*
X111687700Y-81463000D01*
X111647700Y-85444000D02*
X111647700Y-81556000D01*
X111607700Y-85346000D02*
X111607700Y-81654000D01*
X111567700Y-85242000D02*
X111567700Y-81758000D01*
X111527700Y-85130000D02*
X111527700Y-81870000D01*
X111487700Y-85009000D02*
X111487700Y-81991000D01*
X111447700Y-84877000D02*
X111447700Y-82123000D01*
X111407700Y-84730000D02*
X111407700Y-82270000D01*
X111367700Y-84562000D02*
X111367700Y-82438000D01*
X111327700Y-84362000D02*
X111327700Y-82638000D01*
X111287700Y-84099000D02*
X111287700Y-82901000D01*
X121487700Y-83500000D02*
G75*
G02*
X111247700Y-83500000I-5120000J0D01*
G01*
X111247700Y-83500000D02*
G75*
G02*
X121487700Y-83500000I5120000J0D01*
G01*
%TO.C,J24*%
X167780000Y-112630000D02*
X175620000Y-112630000D01*
X167780000Y-119870000D02*
X167780000Y-112630000D01*
X174000000Y-119870000D02*
X174000000Y-112630000D01*
X175100000Y-119870000D02*
X175100000Y-112630000D01*
X175620000Y-112630000D02*
X175620000Y-117700000D01*
X175620000Y-118300000D02*
X175620000Y-119870000D01*
X175620000Y-119870000D02*
X167780000Y-119870000D01*
X176230000Y-118440000D02*
X175620000Y-118000000D01*
X176230000Y-117560000D01*
X176230000Y-118440000D01*
G36*
X176230000Y-118440000D02*
G01*
X175620000Y-118000000D01*
X176230000Y-117560000D01*
X176230000Y-118440000D01*
G37*
%TO.C,J16*%
X155880000Y-92770000D02*
X155880000Y-87700000D01*
X163720000Y-92770000D02*
X155880000Y-92770000D01*
X155880000Y-87100000D02*
X155880000Y-85530000D01*
X155880000Y-85530000D02*
X163720000Y-85530000D01*
X156400000Y-85530000D02*
X156400000Y-92770000D01*
X157500000Y-85530000D02*
X157500000Y-92770000D01*
X163720000Y-85530000D02*
X163720000Y-92770000D01*
X155880000Y-87400000D02*
X155270000Y-87840000D01*
X155270000Y-86960000D01*
X155880000Y-87400000D01*
G36*
X155880000Y-87400000D02*
G01*
X155270000Y-87840000D01*
X155270000Y-86960000D01*
X155880000Y-87400000D01*
G37*
%TO.C,J27*%
X167780000Y-85630000D02*
X175620000Y-85630000D01*
X167780000Y-92870000D02*
X167780000Y-85630000D01*
X174000000Y-92870000D02*
X174000000Y-85630000D01*
X175100000Y-92870000D02*
X175100000Y-85630000D01*
X175620000Y-85630000D02*
X175620000Y-90700000D01*
X175620000Y-91300000D02*
X175620000Y-92870000D01*
X175620000Y-92870000D02*
X167780000Y-92870000D01*
X176230000Y-91440000D02*
X175620000Y-91000000D01*
X176230000Y-90560000D01*
X176230000Y-91440000D01*
G36*
X176230000Y-91440000D02*
G01*
X175620000Y-91000000D01*
X176230000Y-90560000D01*
X176230000Y-91440000D01*
G37*
%TO.C,J26*%
X167780000Y-94680000D02*
X175620000Y-94680000D01*
X167780000Y-101920000D02*
X167780000Y-94680000D01*
X174000000Y-101920000D02*
X174000000Y-94680000D01*
X175100000Y-101920000D02*
X175100000Y-94680000D01*
X175620000Y-94680000D02*
X175620000Y-99750000D01*
X175620000Y-100350000D02*
X175620000Y-101920000D01*
X175620000Y-101920000D02*
X167780000Y-101920000D01*
X176230000Y-100490000D02*
X175620000Y-100050000D01*
X176230000Y-99610000D01*
X176230000Y-100490000D01*
G36*
X176230000Y-100490000D02*
G01*
X175620000Y-100050000D01*
X176230000Y-99610000D01*
X176230000Y-100490000D01*
G37*
%TO.C,J1*%
X103130000Y-68880000D02*
X108200000Y-68880000D01*
X103130000Y-76720000D02*
X103130000Y-68880000D01*
X108800000Y-68880000D02*
X110370000Y-68880000D01*
X110370000Y-68880000D02*
X110370000Y-76720000D01*
X110370000Y-69400000D02*
X103130000Y-69400000D01*
X110370000Y-70500000D02*
X103130000Y-70500000D01*
X110370000Y-76720000D02*
X103130000Y-76720000D01*
X108500000Y-68880000D02*
X108060000Y-68270000D01*
X108940000Y-68270000D01*
X108500000Y-68880000D01*
G36*
X108500000Y-68880000D02*
G01*
X108060000Y-68270000D01*
X108940000Y-68270000D01*
X108500000Y-68880000D01*
G37*
%TO.C,J25*%
X167780000Y-103730000D02*
X175620000Y-103730000D01*
X167780000Y-110970000D02*
X167780000Y-103730000D01*
X174000000Y-110970000D02*
X174000000Y-103730000D01*
X175100000Y-110970000D02*
X175100000Y-103730000D01*
X175620000Y-103730000D02*
X175620000Y-108800000D01*
X175620000Y-109400000D02*
X175620000Y-110970000D01*
X175620000Y-110970000D02*
X167780000Y-110970000D01*
X176230000Y-109540000D02*
X175620000Y-109100000D01*
X176230000Y-108660000D01*
X176230000Y-109540000D01*
G36*
X176230000Y-109540000D02*
G01*
X175620000Y-109100000D01*
X176230000Y-108660000D01*
X176230000Y-109540000D01*
G37*
%TO.C,J15*%
X85120000Y-127345000D02*
X86500000Y-127345000D01*
X85120000Y-128725000D02*
X85120000Y-127345000D01*
X85120000Y-129995000D02*
X85120000Y-132645000D01*
X85120000Y-129995000D02*
X87880000Y-129995000D01*
X85120000Y-132645000D02*
X87880000Y-132645000D01*
X87880000Y-129995000D02*
X87880000Y-132645000D01*
%TO.C,J2*%
X91630000Y-68880000D02*
X96700000Y-68880000D01*
X91630000Y-76720000D02*
X91630000Y-68880000D01*
X97300000Y-68880000D02*
X98870000Y-68880000D01*
X98870000Y-68880000D02*
X98870000Y-76720000D01*
X98870000Y-69400000D02*
X91630000Y-69400000D01*
X98870000Y-70500000D02*
X91630000Y-70500000D01*
X98870000Y-76720000D02*
X91630000Y-76720000D01*
X97000000Y-68880000D02*
X96560000Y-68270000D01*
X97440000Y-68270000D01*
X97000000Y-68880000D01*
G36*
X97000000Y-68880000D02*
G01*
X96560000Y-68270000D01*
X97440000Y-68270000D01*
X97000000Y-68880000D01*
G37*
%TO.C,J18*%
X155880000Y-110870000D02*
X155880000Y-105800000D01*
X163720000Y-110870000D02*
X155880000Y-110870000D01*
X155880000Y-105200000D02*
X155880000Y-103630000D01*
X155880000Y-103630000D02*
X163720000Y-103630000D01*
X156400000Y-103630000D02*
X156400000Y-110870000D01*
X157500000Y-103630000D02*
X157500000Y-110870000D01*
X163720000Y-103630000D02*
X163720000Y-110870000D01*
X155880000Y-105500000D02*
X155270000Y-105940000D01*
X155270000Y-105060000D01*
X155880000Y-105500000D01*
G36*
X155880000Y-105500000D02*
G01*
X155270000Y-105940000D01*
X155270000Y-105060000D01*
X155880000Y-105500000D01*
G37*
%TO.C,J23*%
X167780000Y-121680000D02*
X175620000Y-121680000D01*
X167780000Y-128920000D02*
X167780000Y-121680000D01*
X174000000Y-128920000D02*
X174000000Y-121680000D01*
X175100000Y-128920000D02*
X175100000Y-121680000D01*
X175620000Y-121680000D02*
X175620000Y-126750000D01*
X175620000Y-127350000D02*
X175620000Y-128920000D01*
X175620000Y-128920000D02*
X167780000Y-128920000D01*
X176230000Y-127490000D02*
X175620000Y-127050000D01*
X176230000Y-126610000D01*
X176230000Y-127490000D01*
G36*
X176230000Y-127490000D02*
G01*
X175620000Y-127050000D01*
X176230000Y-126610000D01*
X176230000Y-127490000D01*
G37*
%TO.C,J17*%
X155880000Y-101820000D02*
X155880000Y-96750000D01*
X163720000Y-101820000D02*
X155880000Y-101820000D01*
X155880000Y-96150000D02*
X155880000Y-94580000D01*
X155880000Y-94580000D02*
X163720000Y-94580000D01*
X156400000Y-94580000D02*
X156400000Y-101820000D01*
X157500000Y-94580000D02*
X157500000Y-101820000D01*
X163720000Y-94580000D02*
X163720000Y-101820000D01*
X155880000Y-96450000D02*
X155270000Y-96890000D01*
X155270000Y-96010000D01*
X155880000Y-96450000D01*
G36*
X155880000Y-96450000D02*
G01*
X155270000Y-96890000D01*
X155270000Y-96010000D01*
X155880000Y-96450000D01*
G37*
%TD*%
M02*
