%TF.GenerationSoftware,KiCad,Pcbnew,10.0.1*%
%TF.CreationDate,2026-05-05T21:47:33+05:30*%
%TF.ProjectId,solenoid,736f6c65-6e6f-4696-942e-6b696361645f,rev?*%
%TF.SameCoordinates,Original*%
%TF.FileFunction,Copper,L1,Top*%
%TF.FilePolarity,Positive*%
%FSLAX46Y46*%
G04 Gerber Fmt 4.6, Leading zero omitted, Abs format (unit mm)*
G04 Created by KiCad (PCBNEW 10.0.1) date 2026-05-05 21:47:33*
%MOMM*%
%LPD*%
G01*
G04 APERTURE LIST*
G04 Aperture macros list*
%AMRoundRect*
0 Rectangle with rounded corners*
0 $1 Rounding radius*
0 $2 $3 $4 $5 $6 $7 $8 $9 X,Y pos of 4 corners*
0 Add a 4 corners polygon primitive as box body*
4,1,4,$2,$3,$4,$5,$6,$7,$8,$9,$2,$3,0*
0 Add four circle primitives for the rounded corners*
1,1,$1+$1,$2,$3*
1,1,$1+$1,$4,$5*
1,1,$1+$1,$6,$7*
1,1,$1+$1,$8,$9*
0 Add four rect primitives between the rounded corners*
20,1,$1+$1,$2,$3,$4,$5,0*
20,1,$1+$1,$4,$5,$6,$7,0*
20,1,$1+$1,$6,$7,$8,$9,0*
20,1,$1+$1,$8,$9,$2,$3,0*%
G04 Aperture macros list end*
%TA.AperFunction,ComponentPad*%
%ADD10RoundRect,0.250001X-0.949999X0.949999X-0.949999X-0.949999X0.949999X-0.949999X0.949999X0.949999X0*%
%TD*%
%TA.AperFunction,ComponentPad*%
%ADD11C,2.400000*%
%TD*%
%TA.AperFunction,ComponentPad*%
%ADD12C,1.700000*%
%TD*%
%TA.AperFunction,ComponentPad*%
%ADD13R,1.700000X1.700000*%
%TD*%
%TA.AperFunction,ComponentPad*%
%ADD14C,2.000000*%
%TD*%
%TA.AperFunction,ComponentPad*%
%ADD15R,2.000000X2.000000*%
%TD*%
%TA.AperFunction,ComponentPad*%
%ADD16RoundRect,0.250001X0.949999X-0.949999X0.949999X0.949999X-0.949999X0.949999X-0.949999X-0.949999X0*%
%TD*%
%TA.AperFunction,ComponentPad*%
%ADD17RoundRect,0.250000X-0.750000X-0.750000X0.750000X-0.750000X0.750000X0.750000X-0.750000X0.750000X0*%
%TD*%
%TA.AperFunction,ComponentPad*%
%ADD18RoundRect,0.250000X0.750000X0.750000X-0.750000X0.750000X-0.750000X-0.750000X0.750000X-0.750000X0*%
%TD*%
%TA.AperFunction,ComponentPad*%
%ADD19RoundRect,0.250001X0.949999X0.949999X-0.949999X0.949999X-0.949999X-0.949999X0.949999X-0.949999X0*%
%TD*%
%TA.AperFunction,ViaPad*%
%ADD20C,0.600000*%
%TD*%
%TA.AperFunction,Conductor*%
%ADD21C,1.000000*%
%TD*%
%TA.AperFunction,Conductor*%
%ADD22C,0.300000*%
%TD*%
G04 APERTURE END LIST*
D10*
%TO.P,J19,1,Pin_1_1*%
%TO.N,+12V*%
X160500000Y-114500000D03*
D11*
%TO.P,J19,2,Pin_2_2*%
%TO.N,GND*%
X160500000Y-118000000D03*
%TD*%
%TO.P,J20,2,Pin_2_2*%
%TO.N,GND*%
X160500000Y-127400000D03*
D10*
%TO.P,J20,1,Pin_1_1*%
%TO.N,+12V*%
X160500000Y-123900000D03*
%TD*%
%TO.P,J21,1,Pin_1_1*%
%TO.N,+12V*%
X160500000Y-132950000D03*
D11*
%TO.P,J21,2,Pin_2_2*%
%TO.N,GND*%
X160500000Y-136450000D03*
%TD*%
D12*
%TO.P,J5,2,Pin_2_2*%
%TO.N,GND*%
X130040000Y-132320000D03*
D13*
%TO.P,J5,1,Pin_1_1*%
%TO.N,/GP16*%
X127500000Y-132320000D03*
%TD*%
D12*
%TO.P,J12,2,Pin_2_2*%
%TO.N,GND*%
X130265000Y-100140000D03*
D13*
%TO.P,J12,1,Pin_1_1*%
%TO.N,/GP25*%
X127725000Y-100140000D03*
%TD*%
D12*
%TO.P,J7,2,Pin_2_2*%
%TO.N,GND*%
X130040000Y-123140000D03*
D13*
%TO.P,J7,1,Pin_1_1*%
%TO.N,/GP18*%
X127500000Y-123140000D03*
%TD*%
D12*
%TO.P,J11,2,Pin_2_2*%
%TO.N,GND*%
X130265000Y-104730000D03*
D13*
%TO.P,J11,1,Pin_1_1*%
%TO.N,/GP23*%
X127725000Y-104730000D03*
%TD*%
D12*
%TO.P,J4,2,Pin_2_2*%
%TO.N,GND*%
X130040000Y-136910000D03*
D13*
%TO.P,J4,1,Pin_1_1*%
%TO.N,/GP14*%
X127500000Y-136910000D03*
%TD*%
D12*
%TO.P,J9,2,Pin_2_2*%
%TO.N,GND*%
X130265000Y-113910000D03*
D13*
%TO.P,J9,1,Pin_1_1*%
%TO.N,/GP21*%
X127725000Y-113910000D03*
%TD*%
D12*
%TO.P,J10,2,Pin_2_2*%
%TO.N,GND*%
X130265000Y-109320000D03*
D13*
%TO.P,J10,1,Pin_1_1*%
%TO.N,/GP22*%
X127725000Y-109320000D03*
%TD*%
D12*
%TO.P,J13,2,Pin_2_2*%
%TO.N,GND*%
X130540000Y-95820000D03*
D13*
%TO.P,J13,1,Pin_1_1*%
%TO.N,/GP26*%
X128000000Y-95820000D03*
%TD*%
D12*
%TO.P,J14,2,Pin_2_2*%
%TO.N,GND*%
X130540000Y-91230000D03*
D13*
%TO.P,J14,1,Pin_1_1*%
%TO.N,/GP27*%
X128000000Y-91230000D03*
%TD*%
D12*
%TO.P,J6,2,Pin_2_2*%
%TO.N,GND*%
X130040000Y-127730000D03*
D13*
%TO.P,J6,1,Pin_1_1*%
%TO.N,/GP17*%
X127500000Y-127730000D03*
%TD*%
D12*
%TO.P,J3,2,Pin_2_2*%
%TO.N,GND*%
X130040000Y-141500000D03*
D13*
%TO.P,J3,1,Pin_1_1*%
%TO.N,/GP13*%
X127500000Y-141500000D03*
%TD*%
D12*
%TO.P,J8,2,Pin_2_2*%
%TO.N,GND*%
X130265000Y-118500000D03*
D13*
%TO.P,J8,1,Pin_1_1*%
%TO.N,/GP19*%
X127725000Y-118500000D03*
%TD*%
D14*
%TO.P,U1,30,VIN_30*%
%TO.N,+5V*%
X116500000Y-100500000D03*
%TO.P,U1,29,GND_29*%
%TO.N,GND*%
X116500000Y-103040000D03*
%TO.P,U1,28,D13_28*%
%TO.N,/GP13*%
X116500000Y-105580000D03*
%TO.P,U1,27,D12_27*%
%TO.N,unconnected-(U1-D12-Pad27)*%
X116500000Y-108120000D03*
%TO.P,U1,26,D14_26*%
%TO.N,/GP14*%
X116500000Y-110660000D03*
%TO.P,U1,25,D27_25*%
%TO.N,/GP27*%
X116500000Y-113200000D03*
%TO.P,U1,24,D26_24*%
%TO.N,/GP26*%
X116500000Y-115740000D03*
%TO.P,U1,23,D25_23*%
%TO.N,/GP25*%
X116500000Y-118280000D03*
%TO.P,U1,22,D33_22*%
%TO.N,unconnected-(U1-D33-Pad22)*%
X116500000Y-120820000D03*
%TO.P,U1,21,D32_21*%
%TO.N,unconnected-(U1-D32-Pad21)*%
X116500000Y-123360000D03*
%TO.P,U1,20,D35_20*%
%TO.N,unconnected-(U1-D35-Pad20)*%
X116500000Y-125900000D03*
%TO.P,U1,19,D34_19*%
%TO.N,unconnected-(U1-D34-Pad19)*%
X116500000Y-128440000D03*
%TO.P,U1,18,VN_18*%
%TO.N,unconnected-(U1-VN-Pad18)*%
X116500000Y-130980000D03*
%TO.P,U1,17,VP_17*%
%TO.N,unconnected-(U1-VP-Pad17)*%
X116500000Y-133520000D03*
%TO.P,U1,16,EN_16*%
%TO.N,unconnected-(U1-EN-Pad16)*%
X116500000Y-136060000D03*
%TO.P,U1,15,D23_15*%
%TO.N,/GP23*%
X91100000Y-136060000D03*
%TO.P,U1,14,D22_14*%
%TO.N,/GP22*%
X91100000Y-133520000D03*
%TO.P,U1,13,TX0_13*%
%TO.N,Net-(J15-Pin_2)*%
X91100000Y-130980000D03*
%TO.P,U1,12,RX0_12*%
%TO.N,Net-(J15-Pin_1)*%
X91100000Y-128440000D03*
%TO.P,U1,11,D21_11*%
%TO.N,/GP21*%
X91100000Y-125900000D03*
%TO.P,U1,10,D19_10*%
%TO.N,/GP19*%
X91100000Y-123360000D03*
%TO.P,U1,9,D18_9*%
%TO.N,/GP18*%
X91100000Y-120820000D03*
%TO.P,U1,8,D5_8*%
%TO.N,unconnected-(U1-D5-Pad8)*%
X91100000Y-118280000D03*
%TO.P,U1,7,TX2_7*%
%TO.N,/GP17*%
X91100000Y-115740000D03*
%TO.P,U1,6,RX2_6*%
%TO.N,/GP16*%
X91100000Y-113200000D03*
%TO.P,U1,5,D4_5*%
%TO.N,unconnected-(U1-D4-Pad5)*%
X91100000Y-110660000D03*
%TO.P,U1,4,D2_4*%
%TO.N,unconnected-(U1-D2-Pad4)*%
X91100000Y-108120000D03*
%TO.P,U1,3,D15_3*%
%TO.N,unconnected-(U1-D15-Pad3)*%
X91100000Y-105580000D03*
%TO.P,U1,2,GND_2*%
%TO.N,GND*%
X91100000Y-103040000D03*
D15*
%TO.P,U1,1,3V3_1*%
%TO.N,unconnected-(U1-3V3-Pad1)*%
X91100000Y-100500000D03*
%TD*%
D11*
%TO.P,J22,2,Pin_2_2*%
%TO.N,GND*%
X171000000Y-132600000D03*
D16*
%TO.P,J22,1,Pin_1_1*%
%TO.N,+12V*%
X171000000Y-136100000D03*
%TD*%
D17*
%TO.P,C2,1*%
%TO.N,+12V*%
X170632300Y-78000000D03*
D14*
%TO.P,C2,2*%
%TO.N,GND*%
X175632300Y-78000000D03*
%TD*%
D18*
%TO.P,C1,1*%
%TO.N,+12V*%
X118867700Y-83500000D03*
D14*
%TO.P,C1,2*%
%TO.N,GND*%
X113867700Y-83500000D03*
%TD*%
D16*
%TO.P,J24,1,Pin_1_1*%
%TO.N,+12V*%
X171000000Y-118000000D03*
D11*
%TO.P,J24,2,Pin_2_2*%
%TO.N,GND*%
X171000000Y-114500000D03*
%TD*%
D10*
%TO.P,J16,1,Pin_1_1*%
%TO.N,+12V*%
X160500000Y-87400000D03*
D11*
%TO.P,J16,2,Pin_2_2*%
%TO.N,GND*%
X160500000Y-90900000D03*
%TD*%
D16*
%TO.P,J27,1,Pin_1_1*%
%TO.N,+12V*%
X171000000Y-91000000D03*
D11*
%TO.P,J27,2,Pin_2_2*%
%TO.N,GND*%
X171000000Y-87500000D03*
%TD*%
D16*
%TO.P,J26,1,Pin_1_1*%
%TO.N,+12V*%
X171000000Y-100050000D03*
D11*
%TO.P,J26,2,Pin_2_2*%
%TO.N,GND*%
X171000000Y-96550000D03*
%TD*%
D19*
%TO.P,J1,1,Pin_1_1*%
%TO.N,+12V*%
X108500000Y-73500000D03*
D11*
%TO.P,J1,2,Pin_2_2*%
%TO.N,GND*%
X105000000Y-73500000D03*
%TD*%
D16*
%TO.P,J25,1,Pin_1_1*%
%TO.N,+12V*%
X171000000Y-109100000D03*
D11*
%TO.P,J25,2,Pin_2_2*%
%TO.N,GND*%
X171000000Y-105600000D03*
%TD*%
D13*
%TO.P,J15,1,Pin_1_1*%
%TO.N,Net-(J15-Pin_1)*%
X86500000Y-128725000D03*
D12*
%TO.P,J15,2,Pin_2_2*%
%TO.N,Net-(J15-Pin_2)*%
X86500000Y-131265000D03*
%TD*%
D19*
%TO.P,J2,1,Pin_1_1*%
%TO.N,+5V*%
X97000000Y-73500000D03*
D11*
%TO.P,J2,2,Pin_2_2*%
%TO.N,GND*%
X93500000Y-73500000D03*
%TD*%
D10*
%TO.P,J18,1,Pin_1_1*%
%TO.N,+12V*%
X160500000Y-105500000D03*
D11*
%TO.P,J18,2,Pin_2_2*%
%TO.N,GND*%
X160500000Y-109000000D03*
%TD*%
D16*
%TO.P,J23,1,Pin_1_1*%
%TO.N,+12V*%
X171000000Y-127050000D03*
D11*
%TO.P,J23,2,Pin_2_2*%
%TO.N,GND*%
X171000000Y-123550000D03*
%TD*%
D10*
%TO.P,J17,1,Pin_1_1*%
%TO.N,+12V*%
X160500000Y-96450000D03*
D11*
%TO.P,J17,2,Pin_2_2*%
%TO.N,GND*%
X160500000Y-99950000D03*
%TD*%
D20*
%TO.N,GND*%
X130265000Y-107500000D03*
X130040000Y-134500000D03*
%TO.N,/GP23*%
X97440600Y-120259000D03*
%TD*%
%TO.N,GND*%
D21*
X130265000Y-107500000D02*
X130265000Y-104730000D01*
X130040000Y-134500000D02*
X130040000Y-132320000D01*
%TO.N,+5V*%
X97000000Y-81000000D02*
X116500000Y-100500000D01*
X97000000Y-73500000D02*
X97000000Y-81000000D01*
%TO.N,/GP27*%
D22*
X120218800Y-100212900D02*
X128000000Y-92431700D01*
X120218800Y-109481200D02*
X120218800Y-100212900D01*
X116500000Y-113200000D02*
X120218800Y-109481200D01*
X128000000Y-91230000D02*
X128000000Y-92431700D01*
%TO.N,/GP26*%
X124880200Y-100141500D02*
X128000000Y-97021700D01*
X124880200Y-107359800D02*
X124880200Y-100141500D01*
X116500000Y-115740000D02*
X124880200Y-107359800D01*
X128000000Y-95820000D02*
X128000000Y-97021700D01*
%TO.N,/GP25*%
X126523300Y-102543400D02*
X127725000Y-101341700D01*
X126523300Y-108256700D02*
X126523300Y-102543400D01*
X116500000Y-118280000D02*
X126523300Y-108256700D01*
X127725000Y-100140000D02*
X127725000Y-101341700D01*
%TO.N,/GP23*%
X97440600Y-129719400D02*
X97440600Y-120259000D01*
X91100000Y-136060000D02*
X97440600Y-129719400D01*
%TO.N,Net-(J15-Pin_2)*%
X90815000Y-131265000D02*
X91100000Y-130980000D01*
X86500000Y-131265000D02*
X90815000Y-131265000D01*
%TO.N,Net-(J15-Pin_1)*%
X90815000Y-128725000D02*
X91100000Y-128440000D01*
X86500000Y-128725000D02*
X90815000Y-128725000D01*
%TO.N,/GP19*%
X127725000Y-118500000D02*
X127725000Y-119701700D01*
X128704700Y-120681400D02*
X127725000Y-119701700D01*
X128704700Y-133383800D02*
X128704700Y-120681400D01*
X119986800Y-142101700D02*
X128704700Y-133383800D01*
X114883700Y-142101700D02*
X119986800Y-142101700D01*
X113009700Y-140227700D02*
X114883700Y-142101700D01*
X113009700Y-134882300D02*
X113009700Y-140227700D01*
X97734600Y-119607200D02*
X113009700Y-134882300D01*
X94852800Y-119607200D02*
X97734600Y-119607200D01*
X91100000Y-123360000D02*
X94852800Y-119607200D01*
%TO.N,/GP16*%
X92065400Y-113200000D02*
X91100000Y-113200000D01*
X113511400Y-134646000D02*
X92065400Y-113200000D01*
X113511400Y-139950900D02*
X113511400Y-134646000D01*
X115152500Y-141592000D02*
X113511400Y-139950900D01*
X117026300Y-141592000D02*
X115152500Y-141592000D01*
X126298300Y-132320000D02*
X117026300Y-141592000D01*
X127500000Y-132320000D02*
X126298300Y-132320000D01*
%TO.N,GND*%
D21*
X91100000Y-103040000D02*
X116500000Y-103040000D01*
X130265000Y-118500000D02*
X130265000Y-113910000D01*
X130040000Y-141500000D02*
X130040000Y-136910000D01*
X130040000Y-127730000D02*
X130040000Y-132320000D01*
X130540000Y-91230000D02*
X130540000Y-95820000D01*
X130265000Y-96095000D02*
X130265000Y-100140000D01*
X130540000Y-95820000D02*
X130265000Y-96095000D01*
X130265000Y-109320000D02*
X130265000Y-107500000D01*
X130265000Y-113910000D02*
X130265000Y-109320000D01*
X130040000Y-136910000D02*
X130040000Y-134500000D01*
X130265000Y-104730000D02*
X130265000Y-100140000D01*
X130040000Y-123140000D02*
X130040000Y-127730000D01*
X130040000Y-118725000D02*
X130040000Y-123140000D01*
X130265000Y-118500000D02*
X130040000Y-118725000D01*
%TO.N,+12V*%
X179000000Y-92500000D02*
X179000000Y-83000000D01*
X177500000Y-91000000D02*
X179000000Y-92500000D01*
X171000000Y-91000000D02*
X177500000Y-91000000D01*
X179000000Y-101500000D02*
X179000000Y-92500000D01*
X177550000Y-100050000D02*
X179000000Y-101500000D01*
X171000000Y-100050000D02*
X177550000Y-100050000D01*
X177600000Y-109100000D02*
X179000000Y-110500000D01*
X171000000Y-109100000D02*
X177600000Y-109100000D01*
X179000000Y-110500000D02*
X179000000Y-101500000D01*
X171000000Y-118000000D02*
X177000000Y-118000000D01*
X179000000Y-120000000D02*
X179000000Y-110500000D01*
X177000000Y-118000000D02*
X179000000Y-120000000D01*
X179000000Y-128500000D02*
X179000000Y-120000000D01*
X177550000Y-127050000D02*
X179000000Y-128500000D01*
X171000000Y-127050000D02*
X177550000Y-127050000D01*
X179000000Y-138000000D02*
X179000000Y-128500000D01*
X177100000Y-136100000D02*
X179000000Y-138000000D01*
X171000000Y-136100000D02*
X177100000Y-136100000D01*
X152050000Y-132950000D02*
X150500000Y-134500000D01*
X160500000Y-132950000D02*
X152050000Y-132950000D01*
X150500000Y-125500000D02*
X150500000Y-134500000D01*
X152100000Y-123900000D02*
X150500000Y-125500000D01*
X160500000Y-123900000D02*
X152100000Y-123900000D01*
X150500000Y-116000000D02*
X150500000Y-125500000D01*
X152000000Y-114500000D02*
X150500000Y-116000000D01*
X150500000Y-134500000D02*
X150500000Y-139000000D01*
X160500000Y-114500000D02*
X152000000Y-114500000D01*
X150500000Y-107000000D02*
X150500000Y-116000000D01*
X152000000Y-105500000D02*
X150500000Y-107000000D01*
X160500000Y-105500000D02*
X152000000Y-105500000D01*
X152550000Y-96450000D02*
X150500000Y-98500000D01*
X160500000Y-96450000D02*
X152550000Y-96450000D01*
X150500000Y-98500000D02*
X150500000Y-107000000D01*
X153600000Y-87400000D02*
X150500000Y-90500000D01*
X160500000Y-87400000D02*
X153600000Y-87400000D01*
X150500000Y-90500000D02*
X150500000Y-98500000D01*
X170632000Y-81132300D02*
X170632000Y-78000000D01*
X172500000Y-83000000D02*
X170632000Y-81132300D01*
X179000000Y-83000000D02*
X172500000Y-83000000D01*
X179000000Y-139500000D02*
X179000000Y-138000000D01*
X175000000Y-143500000D02*
X179000000Y-139500000D01*
X155000000Y-143500000D02*
X175000000Y-143500000D01*
X179000000Y-139500000D02*
X179000000Y-138000000D01*
X175000000Y-143500000D02*
X179000000Y-139500000D01*
X155000000Y-143500000D02*
X175000000Y-143500000D01*
X150500000Y-139000000D02*
X155000000Y-143500000D01*
X150500000Y-134500000D02*
X150500000Y-139000000D01*
X150500000Y-87500000D02*
X150500000Y-90500000D01*
X146500000Y-83500000D02*
X150500000Y-87500000D01*
X118868000Y-83500000D02*
X146500000Y-83500000D01*
X118868000Y-80132300D02*
X118868000Y-83500000D01*
X119000000Y-80000000D02*
X118868000Y-80132300D01*
X112500000Y-73500000D02*
X119000000Y-80000000D01*
X150500000Y-87500000D02*
X150500000Y-90500000D01*
X146500000Y-83500000D02*
X150500000Y-87500000D01*
X118868000Y-83500000D02*
X146500000Y-83500000D01*
X118868000Y-80132300D02*
X118868000Y-83500000D01*
X119000000Y-80000000D02*
X118868000Y-80132300D01*
X112500000Y-73500000D02*
X119000000Y-80000000D01*
X108500000Y-73500000D02*
X112500000Y-73500000D01*
X170632300Y-78000000D02*
X170632000Y-78000000D01*
%TD*%
%TA.AperFunction,Conductor*%
%TO.N,+12V*%
G36*
X179504043Y-66500765D02*
G01*
X179752895Y-66517075D01*
X179768953Y-66519190D01*
X179976105Y-66560395D01*
X180009535Y-66567045D01*
X180025202Y-66571243D01*
X180194947Y-66628863D01*
X180257481Y-66650091D01*
X180272458Y-66656294D01*
X180481799Y-66759529D01*
X180492460Y-66764787D01*
X180506506Y-66772897D01*
X180710460Y-66909174D01*
X180723329Y-66919048D01*
X180907749Y-67080781D01*
X180919218Y-67092250D01*
X181080951Y-67276670D01*
X181090825Y-67289539D01*
X181227102Y-67493493D01*
X181235212Y-67507539D01*
X181343702Y-67727534D01*
X181349909Y-67742520D01*
X181428756Y-67974797D01*
X181432954Y-67990464D01*
X181480807Y-68231035D01*
X181482925Y-68247116D01*
X181499235Y-68495956D01*
X181499500Y-68504066D01*
X181499500Y-153495933D01*
X181499235Y-153504043D01*
X181482925Y-153752883D01*
X181480807Y-153768964D01*
X181432954Y-154009535D01*
X181428756Y-154025202D01*
X181349909Y-154257479D01*
X181343702Y-154272465D01*
X181235212Y-154492460D01*
X181227102Y-154506506D01*
X181090825Y-154710460D01*
X181080951Y-154723329D01*
X180919218Y-154907749D01*
X180907749Y-154919218D01*
X180723329Y-155080951D01*
X180710460Y-155090825D01*
X180506506Y-155227102D01*
X180492460Y-155235212D01*
X180272465Y-155343702D01*
X180257479Y-155349909D01*
X180025202Y-155428756D01*
X180009535Y-155432954D01*
X179768964Y-155480807D01*
X179752883Y-155482925D01*
X179504043Y-155499235D01*
X179495933Y-155499500D01*
X84504067Y-155499500D01*
X84495957Y-155499235D01*
X84247116Y-155482925D01*
X84231035Y-155480807D01*
X83990464Y-155432954D01*
X83974797Y-155428756D01*
X83742520Y-155349909D01*
X83727534Y-155343702D01*
X83507539Y-155235212D01*
X83493493Y-155227102D01*
X83289539Y-155090825D01*
X83276670Y-155080951D01*
X83092250Y-154919218D01*
X83080781Y-154907749D01*
X82919048Y-154723329D01*
X82909174Y-154710460D01*
X82772897Y-154506506D01*
X82764787Y-154492460D01*
X82658855Y-154277652D01*
X82656294Y-154272458D01*
X82650090Y-154257479D01*
X82571243Y-154025202D01*
X82567045Y-154009535D01*
X82559186Y-153970026D01*
X82519190Y-153768953D01*
X82517075Y-153752895D01*
X82500765Y-153504043D01*
X82500500Y-153495933D01*
X82500500Y-127827135D01*
X85149500Y-127827135D01*
X85149500Y-129622870D01*
X85149501Y-129622876D01*
X85155908Y-129682483D01*
X85206202Y-129817328D01*
X85206206Y-129817335D01*
X85292452Y-129932544D01*
X85292455Y-129932547D01*
X85407664Y-130018793D01*
X85407671Y-130018797D01*
X85539082Y-130067810D01*
X85595016Y-130109681D01*
X85619433Y-130175145D01*
X85604582Y-130243418D01*
X85583431Y-130271673D01*
X85469889Y-130385215D01*
X85344951Y-130557179D01*
X85248444Y-130746585D01*
X85182753Y-130948760D01*
X85149500Y-131158713D01*
X85149500Y-131371287D01*
X85155265Y-131407684D01*
X85178754Y-131555992D01*
X85182754Y-131581243D01*
X85242926Y-131766433D01*
X85248444Y-131783414D01*
X85344951Y-131972820D01*
X85469890Y-132144786D01*
X85620213Y-132295109D01*
X85792179Y-132420048D01*
X85792181Y-132420049D01*
X85792184Y-132420051D01*
X85981588Y-132516557D01*
X86183757Y-132582246D01*
X86393713Y-132615500D01*
X86393714Y-132615500D01*
X86606286Y-132615500D01*
X86606287Y-132615500D01*
X86816243Y-132582246D01*
X87018412Y-132516557D01*
X87207816Y-132420051D01*
X87322924Y-132336421D01*
X87379786Y-132295109D01*
X87379788Y-132295106D01*
X87379792Y-132295104D01*
X87530104Y-132144792D01*
X87530106Y-132144788D01*
X87530109Y-132144786D01*
X87657915Y-131968875D01*
X87659259Y-131969851D01*
X87705705Y-131927834D01*
X87759618Y-131915500D01*
X89862439Y-131915500D01*
X89929478Y-131935185D01*
X89951605Y-131954497D01*
X89952038Y-131954065D01*
X89955483Y-131957510D01*
X90122490Y-132124517D01*
X90157127Y-132149683D01*
X90199792Y-132205013D01*
X90205771Y-132274626D01*
X90173165Y-132336421D01*
X90157130Y-132350315D01*
X90139365Y-132363222D01*
X90122488Y-132375484D01*
X89955485Y-132542487D01*
X89955485Y-132542488D01*
X89955483Y-132542490D01*
X89902438Y-132615500D01*
X89816657Y-132733566D01*
X89709433Y-132944003D01*
X89636446Y-133168631D01*
X89599500Y-133401902D01*
X89599500Y-133638097D01*
X89636446Y-133871368D01*
X89709433Y-134095996D01*
X89797231Y-134268307D01*
X89816657Y-134306433D01*
X89955483Y-134497510D01*
X90122490Y-134664517D01*
X90157127Y-134689683D01*
X90199792Y-134745013D01*
X90205771Y-134814626D01*
X90173165Y-134876421D01*
X90157130Y-134890315D01*
X90139365Y-134903222D01*
X90122488Y-134915484D01*
X89955485Y-135082487D01*
X89955485Y-135082488D01*
X89955483Y-135082490D01*
X89942751Y-135100014D01*
X89816657Y-135273566D01*
X89709433Y-135484003D01*
X89636446Y-135708631D01*
X89599500Y-135941902D01*
X89599500Y-136178097D01*
X89636446Y-136411368D01*
X89709433Y-136635996D01*
X89794890Y-136803713D01*
X89816657Y-136846433D01*
X89955483Y-137037510D01*
X90122490Y-137204517D01*
X90313567Y-137343343D01*
X90412991Y-137394002D01*
X90524003Y-137450566D01*
X90524005Y-137450566D01*
X90524008Y-137450568D01*
X90644412Y-137489689D01*
X90748631Y-137523553D01*
X90981903Y-137560500D01*
X91015708Y-137560500D01*
X91082747Y-137580185D01*
X91128502Y-137632989D01*
X91138446Y-137702147D01*
X91109421Y-137765703D01*
X91050643Y-137803477D01*
X91047835Y-137804265D01*
X90991366Y-137819396D01*
X90956112Y-137828842D01*
X90744123Y-137916650D01*
X90744109Y-137916657D01*
X90545382Y-138031392D01*
X90363338Y-138171081D01*
X90201081Y-138333338D01*
X90061392Y-138515382D01*
X89946657Y-138714109D01*
X89946650Y-138714123D01*
X89858842Y-138926112D01*
X89799453Y-139147759D01*
X89799451Y-139147770D01*
X89769500Y-139375258D01*
X89769500Y-139604741D01*
X89794446Y-139794215D01*
X89799452Y-139832238D01*
X89799453Y-139832240D01*
X89858842Y-140053887D01*
X89946650Y-140265876D01*
X89946657Y-140265890D01*
X90061392Y-140464617D01*
X90201081Y-140646661D01*
X90201089Y-140646670D01*
X90363330Y-140808911D01*
X90363338Y-140808918D01*
X90545382Y-140948607D01*
X90545385Y-140948608D01*
X90545388Y-140948611D01*
X90744112Y-141063344D01*
X90744117Y-141063346D01*
X90744123Y-141063349D01*
X90835480Y-141101190D01*
X90956113Y-141151158D01*
X91177762Y-141210548D01*
X91405266Y-141240500D01*
X91405273Y-141240500D01*
X91634727Y-141240500D01*
X91634734Y-141240500D01*
X91862238Y-141210548D01*
X92083887Y-141151158D01*
X92295888Y-141063344D01*
X92494612Y-140948611D01*
X92676661Y-140808919D01*
X92676665Y-140808914D01*
X92676670Y-140808911D01*
X92838911Y-140646670D01*
X92838914Y-140646665D01*
X92838919Y-140646661D01*
X92978611Y-140464612D01*
X93093344Y-140265888D01*
X93181158Y-140053887D01*
X93240548Y-139832238D01*
X93270500Y-139604734D01*
X93270500Y-139375266D01*
X93240548Y-139147762D01*
X93181158Y-138926113D01*
X93093344Y-138714112D01*
X92978611Y-138515388D01*
X92978608Y-138515385D01*
X92978607Y-138515382D01*
X92838918Y-138333338D01*
X92838911Y-138333330D01*
X92676670Y-138171089D01*
X92676661Y-138171081D01*
X92494617Y-138031392D01*
X92295890Y-137916657D01*
X92295876Y-137916650D01*
X92083887Y-137828842D01*
X91862238Y-137769452D01*
X91824215Y-137764446D01*
X91634741Y-137739500D01*
X91634734Y-137739500D01*
X91569657Y-137739500D01*
X91502618Y-137719815D01*
X91456863Y-137667011D01*
X91446919Y-137597853D01*
X91475944Y-137534297D01*
X91531338Y-137497569D01*
X91675992Y-137450568D01*
X91886433Y-137343343D01*
X92077510Y-137204517D01*
X92244517Y-137037510D01*
X92383343Y-136846433D01*
X92490568Y-136635992D01*
X92563553Y-136411368D01*
X92573273Y-136350000D01*
X92600500Y-136178097D01*
X92600500Y-135941902D01*
X92567189Y-135731592D01*
X92563553Y-135708632D01*
X92539888Y-135635802D01*
X92537894Y-135565963D01*
X92570137Y-135509807D01*
X97945877Y-130134069D01*
X98017066Y-130027526D01*
X98053113Y-129940500D01*
X98066101Y-129909144D01*
X98080753Y-129835484D01*
X98091100Y-129783471D01*
X98091100Y-121183008D01*
X98110785Y-121115969D01*
X98163589Y-121070214D01*
X98232747Y-121060270D01*
X98296303Y-121089295D01*
X98302781Y-121095327D01*
X111995773Y-134788319D01*
X112029258Y-134849642D01*
X112024274Y-134919334D01*
X111982402Y-134975267D01*
X111916938Y-134999684D01*
X111908092Y-135000000D01*
X94890000Y-135000000D01*
X94890000Y-141490000D01*
X112580000Y-141490000D01*
X112580000Y-141017307D01*
X112599685Y-140950268D01*
X112652489Y-140904513D01*
X112721647Y-140894569D01*
X112785203Y-140923594D01*
X112791681Y-140929626D01*
X114378424Y-142516369D01*
X114454383Y-142592328D01*
X114469032Y-142606977D01*
X114575566Y-142678161D01*
X114575572Y-142678164D01*
X114575573Y-142678165D01*
X114693956Y-142727201D01*
X114693960Y-142727201D01*
X114693961Y-142727202D01*
X114819628Y-142752200D01*
X114819631Y-142752200D01*
X120050871Y-142752200D01*
X120135415Y-142735382D01*
X120176544Y-142727201D01*
X120294927Y-142678165D01*
X120329520Y-142655051D01*
X120401469Y-142606977D01*
X125937821Y-137070623D01*
X125999142Y-137037140D01*
X126068834Y-137042124D01*
X126124767Y-137083996D01*
X126149184Y-137149460D01*
X126149500Y-137158306D01*
X126149500Y-137807870D01*
X126149501Y-137807876D01*
X126155908Y-137867483D01*
X126206202Y-138002328D01*
X126206206Y-138002335D01*
X126292452Y-138117544D01*
X126292455Y-138117547D01*
X126407664Y-138203793D01*
X126407671Y-138203797D01*
X126542517Y-138254091D01*
X126542516Y-138254091D01*
X126549444Y-138254835D01*
X126602127Y-138260500D01*
X128397872Y-138260499D01*
X128457483Y-138254091D01*
X128592331Y-138203796D01*
X128707546Y-138117546D01*
X128793796Y-138002331D01*
X128799318Y-137987525D01*
X128841188Y-137931593D01*
X128906652Y-137907175D01*
X128974925Y-137922026D01*
X129024331Y-137971430D01*
X129039500Y-138030859D01*
X129039500Y-140379140D01*
X129019815Y-140446179D01*
X128967011Y-140491934D01*
X128897853Y-140501878D01*
X128834297Y-140472853D01*
X128799318Y-140422473D01*
X128793797Y-140407671D01*
X128793793Y-140407664D01*
X128707547Y-140292455D01*
X128707544Y-140292452D01*
X128592335Y-140206206D01*
X128592328Y-140206202D01*
X128457482Y-140155908D01*
X128457483Y-140155908D01*
X128397883Y-140149501D01*
X128397881Y-140149500D01*
X128397873Y-140149500D01*
X128397864Y-140149500D01*
X126602129Y-140149500D01*
X126602123Y-140149501D01*
X126542516Y-140155908D01*
X126407671Y-140206202D01*
X126407664Y-140206206D01*
X126292455Y-140292452D01*
X126292452Y-140292455D01*
X126206206Y-140407664D01*
X126206202Y-140407671D01*
X126155908Y-140542517D01*
X126149501Y-140602116D01*
X126149500Y-140602135D01*
X126149500Y-142397870D01*
X126149501Y-142397876D01*
X126155908Y-142457483D01*
X126206202Y-142592328D01*
X126206206Y-142592335D01*
X126292452Y-142707544D01*
X126292455Y-142707547D01*
X126407664Y-142793793D01*
X126407671Y-142793797D01*
X126542517Y-142844091D01*
X126542516Y-142844091D01*
X126549444Y-142844835D01*
X126602127Y-142850500D01*
X128397872Y-142850499D01*
X128457483Y-142844091D01*
X128592331Y-142793796D01*
X128707546Y-142707546D01*
X128793796Y-142592331D01*
X128842810Y-142460916D01*
X128884681Y-142404984D01*
X128950145Y-142380566D01*
X129018418Y-142395417D01*
X129046673Y-142416569D01*
X129160213Y-142530109D01*
X129332179Y-142655048D01*
X129332181Y-142655049D01*
X129332184Y-142655051D01*
X129521588Y-142751557D01*
X129723757Y-142817246D01*
X129933713Y-142850500D01*
X129933714Y-142850500D01*
X130146286Y-142850500D01*
X130146287Y-142850500D01*
X130356243Y-142817246D01*
X130558412Y-142751557D01*
X130747816Y-142655051D01*
X130813986Y-142606976D01*
X130919786Y-142530109D01*
X130919788Y-142530106D01*
X130919792Y-142530104D01*
X131070104Y-142379792D01*
X131070106Y-142379788D01*
X131070109Y-142379786D01*
X131195048Y-142207820D01*
X131195047Y-142207820D01*
X131195051Y-142207816D01*
X131291557Y-142018412D01*
X131357246Y-141816243D01*
X131390500Y-141606287D01*
X131390500Y-141393713D01*
X131357246Y-141183757D01*
X131291557Y-140981588D01*
X131195051Y-140792184D01*
X131195049Y-140792181D01*
X131195048Y-140792179D01*
X131067241Y-140616266D01*
X131068108Y-140615635D01*
X131041641Y-140556581D01*
X131040500Y-140539800D01*
X131040500Y-137870199D01*
X131060185Y-137803160D01*
X131069471Y-137790664D01*
X131195048Y-137617820D01*
X131195047Y-137617820D01*
X131195051Y-137617816D01*
X131291557Y-137428412D01*
X131357246Y-137226243D01*
X131390500Y-137016287D01*
X131390500Y-136803713D01*
X131357246Y-136593757D01*
X131291557Y-136391588D01*
X131291554Y-136391582D01*
X131291146Y-136390780D01*
X131291145Y-136390779D01*
X131264532Y-136338549D01*
X158799500Y-136338549D01*
X158799500Y-136561450D01*
X158799501Y-136561466D01*
X158828594Y-136782452D01*
X158828595Y-136782457D01*
X158828596Y-136782463D01*
X158886290Y-136997780D01*
X158886293Y-136997790D01*
X158928624Y-137099985D01*
X158971595Y-137203726D01*
X159083052Y-137396774D01*
X159083057Y-137396780D01*
X159083058Y-137396782D01*
X159218751Y-137573622D01*
X159218757Y-137573629D01*
X159376370Y-137731242D01*
X159376377Y-137731248D01*
X159476241Y-137807876D01*
X159553226Y-137866948D01*
X159746274Y-137978405D01*
X159952219Y-138063710D01*
X160167537Y-138121404D01*
X160388543Y-138150500D01*
X160388550Y-138150500D01*
X160611450Y-138150500D01*
X160611457Y-138150500D01*
X160832463Y-138121404D01*
X161047781Y-138063710D01*
X161253726Y-137978405D01*
X161446774Y-137866948D01*
X161623624Y-137731247D01*
X161781247Y-137573624D01*
X161916948Y-137396774D01*
X162028405Y-137203726D01*
X162113710Y-136997781D01*
X162171404Y-136782463D01*
X162200500Y-136561457D01*
X162200500Y-136338543D01*
X162171404Y-136117537D01*
X162113710Y-135902219D01*
X162099705Y-135868409D01*
X162028406Y-135696277D01*
X162028405Y-135696274D01*
X161916948Y-135503226D01*
X161851439Y-135417853D01*
X161781248Y-135326377D01*
X161781242Y-135326370D01*
X161623629Y-135168757D01*
X161623622Y-135168751D01*
X161446782Y-135033058D01*
X161446780Y-135033057D01*
X161446774Y-135033052D01*
X161253726Y-134921595D01*
X161253716Y-134921590D01*
X161173976Y-134888561D01*
X161119572Y-134844720D01*
X161097507Y-134778426D01*
X161114786Y-134710727D01*
X161165923Y-134663116D01*
X161221428Y-134650000D01*
X161499973Y-134650000D01*
X161499985Y-134649999D01*
X161602689Y-134639506D01*
X161602696Y-134639505D01*
X161769118Y-134584358D01*
X161769123Y-134584356D01*
X161918344Y-134492315D01*
X162042315Y-134368344D01*
X162134356Y-134219123D01*
X162134358Y-134219118D01*
X162189505Y-134052696D01*
X162189506Y-134052689D01*
X162199999Y-133949985D01*
X162200000Y-133949972D01*
X162200000Y-133200000D01*
X161048482Y-133200000D01*
X161059111Y-133181591D01*
X161100000Y-133028991D01*
X161100000Y-132871009D01*
X161059111Y-132718409D01*
X161048482Y-132700000D01*
X162200000Y-132700000D01*
X162200000Y-132488549D01*
X169299500Y-132488549D01*
X169299500Y-132711450D01*
X169299501Y-132711466D01*
X169328594Y-132932452D01*
X169328595Y-132932457D01*
X169328596Y-132932463D01*
X169386290Y-133147780D01*
X169386293Y-133147790D01*
X169471593Y-133353722D01*
X169471595Y-133353726D01*
X169583052Y-133546774D01*
X169583057Y-133546780D01*
X169583058Y-133546782D01*
X169718751Y-133723622D01*
X169718757Y-133723629D01*
X169876370Y-133881242D01*
X169876376Y-133881247D01*
X170053226Y-134016948D01*
X170246274Y-134128405D01*
X170246279Y-134128407D01*
X170246283Y-134128409D01*
X170326024Y-134161439D01*
X170380428Y-134205280D01*
X170402493Y-134271574D01*
X170385214Y-134339273D01*
X170334077Y-134386884D01*
X170278572Y-134400000D01*
X170000014Y-134400000D01*
X169897310Y-134410493D01*
X169897303Y-134410494D01*
X169730881Y-134465641D01*
X169730876Y-134465643D01*
X169581655Y-134557684D01*
X169457684Y-134681655D01*
X169365643Y-134830876D01*
X169365641Y-134830881D01*
X169310494Y-134997303D01*
X169310493Y-134997310D01*
X169300000Y-135100014D01*
X169300000Y-135850000D01*
X170451518Y-135850000D01*
X170440889Y-135868409D01*
X170400000Y-136021009D01*
X170400000Y-136178991D01*
X170440889Y-136331591D01*
X170451518Y-136350000D01*
X169300000Y-136350000D01*
X169300000Y-137099985D01*
X169310493Y-137202689D01*
X169310494Y-137202696D01*
X169365641Y-137369118D01*
X169365643Y-137369123D01*
X169457684Y-137518344D01*
X169581655Y-137642315D01*
X169730876Y-137734356D01*
X169730881Y-137734358D01*
X169897303Y-137789505D01*
X169897310Y-137789506D01*
X170000014Y-137799999D01*
X170000027Y-137800000D01*
X170750000Y-137800000D01*
X170750000Y-136648482D01*
X170768409Y-136659111D01*
X170921009Y-136700000D01*
X171078991Y-136700000D01*
X171231591Y-136659111D01*
X171250000Y-136648482D01*
X171250000Y-137800000D01*
X171999973Y-137800000D01*
X171999985Y-137799999D01*
X172102689Y-137789506D01*
X172102696Y-137789505D01*
X172269118Y-137734358D01*
X172269123Y-137734356D01*
X172418344Y-137642315D01*
X172542315Y-137518344D01*
X172634356Y-137369123D01*
X172634358Y-137369118D01*
X172689505Y-137202696D01*
X172689506Y-137202689D01*
X172699999Y-137099985D01*
X172700000Y-137099972D01*
X172700000Y-136350000D01*
X171548482Y-136350000D01*
X171559111Y-136331591D01*
X171600000Y-136178991D01*
X171600000Y-136021009D01*
X171559111Y-135868409D01*
X171548482Y-135850000D01*
X172700000Y-135850000D01*
X172700000Y-135100027D01*
X172699999Y-135100014D01*
X172689506Y-134997310D01*
X172689505Y-134997303D01*
X172634358Y-134830881D01*
X172634356Y-134830876D01*
X172542315Y-134681655D01*
X172418344Y-134557684D01*
X172269123Y-134465643D01*
X172269118Y-134465641D01*
X172102696Y-134410494D01*
X172102689Y-134410493D01*
X171999985Y-134400000D01*
X171721428Y-134400000D01*
X171654389Y-134380315D01*
X171608634Y-134327511D01*
X171598690Y-134258353D01*
X171627715Y-134194797D01*
X171673976Y-134161439D01*
X171753716Y-134128409D01*
X171753714Y-134128409D01*
X171753726Y-134128405D01*
X171946774Y-134016948D01*
X172123624Y-133881247D01*
X172281247Y-133723624D01*
X172416948Y-133546774D01*
X172528405Y-133353726D01*
X172613710Y-133147781D01*
X172671404Y-132932463D01*
X172700500Y-132711457D01*
X172700500Y-132488543D01*
X172671404Y-132267537D01*
X172613710Y-132052219D01*
X172528405Y-131846274D01*
X172416948Y-131653226D01*
X172281247Y-131476376D01*
X172281242Y-131476370D01*
X172123629Y-131318757D01*
X172123622Y-131318751D01*
X171946782Y-131183058D01*
X171946780Y-131183057D01*
X171946774Y-131183052D01*
X171753726Y-131071595D01*
X171753722Y-131071593D01*
X171547790Y-130986293D01*
X171547783Y-130986291D01*
X171547781Y-130986290D01*
X171332463Y-130928596D01*
X171332457Y-130928595D01*
X171332452Y-130928594D01*
X171111466Y-130899501D01*
X171111463Y-130899500D01*
X171111457Y-130899500D01*
X170888543Y-130899500D01*
X170888537Y-130899500D01*
X170888533Y-130899501D01*
X170667547Y-130928594D01*
X170667540Y-130928595D01*
X170667537Y-130928596D01*
X170514877Y-130969501D01*
X170452219Y-130986290D01*
X170452209Y-130986293D01*
X170246277Y-131071593D01*
X170246273Y-131071595D01*
X170053226Y-131183052D01*
X170053217Y-131183058D01*
X169876377Y-131318751D01*
X169876370Y-131318757D01*
X169718757Y-131476370D01*
X169718751Y-131476377D01*
X169583058Y-131653217D01*
X169583052Y-131653226D01*
X169471595Y-131846273D01*
X169471593Y-131846277D01*
X169386293Y-132052209D01*
X169386290Y-132052219D01*
X169366919Y-132124515D01*
X169328597Y-132267534D01*
X169328594Y-132267547D01*
X169299501Y-132488533D01*
X169299500Y-132488549D01*
X162200000Y-132488549D01*
X162200000Y-131950027D01*
X162199999Y-131950014D01*
X162189506Y-131847310D01*
X162189505Y-131847303D01*
X162134358Y-131680881D01*
X162134356Y-131680876D01*
X162042315Y-131531655D01*
X161918344Y-131407684D01*
X161769123Y-131315643D01*
X161769118Y-131315641D01*
X161602696Y-131260494D01*
X161602689Y-131260493D01*
X161499985Y-131250000D01*
X160750000Y-131250000D01*
X160750000Y-132401517D01*
X160731591Y-132390889D01*
X160578991Y-132350000D01*
X160421009Y-132350000D01*
X160268409Y-132390889D01*
X160250000Y-132401517D01*
X160250000Y-131250000D01*
X159500014Y-131250000D01*
X159397310Y-131260493D01*
X159397303Y-131260494D01*
X159230881Y-131315641D01*
X159230876Y-131315643D01*
X159081655Y-131407684D01*
X158957684Y-131531655D01*
X158865643Y-131680876D01*
X158865641Y-131680881D01*
X158810494Y-131847303D01*
X158810493Y-131847310D01*
X158800000Y-131950014D01*
X158800000Y-132700000D01*
X159951518Y-132700000D01*
X159940889Y-132718409D01*
X159900000Y-132871009D01*
X159900000Y-133028991D01*
X159940889Y-133181591D01*
X159951518Y-133200000D01*
X158800000Y-133200000D01*
X158800000Y-133949985D01*
X158810493Y-134052689D01*
X158810494Y-134052696D01*
X158865641Y-134219118D01*
X158865643Y-134219123D01*
X158957684Y-134368344D01*
X159081655Y-134492315D01*
X159230876Y-134584356D01*
X159230881Y-134584358D01*
X159397303Y-134639505D01*
X159397310Y-134639506D01*
X159500014Y-134649999D01*
X159500027Y-134650000D01*
X159778572Y-134650000D01*
X159845611Y-134669685D01*
X159891366Y-134722489D01*
X159901310Y-134791647D01*
X159872285Y-134855203D01*
X159826024Y-134888561D01*
X159746283Y-134921590D01*
X159746273Y-134921595D01*
X159553226Y-135033052D01*
X159553217Y-135033058D01*
X159376377Y-135168751D01*
X159376370Y-135168757D01*
X159218757Y-135326370D01*
X159218751Y-135326377D01*
X159083058Y-135503217D01*
X159083052Y-135503226D01*
X158971595Y-135696273D01*
X158971593Y-135696277D01*
X158886293Y-135902209D01*
X158886290Y-135902219D01*
X158854461Y-136021009D01*
X158828597Y-136117534D01*
X158828594Y-136117547D01*
X158799501Y-136338533D01*
X158799500Y-136338549D01*
X131264532Y-136338549D01*
X131195048Y-136202179D01*
X131067241Y-136026266D01*
X131068108Y-136025635D01*
X131041641Y-135966581D01*
X131040500Y-135949800D01*
X131040500Y-133280199D01*
X131060185Y-133213160D01*
X131069471Y-133200664D01*
X131195048Y-133027820D01*
X131195047Y-133027820D01*
X131195051Y-133027816D01*
X131291557Y-132838412D01*
X131357246Y-132636243D01*
X131390500Y-132426287D01*
X131390500Y-132213713D01*
X131357246Y-132003757D01*
X131291557Y-131801588D01*
X131195051Y-131612184D01*
X131195049Y-131612181D01*
X131195048Y-131612179D01*
X131067241Y-131436266D01*
X131068108Y-131435635D01*
X131041641Y-131376581D01*
X131040500Y-131359800D01*
X131040500Y-128690199D01*
X131060185Y-128623160D01*
X131069471Y-128610664D01*
X131195048Y-128437820D01*
X131195047Y-128437820D01*
X131195051Y-128437816D01*
X131291557Y-128248412D01*
X131357246Y-128046243D01*
X131390500Y-127836287D01*
X131390500Y-127623713D01*
X131357246Y-127413757D01*
X131316563Y-127288549D01*
X158799500Y-127288549D01*
X158799500Y-127511450D01*
X158799501Y-127511466D01*
X158828594Y-127732452D01*
X158828595Y-127732457D01*
X158828596Y-127732463D01*
X158886290Y-127947780D01*
X158886293Y-127947790D01*
X158944632Y-128088632D01*
X158971595Y-128153726D01*
X159083052Y-128346774D01*
X159083057Y-128346780D01*
X159083058Y-128346782D01*
X159218751Y-128523622D01*
X159218757Y-128523629D01*
X159376370Y-128681242D01*
X159376377Y-128681248D01*
X159452300Y-128739505D01*
X159553226Y-128816948D01*
X159746274Y-128928405D01*
X159952219Y-129013710D01*
X160167537Y-129071404D01*
X160388543Y-129100500D01*
X160388550Y-129100500D01*
X160611450Y-129100500D01*
X160611457Y-129100500D01*
X160832463Y-129071404D01*
X161047781Y-129013710D01*
X161253726Y-128928405D01*
X161446774Y-128816948D01*
X161623624Y-128681247D01*
X161781247Y-128523624D01*
X161916948Y-128346774D01*
X162028405Y-128153726D01*
X162113710Y-127947781D01*
X162171404Y-127732463D01*
X162200500Y-127511457D01*
X162200500Y-127288543D01*
X162171404Y-127067537D01*
X162113710Y-126852219D01*
X162099705Y-126818409D01*
X162028406Y-126646277D01*
X162028405Y-126646274D01*
X161916948Y-126453226D01*
X161781247Y-126276376D01*
X161781242Y-126276370D01*
X161623629Y-126118757D01*
X161623622Y-126118751D01*
X161446782Y-125983058D01*
X161446780Y-125983057D01*
X161446774Y-125983052D01*
X161253726Y-125871595D01*
X161253716Y-125871590D01*
X161173976Y-125838561D01*
X161119572Y-125794720D01*
X161097507Y-125728426D01*
X161114786Y-125660727D01*
X161165923Y-125613116D01*
X161221428Y-125600000D01*
X161499973Y-125600000D01*
X161499985Y-125599999D01*
X161602689Y-125589506D01*
X161602696Y-125589505D01*
X161769118Y-125534358D01*
X161769123Y-125534356D01*
X161918344Y-125442315D01*
X162042315Y-125318344D01*
X162134356Y-125169123D01*
X162134358Y-125169118D01*
X162189505Y-125002696D01*
X162189506Y-125002689D01*
X162199999Y-124899985D01*
X162200000Y-124899972D01*
X162200000Y-124150000D01*
X161048482Y-124150000D01*
X161059111Y-124131591D01*
X161100000Y-123978991D01*
X161100000Y-123821009D01*
X161059111Y-123668409D01*
X161048482Y-123650000D01*
X162200000Y-123650000D01*
X162200000Y-123438549D01*
X169299500Y-123438549D01*
X169299500Y-123661450D01*
X169299501Y-123661466D01*
X169328594Y-123882452D01*
X169328595Y-123882457D01*
X169328596Y-123882463D01*
X169386210Y-124097483D01*
X169386290Y-124097780D01*
X169386293Y-124097790D01*
X169471593Y-124303722D01*
X169471595Y-124303726D01*
X169583052Y-124496774D01*
X169583057Y-124496780D01*
X169583058Y-124496782D01*
X169718751Y-124673622D01*
X169718757Y-124673629D01*
X169876370Y-124831242D01*
X169876376Y-124831247D01*
X170053226Y-124966948D01*
X170246274Y-125078405D01*
X170246279Y-125078407D01*
X170246283Y-125078409D01*
X170326024Y-125111439D01*
X170380428Y-125155280D01*
X170402493Y-125221574D01*
X170385214Y-125289273D01*
X170334077Y-125336884D01*
X170278572Y-125350000D01*
X170000014Y-125350000D01*
X169897310Y-125360493D01*
X169897303Y-125360494D01*
X169730881Y-125415641D01*
X169730876Y-125415643D01*
X169581655Y-125507684D01*
X169457684Y-125631655D01*
X169365643Y-125780876D01*
X169365641Y-125780881D01*
X169310494Y-125947303D01*
X169310493Y-125947310D01*
X169300000Y-126050014D01*
X169300000Y-126800000D01*
X170451518Y-126800000D01*
X170440889Y-126818409D01*
X170400000Y-126971009D01*
X170400000Y-127128991D01*
X170440889Y-127281591D01*
X170451518Y-127300000D01*
X169300000Y-127300000D01*
X169300000Y-128049985D01*
X169310493Y-128152689D01*
X169310494Y-128152696D01*
X169365641Y-128319118D01*
X169365643Y-128319123D01*
X169457684Y-128468344D01*
X169581655Y-128592315D01*
X169730876Y-128684356D01*
X169730881Y-128684358D01*
X169897303Y-128739505D01*
X169897310Y-128739506D01*
X170000014Y-128749999D01*
X170000027Y-128750000D01*
X170750000Y-128750000D01*
X170750000Y-127598482D01*
X170768409Y-127609111D01*
X170921009Y-127650000D01*
X171078991Y-127650000D01*
X171231591Y-127609111D01*
X171250000Y-127598482D01*
X171250000Y-128750000D01*
X171999973Y-128750000D01*
X171999985Y-128749999D01*
X172102689Y-128739506D01*
X172102696Y-128739505D01*
X172269118Y-128684358D01*
X172269123Y-128684356D01*
X172418344Y-128592315D01*
X172542315Y-128468344D01*
X172634356Y-128319123D01*
X172634358Y-128319118D01*
X172689505Y-128152696D01*
X172689506Y-128152689D01*
X172699999Y-128049985D01*
X172700000Y-128049972D01*
X172700000Y-127300000D01*
X171548482Y-127300000D01*
X171559111Y-127281591D01*
X171600000Y-127128991D01*
X171600000Y-126971009D01*
X171559111Y-126818409D01*
X171548482Y-126800000D01*
X172700000Y-126800000D01*
X172700000Y-126050027D01*
X172699999Y-126050014D01*
X172689506Y-125947310D01*
X172689505Y-125947303D01*
X172634358Y-125780881D01*
X172634356Y-125780876D01*
X172542315Y-125631655D01*
X172418344Y-125507684D01*
X172269123Y-125415643D01*
X172269118Y-125415641D01*
X172102696Y-125360494D01*
X172102689Y-125360493D01*
X171999985Y-125350000D01*
X171721428Y-125350000D01*
X171654389Y-125330315D01*
X171608634Y-125277511D01*
X171598690Y-125208353D01*
X171627715Y-125144797D01*
X171673976Y-125111439D01*
X171753716Y-125078409D01*
X171753714Y-125078409D01*
X171753726Y-125078405D01*
X171946774Y-124966948D01*
X172123624Y-124831247D01*
X172281247Y-124673624D01*
X172416948Y-124496774D01*
X172528405Y-124303726D01*
X172613710Y-124097781D01*
X172671404Y-123882463D01*
X172700500Y-123661457D01*
X172700500Y-123438543D01*
X172671404Y-123217537D01*
X172613710Y-123002219D01*
X172586200Y-122935805D01*
X172539789Y-122823757D01*
X172528405Y-122796274D01*
X172416948Y-122603226D01*
X172281247Y-122426376D01*
X172281242Y-122426370D01*
X172123629Y-122268757D01*
X172123622Y-122268751D01*
X171946782Y-122133058D01*
X171946780Y-122133057D01*
X171946774Y-122133052D01*
X171753726Y-122021595D01*
X171753722Y-122021593D01*
X171547790Y-121936293D01*
X171547783Y-121936291D01*
X171547781Y-121936290D01*
X171332463Y-121878596D01*
X171332457Y-121878595D01*
X171332452Y-121878594D01*
X171111466Y-121849501D01*
X171111463Y-121849500D01*
X171111457Y-121849500D01*
X170888543Y-121849500D01*
X170888537Y-121849500D01*
X170888533Y-121849501D01*
X170667547Y-121878594D01*
X170667540Y-121878595D01*
X170667537Y-121878596D01*
X170452219Y-121936290D01*
X170452209Y-121936293D01*
X170246277Y-122021593D01*
X170246273Y-122021595D01*
X170053226Y-122133052D01*
X170053217Y-122133058D01*
X169876377Y-122268751D01*
X169876370Y-122268757D01*
X169718757Y-122426370D01*
X169718751Y-122426377D01*
X169583058Y-122603217D01*
X169583052Y-122603226D01*
X169471595Y-122796273D01*
X169471593Y-122796277D01*
X169386293Y-123002209D01*
X169386290Y-123002219D01*
X169328597Y-123217534D01*
X169328594Y-123217547D01*
X169299501Y-123438533D01*
X169299500Y-123438549D01*
X162200000Y-123438549D01*
X162200000Y-122900027D01*
X162199999Y-122900014D01*
X162189506Y-122797310D01*
X162189505Y-122797303D01*
X162134358Y-122630881D01*
X162134356Y-122630876D01*
X162042315Y-122481655D01*
X161918344Y-122357684D01*
X161769123Y-122265643D01*
X161769118Y-122265641D01*
X161602696Y-122210494D01*
X161602689Y-122210493D01*
X161499985Y-122200000D01*
X160750000Y-122200000D01*
X160750000Y-123351517D01*
X160731591Y-123340889D01*
X160578991Y-123300000D01*
X160421009Y-123300000D01*
X160268409Y-123340889D01*
X160250000Y-123351517D01*
X160250000Y-122200000D01*
X159500014Y-122200000D01*
X159397310Y-122210493D01*
X159397303Y-122210494D01*
X159230881Y-122265641D01*
X159230876Y-122265643D01*
X159081655Y-122357684D01*
X158957684Y-122481655D01*
X158865643Y-122630876D01*
X158865641Y-122630881D01*
X158810494Y-122797303D01*
X158810493Y-122797310D01*
X158800000Y-122900014D01*
X158800000Y-123650000D01*
X159951518Y-123650000D01*
X159940889Y-123668409D01*
X159900000Y-123821009D01*
X159900000Y-123978991D01*
X159940889Y-124131591D01*
X159951518Y-124150000D01*
X158800000Y-124150000D01*
X158800000Y-124899985D01*
X158810493Y-125002689D01*
X158810494Y-125002696D01*
X158865641Y-125169118D01*
X158865643Y-125169123D01*
X158957684Y-125318344D01*
X159081655Y-125442315D01*
X159230876Y-125534356D01*
X159230881Y-125534358D01*
X159397303Y-125589505D01*
X159397310Y-125589506D01*
X159500014Y-125599999D01*
X159500027Y-125600000D01*
X159778572Y-125600000D01*
X159845611Y-125619685D01*
X159891366Y-125672489D01*
X159901310Y-125741647D01*
X159872285Y-125805203D01*
X159826024Y-125838561D01*
X159746283Y-125871590D01*
X159746273Y-125871595D01*
X159553226Y-125983052D01*
X159553217Y-125983058D01*
X159376377Y-126118751D01*
X159376370Y-126118757D01*
X159218757Y-126276370D01*
X159218751Y-126276377D01*
X159083058Y-126453217D01*
X159083052Y-126453226D01*
X158971595Y-126646273D01*
X158971593Y-126646277D01*
X158886293Y-126852209D01*
X158886290Y-126852219D01*
X158854461Y-126971009D01*
X158828597Y-127067534D01*
X158828594Y-127067547D01*
X158799501Y-127288533D01*
X158799500Y-127288549D01*
X131316563Y-127288549D01*
X131291557Y-127211588D01*
X131195051Y-127022184D01*
X131195049Y-127022181D01*
X131195048Y-127022179D01*
X131067241Y-126846266D01*
X131068108Y-126845635D01*
X131041641Y-126786581D01*
X131040500Y-126769800D01*
X131040500Y-124100199D01*
X131060185Y-124033160D01*
X131069471Y-124020664D01*
X131195048Y-123847820D01*
X131195047Y-123847820D01*
X131195051Y-123847816D01*
X131291557Y-123658412D01*
X131357246Y-123456243D01*
X131390500Y-123246287D01*
X131390500Y-123033713D01*
X131390500Y-123033712D01*
X131371898Y-122916262D01*
X131357246Y-122823760D01*
X131357246Y-122823757D01*
X131291557Y-122621588D01*
X131195051Y-122432184D01*
X131195049Y-122432181D01*
X131195048Y-122432179D01*
X131067241Y-122256266D01*
X131068108Y-122255635D01*
X131041641Y-122196581D01*
X131040500Y-122179800D01*
X131040500Y-119669057D01*
X131060185Y-119602018D01*
X131091616Y-119568738D01*
X131144788Y-119530107D01*
X131144788Y-119530106D01*
X131144792Y-119530104D01*
X131295104Y-119379792D01*
X131295106Y-119379788D01*
X131295109Y-119379786D01*
X131420048Y-119207820D01*
X131420047Y-119207820D01*
X131420051Y-119207816D01*
X131516557Y-119018412D01*
X131582246Y-118816243D01*
X131615500Y-118606287D01*
X131615500Y-118393713D01*
X131582246Y-118183757D01*
X131516557Y-117981588D01*
X131469151Y-117888549D01*
X158799500Y-117888549D01*
X158799500Y-118111450D01*
X158799501Y-118111466D01*
X158828594Y-118332452D01*
X158828595Y-118332457D01*
X158828596Y-118332463D01*
X158868160Y-118480119D01*
X158886290Y-118547780D01*
X158886293Y-118547790D01*
X158967988Y-118745019D01*
X158971595Y-118753726D01*
X159083052Y-118946774D01*
X159083057Y-118946780D01*
X159083058Y-118946782D01*
X159218751Y-119123622D01*
X159218757Y-119123629D01*
X159376370Y-119281242D01*
X159376376Y-119281247D01*
X159553226Y-119416948D01*
X159746274Y-119528405D01*
X159952219Y-119613710D01*
X160167537Y-119671404D01*
X160388543Y-119700500D01*
X160388550Y-119700500D01*
X160611450Y-119700500D01*
X160611457Y-119700500D01*
X160832463Y-119671404D01*
X161047781Y-119613710D01*
X161253726Y-119528405D01*
X161446774Y-119416948D01*
X161623624Y-119281247D01*
X161781247Y-119123624D01*
X161916948Y-118946774D01*
X162028405Y-118753726D01*
X162113710Y-118547781D01*
X162171404Y-118332463D01*
X162200500Y-118111457D01*
X162200500Y-117888543D01*
X162171404Y-117667537D01*
X162113710Y-117452219D01*
X162028405Y-117246274D01*
X161916948Y-117053226D01*
X161817468Y-116923580D01*
X161781248Y-116876377D01*
X161781242Y-116876370D01*
X161623629Y-116718757D01*
X161623622Y-116718751D01*
X161446782Y-116583058D01*
X161446780Y-116583057D01*
X161446774Y-116583052D01*
X161253726Y-116471595D01*
X161253716Y-116471590D01*
X161173976Y-116438561D01*
X161119572Y-116394720D01*
X161097507Y-116328426D01*
X161114786Y-116260727D01*
X161165923Y-116213116D01*
X161221428Y-116200000D01*
X161499973Y-116200000D01*
X161499985Y-116199999D01*
X161602689Y-116189506D01*
X161602696Y-116189505D01*
X161769118Y-116134358D01*
X161769123Y-116134356D01*
X161918344Y-116042315D01*
X162042315Y-115918344D01*
X162134356Y-115769123D01*
X162134358Y-115769118D01*
X162189505Y-115602696D01*
X162189506Y-115602689D01*
X162199999Y-115499985D01*
X162200000Y-115499972D01*
X162200000Y-114750000D01*
X161048482Y-114750000D01*
X161059111Y-114731591D01*
X161100000Y-114578991D01*
X161100000Y-114421009D01*
X161091302Y-114388549D01*
X169299500Y-114388549D01*
X169299500Y-114611450D01*
X169299501Y-114611466D01*
X169328594Y-114832452D01*
X169328595Y-114832457D01*
X169328596Y-114832463D01*
X169361046Y-114953567D01*
X169386290Y-115047780D01*
X169386293Y-115047790D01*
X169468379Y-115245963D01*
X169471595Y-115253726D01*
X169583052Y-115446774D01*
X169583057Y-115446780D01*
X169583058Y-115446782D01*
X169718751Y-115623622D01*
X169718757Y-115623629D01*
X169876370Y-115781242D01*
X169876376Y-115781247D01*
X170053226Y-115916948D01*
X170246274Y-116028405D01*
X170246279Y-116028407D01*
X170246283Y-116028409D01*
X170326024Y-116061439D01*
X170380428Y-116105280D01*
X170402493Y-116171574D01*
X170385214Y-116239273D01*
X170334077Y-116286884D01*
X170278572Y-116300000D01*
X170000014Y-116300000D01*
X169897310Y-116310493D01*
X169897303Y-116310494D01*
X169730881Y-116365641D01*
X169730876Y-116365643D01*
X169581655Y-116457684D01*
X169457684Y-116581655D01*
X169365643Y-116730876D01*
X169365641Y-116730881D01*
X169310494Y-116897303D01*
X169310493Y-116897310D01*
X169300000Y-117000014D01*
X169300000Y-117750000D01*
X170451518Y-117750000D01*
X170440889Y-117768409D01*
X170400000Y-117921009D01*
X170400000Y-118078991D01*
X170440889Y-118231591D01*
X170451518Y-118250000D01*
X169300000Y-118250000D01*
X169300000Y-118999985D01*
X169310493Y-119102689D01*
X169310494Y-119102696D01*
X169365641Y-119269118D01*
X169365643Y-119269123D01*
X169457684Y-119418344D01*
X169581655Y-119542315D01*
X169730876Y-119634356D01*
X169730881Y-119634358D01*
X169897303Y-119689505D01*
X169897310Y-119689506D01*
X170000014Y-119699999D01*
X170000027Y-119700000D01*
X170750000Y-119700000D01*
X170750000Y-118548482D01*
X170768409Y-118559111D01*
X170921009Y-118600000D01*
X171078991Y-118600000D01*
X171231591Y-118559111D01*
X171250000Y-118548482D01*
X171250000Y-119700000D01*
X171999973Y-119700000D01*
X171999985Y-119699999D01*
X172102689Y-119689506D01*
X172102696Y-119689505D01*
X172269118Y-119634358D01*
X172269123Y-119634356D01*
X172418344Y-119542315D01*
X172542315Y-119418344D01*
X172634356Y-119269123D01*
X172634358Y-119269118D01*
X172689505Y-119102696D01*
X172689506Y-119102689D01*
X172699999Y-118999985D01*
X172700000Y-118999972D01*
X172700000Y-118250000D01*
X171548482Y-118250000D01*
X171559111Y-118231591D01*
X171600000Y-118078991D01*
X171600000Y-117921009D01*
X171559111Y-117768409D01*
X171548482Y-117750000D01*
X172700000Y-117750000D01*
X172700000Y-117000027D01*
X172699999Y-117000014D01*
X172689506Y-116897310D01*
X172689505Y-116897303D01*
X172634358Y-116730881D01*
X172634356Y-116730876D01*
X172542315Y-116581655D01*
X172418344Y-116457684D01*
X172269123Y-116365643D01*
X172269118Y-116365641D01*
X172102696Y-116310494D01*
X172102689Y-116310493D01*
X171999985Y-116300000D01*
X171721428Y-116300000D01*
X171654389Y-116280315D01*
X171608634Y-116227511D01*
X171598690Y-116158353D01*
X171627715Y-116094797D01*
X171673976Y-116061439D01*
X171753716Y-116028409D01*
X171753714Y-116028409D01*
X171753726Y-116028405D01*
X171946774Y-115916948D01*
X172123624Y-115781247D01*
X172281247Y-115623624D01*
X172416948Y-115446774D01*
X172528405Y-115253726D01*
X172613710Y-115047781D01*
X172671404Y-114832463D01*
X172700500Y-114611457D01*
X172700500Y-114388543D01*
X172671404Y-114167537D01*
X172613710Y-113952219D01*
X172528405Y-113746274D01*
X172416948Y-113553226D01*
X172281247Y-113376376D01*
X172281242Y-113376370D01*
X172123629Y-113218757D01*
X172123622Y-113218751D01*
X171946782Y-113083058D01*
X171946780Y-113083057D01*
X171946774Y-113083052D01*
X171753726Y-112971595D01*
X171753722Y-112971593D01*
X171547790Y-112886293D01*
X171547783Y-112886291D01*
X171547781Y-112886290D01*
X171332463Y-112828596D01*
X171332457Y-112828595D01*
X171332452Y-112828594D01*
X171111466Y-112799501D01*
X171111463Y-112799500D01*
X171111457Y-112799500D01*
X170888543Y-112799500D01*
X170888537Y-112799500D01*
X170888533Y-112799501D01*
X170667547Y-112828594D01*
X170667540Y-112828595D01*
X170667537Y-112828596D01*
X170529275Y-112865643D01*
X170452219Y-112886290D01*
X170452209Y-112886293D01*
X170246277Y-112971593D01*
X170246273Y-112971595D01*
X170053226Y-113083052D01*
X170053217Y-113083058D01*
X169876377Y-113218751D01*
X169876370Y-113218757D01*
X169718757Y-113376370D01*
X169718751Y-113376377D01*
X169583058Y-113553217D01*
X169583052Y-113553226D01*
X169471595Y-113746273D01*
X169471593Y-113746277D01*
X169386293Y-113952209D01*
X169386290Y-113952219D01*
X169338228Y-114131592D01*
X169328597Y-114167534D01*
X169328594Y-114167547D01*
X169299501Y-114388533D01*
X169299500Y-114388549D01*
X161091302Y-114388549D01*
X161059111Y-114268409D01*
X161048482Y-114250000D01*
X162200000Y-114250000D01*
X162200000Y-113500027D01*
X162199999Y-113500014D01*
X162189506Y-113397310D01*
X162189505Y-113397303D01*
X162134358Y-113230881D01*
X162134356Y-113230876D01*
X162042315Y-113081655D01*
X161918344Y-112957684D01*
X161769123Y-112865643D01*
X161769118Y-112865641D01*
X161602696Y-112810494D01*
X161602689Y-112810493D01*
X161499985Y-112800000D01*
X160750000Y-112800000D01*
X160750000Y-113951517D01*
X160731591Y-113940889D01*
X160578991Y-113900000D01*
X160421009Y-113900000D01*
X160268409Y-113940889D01*
X160250000Y-113951517D01*
X160250000Y-112800000D01*
X159500014Y-112800000D01*
X159397310Y-112810493D01*
X159397303Y-112810494D01*
X159230881Y-112865641D01*
X159230876Y-112865643D01*
X159081655Y-112957684D01*
X158957684Y-113081655D01*
X158865643Y-113230876D01*
X158865641Y-113230881D01*
X158810494Y-113397303D01*
X158810493Y-113397310D01*
X158800000Y-113500014D01*
X158800000Y-114250000D01*
X159951518Y-114250000D01*
X159940889Y-114268409D01*
X159900000Y-114421009D01*
X159900000Y-114578991D01*
X159940889Y-114731591D01*
X159951518Y-114750000D01*
X158800000Y-114750000D01*
X158800000Y-115499985D01*
X158810493Y-115602689D01*
X158810494Y-115602696D01*
X158865641Y-115769118D01*
X158865643Y-115769123D01*
X158957684Y-115918344D01*
X159081655Y-116042315D01*
X159230876Y-116134356D01*
X159230881Y-116134358D01*
X159397303Y-116189505D01*
X159397310Y-116189506D01*
X159500014Y-116199999D01*
X159500027Y-116200000D01*
X159778572Y-116200000D01*
X159845611Y-116219685D01*
X159891366Y-116272489D01*
X159901310Y-116341647D01*
X159872285Y-116405203D01*
X159826024Y-116438561D01*
X159746283Y-116471590D01*
X159746273Y-116471595D01*
X159553226Y-116583052D01*
X159553217Y-116583058D01*
X159376377Y-116718751D01*
X159376370Y-116718757D01*
X159218757Y-116876370D01*
X159218751Y-116876377D01*
X159083058Y-117053217D01*
X159083052Y-117053226D01*
X158971595Y-117246273D01*
X158971593Y-117246277D01*
X158886293Y-117452209D01*
X158886290Y-117452219D01*
X158838228Y-117631592D01*
X158828597Y-117667534D01*
X158828594Y-117667547D01*
X158799501Y-117888533D01*
X158799500Y-117888549D01*
X131469151Y-117888549D01*
X131420051Y-117792184D01*
X131389403Y-117750000D01*
X131292241Y-117616266D01*
X131293108Y-117615635D01*
X131266641Y-117556581D01*
X131265500Y-117539800D01*
X131265500Y-114870199D01*
X131285185Y-114803160D01*
X131294471Y-114790664D01*
X131420048Y-114617820D01*
X131420047Y-114617820D01*
X131420051Y-114617816D01*
X131516557Y-114428412D01*
X131582246Y-114226243D01*
X131615500Y-114016287D01*
X131615500Y-113803713D01*
X131582246Y-113593757D01*
X131516557Y-113391588D01*
X131420051Y-113202184D01*
X131420049Y-113202181D01*
X131420048Y-113202179D01*
X131292241Y-113026266D01*
X131293108Y-113025635D01*
X131266641Y-112966581D01*
X131265500Y-112949800D01*
X131265500Y-110280199D01*
X131285185Y-110213160D01*
X131294471Y-110200664D01*
X131420048Y-110027820D01*
X131420047Y-110027820D01*
X131420051Y-110027816D01*
X131516557Y-109838412D01*
X131582246Y-109636243D01*
X131615500Y-109426287D01*
X131615500Y-109213713D01*
X131582246Y-109003757D01*
X131544812Y-108888549D01*
X158799500Y-108888549D01*
X158799500Y-109111450D01*
X158799501Y-109111466D01*
X158828594Y-109332452D01*
X158828595Y-109332457D01*
X158828596Y-109332463D01*
X158886290Y-109547780D01*
X158886293Y-109547790D01*
X158942087Y-109682488D01*
X158971595Y-109753726D01*
X159083052Y-109946774D01*
X159083057Y-109946780D01*
X159083058Y-109946782D01*
X159218751Y-110123622D01*
X159218757Y-110123629D01*
X159376370Y-110281242D01*
X159376377Y-110281248D01*
X159442553Y-110332026D01*
X159553226Y-110416948D01*
X159746274Y-110528405D01*
X159952219Y-110613710D01*
X160167537Y-110671404D01*
X160388543Y-110700500D01*
X160388550Y-110700500D01*
X160611450Y-110700500D01*
X160611457Y-110700500D01*
X160832463Y-110671404D01*
X161047781Y-110613710D01*
X161253726Y-110528405D01*
X161446774Y-110416948D01*
X161623624Y-110281247D01*
X161781247Y-110123624D01*
X161916948Y-109946774D01*
X162028405Y-109753726D01*
X162113710Y-109547781D01*
X162171404Y-109332463D01*
X162200500Y-109111457D01*
X162200500Y-108888543D01*
X162171404Y-108667537D01*
X162113710Y-108452219D01*
X162028405Y-108246274D01*
X161916948Y-108053226D01*
X161852703Y-107969500D01*
X161781248Y-107876377D01*
X161781242Y-107876370D01*
X161623629Y-107718757D01*
X161623622Y-107718751D01*
X161446782Y-107583058D01*
X161446780Y-107583057D01*
X161446774Y-107583052D01*
X161253726Y-107471595D01*
X161253724Y-107471594D01*
X161253716Y-107471590D01*
X161173976Y-107438561D01*
X161119572Y-107394720D01*
X161097507Y-107328426D01*
X161114786Y-107260727D01*
X161165923Y-107213116D01*
X161221428Y-107200000D01*
X161499973Y-107200000D01*
X161499985Y-107199999D01*
X161602689Y-107189506D01*
X161602696Y-107189505D01*
X161769118Y-107134358D01*
X161769123Y-107134356D01*
X161918344Y-107042315D01*
X162042315Y-106918344D01*
X162134356Y-106769123D01*
X162134358Y-106769118D01*
X162189505Y-106602696D01*
X162189506Y-106602689D01*
X162199999Y-106499985D01*
X162200000Y-106499972D01*
X162200000Y-105750000D01*
X161048482Y-105750000D01*
X161059111Y-105731591D01*
X161100000Y-105578991D01*
X161100000Y-105488549D01*
X169299500Y-105488549D01*
X169299500Y-105711450D01*
X169299501Y-105711466D01*
X169328594Y-105932452D01*
X169328595Y-105932457D01*
X169328596Y-105932463D01*
X169353069Y-106023797D01*
X169386290Y-106147780D01*
X169386293Y-106147790D01*
X169409783Y-106204499D01*
X169471595Y-106353726D01*
X169583052Y-106546774D01*
X169583057Y-106546780D01*
X169583058Y-106546782D01*
X169718751Y-106723622D01*
X169718757Y-106723629D01*
X169876370Y-106881242D01*
X169876377Y-106881248D01*
X169966392Y-106950318D01*
X170053226Y-107016948D01*
X170246274Y-107128405D01*
X170246279Y-107128407D01*
X170246283Y-107128409D01*
X170326024Y-107161439D01*
X170380428Y-107205280D01*
X170402493Y-107271574D01*
X170385214Y-107339273D01*
X170334077Y-107386884D01*
X170278572Y-107400000D01*
X170000014Y-107400000D01*
X169897310Y-107410493D01*
X169897303Y-107410494D01*
X169730881Y-107465641D01*
X169730876Y-107465643D01*
X169581655Y-107557684D01*
X169457684Y-107681655D01*
X169365643Y-107830876D01*
X169365641Y-107830881D01*
X169310494Y-107997303D01*
X169310493Y-107997310D01*
X169300000Y-108100014D01*
X169300000Y-108850000D01*
X170451518Y-108850000D01*
X170440889Y-108868409D01*
X170400000Y-109021009D01*
X170400000Y-109178991D01*
X170440889Y-109331591D01*
X170451518Y-109350000D01*
X169300000Y-109350000D01*
X169300000Y-110099985D01*
X169310493Y-110202689D01*
X169310494Y-110202696D01*
X169365641Y-110369118D01*
X169365643Y-110369123D01*
X169457684Y-110518344D01*
X169581655Y-110642315D01*
X169730876Y-110734356D01*
X169730881Y-110734358D01*
X169897303Y-110789505D01*
X169897310Y-110789506D01*
X170000014Y-110799999D01*
X170000027Y-110800000D01*
X170750000Y-110800000D01*
X170750000Y-109648482D01*
X170768409Y-109659111D01*
X170921009Y-109700000D01*
X171078991Y-109700000D01*
X171231591Y-109659111D01*
X171250000Y-109648482D01*
X171250000Y-110800000D01*
X171999973Y-110800000D01*
X171999985Y-110799999D01*
X172102689Y-110789506D01*
X172102696Y-110789505D01*
X172269118Y-110734358D01*
X172269123Y-110734356D01*
X172418344Y-110642315D01*
X172542315Y-110518344D01*
X172634356Y-110369123D01*
X172634358Y-110369118D01*
X172689505Y-110202696D01*
X172689506Y-110202689D01*
X172699999Y-110099985D01*
X172700000Y-110099972D01*
X172700000Y-109350000D01*
X171548482Y-109350000D01*
X171559111Y-109331591D01*
X171600000Y-109178991D01*
X171600000Y-109021009D01*
X171559111Y-108868409D01*
X171548482Y-108850000D01*
X172700000Y-108850000D01*
X172700000Y-108100027D01*
X172699999Y-108100014D01*
X172689506Y-107997310D01*
X172689505Y-107997303D01*
X172634358Y-107830881D01*
X172634356Y-107830876D01*
X172542315Y-107681655D01*
X172418344Y-107557684D01*
X172269123Y-107465643D01*
X172269118Y-107465641D01*
X172102696Y-107410494D01*
X172102689Y-107410493D01*
X171999985Y-107400000D01*
X171721428Y-107400000D01*
X171654389Y-107380315D01*
X171608634Y-107327511D01*
X171598690Y-107258353D01*
X171627715Y-107194797D01*
X171673976Y-107161439D01*
X171753716Y-107128409D01*
X171753714Y-107128409D01*
X171753726Y-107128405D01*
X171946774Y-107016948D01*
X172123624Y-106881247D01*
X172281247Y-106723624D01*
X172416948Y-106546774D01*
X172528405Y-106353726D01*
X172613710Y-106147781D01*
X172671404Y-105932463D01*
X172700500Y-105711457D01*
X172700500Y-105488543D01*
X172671404Y-105267537D01*
X172613710Y-105052219D01*
X172528405Y-104846274D01*
X172416948Y-104653226D01*
X172311853Y-104516263D01*
X172281248Y-104476377D01*
X172281242Y-104476370D01*
X172123629Y-104318757D01*
X172123622Y-104318751D01*
X171946782Y-104183058D01*
X171946780Y-104183057D01*
X171946774Y-104183052D01*
X171753726Y-104071595D01*
X171753722Y-104071593D01*
X171547790Y-103986293D01*
X171547783Y-103986291D01*
X171547781Y-103986290D01*
X171332463Y-103928596D01*
X171332457Y-103928595D01*
X171332452Y-103928594D01*
X171111466Y-103899501D01*
X171111463Y-103899500D01*
X171111457Y-103899500D01*
X170888543Y-103899500D01*
X170888537Y-103899500D01*
X170888533Y-103899501D01*
X170667547Y-103928594D01*
X170667540Y-103928595D01*
X170667537Y-103928596D01*
X170558979Y-103957684D01*
X170452219Y-103986290D01*
X170452209Y-103986293D01*
X170246277Y-104071593D01*
X170246273Y-104071595D01*
X170053226Y-104183052D01*
X170053217Y-104183058D01*
X169876377Y-104318751D01*
X169876370Y-104318757D01*
X169718757Y-104476370D01*
X169718751Y-104476377D01*
X169583058Y-104653217D01*
X169583052Y-104653226D01*
X169471595Y-104846273D01*
X169471593Y-104846277D01*
X169386293Y-105052209D01*
X169386290Y-105052219D01*
X169328597Y-105267534D01*
X169328594Y-105267547D01*
X169299501Y-105488533D01*
X169299500Y-105488549D01*
X161100000Y-105488549D01*
X161100000Y-105421009D01*
X161059111Y-105268409D01*
X161048482Y-105250000D01*
X162200000Y-105250000D01*
X162200000Y-104500027D01*
X162199999Y-104500014D01*
X162189506Y-104397310D01*
X162189505Y-104397303D01*
X162134358Y-104230881D01*
X162134356Y-104230876D01*
X162042315Y-104081655D01*
X161918344Y-103957684D01*
X161769123Y-103865643D01*
X161769118Y-103865641D01*
X161602696Y-103810494D01*
X161602689Y-103810493D01*
X161499985Y-103800000D01*
X160750000Y-103800000D01*
X160750000Y-104951517D01*
X160731591Y-104940889D01*
X160578991Y-104900000D01*
X160421009Y-104900000D01*
X160268409Y-104940889D01*
X160250000Y-104951517D01*
X160250000Y-103800000D01*
X159500014Y-103800000D01*
X159397310Y-103810493D01*
X159397303Y-103810494D01*
X159230881Y-103865641D01*
X159230876Y-103865643D01*
X159081655Y-103957684D01*
X158957684Y-104081655D01*
X158865643Y-104230876D01*
X158865641Y-104230881D01*
X158810494Y-104397303D01*
X158810493Y-104397310D01*
X158800000Y-104500014D01*
X158800000Y-105250000D01*
X159951518Y-105250000D01*
X159940889Y-105268409D01*
X159900000Y-105421009D01*
X159900000Y-105578991D01*
X159940889Y-105731591D01*
X159951518Y-105750000D01*
X158800000Y-105750000D01*
X158800000Y-106499985D01*
X158810493Y-106602689D01*
X158810494Y-106602696D01*
X158865641Y-106769118D01*
X158865643Y-106769123D01*
X158957684Y-106918344D01*
X159081655Y-107042315D01*
X159230876Y-107134356D01*
X159230881Y-107134358D01*
X159397303Y-107189505D01*
X159397310Y-107189506D01*
X159500014Y-107199999D01*
X159500027Y-107200000D01*
X159778572Y-107200000D01*
X159845611Y-107219685D01*
X159891366Y-107272489D01*
X159901310Y-107341647D01*
X159872285Y-107405203D01*
X159826024Y-107438561D01*
X159746283Y-107471590D01*
X159746274Y-107471594D01*
X159746274Y-107471595D01*
X159620852Y-107544008D01*
X159553226Y-107583052D01*
X159553217Y-107583058D01*
X159376377Y-107718751D01*
X159376370Y-107718757D01*
X159218757Y-107876370D01*
X159218751Y-107876377D01*
X159083058Y-108053217D01*
X159083052Y-108053226D01*
X158971595Y-108246273D01*
X158971593Y-108246277D01*
X158886293Y-108452209D01*
X158886290Y-108452219D01*
X158828597Y-108667534D01*
X158828594Y-108667547D01*
X158799501Y-108888533D01*
X158799500Y-108888549D01*
X131544812Y-108888549D01*
X131516557Y-108801588D01*
X131516555Y-108801585D01*
X131516555Y-108801583D01*
X131448253Y-108667534D01*
X131420051Y-108612184D01*
X131420049Y-108612181D01*
X131420048Y-108612179D01*
X131292241Y-108436266D01*
X131293108Y-108435635D01*
X131266641Y-108376581D01*
X131265500Y-108359800D01*
X131265500Y-105690199D01*
X131285185Y-105623160D01*
X131294471Y-105610664D01*
X131402547Y-105461908D01*
X131420051Y-105437816D01*
X131516557Y-105248412D01*
X131582246Y-105046243D01*
X131615500Y-104836287D01*
X131615500Y-104623713D01*
X131591009Y-104469084D01*
X131582247Y-104413761D01*
X131582246Y-104413760D01*
X131582246Y-104413757D01*
X131516557Y-104211588D01*
X131420051Y-104022184D01*
X131420049Y-104022181D01*
X131420048Y-104022179D01*
X131292241Y-103846266D01*
X131293108Y-103845635D01*
X131266641Y-103786581D01*
X131265500Y-103769800D01*
X131265500Y-101100199D01*
X131285185Y-101033160D01*
X131294471Y-101020664D01*
X131420048Y-100847820D01*
X131420047Y-100847820D01*
X131420051Y-100847816D01*
X131516557Y-100658412D01*
X131582246Y-100456243D01*
X131615500Y-100246287D01*
X131615500Y-100033713D01*
X131584589Y-99838549D01*
X158799500Y-99838549D01*
X158799500Y-100061450D01*
X158799501Y-100061466D01*
X158828594Y-100282452D01*
X158828595Y-100282457D01*
X158828596Y-100282463D01*
X158886290Y-100497780D01*
X158886293Y-100497790D01*
X158901171Y-100533708D01*
X158971595Y-100703726D01*
X159083052Y-100896774D01*
X159083057Y-100896780D01*
X159083058Y-100896782D01*
X159218751Y-101073622D01*
X159218757Y-101073629D01*
X159376370Y-101231242D01*
X159376377Y-101231248D01*
X159377790Y-101232332D01*
X159553226Y-101366948D01*
X159746274Y-101478405D01*
X159817810Y-101508036D01*
X159913982Y-101547872D01*
X159952219Y-101563710D01*
X160167537Y-101621404D01*
X160388543Y-101650500D01*
X160388550Y-101650500D01*
X160611450Y-101650500D01*
X160611457Y-101650500D01*
X160832463Y-101621404D01*
X161047781Y-101563710D01*
X161253726Y-101478405D01*
X161446774Y-101366948D01*
X161623624Y-101231247D01*
X161781247Y-101073624D01*
X161916948Y-100896774D01*
X162028405Y-100703726D01*
X162113710Y-100497781D01*
X162171404Y-100282463D01*
X162200500Y-100061457D01*
X162200500Y-99838543D01*
X162171404Y-99617537D01*
X162113710Y-99402219D01*
X162028405Y-99196274D01*
X161916948Y-99003226D01*
X161796463Y-98846206D01*
X161781248Y-98826377D01*
X161781242Y-98826370D01*
X161623629Y-98668757D01*
X161623622Y-98668751D01*
X161446782Y-98533058D01*
X161446780Y-98533057D01*
X161446774Y-98533052D01*
X161253726Y-98421595D01*
X161253716Y-98421590D01*
X161173976Y-98388561D01*
X161119572Y-98344720D01*
X161097507Y-98278426D01*
X161114786Y-98210727D01*
X161165923Y-98163116D01*
X161221428Y-98150000D01*
X161499973Y-98150000D01*
X161499985Y-98149999D01*
X161602689Y-98139506D01*
X161602696Y-98139505D01*
X161769118Y-98084358D01*
X161769123Y-98084356D01*
X161918344Y-97992315D01*
X162042315Y-97868344D01*
X162134356Y-97719123D01*
X162134358Y-97719118D01*
X162189505Y-97552696D01*
X162189506Y-97552689D01*
X162199999Y-97449985D01*
X162200000Y-97449972D01*
X162200000Y-96700000D01*
X161048482Y-96700000D01*
X161059111Y-96681591D01*
X161100000Y-96528991D01*
X161100000Y-96438549D01*
X169299500Y-96438549D01*
X169299500Y-96661450D01*
X169299501Y-96661466D01*
X169328594Y-96882452D01*
X169328595Y-96882457D01*
X169328596Y-96882463D01*
X169386290Y-97097780D01*
X169386293Y-97097790D01*
X169471593Y-97303722D01*
X169471595Y-97303726D01*
X169583052Y-97496774D01*
X169583057Y-97496780D01*
X169583058Y-97496782D01*
X169718751Y-97673622D01*
X169718757Y-97673629D01*
X169876370Y-97831242D01*
X169876376Y-97831247D01*
X170053226Y-97966948D01*
X170246274Y-98078405D01*
X170246279Y-98078407D01*
X170246283Y-98078409D01*
X170326024Y-98111439D01*
X170380428Y-98155280D01*
X170402493Y-98221574D01*
X170385214Y-98289273D01*
X170334077Y-98336884D01*
X170278572Y-98350000D01*
X170000014Y-98350000D01*
X169897310Y-98360493D01*
X169897303Y-98360494D01*
X169730881Y-98415641D01*
X169730876Y-98415643D01*
X169581655Y-98507684D01*
X169457684Y-98631655D01*
X169365643Y-98780876D01*
X169365641Y-98780881D01*
X169310494Y-98947303D01*
X169310493Y-98947310D01*
X169300000Y-99050014D01*
X169300000Y-99800000D01*
X170451518Y-99800000D01*
X170440889Y-99818409D01*
X170400000Y-99971009D01*
X170400000Y-100128991D01*
X170440889Y-100281591D01*
X170451518Y-100300000D01*
X169300000Y-100300000D01*
X169300000Y-101049985D01*
X169310493Y-101152689D01*
X169310494Y-101152696D01*
X169365641Y-101319118D01*
X169365643Y-101319123D01*
X169457684Y-101468344D01*
X169581655Y-101592315D01*
X169730876Y-101684356D01*
X169730881Y-101684358D01*
X169897303Y-101739505D01*
X169897310Y-101739506D01*
X170000014Y-101749999D01*
X170000027Y-101750000D01*
X170750000Y-101750000D01*
X170750000Y-100598482D01*
X170768409Y-100609111D01*
X170921009Y-100650000D01*
X171078991Y-100650000D01*
X171231591Y-100609111D01*
X171250000Y-100598482D01*
X171250000Y-101750000D01*
X171999973Y-101750000D01*
X171999985Y-101749999D01*
X172102689Y-101739506D01*
X172102696Y-101739505D01*
X172269118Y-101684358D01*
X172269123Y-101684356D01*
X172418344Y-101592315D01*
X172542315Y-101468344D01*
X172634356Y-101319123D01*
X172634358Y-101319118D01*
X172689505Y-101152696D01*
X172689506Y-101152689D01*
X172699999Y-101049985D01*
X172700000Y-101049972D01*
X172700000Y-100300000D01*
X171548482Y-100300000D01*
X171559111Y-100281591D01*
X171600000Y-100128991D01*
X171600000Y-99971009D01*
X171559111Y-99818409D01*
X171548482Y-99800000D01*
X172700000Y-99800000D01*
X172700000Y-99050027D01*
X172699999Y-99050014D01*
X172689506Y-98947310D01*
X172689505Y-98947303D01*
X172634358Y-98780881D01*
X172634356Y-98780876D01*
X172542315Y-98631655D01*
X172418344Y-98507684D01*
X172269123Y-98415643D01*
X172269118Y-98415641D01*
X172102696Y-98360494D01*
X172102689Y-98360493D01*
X171999985Y-98350000D01*
X171721428Y-98350000D01*
X171654389Y-98330315D01*
X171608634Y-98277511D01*
X171598690Y-98208353D01*
X171627715Y-98144797D01*
X171673976Y-98111439D01*
X171753716Y-98078409D01*
X171753714Y-98078409D01*
X171753726Y-98078405D01*
X171946774Y-97966948D01*
X172123624Y-97831247D01*
X172281247Y-97673624D01*
X172416948Y-97496774D01*
X172528405Y-97303726D01*
X172613710Y-97097781D01*
X172671404Y-96882463D01*
X172700500Y-96661457D01*
X172700500Y-96438543D01*
X172671404Y-96217537D01*
X172613710Y-96002219D01*
X172528405Y-95796274D01*
X172416948Y-95603226D01*
X172340623Y-95503757D01*
X172281248Y-95426377D01*
X172281242Y-95426370D01*
X172123629Y-95268757D01*
X172123622Y-95268751D01*
X171946782Y-95133058D01*
X171946780Y-95133057D01*
X171946774Y-95133052D01*
X171753726Y-95021595D01*
X171753722Y-95021593D01*
X171547790Y-94936293D01*
X171547783Y-94936291D01*
X171547781Y-94936290D01*
X171332463Y-94878596D01*
X171332457Y-94878595D01*
X171332452Y-94878594D01*
X171111466Y-94849501D01*
X171111463Y-94849500D01*
X171111457Y-94849500D01*
X170888543Y-94849500D01*
X170888537Y-94849500D01*
X170888533Y-94849501D01*
X170667547Y-94878594D01*
X170667540Y-94878595D01*
X170667537Y-94878596D01*
X170505076Y-94922127D01*
X170452219Y-94936290D01*
X170452209Y-94936293D01*
X170246277Y-95021593D01*
X170246273Y-95021595D01*
X170053226Y-95133052D01*
X170053217Y-95133058D01*
X169876377Y-95268751D01*
X169876370Y-95268757D01*
X169718757Y-95426370D01*
X169718751Y-95426377D01*
X169583058Y-95603217D01*
X169583052Y-95603226D01*
X169471595Y-95796273D01*
X169471593Y-95796277D01*
X169386293Y-96002209D01*
X169386290Y-96002219D01*
X169328597Y-96217534D01*
X169328594Y-96217547D01*
X169299501Y-96438533D01*
X169299500Y-96438549D01*
X161100000Y-96438549D01*
X161100000Y-96371009D01*
X161059111Y-96218409D01*
X161048482Y-96200000D01*
X162200000Y-96200000D01*
X162200000Y-95450027D01*
X162199999Y-95450014D01*
X162189506Y-95347310D01*
X162189505Y-95347303D01*
X162134358Y-95180881D01*
X162134356Y-95180876D01*
X162042315Y-95031655D01*
X161918344Y-94907684D01*
X161769123Y-94815643D01*
X161769118Y-94815641D01*
X161602696Y-94760494D01*
X161602689Y-94760493D01*
X161499985Y-94750000D01*
X160750000Y-94750000D01*
X160750000Y-95901517D01*
X160731591Y-95890889D01*
X160578991Y-95850000D01*
X160421009Y-95850000D01*
X160268409Y-95890889D01*
X160250000Y-95901517D01*
X160250000Y-94750000D01*
X159500014Y-94750000D01*
X159397310Y-94760493D01*
X159397303Y-94760494D01*
X159230881Y-94815641D01*
X159230876Y-94815643D01*
X159081655Y-94907684D01*
X158957684Y-95031655D01*
X158865643Y-95180876D01*
X158865641Y-95180881D01*
X158810494Y-95347303D01*
X158810493Y-95347310D01*
X158800000Y-95450014D01*
X158800000Y-96200000D01*
X159951518Y-96200000D01*
X159940889Y-96218409D01*
X159900000Y-96371009D01*
X159900000Y-96528991D01*
X159940889Y-96681591D01*
X159951518Y-96700000D01*
X158800000Y-96700000D01*
X158800000Y-97449985D01*
X158810493Y-97552689D01*
X158810494Y-97552696D01*
X158865641Y-97719118D01*
X158865643Y-97719123D01*
X158957684Y-97868344D01*
X159081655Y-97992315D01*
X159230876Y-98084356D01*
X159230881Y-98084358D01*
X159397303Y-98139505D01*
X159397310Y-98139506D01*
X159500014Y-98149999D01*
X159500027Y-98150000D01*
X159778572Y-98150000D01*
X159845611Y-98169685D01*
X159891366Y-98222489D01*
X159901310Y-98291647D01*
X159872285Y-98355203D01*
X159826024Y-98388561D01*
X159746283Y-98421590D01*
X159746273Y-98421595D01*
X159553226Y-98533052D01*
X159553217Y-98533058D01*
X159376377Y-98668751D01*
X159376370Y-98668757D01*
X159218757Y-98826370D01*
X159218751Y-98826377D01*
X159083058Y-99003217D01*
X159083052Y-99003226D01*
X158971595Y-99196273D01*
X158971593Y-99196277D01*
X158886293Y-99402209D01*
X158886290Y-99402219D01*
X158842099Y-99567145D01*
X158828597Y-99617534D01*
X158828594Y-99617547D01*
X158799501Y-99838533D01*
X158799500Y-99838549D01*
X131584589Y-99838549D01*
X131582246Y-99823757D01*
X131516557Y-99621588D01*
X131420051Y-99432184D01*
X131420049Y-99432181D01*
X131420048Y-99432179D01*
X131292241Y-99256266D01*
X131293108Y-99255635D01*
X131266641Y-99196581D01*
X131265500Y-99179800D01*
X131265500Y-97025384D01*
X131285185Y-96958345D01*
X131316615Y-96925066D01*
X131419788Y-96850107D01*
X131419788Y-96850106D01*
X131419792Y-96850104D01*
X131570104Y-96699792D01*
X131570106Y-96699788D01*
X131570109Y-96699786D01*
X131694197Y-96528991D01*
X131695051Y-96527816D01*
X131791557Y-96338412D01*
X131857246Y-96136243D01*
X131890500Y-95926287D01*
X131890500Y-95713713D01*
X131857246Y-95503757D01*
X131791557Y-95301588D01*
X131695051Y-95112184D01*
X131695049Y-95112181D01*
X131695048Y-95112179D01*
X131567241Y-94936266D01*
X131568108Y-94935635D01*
X131541641Y-94876581D01*
X131540500Y-94859800D01*
X131540500Y-92190199D01*
X131560185Y-92123160D01*
X131569471Y-92110664D01*
X131695048Y-91937820D01*
X131695047Y-91937820D01*
X131695051Y-91937816D01*
X131791557Y-91748412D01*
X131857246Y-91546243D01*
X131890500Y-91336287D01*
X131890500Y-91123713D01*
X131857246Y-90913757D01*
X131816563Y-90788549D01*
X158799500Y-90788549D01*
X158799500Y-91011450D01*
X158799501Y-91011466D01*
X158828594Y-91232452D01*
X158828595Y-91232457D01*
X158828596Y-91232463D01*
X158869023Y-91383338D01*
X158886290Y-91447780D01*
X158886293Y-91447790D01*
X158935004Y-91565388D01*
X158971595Y-91653726D01*
X159083052Y-91846774D01*
X159083057Y-91846780D01*
X159083058Y-91846782D01*
X159218751Y-92023622D01*
X159218757Y-92023629D01*
X159376370Y-92181242D01*
X159376377Y-92181248D01*
X159397895Y-92197759D01*
X159553226Y-92316948D01*
X159746274Y-92428405D01*
X159952219Y-92513710D01*
X160167537Y-92571404D01*
X160388543Y-92600500D01*
X160388550Y-92600500D01*
X160611450Y-92600500D01*
X160611457Y-92600500D01*
X160832463Y-92571404D01*
X161047781Y-92513710D01*
X161253726Y-92428405D01*
X161446774Y-92316948D01*
X161623624Y-92181247D01*
X161781247Y-92023624D01*
X161916948Y-91846774D01*
X162028405Y-91653726D01*
X162113710Y-91447781D01*
X162171404Y-91232463D01*
X162200500Y-91011457D01*
X162200500Y-90788543D01*
X162171404Y-90567537D01*
X162113710Y-90352219D01*
X162028405Y-90146274D01*
X161916948Y-89953226D01*
X161781247Y-89776376D01*
X161781242Y-89776370D01*
X161623629Y-89618757D01*
X161623622Y-89618751D01*
X161446782Y-89483058D01*
X161446780Y-89483057D01*
X161446774Y-89483052D01*
X161253726Y-89371595D01*
X161253716Y-89371590D01*
X161173976Y-89338561D01*
X161119572Y-89294720D01*
X161097507Y-89228426D01*
X161114786Y-89160727D01*
X161165923Y-89113116D01*
X161221428Y-89100000D01*
X161499973Y-89100000D01*
X161499985Y-89099999D01*
X161602689Y-89089506D01*
X161602696Y-89089505D01*
X161769118Y-89034358D01*
X161769123Y-89034356D01*
X161918344Y-88942315D01*
X162042315Y-88818344D01*
X162134356Y-88669123D01*
X162134358Y-88669118D01*
X162189505Y-88502696D01*
X162189506Y-88502689D01*
X162199999Y-88399985D01*
X162200000Y-88399972D01*
X162200000Y-87650000D01*
X161048482Y-87650000D01*
X161059111Y-87631591D01*
X161100000Y-87478991D01*
X161100000Y-87388549D01*
X169299500Y-87388549D01*
X169299500Y-87611450D01*
X169299501Y-87611466D01*
X169328594Y-87832452D01*
X169328595Y-87832457D01*
X169328596Y-87832463D01*
X169362531Y-87959111D01*
X169386290Y-88047780D01*
X169386293Y-88047790D01*
X169471593Y-88253722D01*
X169471595Y-88253726D01*
X169583052Y-88446774D01*
X169583057Y-88446780D01*
X169583058Y-88446782D01*
X169718751Y-88623622D01*
X169718757Y-88623629D01*
X169876370Y-88781242D01*
X169876376Y-88781247D01*
X170053226Y-88916948D01*
X170246274Y-89028405D01*
X170246279Y-89028407D01*
X170246283Y-89028409D01*
X170326024Y-89061439D01*
X170380428Y-89105280D01*
X170402493Y-89171574D01*
X170385214Y-89239273D01*
X170334077Y-89286884D01*
X170278572Y-89300000D01*
X170000014Y-89300000D01*
X169897310Y-89310493D01*
X169897303Y-89310494D01*
X169730881Y-89365641D01*
X169730876Y-89365643D01*
X169581655Y-89457684D01*
X169457684Y-89581655D01*
X169365643Y-89730876D01*
X169365641Y-89730881D01*
X169310494Y-89897303D01*
X169310493Y-89897310D01*
X169300000Y-90000014D01*
X169300000Y-90750000D01*
X170451518Y-90750000D01*
X170440889Y-90768409D01*
X170400000Y-90921009D01*
X170400000Y-91078991D01*
X170440889Y-91231591D01*
X170451518Y-91250000D01*
X169300000Y-91250000D01*
X169300000Y-91999985D01*
X169310493Y-92102689D01*
X169310494Y-92102696D01*
X169365641Y-92269118D01*
X169365643Y-92269123D01*
X169457684Y-92418344D01*
X169581655Y-92542315D01*
X169730876Y-92634356D01*
X169730881Y-92634358D01*
X169897303Y-92689505D01*
X169897310Y-92689506D01*
X170000014Y-92699999D01*
X170000027Y-92700000D01*
X170750000Y-92700000D01*
X170750000Y-91548482D01*
X170768409Y-91559111D01*
X170921009Y-91600000D01*
X171078991Y-91600000D01*
X171231591Y-91559111D01*
X171250000Y-91548482D01*
X171250000Y-92700000D01*
X171999973Y-92700000D01*
X171999985Y-92699999D01*
X172102689Y-92689506D01*
X172102696Y-92689505D01*
X172269118Y-92634358D01*
X172269123Y-92634356D01*
X172418344Y-92542315D01*
X172542315Y-92418344D01*
X172634356Y-92269123D01*
X172634358Y-92269118D01*
X172689505Y-92102696D01*
X172689506Y-92102689D01*
X172699999Y-91999985D01*
X172700000Y-91999972D01*
X172700000Y-91250000D01*
X171548482Y-91250000D01*
X171559111Y-91231591D01*
X171600000Y-91078991D01*
X171600000Y-90921009D01*
X171559111Y-90768409D01*
X171548482Y-90750000D01*
X172700000Y-90750000D01*
X172700000Y-90000027D01*
X172699999Y-90000014D01*
X172689506Y-89897310D01*
X172689505Y-89897303D01*
X172634358Y-89730881D01*
X172634356Y-89730876D01*
X172542315Y-89581655D01*
X172418344Y-89457684D01*
X172269123Y-89365643D01*
X172269118Y-89365641D01*
X172102696Y-89310494D01*
X172102689Y-89310493D01*
X171999985Y-89300000D01*
X171721428Y-89300000D01*
X171654389Y-89280315D01*
X171608634Y-89227511D01*
X171598690Y-89158353D01*
X171627715Y-89094797D01*
X171673976Y-89061439D01*
X171753716Y-89028409D01*
X171753714Y-89028409D01*
X171753726Y-89028405D01*
X171946774Y-88916948D01*
X172123624Y-88781247D01*
X172281247Y-88623624D01*
X172416948Y-88446774D01*
X172528405Y-88253726D01*
X172613710Y-88047781D01*
X172671404Y-87832463D01*
X172700500Y-87611457D01*
X172700500Y-87388543D01*
X172671404Y-87167537D01*
X172613710Y-86952219D01*
X172528405Y-86746274D01*
X172416948Y-86553226D01*
X172281247Y-86376376D01*
X172281242Y-86376370D01*
X172123629Y-86218757D01*
X172123622Y-86218751D01*
X171946782Y-86083058D01*
X171946780Y-86083057D01*
X171946774Y-86083052D01*
X171753726Y-85971595D01*
X171753722Y-85971593D01*
X171547790Y-85886293D01*
X171547783Y-85886291D01*
X171547781Y-85886290D01*
X171332463Y-85828596D01*
X171332457Y-85828595D01*
X171332452Y-85828594D01*
X171111466Y-85799501D01*
X171111463Y-85799500D01*
X171111457Y-85799500D01*
X170888543Y-85799500D01*
X170888537Y-85799500D01*
X170888533Y-85799501D01*
X170667547Y-85828594D01*
X170667540Y-85828595D01*
X170667537Y-85828596D01*
X170558979Y-85857684D01*
X170452219Y-85886290D01*
X170452209Y-85886293D01*
X170246277Y-85971593D01*
X170246273Y-85971595D01*
X170053226Y-86083052D01*
X170053217Y-86083058D01*
X169876377Y-86218751D01*
X169876370Y-86218757D01*
X169718757Y-86376370D01*
X169718751Y-86376377D01*
X169583058Y-86553217D01*
X169583052Y-86553226D01*
X169471595Y-86746273D01*
X169471593Y-86746277D01*
X169386293Y-86952209D01*
X169386290Y-86952219D01*
X169328597Y-87167534D01*
X169328594Y-87167547D01*
X169299501Y-87388533D01*
X169299500Y-87388549D01*
X161100000Y-87388549D01*
X161100000Y-87321009D01*
X161059111Y-87168409D01*
X161048482Y-87150000D01*
X162200000Y-87150000D01*
X162200000Y-86400027D01*
X162199999Y-86400014D01*
X162189506Y-86297310D01*
X162189505Y-86297303D01*
X162134358Y-86130881D01*
X162134356Y-86130876D01*
X162042315Y-85981655D01*
X161918344Y-85857684D01*
X161769123Y-85765643D01*
X161769118Y-85765641D01*
X161602696Y-85710494D01*
X161602689Y-85710493D01*
X161499985Y-85700000D01*
X160750000Y-85700000D01*
X160750000Y-86851517D01*
X160731591Y-86840889D01*
X160578991Y-86800000D01*
X160421009Y-86800000D01*
X160268409Y-86840889D01*
X160250000Y-86851517D01*
X160250000Y-85700000D01*
X159500014Y-85700000D01*
X159397310Y-85710493D01*
X159397303Y-85710494D01*
X159230881Y-85765641D01*
X159230876Y-85765643D01*
X159081655Y-85857684D01*
X158957684Y-85981655D01*
X158865643Y-86130876D01*
X158865641Y-86130881D01*
X158810494Y-86297303D01*
X158810493Y-86297310D01*
X158800000Y-86400014D01*
X158800000Y-87150000D01*
X159951518Y-87150000D01*
X159940889Y-87168409D01*
X159900000Y-87321009D01*
X159900000Y-87478991D01*
X159940889Y-87631591D01*
X159951518Y-87650000D01*
X158800000Y-87650000D01*
X158800000Y-88399985D01*
X158810493Y-88502689D01*
X158810494Y-88502696D01*
X158865641Y-88669118D01*
X158865643Y-88669123D01*
X158957684Y-88818344D01*
X159081655Y-88942315D01*
X159230876Y-89034356D01*
X159230881Y-89034358D01*
X159397303Y-89089505D01*
X159397310Y-89089506D01*
X159500014Y-89099999D01*
X159500027Y-89100000D01*
X159778572Y-89100000D01*
X159845611Y-89119685D01*
X159891366Y-89172489D01*
X159901310Y-89241647D01*
X159872285Y-89305203D01*
X159826024Y-89338561D01*
X159746283Y-89371590D01*
X159746273Y-89371595D01*
X159553226Y-89483052D01*
X159553217Y-89483058D01*
X159376377Y-89618751D01*
X159376370Y-89618757D01*
X159218757Y-89776370D01*
X159218751Y-89776377D01*
X159083058Y-89953217D01*
X159083052Y-89953226D01*
X158971595Y-90146273D01*
X158971593Y-90146277D01*
X158886293Y-90352209D01*
X158886290Y-90352219D01*
X158828597Y-90567534D01*
X158828594Y-90567547D01*
X158799501Y-90788533D01*
X158799500Y-90788549D01*
X131816563Y-90788549D01*
X131791557Y-90711588D01*
X131695051Y-90522184D01*
X131695049Y-90522181D01*
X131695048Y-90522179D01*
X131570109Y-90350213D01*
X131419786Y-90199890D01*
X131247820Y-90074951D01*
X131058414Y-89978444D01*
X131058413Y-89978443D01*
X131058412Y-89978443D01*
X130856243Y-89912754D01*
X130856241Y-89912753D01*
X130856240Y-89912753D01*
X130694957Y-89887208D01*
X130646287Y-89879500D01*
X130433713Y-89879500D01*
X130385042Y-89887208D01*
X130223760Y-89912753D01*
X130021585Y-89978444D01*
X129832179Y-90074951D01*
X129660215Y-90199889D01*
X129546673Y-90313431D01*
X129485350Y-90346915D01*
X129415658Y-90341931D01*
X129359725Y-90300059D01*
X129342810Y-90269082D01*
X129293797Y-90137671D01*
X129293793Y-90137664D01*
X129207547Y-90022455D01*
X129207544Y-90022452D01*
X129092335Y-89936206D01*
X129092328Y-89936202D01*
X128957482Y-89885908D01*
X128957483Y-89885908D01*
X128897883Y-89879501D01*
X128897881Y-89879500D01*
X128897873Y-89879500D01*
X128897864Y-89879500D01*
X127102129Y-89879500D01*
X127102123Y-89879501D01*
X127042516Y-89885908D01*
X126907671Y-89936202D01*
X126907664Y-89936206D01*
X126792455Y-90022452D01*
X126792452Y-90022455D01*
X126706206Y-90137664D01*
X126706202Y-90137671D01*
X126655908Y-90272517D01*
X126649501Y-90332116D01*
X126649500Y-90332135D01*
X126649500Y-92127870D01*
X126649501Y-92127876D01*
X126655908Y-92187483D01*
X126706202Y-92322328D01*
X126706206Y-92322335D01*
X126792452Y-92437544D01*
X126792453Y-92437544D01*
X126792454Y-92437546D01*
X126826738Y-92463211D01*
X126839026Y-92472410D01*
X126880896Y-92528344D01*
X126885880Y-92598036D01*
X126852395Y-92659357D01*
X119713526Y-99798226D01*
X119642334Y-99904774D01*
X119593299Y-100023155D01*
X119593297Y-100023161D01*
X119568300Y-100148828D01*
X119568300Y-109160391D01*
X119548615Y-109227430D01*
X119531981Y-109248072D01*
X118205077Y-110574975D01*
X118143754Y-110608460D01*
X118074062Y-110603476D01*
X118018129Y-110561604D01*
X117994923Y-110506692D01*
X117963553Y-110308631D01*
X117928189Y-110199792D01*
X117890568Y-110084008D01*
X117890566Y-110084005D01*
X117890566Y-110084003D01*
X117783342Y-109873566D01*
X117644517Y-109682490D01*
X117477510Y-109515483D01*
X117442872Y-109490317D01*
X117400207Y-109434989D01*
X117394228Y-109365375D01*
X117426833Y-109303580D01*
X117442873Y-109289682D01*
X117477510Y-109264517D01*
X117644517Y-109097510D01*
X117783343Y-108906433D01*
X117890568Y-108695992D01*
X117963553Y-108471368D01*
X117966586Y-108452219D01*
X118000500Y-108238097D01*
X118000500Y-108001902D01*
X117963553Y-107768631D01*
X117903254Y-107583052D01*
X117890568Y-107544008D01*
X117890566Y-107544005D01*
X117890566Y-107544003D01*
X117810509Y-107386884D01*
X117783343Y-107333567D01*
X117644517Y-107142490D01*
X117477510Y-106975483D01*
X117442872Y-106950317D01*
X117400207Y-106894989D01*
X117394228Y-106825375D01*
X117426833Y-106763580D01*
X117442873Y-106749682D01*
X117477510Y-106724517D01*
X117644517Y-106557510D01*
X117783343Y-106366433D01*
X117890568Y-106155992D01*
X117963553Y-105931368D01*
X117973525Y-105868408D01*
X118000500Y-105698097D01*
X118000500Y-105461902D01*
X117963553Y-105228631D01*
X117906233Y-105052219D01*
X117890568Y-105004008D01*
X117890566Y-105004005D01*
X117890566Y-105004003D01*
X117810200Y-104846277D01*
X117783343Y-104793567D01*
X117644517Y-104602490D01*
X117477510Y-104435483D01*
X117442872Y-104410317D01*
X117400207Y-104354989D01*
X117394228Y-104285375D01*
X117426833Y-104223580D01*
X117442873Y-104209682D01*
X117477510Y-104184517D01*
X117644517Y-104017510D01*
X117783343Y-103826433D01*
X117890568Y-103615992D01*
X117963553Y-103391368D01*
X117965433Y-103379500D01*
X118000500Y-103158097D01*
X118000500Y-102921902D01*
X117963553Y-102688631D01*
X117929689Y-102584412D01*
X117890568Y-102464008D01*
X117890566Y-102464005D01*
X117890566Y-102464003D01*
X117783342Y-102253566D01*
X117770052Y-102235274D01*
X117644517Y-102062490D01*
X117477510Y-101895483D01*
X117442872Y-101870317D01*
X117400207Y-101814989D01*
X117394228Y-101745375D01*
X117426833Y-101683580D01*
X117442873Y-101669682D01*
X117477510Y-101644517D01*
X117644517Y-101477510D01*
X117783343Y-101286433D01*
X117890568Y-101075992D01*
X117963553Y-100851368D01*
X117974824Y-100780205D01*
X118000500Y-100618097D01*
X118000500Y-100381902D01*
X117963553Y-100148631D01*
X117922783Y-100023155D01*
X117890568Y-99924008D01*
X117890566Y-99924005D01*
X117890566Y-99924003D01*
X117802072Y-99750325D01*
X117783343Y-99713567D01*
X117644517Y-99522490D01*
X117477510Y-99355483D01*
X117286433Y-99216657D01*
X117246429Y-99196274D01*
X117075996Y-99109433D01*
X116851368Y-99036446D01*
X116618097Y-98999500D01*
X116618092Y-98999500D01*
X116465783Y-98999500D01*
X116398744Y-98979815D01*
X116378102Y-98963181D01*
X109840179Y-92425258D01*
X114279500Y-92425258D01*
X114279500Y-92654741D01*
X114290704Y-92739836D01*
X114309452Y-92882238D01*
X114309453Y-92882240D01*
X114368842Y-93103887D01*
X114456650Y-93315876D01*
X114456657Y-93315890D01*
X114571392Y-93514617D01*
X114711081Y-93696661D01*
X114711089Y-93696670D01*
X114873330Y-93858911D01*
X114873338Y-93858918D01*
X115055382Y-93998607D01*
X115055385Y-93998608D01*
X115055388Y-93998611D01*
X115254112Y-94113344D01*
X115254117Y-94113346D01*
X115254123Y-94113349D01*
X115345480Y-94151190D01*
X115466113Y-94201158D01*
X115687762Y-94260548D01*
X115915266Y-94290500D01*
X115915273Y-94290500D01*
X116144727Y-94290500D01*
X116144734Y-94290500D01*
X116372238Y-94260548D01*
X116593887Y-94201158D01*
X116805888Y-94113344D01*
X117004612Y-93998611D01*
X117186661Y-93858919D01*
X117186665Y-93858914D01*
X117186670Y-93858911D01*
X117348911Y-93696670D01*
X117348914Y-93696665D01*
X117348919Y-93696661D01*
X117488611Y-93514612D01*
X117603344Y-93315888D01*
X117691158Y-93103887D01*
X117750548Y-92882238D01*
X117780500Y-92654734D01*
X117780500Y-92425266D01*
X117750548Y-92197762D01*
X117691158Y-91976113D01*
X117603344Y-91764112D01*
X117488611Y-91565388D01*
X117488608Y-91565385D01*
X117488607Y-91565382D01*
X117348918Y-91383338D01*
X117348911Y-91383330D01*
X117186670Y-91221089D01*
X117186661Y-91221081D01*
X117004617Y-91081392D01*
X117000458Y-91078991D01*
X116920620Y-91032896D01*
X116805890Y-90966657D01*
X116805876Y-90966650D01*
X116593887Y-90878842D01*
X116372238Y-90819452D01*
X116334215Y-90814446D01*
X116144741Y-90789500D01*
X116144734Y-90789500D01*
X115915266Y-90789500D01*
X115915258Y-90789500D01*
X115698715Y-90818009D01*
X115687762Y-90819452D01*
X115675256Y-90822803D01*
X115466112Y-90878842D01*
X115254123Y-90966650D01*
X115254109Y-90966657D01*
X115055382Y-91081392D01*
X114873338Y-91221081D01*
X114711081Y-91383338D01*
X114571392Y-91565382D01*
X114456657Y-91764109D01*
X114456650Y-91764123D01*
X114368842Y-91976112D01*
X114356110Y-92023629D01*
X114311479Y-92190199D01*
X114309453Y-92197759D01*
X114309451Y-92197770D01*
X114279500Y-92425258D01*
X109840179Y-92425258D01*
X100796823Y-83381902D01*
X112367200Y-83381902D01*
X112367200Y-83618097D01*
X112404146Y-83851368D01*
X112477133Y-84075996D01*
X112584357Y-84286433D01*
X112723183Y-84477510D01*
X112890190Y-84644517D01*
X113081267Y-84783343D01*
X113180691Y-84834002D01*
X113291703Y-84890566D01*
X113291705Y-84890566D01*
X113291708Y-84890568D01*
X113412112Y-84929689D01*
X113516331Y-84963553D01*
X113749603Y-85000500D01*
X113749608Y-85000500D01*
X113985797Y-85000500D01*
X114219068Y-84963553D01*
X114443692Y-84890568D01*
X114654133Y-84783343D01*
X114845210Y-84644517D01*
X115012217Y-84477510D01*
X115151043Y-84286433D01*
X115258268Y-84075992D01*
X115331253Y-83851368D01*
X115347308Y-83750000D01*
X115358516Y-83679240D01*
X115368200Y-83618097D01*
X115368200Y-83381902D01*
X115331253Y-83148631D01*
X115258266Y-82924003D01*
X115171216Y-82753159D01*
X115151042Y-82713566D01*
X115141195Y-82700013D01*
X117367700Y-82700013D01*
X117367700Y-83250000D01*
X118434688Y-83250000D01*
X118401775Y-83307007D01*
X118367700Y-83434174D01*
X118367700Y-83565826D01*
X118401775Y-83692993D01*
X118434688Y-83750000D01*
X117367701Y-83750000D01*
X117367701Y-84299986D01*
X117378194Y-84402697D01*
X117433341Y-84569119D01*
X117433343Y-84569124D01*
X117525384Y-84718345D01*
X117649354Y-84842315D01*
X117798575Y-84934356D01*
X117798580Y-84934358D01*
X117965002Y-84989505D01*
X117965009Y-84989506D01*
X118067719Y-84999999D01*
X118617699Y-84999999D01*
X118617700Y-84999998D01*
X118617700Y-83933012D01*
X118674707Y-83965925D01*
X118801874Y-84000000D01*
X118933526Y-84000000D01*
X119060693Y-83965925D01*
X119117700Y-83933012D01*
X119117700Y-84999999D01*
X119667672Y-84999999D01*
X119667686Y-84999998D01*
X119770397Y-84989505D01*
X119936819Y-84934358D01*
X119936824Y-84934356D01*
X120086045Y-84842315D01*
X120210015Y-84718345D01*
X120302056Y-84569124D01*
X120302058Y-84569119D01*
X120357205Y-84402697D01*
X120357206Y-84402690D01*
X120367699Y-84299986D01*
X120367700Y-84299973D01*
X120367700Y-83750000D01*
X119300712Y-83750000D01*
X119333625Y-83692993D01*
X119367700Y-83565826D01*
X119367700Y-83434174D01*
X119333625Y-83307007D01*
X119300712Y-83250000D01*
X120367699Y-83250000D01*
X120367699Y-82700028D01*
X120367698Y-82700013D01*
X120357205Y-82597302D01*
X120302058Y-82430880D01*
X120302056Y-82430875D01*
X120210015Y-82281654D01*
X120086045Y-82157684D01*
X119936824Y-82065643D01*
X119936819Y-82065641D01*
X119770397Y-82010494D01*
X119770390Y-82010493D01*
X119667686Y-82000000D01*
X119117700Y-82000000D01*
X119117700Y-83066988D01*
X119060693Y-83034075D01*
X118933526Y-83000000D01*
X118801874Y-83000000D01*
X118674707Y-83034075D01*
X118617700Y-83066988D01*
X118617700Y-82000000D01*
X118067728Y-82000000D01*
X118067712Y-82000001D01*
X117965002Y-82010494D01*
X117798580Y-82065641D01*
X117798575Y-82065643D01*
X117649354Y-82157684D01*
X117525384Y-82281654D01*
X117433343Y-82430875D01*
X117433341Y-82430880D01*
X117378194Y-82597302D01*
X117378193Y-82597309D01*
X117367700Y-82700013D01*
X115141195Y-82700013D01*
X115012217Y-82522490D01*
X114845210Y-82355483D01*
X114654133Y-82216657D01*
X114443696Y-82109433D01*
X114219068Y-82036446D01*
X113985797Y-81999500D01*
X113985792Y-81999500D01*
X113749608Y-81999500D01*
X113749603Y-81999500D01*
X113516331Y-82036446D01*
X113291703Y-82109433D01*
X113081266Y-82216657D01*
X112972250Y-82295862D01*
X112890190Y-82355483D01*
X112890188Y-82355485D01*
X112890187Y-82355485D01*
X112723185Y-82522487D01*
X112723185Y-82522488D01*
X112723183Y-82522490D01*
X112668829Y-82597302D01*
X112584357Y-82713566D01*
X112477133Y-82924003D01*
X112404146Y-83148631D01*
X112367200Y-83381902D01*
X100796823Y-83381902D01*
X98036819Y-80621898D01*
X98003334Y-80560575D01*
X98000500Y-80534217D01*
X98000500Y-77200013D01*
X169132300Y-77200013D01*
X169132300Y-77750000D01*
X170199288Y-77750000D01*
X170166375Y-77807007D01*
X170132300Y-77934174D01*
X170132300Y-78065826D01*
X170166375Y-78192993D01*
X170199288Y-78250000D01*
X169132301Y-78250000D01*
X169132301Y-78799986D01*
X169142794Y-78902697D01*
X169197941Y-79069119D01*
X169197943Y-79069124D01*
X169289984Y-79218345D01*
X169413954Y-79342315D01*
X169563175Y-79434356D01*
X169563180Y-79434358D01*
X169729602Y-79489505D01*
X169729609Y-79489506D01*
X169832319Y-79499999D01*
X170382299Y-79499999D01*
X170382300Y-79499998D01*
X170382300Y-78433012D01*
X170439307Y-78465925D01*
X170566474Y-78500000D01*
X170698126Y-78500000D01*
X170825293Y-78465925D01*
X170882300Y-78433012D01*
X170882300Y-79499999D01*
X171432272Y-79499999D01*
X171432286Y-79499998D01*
X171534997Y-79489505D01*
X171701419Y-79434358D01*
X171701424Y-79434356D01*
X171850645Y-79342315D01*
X171974615Y-79218345D01*
X172066656Y-79069124D01*
X172066658Y-79069119D01*
X172121805Y-78902697D01*
X172121806Y-78902690D01*
X172132299Y-78799986D01*
X172132300Y-78799973D01*
X172132300Y-78250000D01*
X171065312Y-78250000D01*
X171098225Y-78192993D01*
X171132300Y-78065826D01*
X171132300Y-77934174D01*
X171118293Y-77881902D01*
X174131800Y-77881902D01*
X174131800Y-78118097D01*
X174168746Y-78351368D01*
X174241733Y-78575996D01*
X174348957Y-78786433D01*
X174487783Y-78977510D01*
X174654790Y-79144517D01*
X174845867Y-79283343D01*
X174945291Y-79334002D01*
X175056303Y-79390566D01*
X175056305Y-79390566D01*
X175056308Y-79390568D01*
X175176712Y-79429689D01*
X175280931Y-79463553D01*
X175514203Y-79500500D01*
X175514208Y-79500500D01*
X175750397Y-79500500D01*
X175983668Y-79463553D01*
X176208292Y-79390568D01*
X176418733Y-79283343D01*
X176609810Y-79144517D01*
X176776817Y-78977510D01*
X176915643Y-78786433D01*
X177022868Y-78575992D01*
X177095853Y-78351368D01*
X177120937Y-78192993D01*
X177132800Y-78118097D01*
X177132800Y-77881902D01*
X177095853Y-77648631D01*
X177022866Y-77424003D01*
X176915642Y-77213566D01*
X176905795Y-77200013D01*
X176776817Y-77022490D01*
X176609810Y-76855483D01*
X176418733Y-76716657D01*
X176208296Y-76609433D01*
X175983668Y-76536446D01*
X175750397Y-76499500D01*
X175750392Y-76499500D01*
X175514208Y-76499500D01*
X175514203Y-76499500D01*
X175280931Y-76536446D01*
X175056303Y-76609433D01*
X174845866Y-76716657D01*
X174736850Y-76795862D01*
X174654790Y-76855483D01*
X174654788Y-76855485D01*
X174654787Y-76855485D01*
X174487785Y-77022487D01*
X174487785Y-77022488D01*
X174487783Y-77022490D01*
X174433429Y-77097302D01*
X174348957Y-77213566D01*
X174241733Y-77424003D01*
X174168746Y-77648631D01*
X174131800Y-77881902D01*
X171118293Y-77881902D01*
X171098225Y-77807007D01*
X171065312Y-77750000D01*
X172132299Y-77750000D01*
X172132299Y-77200028D01*
X172132298Y-77200013D01*
X172121805Y-77097302D01*
X172066658Y-76930880D01*
X172066656Y-76930875D01*
X171974615Y-76781654D01*
X171850645Y-76657684D01*
X171701424Y-76565643D01*
X171701419Y-76565641D01*
X171534997Y-76510494D01*
X171534990Y-76510493D01*
X171432286Y-76500000D01*
X170882300Y-76500000D01*
X170882300Y-77566988D01*
X170825293Y-77534075D01*
X170698126Y-77500000D01*
X170566474Y-77500000D01*
X170439307Y-77534075D01*
X170382300Y-77566988D01*
X170382300Y-76500000D01*
X169832328Y-76500000D01*
X169832312Y-76500001D01*
X169729602Y-76510494D01*
X169563180Y-76565641D01*
X169563175Y-76565643D01*
X169413954Y-76657684D01*
X169289984Y-76781654D01*
X169197943Y-76930875D01*
X169197941Y-76930880D01*
X169142794Y-77097302D01*
X169142793Y-77097309D01*
X169132300Y-77200013D01*
X98000500Y-77200013D01*
X98000500Y-75312162D01*
X98020185Y-75245123D01*
X98072989Y-75199368D01*
X98098552Y-75190907D01*
X98102788Y-75189999D01*
X98102797Y-75189999D01*
X98269334Y-75134814D01*
X98418655Y-75042711D01*
X98542711Y-74918655D01*
X98634814Y-74769334D01*
X98689999Y-74602797D01*
X98700500Y-74500008D01*
X98700500Y-73388549D01*
X103299500Y-73388549D01*
X103299500Y-73611450D01*
X103299501Y-73611466D01*
X103328594Y-73832452D01*
X103328595Y-73832457D01*
X103328596Y-73832463D01*
X103368160Y-73980119D01*
X103386290Y-74047780D01*
X103386293Y-74047790D01*
X103471591Y-74253716D01*
X103471595Y-74253726D01*
X103583052Y-74446774D01*
X103583057Y-74446780D01*
X103583058Y-74446782D01*
X103718751Y-74623622D01*
X103718757Y-74623629D01*
X103876370Y-74781242D01*
X103876376Y-74781247D01*
X104053226Y-74916948D01*
X104246274Y-75028405D01*
X104452219Y-75113710D01*
X104667537Y-75171404D01*
X104888543Y-75200500D01*
X104888550Y-75200500D01*
X105111450Y-75200500D01*
X105111457Y-75200500D01*
X105332463Y-75171404D01*
X105547781Y-75113710D01*
X105753726Y-75028405D01*
X105946774Y-74916948D01*
X106123624Y-74781247D01*
X106281247Y-74623624D01*
X106416948Y-74446774D01*
X106528405Y-74253726D01*
X106541783Y-74221428D01*
X106561439Y-74173976D01*
X106605280Y-74119572D01*
X106671574Y-74097507D01*
X106739273Y-74114786D01*
X106786884Y-74165923D01*
X106800000Y-74221428D01*
X106800000Y-74499985D01*
X106810493Y-74602689D01*
X106810494Y-74602696D01*
X106865641Y-74769118D01*
X106865643Y-74769123D01*
X106957684Y-74918344D01*
X107081655Y-75042315D01*
X107230876Y-75134356D01*
X107230881Y-75134358D01*
X107397303Y-75189505D01*
X107397310Y-75189506D01*
X107500014Y-75199999D01*
X107500027Y-75200000D01*
X108250000Y-75200000D01*
X108250000Y-74048482D01*
X108268409Y-74059111D01*
X108421009Y-74100000D01*
X108578991Y-74100000D01*
X108731591Y-74059111D01*
X108750000Y-74048482D01*
X108750000Y-75200000D01*
X109499973Y-75200000D01*
X109499985Y-75199999D01*
X109602689Y-75189506D01*
X109602696Y-75189505D01*
X109769118Y-75134358D01*
X109769123Y-75134356D01*
X109918344Y-75042315D01*
X110042315Y-74918344D01*
X110134356Y-74769123D01*
X110134358Y-74769118D01*
X110189505Y-74602696D01*
X110189506Y-74602689D01*
X110199999Y-74499985D01*
X110200000Y-74499972D01*
X110200000Y-73750000D01*
X109048482Y-73750000D01*
X109059111Y-73731591D01*
X109100000Y-73578991D01*
X109100000Y-73421009D01*
X109059111Y-73268409D01*
X109048482Y-73250000D01*
X110200000Y-73250000D01*
X110200000Y-72500027D01*
X110199999Y-72500014D01*
X110189506Y-72397310D01*
X110189505Y-72397303D01*
X110134358Y-72230881D01*
X110134356Y-72230876D01*
X110042315Y-72081655D01*
X109918344Y-71957684D01*
X109769123Y-71865643D01*
X109769118Y-71865641D01*
X109602696Y-71810494D01*
X109602689Y-71810493D01*
X109499985Y-71800000D01*
X108750000Y-71800000D01*
X108750000Y-72951517D01*
X108731591Y-72940889D01*
X108578991Y-72900000D01*
X108421009Y-72900000D01*
X108268409Y-72940889D01*
X108250000Y-72951517D01*
X108250000Y-71800000D01*
X107500014Y-71800000D01*
X107397310Y-71810493D01*
X107397303Y-71810494D01*
X107230881Y-71865641D01*
X107230876Y-71865643D01*
X107081655Y-71957684D01*
X106957684Y-72081655D01*
X106865643Y-72230876D01*
X106865641Y-72230881D01*
X106810494Y-72397303D01*
X106810493Y-72397310D01*
X106800000Y-72500014D01*
X106800000Y-72778571D01*
X106780315Y-72845610D01*
X106727511Y-72891365D01*
X106658353Y-72901309D01*
X106594797Y-72872284D01*
X106561439Y-72826024D01*
X106528406Y-72746277D01*
X106528405Y-72746274D01*
X106416948Y-72553226D01*
X106281247Y-72376376D01*
X106281242Y-72376370D01*
X106123629Y-72218757D01*
X106123622Y-72218751D01*
X105946782Y-72083058D01*
X105946780Y-72083057D01*
X105946774Y-72083052D01*
X105753726Y-71971595D01*
X105753722Y-71971593D01*
X105547790Y-71886293D01*
X105547783Y-71886291D01*
X105547781Y-71886290D01*
X105332463Y-71828596D01*
X105332457Y-71828595D01*
X105332452Y-71828594D01*
X105111466Y-71799501D01*
X105111463Y-71799500D01*
X105111457Y-71799500D01*
X104888543Y-71799500D01*
X104888537Y-71799500D01*
X104888533Y-71799501D01*
X104667547Y-71828594D01*
X104667540Y-71828595D01*
X104667537Y-71828596D01*
X104529275Y-71865643D01*
X104452219Y-71886290D01*
X104452209Y-71886293D01*
X104246277Y-71971593D01*
X104246273Y-71971595D01*
X104053226Y-72083052D01*
X104053217Y-72083058D01*
X103876377Y-72218751D01*
X103876370Y-72218757D01*
X103718757Y-72376370D01*
X103718751Y-72376377D01*
X103583058Y-72553217D01*
X103583052Y-72553226D01*
X103471595Y-72746273D01*
X103471593Y-72746277D01*
X103386293Y-72952209D01*
X103386290Y-72952219D01*
X103338228Y-73131592D01*
X103328597Y-73167534D01*
X103328594Y-73167547D01*
X103299501Y-73388533D01*
X103299500Y-73388549D01*
X98700500Y-73388549D01*
X98700500Y-72499992D01*
X98689999Y-72397203D01*
X98634814Y-72230666D01*
X98627468Y-72218757D01*
X98542713Y-72081348D01*
X98542710Y-72081344D01*
X98418655Y-71957289D01*
X98418651Y-71957286D01*
X98269337Y-71865187D01*
X98269335Y-71865186D01*
X98158907Y-71828594D01*
X98102797Y-71810001D01*
X98102795Y-71810000D01*
X98000015Y-71799500D01*
X98000008Y-71799500D01*
X95999992Y-71799500D01*
X95999984Y-71799500D01*
X95897204Y-71810000D01*
X95897203Y-71810001D01*
X95730664Y-71865186D01*
X95730662Y-71865187D01*
X95581348Y-71957286D01*
X95581344Y-71957289D01*
X95457289Y-72081344D01*
X95457286Y-72081348D01*
X95365187Y-72230662D01*
X95365186Y-72230664D01*
X95310001Y-72397203D01*
X95310000Y-72397204D01*
X95299500Y-72499984D01*
X95299500Y-72777364D01*
X95279815Y-72844403D01*
X95227011Y-72890158D01*
X95157853Y-72900102D01*
X95094297Y-72871077D01*
X95060939Y-72824817D01*
X95028406Y-72746277D01*
X95028405Y-72746274D01*
X94916948Y-72553226D01*
X94781247Y-72376376D01*
X94781242Y-72376370D01*
X94623629Y-72218757D01*
X94623622Y-72218751D01*
X94446782Y-72083058D01*
X94446780Y-72083057D01*
X94446774Y-72083052D01*
X94253726Y-71971595D01*
X94253722Y-71971593D01*
X94047790Y-71886293D01*
X94047783Y-71886291D01*
X94047781Y-71886290D01*
X93832463Y-71828596D01*
X93832457Y-71828595D01*
X93832452Y-71828594D01*
X93611466Y-71799501D01*
X93611463Y-71799500D01*
X93611457Y-71799500D01*
X93388543Y-71799500D01*
X93388537Y-71799500D01*
X93388533Y-71799501D01*
X93167547Y-71828594D01*
X93167540Y-71828595D01*
X93167537Y-71828596D01*
X93029275Y-71865643D01*
X92952219Y-71886290D01*
X92952209Y-71886293D01*
X92746277Y-71971593D01*
X92746273Y-71971595D01*
X92553226Y-72083052D01*
X92553217Y-72083058D01*
X92376377Y-72218751D01*
X92376370Y-72218757D01*
X92218757Y-72376370D01*
X92218751Y-72376377D01*
X92083058Y-72553217D01*
X92083052Y-72553226D01*
X91971595Y-72746273D01*
X91971593Y-72746277D01*
X91886293Y-72952209D01*
X91886290Y-72952219D01*
X91838228Y-73131592D01*
X91828597Y-73167534D01*
X91828594Y-73167547D01*
X91799501Y-73388533D01*
X91799500Y-73388549D01*
X91799500Y-73611450D01*
X91799501Y-73611466D01*
X91828594Y-73832452D01*
X91828595Y-73832457D01*
X91828596Y-73832463D01*
X91868160Y-73980119D01*
X91886290Y-74047780D01*
X91886293Y-74047790D01*
X91971591Y-74253716D01*
X91971595Y-74253726D01*
X92083052Y-74446774D01*
X92083057Y-74446780D01*
X92083058Y-74446782D01*
X92218751Y-74623622D01*
X92218757Y-74623629D01*
X92376370Y-74781242D01*
X92376376Y-74781247D01*
X92553226Y-74916948D01*
X92746274Y-75028405D01*
X92952219Y-75113710D01*
X93167537Y-75171404D01*
X93388543Y-75200500D01*
X93388550Y-75200500D01*
X93611450Y-75200500D01*
X93611457Y-75200500D01*
X93832463Y-75171404D01*
X94047781Y-75113710D01*
X94253726Y-75028405D01*
X94446774Y-74916948D01*
X94623624Y-74781247D01*
X94781247Y-74623624D01*
X94916948Y-74446774D01*
X95028405Y-74253726D01*
X95028409Y-74253716D01*
X95060939Y-74175183D01*
X95104780Y-74120779D01*
X95171074Y-74098714D01*
X95238773Y-74115993D01*
X95286384Y-74167130D01*
X95299500Y-74222635D01*
X95299500Y-74500015D01*
X95310000Y-74602795D01*
X95310001Y-74602797D01*
X95316904Y-74623629D01*
X95365186Y-74769335D01*
X95365187Y-74769337D01*
X95457286Y-74918651D01*
X95457289Y-74918655D01*
X95581344Y-75042710D01*
X95581348Y-75042713D01*
X95730662Y-75134812D01*
X95730663Y-75134812D01*
X95730666Y-75134814D01*
X95897203Y-75189999D01*
X95897209Y-75189999D01*
X95901448Y-75190907D01*
X95962884Y-75224185D01*
X95996576Y-75285394D01*
X95999500Y-75312162D01*
X95999500Y-81098541D01*
X95999500Y-81098543D01*
X95999499Y-81098543D01*
X96037947Y-81291829D01*
X96037950Y-81291839D01*
X96113364Y-81473907D01*
X96113371Y-81473920D01*
X96222859Y-81637780D01*
X96222860Y-81637781D01*
X96222861Y-81637782D01*
X96362218Y-81777139D01*
X96362219Y-81777139D01*
X96369286Y-81784206D01*
X96369285Y-81784206D01*
X96369289Y-81784209D01*
X114963181Y-100378101D01*
X114996666Y-100439424D01*
X114999500Y-100465782D01*
X114999500Y-100618097D01*
X115036446Y-100851368D01*
X115109433Y-101075996D01*
X115203626Y-101260859D01*
X115216657Y-101286433D01*
X115355483Y-101477510D01*
X115522490Y-101644517D01*
X115557127Y-101669683D01*
X115569959Y-101686323D01*
X115586289Y-101699556D01*
X115590868Y-101713440D01*
X115599792Y-101725013D01*
X115601590Y-101745947D01*
X115608174Y-101765910D01*
X115604520Y-101780064D01*
X115605771Y-101794626D01*
X115595963Y-101813212D01*
X115590711Y-101833562D01*
X115577730Y-101847768D01*
X115573165Y-101856421D01*
X115568490Y-101860984D01*
X115563086Y-101865988D01*
X115522490Y-101895483D01*
X115413102Y-102004870D01*
X115411360Y-102006484D01*
X115382116Y-102021023D01*
X115353469Y-102036666D01*
X115349876Y-102037052D01*
X115348797Y-102037589D01*
X115346865Y-102037376D01*
X115327111Y-102039500D01*
X92569057Y-102039500D01*
X92502018Y-102019815D01*
X92456263Y-101967011D01*
X92446319Y-101897853D01*
X92469790Y-101841189D01*
X92543796Y-101742331D01*
X92594091Y-101607483D01*
X92600500Y-101547873D01*
X92600499Y-99452128D01*
X92594091Y-99392517D01*
X92580278Y-99355483D01*
X92543797Y-99257671D01*
X92543793Y-99257664D01*
X92457547Y-99142455D01*
X92457544Y-99142452D01*
X92342335Y-99056206D01*
X92342328Y-99056202D01*
X92207482Y-99005908D01*
X92207483Y-99005908D01*
X92147883Y-98999501D01*
X92147881Y-98999500D01*
X92147873Y-98999500D01*
X92147864Y-98999500D01*
X90052129Y-98999500D01*
X90052123Y-98999501D01*
X89992516Y-99005908D01*
X89857671Y-99056202D01*
X89857664Y-99056206D01*
X89742455Y-99142452D01*
X89742452Y-99142455D01*
X89656206Y-99257664D01*
X89656202Y-99257671D01*
X89605908Y-99392517D01*
X89599501Y-99452116D01*
X89599501Y-99452123D01*
X89599500Y-99452135D01*
X89599500Y-101547870D01*
X89599501Y-101547876D01*
X89605908Y-101607483D01*
X89656202Y-101742328D01*
X89656206Y-101742335D01*
X89742452Y-101857544D01*
X89742455Y-101857547D01*
X89857664Y-101943793D01*
X89865454Y-101948047D01*
X89863646Y-101951357D01*
X89905351Y-101982449D01*
X89929897Y-102047865D01*
X89915180Y-102116167D01*
X89906549Y-102129840D01*
X89816659Y-102253563D01*
X89709433Y-102464003D01*
X89636446Y-102688631D01*
X89599500Y-102921902D01*
X89599500Y-103158097D01*
X89636446Y-103391368D01*
X89709433Y-103615996D01*
X89787801Y-103769800D01*
X89816657Y-103826433D01*
X89955483Y-104017510D01*
X90122490Y-104184517D01*
X90157127Y-104209683D01*
X90199792Y-104265013D01*
X90205771Y-104334626D01*
X90173165Y-104396421D01*
X90157130Y-104410315D01*
X90152393Y-104413757D01*
X90122488Y-104435484D01*
X89955485Y-104602487D01*
X89955485Y-104602488D01*
X89955483Y-104602490D01*
X89940064Y-104623713D01*
X89816657Y-104793566D01*
X89709433Y-105004003D01*
X89636446Y-105228631D01*
X89599500Y-105461902D01*
X89599500Y-105698097D01*
X89636446Y-105931368D01*
X89709433Y-106155996D01*
X89810180Y-106353722D01*
X89816657Y-106366433D01*
X89955483Y-106557510D01*
X90122490Y-106724517D01*
X90157127Y-106749683D01*
X90199792Y-106805013D01*
X90205771Y-106874626D01*
X90173165Y-106936421D01*
X90157130Y-106950315D01*
X90139365Y-106963222D01*
X90122488Y-106975484D01*
X89955485Y-107142487D01*
X89955485Y-107142488D01*
X89955483Y-107142490D01*
X89899397Y-107219685D01*
X89816657Y-107333566D01*
X89709433Y-107544003D01*
X89636446Y-107768631D01*
X89599500Y-108001902D01*
X89599500Y-108238097D01*
X89636446Y-108471368D01*
X89709433Y-108695996D01*
X89787903Y-108850000D01*
X89816657Y-108906433D01*
X89955483Y-109097510D01*
X90122490Y-109264517D01*
X90157127Y-109289683D01*
X90199792Y-109345013D01*
X90205771Y-109414626D01*
X90173165Y-109476421D01*
X90157130Y-109490315D01*
X90139365Y-109503222D01*
X90122488Y-109515484D01*
X89955485Y-109682487D01*
X89955485Y-109682488D01*
X89955483Y-109682490D01*
X89903730Y-109753722D01*
X89816657Y-109873566D01*
X89709433Y-110084003D01*
X89636446Y-110308631D01*
X89599500Y-110541902D01*
X89599500Y-110778097D01*
X89636446Y-111011368D01*
X89709433Y-111235996D01*
X89816657Y-111446433D01*
X89955483Y-111637510D01*
X90122490Y-111804517D01*
X90157127Y-111829683D01*
X90199792Y-111885013D01*
X90205771Y-111954626D01*
X90173165Y-112016421D01*
X90157130Y-112030315D01*
X90139365Y-112043222D01*
X90122488Y-112055484D01*
X89955485Y-112222487D01*
X89955485Y-112222488D01*
X89955483Y-112222490D01*
X89895862Y-112304550D01*
X89816657Y-112413566D01*
X89709433Y-112624003D01*
X89636446Y-112848631D01*
X89599500Y-113081902D01*
X89599500Y-113318097D01*
X89636446Y-113551368D01*
X89709433Y-113775996D01*
X89772617Y-113900000D01*
X89816657Y-113986433D01*
X89955483Y-114177510D01*
X90122490Y-114344517D01*
X90157127Y-114369683D01*
X90199792Y-114425013D01*
X90205771Y-114494626D01*
X90173165Y-114556421D01*
X90157130Y-114570315D01*
X90145189Y-114578991D01*
X90122488Y-114595484D01*
X89955485Y-114762487D01*
X89955485Y-114762488D01*
X89955483Y-114762490D01*
X89904643Y-114832465D01*
X89816657Y-114953566D01*
X89709433Y-115164003D01*
X89636446Y-115388631D01*
X89599500Y-115621902D01*
X89599500Y-115858097D01*
X89636446Y-116091368D01*
X89709433Y-116315996D01*
X89816657Y-116526433D01*
X89955483Y-116717510D01*
X90122490Y-116884517D01*
X90157127Y-116909683D01*
X90199792Y-116965013D01*
X90205771Y-117034626D01*
X90173165Y-117096421D01*
X90157130Y-117110315D01*
X90139365Y-117123222D01*
X90122488Y-117135484D01*
X89955485Y-117302487D01*
X89955485Y-117302488D01*
X89955483Y-117302490D01*
X89899793Y-117379140D01*
X89816657Y-117493566D01*
X89709433Y-117704003D01*
X89636446Y-117928631D01*
X89599500Y-118161902D01*
X89599500Y-118398097D01*
X89636446Y-118631368D01*
X89709433Y-118855996D01*
X89816657Y-119066433D01*
X89955483Y-119257510D01*
X90122490Y-119424517D01*
X90157127Y-119449683D01*
X90199792Y-119505013D01*
X90205771Y-119574626D01*
X90173165Y-119636421D01*
X90157130Y-119650315D01*
X90139365Y-119663222D01*
X90122488Y-119675484D01*
X89955485Y-119842487D01*
X89955485Y-119842488D01*
X89955483Y-119842490D01*
X89935363Y-119870183D01*
X89816657Y-120033566D01*
X89709433Y-120244003D01*
X89636446Y-120468631D01*
X89599500Y-120701902D01*
X89599500Y-120938097D01*
X89636446Y-121171368D01*
X89709433Y-121395996D01*
X89816657Y-121606433D01*
X89955483Y-121797510D01*
X90122490Y-121964517D01*
X90157127Y-121989683D01*
X90199792Y-122045013D01*
X90205771Y-122114626D01*
X90173165Y-122176421D01*
X90157130Y-122190315D01*
X90148506Y-122196581D01*
X90122488Y-122215484D01*
X89955485Y-122382487D01*
X89955485Y-122382488D01*
X89955483Y-122382490D01*
X89923602Y-122426370D01*
X89816657Y-122573566D01*
X89709433Y-122784003D01*
X89636446Y-123008631D01*
X89599500Y-123241902D01*
X89599500Y-123478097D01*
X89636446Y-123711368D01*
X89709433Y-123935996D01*
X89809095Y-124131591D01*
X89816657Y-124146433D01*
X89955483Y-124337510D01*
X90122490Y-124504517D01*
X90157127Y-124529683D01*
X90199792Y-124585013D01*
X90205771Y-124654626D01*
X90173165Y-124716421D01*
X90157130Y-124730315D01*
X90139365Y-124743222D01*
X90122488Y-124755484D01*
X89955485Y-124922487D01*
X89955485Y-124922488D01*
X89955483Y-124922490D01*
X89897215Y-125002689D01*
X89816657Y-125113566D01*
X89709433Y-125324003D01*
X89636446Y-125548631D01*
X89599500Y-125781902D01*
X89599500Y-126018097D01*
X89636446Y-126251368D01*
X89709433Y-126475996D01*
X89814190Y-126681592D01*
X89816657Y-126686433D01*
X89955483Y-126877510D01*
X90122490Y-127044517D01*
X90157127Y-127069683D01*
X90199792Y-127125013D01*
X90205771Y-127194626D01*
X90173165Y-127256421D01*
X90157130Y-127270315D01*
X90141611Y-127281591D01*
X90122488Y-127295484D01*
X89955485Y-127462487D01*
X89955485Y-127462488D01*
X89955483Y-127462490D01*
X89906348Y-127530119D01*
X89816657Y-127653566D01*
X89709433Y-127864005D01*
X89668879Y-127988818D01*
X89629441Y-128046494D01*
X89565083Y-128073692D01*
X89550948Y-128074500D01*
X87974499Y-128074500D01*
X87907460Y-128054815D01*
X87861705Y-128002011D01*
X87850499Y-127950500D01*
X87850499Y-127827129D01*
X87850498Y-127827123D01*
X87850497Y-127827116D01*
X87844091Y-127767517D01*
X87831017Y-127732465D01*
X87793797Y-127632671D01*
X87793793Y-127632664D01*
X87707547Y-127517455D01*
X87707544Y-127517452D01*
X87592335Y-127431206D01*
X87592328Y-127431202D01*
X87457482Y-127380908D01*
X87457483Y-127380908D01*
X87397883Y-127374501D01*
X87397881Y-127374500D01*
X87397873Y-127374500D01*
X87397864Y-127374500D01*
X85602129Y-127374500D01*
X85602123Y-127374501D01*
X85542516Y-127380908D01*
X85407671Y-127431202D01*
X85407664Y-127431206D01*
X85292455Y-127517452D01*
X85292452Y-127517455D01*
X85206206Y-127632664D01*
X85206202Y-127632671D01*
X85155908Y-127767517D01*
X85149501Y-127827116D01*
X85149501Y-127827123D01*
X85149500Y-127827135D01*
X82500500Y-127827135D01*
X82500500Y-92425258D01*
X89769500Y-92425258D01*
X89769500Y-92654741D01*
X89780704Y-92739836D01*
X89799452Y-92882238D01*
X89799453Y-92882240D01*
X89858842Y-93103887D01*
X89946650Y-93315876D01*
X89946657Y-93315890D01*
X90061392Y-93514617D01*
X90201081Y-93696661D01*
X90201089Y-93696670D01*
X90363330Y-93858911D01*
X90363338Y-93858918D01*
X90545382Y-93998607D01*
X90545385Y-93998608D01*
X90545388Y-93998611D01*
X90744112Y-94113344D01*
X90744117Y-94113346D01*
X90744123Y-94113349D01*
X90835480Y-94151190D01*
X90956113Y-94201158D01*
X91177762Y-94260548D01*
X91405266Y-94290500D01*
X91405273Y-94290500D01*
X91634727Y-94290500D01*
X91634734Y-94290500D01*
X91862238Y-94260548D01*
X92083887Y-94201158D01*
X92295888Y-94113344D01*
X92494612Y-93998611D01*
X92676661Y-93858919D01*
X92676665Y-93858914D01*
X92676670Y-93858911D01*
X92838911Y-93696670D01*
X92838914Y-93696665D01*
X92838919Y-93696661D01*
X92978611Y-93514612D01*
X93093344Y-93315888D01*
X93181158Y-93103887D01*
X93240548Y-92882238D01*
X93270500Y-92654734D01*
X93270500Y-92425266D01*
X93240548Y-92197762D01*
X93181158Y-91976113D01*
X93093344Y-91764112D01*
X92978611Y-91565388D01*
X92978608Y-91565385D01*
X92978607Y-91565382D01*
X92838918Y-91383338D01*
X92838911Y-91383330D01*
X92676670Y-91221089D01*
X92676661Y-91221081D01*
X92494617Y-91081392D01*
X92490458Y-91078991D01*
X92410620Y-91032896D01*
X92295890Y-90966657D01*
X92295876Y-90966650D01*
X92083887Y-90878842D01*
X91862238Y-90819452D01*
X91824215Y-90814446D01*
X91634741Y-90789500D01*
X91634734Y-90789500D01*
X91405266Y-90789500D01*
X91405258Y-90789500D01*
X91188715Y-90818009D01*
X91177762Y-90819452D01*
X91165256Y-90822803D01*
X90956112Y-90878842D01*
X90744123Y-90966650D01*
X90744109Y-90966657D01*
X90545382Y-91081392D01*
X90363338Y-91221081D01*
X90201081Y-91383338D01*
X90061392Y-91565382D01*
X89946657Y-91764109D01*
X89946650Y-91764123D01*
X89858842Y-91976112D01*
X89846110Y-92023629D01*
X89801479Y-92190199D01*
X89799453Y-92197759D01*
X89799451Y-92197770D01*
X89769500Y-92425258D01*
X82500500Y-92425258D01*
X82500500Y-68504066D01*
X82500765Y-68495956D01*
X82504819Y-68434108D01*
X82517075Y-68247102D01*
X82519190Y-68231048D01*
X82567045Y-67990462D01*
X82571243Y-67974797D01*
X82594337Y-67906762D01*
X82650093Y-67742512D01*
X82656291Y-67727547D01*
X82764790Y-67507533D01*
X82772897Y-67493493D01*
X82909174Y-67289539D01*
X82919039Y-67276681D01*
X83080786Y-67092244D01*
X83092244Y-67080786D01*
X83276681Y-66919039D01*
X83289534Y-66909177D01*
X83493493Y-66772897D01*
X83507533Y-66764790D01*
X83727547Y-66656291D01*
X83742512Y-66650093D01*
X83906762Y-66594337D01*
X83974797Y-66571243D01*
X83990464Y-66567045D01*
X84231048Y-66519190D01*
X84247102Y-66517075D01*
X84495957Y-66500765D01*
X84504067Y-66500500D01*
X84565892Y-66500500D01*
X179434108Y-66500500D01*
X179495933Y-66500500D01*
X179504043Y-66500765D01*
G37*
%TD.AperFunction*%
%TD*%
M02*
