M48
; DRILL file KiCad 10.0.1 date 2026-05-05T21:47:37
; FORMAT={-:-/ absolute / metric / decimal}
; #@! TF.CreationDate,2026-05-05T21:47:37+05:30
; #@! TF.GenerationSoftware,Kicad,Pcbnew,10.0.1
; #@! TF.FileFunction,Plated,1,2,PTH
FMAT,2
METRIC
; #@! TA.AperFunction,Plated,PTH,ViaDrill
T1C0.300
; #@! TA.AperFunction,Plated,PTH,ComponentDrill
T2C1.000
; #@! TA.AperFunction,Plated,PTH,ComponentDrill
T3C1.020
; #@! TA.AperFunction,Plated,PTH,ComponentDrill
T4C1.200
%
G90
G05
T1
X97.441Y-120.259
X130.04Y-134.5
X130.265Y-107.5
T2
X86.5Y-128.725
X86.5Y-131.265
X113.868Y-83.5
X118.868Y-83.5
X127.5Y-123.14
X127.5Y-127.73
X127.5Y-132.32
X127.5Y-136.91
X127.5Y-141.5
X127.725Y-100.14
X127.725Y-104.73
X127.725Y-109.32
X127.725Y-113.91
X127.725Y-118.5
X128.0Y-91.23
X128.0Y-95.82
X130.04Y-123.14
X130.04Y-127.73
X130.04Y-132.32
X130.04Y-136.91
X130.04Y-141.5
X130.265Y-100.14
X130.265Y-104.73
X130.265Y-109.32
X130.265Y-113.91
X130.265Y-118.5
X130.54Y-91.23
X130.54Y-95.82
X170.632Y-78.0
X175.632Y-78.0
T3
X91.1Y-100.5
X91.1Y-103.04
X91.1Y-105.58
X91.1Y-108.12
X91.1Y-110.66
X91.1Y-113.2
X91.1Y-115.74
X91.1Y-118.28
X91.1Y-120.82
X91.1Y-123.36
X91.1Y-125.9
X91.1Y-128.44
X91.1Y-130.98
X91.1Y-133.52
X91.1Y-136.06
X116.5Y-100.5
X116.5Y-103.04
X116.5Y-105.58
X116.5Y-108.12
X116.5Y-110.66
X116.5Y-113.2
X116.5Y-115.74
X116.5Y-118.28
X116.5Y-120.82
X116.5Y-123.36
X116.5Y-125.9
X116.5Y-128.44
X116.5Y-130.98
X116.5Y-133.52
X116.5Y-136.06
T4
X93.5Y-73.5
X97.0Y-73.5
X105.0Y-73.5
X108.5Y-73.5
X160.5Y-87.4
X160.5Y-90.9
X160.5Y-96.45
X160.5Y-99.95
X160.5Y-105.5
X160.5Y-109.0
X160.5Y-114.5
X160.5Y-118.0
X160.5Y-123.9
X160.5Y-127.4
X160.5Y-132.95
X160.5Y-136.45
X171.0Y-87.5
X171.0Y-91.0
X171.0Y-96.55
X171.0Y-100.05
X171.0Y-105.6
X171.0Y-109.1
X171.0Y-114.5
X171.0Y-118.0
X171.0Y-123.55
X171.0Y-127.05
X171.0Y-132.6
X171.0Y-136.1
M30
